<svg id="Layer_1" enable-background="new 0 0 110 110" height="512" viewBox="0 0 110 110" width="512" xmlns="http://www.w3.org/2000/svg" xmlns:x="http://ns.adobe.com/Extensibility/1.0/" xmlns:i="http://ns.adobe.com/AdobeIllustrator/10.0/" xmlns:graph="http://ns.adobe.com/Graphs/1.0/"><g fill="#304551"><path d="m61.8741493 85.4330597c-.0953865 0-.1920204-.0290222-.2761879-.0894623-.2157135-.1554489-.2668343-.4596939-.11409-.67939l7.3760147-10.6075134c.1521225-.2193756.4507523-.2720413.667717-.116272.2157135.1554565.3883362.1781387.2355881.3978348l-7.4975166 10.8890686c-.0935173.1341935-.241272.2057343-.3915253.2057343z"/><path d="m56.3042603 85.4332199c-.0430145 0-.0866585-.0060272-.1302986-.0184021-.2543678-.0731201-.4021263-.342308-.3304291-.6013412l2.9408073-10.6075134c.0710716-.2588806.3347931-.409729.5910301-.3367615.254364.0731277.490406.034729.4187088.2937622l-3.029087 10.9151001c-.059227.2147751-.2512513.3551559-.4607315.3551559z"/><path d="m48.1829834 85.4330597c.0953903 0 .1920242-.0290222.2761879-.0894623.2157135-.1554489.2668381-.4596939.11409-.67939l-7.3760147-10.6075134c-.1521225-.2193756-.4507561-.2720413-.6677132-.116272-.2157135.1554565-.4454689.1781387-.2927246.3978348l7.5546494 10.8890686c.0935172.1341935.2412757.2057343.3915252.2057343z"/><path d="m53.7528725 85.4332199c.0430183 0 .0866585-.0060272.1302986-.0184021.2543678-.0731201.4021263-.342308.3304291-.6013412l-2.9408073-10.6075134c-.0710716-.2588806-.3347893-.409729-.5910263-.3367615-.2543678.0731277-.4738235.0832748-.4021263.342308l3.0125046 10.8665543c.0592269.2147751.2512473.3551559.4607276.3551559z"/></g><path d="m45.8742332 85.2814178v10.9149246c0 1.8191071 1.4747276 3.2939911 3.2938309 3.2939911h11.6638718c1.8191833 0 3.2938347-1.474884 3.2938347-3.2939911v-10.9149246z" fill="#d59247"/><path d="m69.7631912 74.3382568c7.8377762-8.2315368 14.9343033-21.1802139 14.9343033-32.0859718 0-17.5310383-13.2960358-31.7426205-29.6974564-31.7426205-16.401577 0-29.6975365 14.2115822-29.6975365 31.7426205 0 10.9057579 7.0964508 23.854435 14.9343071 32.0859718z" fill="#de594e"/><path d="m65.2705307 74.3382568c4.8166809-8.2315369 7.9799728-21.1802139 7.9799728-32.0859718 0-17.5310383-8.1710358-31.7426205-18.2504807-31.7426205-10.0795403 0-18.2505302 14.2115822-18.2505302 31.7426205 0 10.9057579 3.1632423 23.854435 7.9799767 32.0859718z" fill="#ededed"/><path d="m59.5802727 74.3382568c2.1480637-8.2315369 3.558773-21.1802139 3.558773-32.0859718 0-17.5310383-3.6439781-31.7426205-8.1390343-31.7426205-4.4950981 0-8.1390572 14.2115822-8.1390572 31.7426205 0 10.9057579 1.4106903 23.854435 3.558773 32.0859718z" fill="#de594e"/><path d="m64.7375336 83.168045h-19.475071c-.9817581 0-1.7777214.7960587-1.7777214 1.7777252s.7959633 1.7777176 1.7777214 1.7777176h19.475071c.9817581 0 1.7777252-.796051 1.7777252-1.7777176s-.7959671-1.7777252-1.7777252-1.7777252z" fill="#e7a14e"/></svg>