<svg id="Capa_1" enable-background="new 0 0 512 512" height="512" viewBox="0 0 512 512" width="512" xmlns="http://www.w3.org/2000/svg"><path d="m125.133 201.258h-69.974v-140.818c0-7.378 5.981-13.359 13.359-13.359h43.255c7.378 0 13.359 5.981 13.359 13.359v140.818z" fill="#c6c6c6"/><g fill="#9aa3b1"><path d="m85.299 149.764h-7.997c-4.142 0-7.5-3.358-7.5-7.5s3.358-7.5 7.5-7.5h7.997c4.142 0 7.5 3.358 7.5 7.5s-3.358 7.5-7.5 7.5z"/><path d="m104.388 115.92h-5.645c-4.142 0-7.5-3.358-7.5-7.5s3.358-7.5 7.5-7.5h5.645c4.142 0 7.5 3.358 7.5 7.5s-3.358 7.5-7.5 7.5z"/><path d="m90.473 83.934h-9.173c-4.142 0-7.5-3.358-7.5-7.5s3.358-7.5 7.5-7.5h9.172c4.142 0 7.5 3.358 7.5 7.5.001 4.142-3.357 7.5-7.499 7.5z"/></g><path d="m55.159 243.821 200.841-203.114 200.84 203.114z" fill="#d2996f"/><path d="m61.688 327.136h388.623c15.751 0 28.521-12.769 28.521-28.521v-26.273c0-15.751-12.769-28.521-28.521-28.521h-388.623c-15.751 0-28.521 12.769-28.521 28.521v26.273c.001 15.752 12.77 28.521 28.521 28.521z" fill="#d2996f"/><path d="m61.688 410.451h388.623c15.751 0 28.521-12.769 28.521-28.521v-26.273c0-15.751-12.769-28.521-28.521-28.521h-388.623c-15.751 0-28.521 12.769-28.521 28.521v26.273c.001 15.751 12.77 28.521 28.521 28.521z" fill="#e1b89a"/><path d="m61.688 493.765h388.623c15.751 0 28.521-12.769 28.521-28.521v-26.273c0-15.751-12.769-28.521-28.521-28.521h-388.623c-15.751 0-28.521 12.769-28.521 28.521v26.273c.001 15.752 12.77 28.521 28.521 28.521z" fill="#d2996f"/><path d="m256 262.298c-4.729 0-9.457-1.804-13.065-5.412l-85.44-85.441 26.13-26.13 72.375 72.376 72.375-72.376 26.13 26.13-85.44 85.441c-3.608 3.608-8.336 5.412-13.065 5.412z" fill="#fcf2d0"/><path d="m269.433 204.258-13.433 13.433-13.433-13.433h-52.26l52.628 52.628c3.607 3.608 8.336 5.412 13.065 5.412s9.457-1.804 13.065-5.412l52.628-52.628z" fill="#f6e3a3"/><path d="m55.159 225.344h401.681v36.954h-401.681z" fill="#fcf2d0"/><path d="m295.181 34.464 206.203 206.203c6.798 6.798 10.617 16.017 10.617 25.631v29.053c0 12.395-14.986 18.603-23.751 9.838l-222.205-222.205c-5.547-5.548-14.542-5.548-20.089 0l-222.205 222.205c-8.765 8.764-23.751 2.557-23.751-9.838v-29.053c0-9.613 3.819-18.833 10.617-25.631l206.202-206.203c21.639-21.639 56.723-21.639 78.362 0z" fill="#8eafe2"/><path d="m202.742 126.198c-6.678-21.868-8.529-51.264-3.493-74.164l-188.632 188.633c-6.798 6.797-10.617 16.017-10.617 25.63v29.053c0 12.395 14.986 18.603 23.751 9.838z" fill="#6a96d7"/><path d="m214.444 300.96h-86.823c-15.152 0-27.435 12.283-27.435 27.435v165.371h141.692v-165.371c.001-15.152-12.282-27.435-27.434-27.435z" fill="#fcf2d0"/><path d="m120.187 493.765v-165.37c0-4.1 3.335-7.435 7.435-7.435h86.822c4.1 0 7.435 3.335 7.435 7.435v165.371h-101.692z" fill="#f6e3a3"/><circle cx="200.742" cy="394.215" fill="#6a96d7" r="15.622"/><path d="m394.645 368.793h-87.591c-7.94 0-14.376-6.436-14.376-14.376v-39.081c0-7.94 6.436-14.376 14.376-14.376h87.591c7.94 0 14.376 6.436 14.376 14.376v39.081c0 7.94-6.436 14.376-14.376 14.376z" fill="#6a96d7"/><path d="m409.021 317.233v-1.897c0-7.94-6.436-14.376-14.376-14.376h-50.894l-51.073 51.073v2.384c0 7.94 6.436 14.376 14.376 14.376h50.406z" fill="#8eafe2"/></svg>