<svg id="Capa_1" enable-background="new 0 0 509.593 509.593" height="512" viewBox="0 0 509.593 509.593" width="512" xmlns="http://www.w3.org/2000/svg"><g><g><g><path d="m172.437 69.908h161.38v242.637h-161.38z" fill="#fedba6"/></g></g><g><g><path d="m303.817 69.908h30v242.637h-30z" fill="#fed18e"/></g></g><g><g><path d="m75.515 186.442h101.784v126.103h-101.784z" fill="#fedba6"/></g></g><g><g><path d="m147.299 186.442h30v126.103h-30z" fill="#fed18e"/></g></g><g><g><path d="m111.591 312.545h284.087v189.548h-284.087z" fill="#fedba6"/></g></g><g><g><path d="m365.678 312.545h30v189.548h-30z" fill="#fed18e"/></g></g><g><g><path d="m110.944 229.788v10.086c0 4.399-3.566 7.965-7.965 7.965h-5.001c-4.399 0-7.965-3.566-7.965-7.965v-10.086c0-5.008-4.06-9.068-9.068-9.068h-12.019c-5.008 0-9.068 4.06-9.068 9.068v10.086c0 4.399-3.566 7.965-7.965 7.965h-5.002c-4.399 0-7.965-3.566-7.965-7.965v-10.086c0-5.008-4.06-9.068-9.068-9.068h-12.017c-5.008 0-9.068 4.06-9.068 9.068v18.051 19.4c0 10.739 8.706 19.444 19.444 19.444h93.438c10.739 0 19.444-8.706 19.444-19.444v-19.4-18.051c0-5.008-4.06-9.068-9.068-9.068h-12.019c-5.008 0-9.068 4.059-9.068 9.068z" fill="#fed18e"/></g></g><g><g><path d="m37.423 286.683h75.025v215.41h-75.025z" fill="#fedba6"/></g></g><g><g><path d="m82.448 286.683h30v215.41h-30z" fill="#fed18e"/></g></g><g><g><path d="m333.817 186.442h101.784v126.103h-101.784z" fill="#fedba6"/></g></g><g><g><path d="m405.601 186.442h30v126.103h-30z" fill="#fed18e"/></g></g><g><g><path d="m420.717 128.678v10.086c0 4.399-3.566 7.965-7.965 7.965h-5.001c-4.399 0-7.965-3.566-7.965-7.965v-10.086c0-5.008-4.06-9.068-9.068-9.068h-12.019c-5.008 0-9.068 4.06-9.068 9.068v10.086c0 4.399-3.566 7.965-7.965 7.965h-5.002c-4.399 0-7.965-3.566-7.965-7.965v-10.086c0-5.008-4.06-9.068-9.068-9.068h-12.019c-5.008 0-9.068 4.06-9.068 9.068v18.051 19.4c0 10.739 8.706 19.444 19.444 19.444h93.438c10.739 0 19.444-8.706 19.444-19.444v-19.4-18.051c0-5.008-4.06-9.068-9.068-9.068h-12.019c-5.006 0-9.066 4.06-9.066 9.068z" fill="#fed18e"/></g></g><g><g><path d="m86.429 372.17h-21.827c-1.415 0-2.573-1.158-2.573-2.573v-30.822c0-7.418 6.069-13.486 13.486-13.486 7.418 0 13.486 6.069 13.486 13.486v30.822c.001 1.415-1.157 2.573-2.572 2.573z" fill="#3e5959"/></g></g><g><path d="m86.429 372.17h-21.827c-1.415 0-2.573-1.158-2.573-2.573v-30.822c0-7.418 6.069-13.486 13.486-13.486 7.418 0 13.486 6.069 13.486 13.486v30.822c.001 1.415-1.157 2.573-2.572 2.573z" fill="#c99c56"/></g><g><g><path d="m470.666 229.788v10.086c0 4.399-3.566 7.965-7.965 7.965h-5.001c-4.399 0-7.965-3.566-7.965-7.965v-10.086c0-5.008-4.06-9.068-9.068-9.068h-12.019c-5.008 0-9.068 4.06-9.068 9.068v10.086c0 4.399-3.566 7.965-7.965 7.965h-5.002c-4.399 0-7.965-3.566-7.965-7.965v-10.086c0-5.008-4.06-9.068-9.068-9.068h-12.019c-5.008 0-9.068 4.06-9.068 9.068v18.051 19.4c0 10.739 8.706 19.444 19.444 19.444h93.438c10.739 0 19.444-8.706 19.444-19.444v-19.4-18.051c0-5.008-4.06-9.068-9.068-9.068h-12.019c-5.006 0-9.066 4.059-9.066 9.068z" fill="#fed18e"/></g></g><g><g><path d="m397.145 286.683h75.025v215.41h-75.025z" fill="#fedba6"/></g></g><g><g><path d="m442.17 286.683h30v215.41h-30z" fill="#fed18e"/></g></g><g><g><path d="m446.151 372.17h-21.828c-1.415 0-2.573-1.158-2.573-2.573v-30.822c0-7.418 6.069-13.486 13.486-13.486 7.418 0 13.486 6.069 13.486 13.486v30.822c.001 1.415-1.156 2.573-2.571 2.573z" fill="#a74b30"/></g></g><g><path d="m446.151 372.17h-21.828c-1.415 0-2.573-1.158-2.573-2.573v-30.822c0-7.418 6.069-13.486 13.486-13.486 7.418 0 13.486 6.069 13.486 13.486v30.822c.001 1.415-1.156 2.573-2.571 2.573z" fill="#c99c56"/></g><g><g><path d="m339.299 502.093h-162v-43.698c0-44.735 36.265-81 81-81 44.735 0 81 36.265 81 81z" fill="#d6694b"/></g></g><g><g><path d="m258.299 377.396c-5.128 0-10.137.498-15 1.409 37.565 7.037 66 39.983 66 79.591v43.698h30v-43.698c0-44.735-36.265-81-81-81z" fill="#c4573a"/></g></g><g><g><path d="m277.037 248.05h-43.135c-3.895 0-7.052-3.157-7.052-7.052v-57.3c0-15.806 12.813-28.619 28.619-28.619 15.806 0 28.619 12.813 28.619 28.619v57.3c.001 3.894-3.157 7.052-7.051 7.052z" fill="#c99c56"/></g></g><g><g><path d="m208.687 236.453h92.154v33.034h-92.154z" fill="#fec165"/></g></g><g><g><path d="m361.381 7.5h-12.019c-5.008 0-9.068 4.06-9.068 9.068v10.086c0 4.399-3.566 7.965-7.965 7.965h-5.002c-4.399 0-7.965-3.566-7.965-7.965v-10.086c0-5.008-4.06-9.068-9.068-9.068h-12.019c-5.008 0-9.068 4.06-9.068 9.068v10.086c0 4.399-3.566 7.965-7.965 7.965h-5.001c-4.399 0-7.965-3.566-7.965-7.965v-10.086c0-5.008-4.06-9.068-9.068-9.068h-1.815-10.204-1.815c-5.008 0-9.068 4.06-9.068 9.068v10.086c0 4.399-3.566 7.965-7.965 7.965h-5.001c-4.399 0-7.965-3.566-7.965-7.965v-10.086c0-5.008-4.06-9.068-9.068-9.068h-12.017c-5.008 0-9.068 4.06-9.068 9.068v10.086c0 4.399-3.566 7.965-7.965 7.965h-5.001c-4.399 0-7.965-3.566-7.965-7.965v-10.086c0-5.008-4.06-9.068-9.068-9.068h-12.019c-5.008 0-9.068 4.06-9.068 9.068v18.051 19.4c0 10.739 8.706 19.445 19.445 19.445h197.424c10.739 0 19.444-8.706 19.444-19.445v-19.4-18.051c0-5.008-4.06-9.068-9.068-9.068z" fill="#fed18e"/></g></g><g><g><path d="m157.345 128.678v10.086c0 4.399-3.566 7.965-7.965 7.965h-5.001c-4.399 0-7.965-3.566-7.965-7.965v-10.086c0-5.008-4.06-9.068-9.068-9.068h-12.019c-5.008 0-9.068 4.06-9.068 9.068v10.086c0 4.399-3.566 7.965-7.965 7.965h-5.002c-4.399 0-7.965-3.566-7.965-7.965v-10.086c0-5.008-4.06-9.068-9.068-9.068h-12.017c-5.008 0-9.068 4.06-9.068 9.068v18.051 19.4c0 10.739 8.706 19.444 19.444 19.444h93.438c10.739 0 19.444-8.706 19.444-19.444v-19.4-18.051c0-5.008-4.06-9.068-9.068-9.068h-12.019c-5.008 0-9.068 4.06-9.068 9.068z" fill="#fed18e"/></g></g><g><path d="m86.429 379.67c5.554 0 10.073-4.519 10.073-10.073v-30.822c0-11.572-9.415-20.986-20.986-20.986s-20.986 9.415-20.986 20.986v30.822c0 5.554 4.519 10.073 10.072 10.073zm-16.9-40.895c0-3.301 2.686-5.986 5.986-5.986s5.986 2.686 5.986 5.986v25.895h-11.972z"/><path d="m414.25 338.775v30.822c0 5.554 4.519 10.073 10.073 10.073h21.827c5.554 0 10.072-4.519 10.072-10.073v-30.822c0-11.572-9.414-20.986-20.986-20.986s-20.986 9.414-20.986 20.986zm26.973 0v25.895h-11.973v-25.895c0-3.301 2.686-5.986 5.986-5.986s5.987 2.685 5.987 5.986z"/><path d="m161.025 347.542h-9.854c-4.142 0-7.5 3.358-7.5 7.5s3.358 7.5 7.5 7.5h9.854c4.142 0 7.5-3.358 7.5-7.5s-3.358-7.5-7.5-7.5z"/><path d="m339.98 356.229h9.854c4.143 0 7.5-3.358 7.5-7.5s-3.357-7.5-7.5-7.5h-9.854c-4.143 0-7.5 3.358-7.5 7.5s3.357 7.5 7.5 7.5z"/><path d="m491.752 213.22h-12.019c-9.136 0-16.568 7.432-16.568 16.568v10.086c0 .256-.209.465-.465.465h-5c-.256 0-.465-.208-.465-.465v-10.086c0-8.307-6.151-15.185-14.134-16.368v-23.008c9.028-4.358 15.271-13.605 15.271-24.282v-37.451c0-9.135-7.432-16.568-16.567-16.568h-12.019c-9.136 0-16.568 7.432-16.568 16.568v10.086c0 .256-.209.465-.465.465h-5.002c-.256 0-.465-.208-.465-.465v-10.086c0-9.135-7.432-16.568-16.567-16.568h-12.019c-9.136 0-16.568 7.432-16.568 16.568v10.086c0 .256-.209.465-.465.465h-5.001c-.256 0-.465-.208-.465-.465v-10.086c0-8.567-6.536-15.636-14.884-16.483v-31.232h9.688c14.857 0 26.944-12.087 26.944-26.945v-37.451c0-9.136-7.432-16.568-16.568-16.568h-12.02c-9.136 0-16.567 7.432-16.567 16.568v10.086c0 .256-.209.465-.465.465h-5.002c-.256 0-.465-.208-.465-.465v-10.086c.001-9.136-7.431-16.568-16.567-16.568h-12.019c-9.136 0-16.568 7.432-16.568 16.568v10.086c0 .256-.209.465-.465.465h-5.001c-.256 0-.465-.208-.465-.465v-10.086c.001-9.136-7.432-16.568-16.568-16.568h-13.833c-9.136 0-16.568 7.432-16.568 16.568v10.086c0 .256-.208.465-.465.465h-5.001c-.256 0-.465-.208-.465-.465v-10.086c0-9.136-7.433-16.568-16.568-16.568h-12.019c-9.136 0-16.568 7.432-16.568 16.568v10.086c0 .256-.208.465-.465.465h-5.001c-.256 0-.465-.208-.465-.465v-10.086c0-9.136-7.433-16.568-16.568-16.568h-12.019c-9.136 0-16.568 7.432-16.568 16.568v37.451c0 14.857 12.087 26.945 26.944 26.945h11.356v31.221c-8.445.751-15.091 7.856-15.091 16.493v10.086c0 .256-.208.465-.465.465h-5.001c-.256 0-.465-.208-.465-.465v-10.086c0-9.135-7.432-16.568-16.568-16.568h-12.019c-9.136 0-16.568 7.432-16.568 16.568v10.086c0 .256-.208.465-.465.465h-5.002c-.256 0-.465-.208-.465-.465v-10.086c0-9.135-7.432-16.568-16.568-16.568h-12.017c-9.136 0-16.568 7.432-16.568 16.568v37.451c0 12.579 8.667 23.171 20.342 26.123v21.014c-8.711.477-15.657 7.693-15.657 16.522v10.086c0 .256-.208.465-.465.465h-5.001c-.256 0-.465-.208-.465-.465v-10.086c0-9.136-7.432-16.568-16.568-16.568h-12.02c-9.136 0-16.568 7.432-16.568 16.568v37.451c0 14.857 12.087 26.944 26.944 26.944h1.707v63.108c0 4.142 3.358 7.5 7.5 7.5s7.5-3.358 7.5-7.5v-63.108h60.025v146.008h-13.066c-4.142 0-7.5 3.358-7.5 7.5s3.358 7.5 7.5 7.5h13.066v39.402h-60.025v-11.238h13.066c4.142 0 7.5-3.358 7.5-7.5s-3.358-7.5-7.5-7.5h-13.066v-33.174h13.066c4.142 0 7.5-3.358 7.5-7.5s-3.358-7.5-7.5-7.5h-13.066v-32.89c0-4.142-3.358-7.5-7.5-7.5s-7.5 3.358-7.5 7.5v114.802c0 4.142 3.358 7.5 7.5 7.5h434.746c4.143 0 7.5-3.358 7.5-7.5v-71.877c0-4.142-3.357-7.5-7.5-7.5s-7.5 3.358-7.5 7.5v9.975h-13.065c-4.143 0-7.5 3.358-7.5 7.5s3.357 7.5 7.5 7.5h13.065v39.402h-60.024v-11.238h13.065c4.143 0 7.5-3.358 7.5-7.5s-3.357-7.5-7.5-7.5h-13.065v-33.174h13.065c4.143 0 7.5-3.358 7.5-7.5s-3.357-7.5-7.5-7.5h-13.065v-125.998h60.024v106.033c0 4.142 3.357 7.5 7.5 7.5s7.5-3.358 7.5-7.5v-106.033h1.707c14.857 0 26.944-12.087 26.944-26.944v-37.451c.001-9.136-7.432-16.568-16.568-16.568zm-135.086-58.991h5.001c8.527 0 15.465-6.938 15.465-15.465v-10.086c0-.865.703-1.568 1.568-1.568h12.019c.864 0 1.567.703 1.567 1.568v10.086c0 8.527 6.938 15.465 15.465 15.465h5.002c8.527 0 15.465-6.938 15.465-15.465v-10.086c0-.865.703-1.568 1.568-1.568h12.019c.864 0 1.567.703 1.567 1.568v37.451c0 6.586-5.358 11.944-11.944 11.944h-93.438c-6.586 0-11.944-5.358-11.944-11.944v-37.451c0-.865.703-1.568 1.568-1.568h12.019c.865 0 1.568.703 1.568 1.568v10.086c0 8.528 6.937 15.465 15.465 15.465zm-215.03-100.21v-37.451c0-.865.703-1.568 1.568-1.568h12.019c.865 0 1.568.703 1.568 1.568v10.086c0 8.527 6.938 15.465 15.465 15.465h5.001c8.527 0 15.465-6.938 15.465-15.465v-10.086c0-.865.703-1.568 1.568-1.568h12.019c.865 0 1.568.703 1.568 1.568v10.086c0 8.527 6.938 15.465 15.465 15.465h5.001c8.527 0 15.465-6.938 15.465-15.465v-10.086c0-.865.703-1.568 1.568-1.568h13.833c.865 0 1.568.703 1.568 1.568v10.086c0 8.527 6.938 15.465 15.465 15.465h5.001c8.527 0 15.465-6.938 15.465-15.465v-10.086c0-.865.703-1.568 1.568-1.568h12.019c.864 0 1.567.703 1.567 1.568v10.086c0 8.527 6.938 15.465 15.465 15.465h5.002c8.527 0 15.465-6.938 15.465-15.465v-10.086c0-.865.703-1.568 1.567-1.568h12.02c.864 0 1.567.703 1.567 1.568v37.451c0 6.586-5.358 11.945-11.944 11.945h-197.423c-6.586 0-11.945-5.359-11.945-11.945zm50.795 26.945v8.287c0 4.142 3.358 7.5 7.5 7.5s7.5-3.358 7.5-7.5v-8.287h20.569v8.287c0 4.142 3.358 7.5 7.5 7.5s7.5-3.358 7.5-7.5v-8.287h20.569v8.287c0 4.142 3.357 7.5 7.5 7.5s7.5-3.358 7.5-7.5v-8.287h20.568v8.287c0 4.142 3.357 7.5 7.5 7.5s7.5-3.358 7.5-7.5v-8.287h12.18v31.212c-8.53.666-15.271 7.804-15.271 16.502v37.451c0 10.678 6.243 19.925 15.271 24.282v114.634h-77.534c-4.142 0-7.5 3.358-7.5 7.5s3.358 7.5 7.5 7.5h85.034 55.828v61.915c-.003 0-.006 0-.009 0h-9.854c-4.143 0-7.5 3.358-7.5 7.5s3.357 7.5 7.5 7.5h9.854.009v97.634h-42.846v-36.198c0-48.799-39.701-88.5-88.5-88.5s-88.5 39.701-88.5 88.5v36.198h-49.851v-79.774h6.316c4.142 0 7.5-3.358 7.5-7.5s-3.358-7.5-7.5-7.5h-6.316v-79.774h98.834c4.142 0 7.5-3.358 7.5-7.5s-3.358-7.5-7.5-7.5h-38.846v-114.74c8.914-4.399 15.063-13.581 15.063-24.176v-37.451c0-8.628-6.631-15.728-15.063-16.492v-31.223zm-129.757 85.165v-37.451c0-.865.703-1.568 1.568-1.568h12.018c.865 0 1.568.703 1.568 1.568v10.086c0 8.527 6.938 15.465 15.465 15.465h5.002c8.527 0 15.465-6.938 15.465-15.465v-10.086c0-.865.703-1.568 1.568-1.568h12.019c.865 0 1.568.703 1.568 1.568v10.086c0 8.527 6.938 15.465 15.465 15.465h5.001c8.527 0 15.465-6.938 15.465-15.465v-10.086c0-.865.704-1.568 1.568-1.568h12.019c.865 0 1.568.703 1.568 1.568v37.451c0 6.586-5.358 11.944-11.944 11.944h-93.439c-6.586 0-11.944-5.358-11.944-11.944zm-46.402 101.11v-37.451c0-.865.703-1.568 1.568-1.568h12.019c.865 0 1.568.703 1.568 1.568v10.086c0 8.527 6.938 15.465 15.465 15.465h5.001c8.527 0 15.465-6.938 15.465-15.465v-10.086c0-.865.703-1.568 1.568-1.568h12.019c.865 0 1.568.703 1.568 1.568v10.086c0 8.527 6.938 15.465 15.465 15.465h5.001c8.527 0 15.465-6.938 15.465-15.465v-10.086c0-.865.703-1.568 1.568-1.568h12.019c.865 0 1.568.703 1.568 1.568v37.451c0 6.586-5.358 11.944-11.944 11.944h-93.438c-6.586 0-11.945-5.358-11.945-11.944zm105.383 26.944c14.857 0 26.944-12.087 26.944-26.944v-37.451c0-9.136-7.432-16.568-16.568-16.568h-12.019c-9.136 0-16.568 7.432-16.568 16.568v10.086c0 .256-.208.465-.465.465h-5.001c-.256 0-.465-.208-.465-.465v-10.086c0-8.433-6.338-15.4-14.498-16.424v-19.422h81.921v111.103h-44.988v-10.862zm63.144 164.213c0-37.996 28.982-69.351 66-73.12v109.317h-66zm81 36.197v-109.317c37.019 3.769 66 35.123 66 73.12v36.198h-66zm123.846-189.548h-48.328v-111.103h86.784v19.306c-8.881.292-16.021 7.589-16.021 16.54v10.086c0 .256-.209.465-.465.465h-5.001c-.256 0-.465-.208-.465-.465v-10.086c0-9.136-7.433-16.568-16.568-16.568h-12.019c-9.136 0-16.568 7.432-16.568 16.568v37.451c0 14.857 12.088 26.944 26.945 26.944h1.706zm103.676-37.806c0 6.586-5.358 11.944-11.944 11.944h-93.438c-6.587 0-11.945-5.358-11.945-11.944v-37.451c0-.865.703-1.568 1.568-1.568h12.019c.865 0 1.568.703 1.568 1.568v10.086c0 8.527 6.938 15.465 15.465 15.465h5.001c8.527 0 15.465-6.938 15.465-15.465v-10.086c0-.865.703-1.568 1.568-1.568h12.019c.865 0 1.568.703 1.568 1.568v10.086c0 8.527 6.938 15.465 15.465 15.465h5.001c8.527 0 15.465-6.938 15.465-15.465v-10.086c0-.865.703-1.568 1.568-1.568h12.019c.865 0 1.568.703 1.568 1.568z"/><path d="m208.687 276.986h92.155c4.143 0 7.5-3.358 7.5-7.5v-33.034c0-4.142-3.357-7.5-7.5-7.5h-9.253v-45.255c0-19.916-16.203-36.119-36.119-36.119s-36.119 16.203-36.119 36.119v45.255h-10.664c-4.142 0-7.5 3.358-7.5 7.5v33.034c0 4.142 3.357 7.5 7.5 7.5zm25.663-93.289c0-11.645 9.474-21.119 21.119-21.119 11.646 0 21.119 9.474 21.119 21.119v45.255h-42.238zm-18.163 60.256h77.155v18.034h-77.155z"/></g></g></svg>