<svg id="_x33_0" enable-background="new 0 0 64 64" height="512" viewBox="0 0 64 64" width="512" xmlns="http://www.w3.org/2000/svg"><g><g><g><path d="m46 32h2v6h-2v2h-4v-2h-2v-8h7.33z" fill="#838f9b"/></g><g><path d="m16.67 30h7.33v8h-2v2h-4v-2h-2v-6h2z" fill="#838f9b"/></g><g><path d="m60 32v12h-2v2h-4v-2h-4v-6h-2v-6z" fill="#ccd1d9"/></g><g><path d="m16 32v6h-2v6h-4v2h-4v-2h-2v-12z" fill="#ccd1d9"/></g><g><path d="m40 22v8 8h-2v2h-4v-2-5c0-.55-.45-1-1-1h-2c-.55 0-1 .45-1 1v5 2h-4v-2h-2v-8-8-2h16zm-6 5v-2c0-.55-.45-1-1-1h-2c-.55 0-1 .45-1 1v2c0 .55.45 1 1 1h2c.55 0 1-.45 1-1z" fill="#ccd1d9"/></g><g><path d="m47.6 29.6-.27.4h-7.33v-8z" fill="#ef7385"/></g><g><path d="m24 22v8h-7.33l-.27-.4z" fill="#ef7385"/></g><g><path d="m34 25v2c0 .55-.45 1-1 1h-2c-.55 0-1-.45-1-1v-2c0-.55.45-1 1-1h2c.55 0 1 .45 1 1z" fill="#b27946"/></g><g><path d="m34 33v5h-4v-5c0-.55.45-1 1-1h2c.55 0 1 .45 1 1z" fill="#b27946"/></g><g><path d="m14 55v7h-4v-7c0-.55.45-1 1-1h2c.55 0 1 .45 1 1z" fill="#b27946"/></g><g><path d="m54 55v7h-4v-7c0-.55.45-1 1-1h2c.55 0 1 .45 1 1z" fill="#b27946"/></g><g><path d="m37.9 54c-.4-1.96-1.94-3.5-3.9-3.9-.32-.07-.66-.1-1-.1h-2c-.34 0-.68.03-1 .1-1.96.4-3.5 1.94-3.9 3.9-.07.32-.1.66-.1 1v3 4h4 4 4v-4-3c0-.34-.03-.68-.1-1z" fill="#b27946"/></g><g><path d="m42 49c0 .55.45 1 1 1h1v12h-6v-4-3c0-.34-.03-.68-.1-1-.4-1.96-1.94-3.5-3.9-3.9-.32-.07-.66-.1-1-.1h-2c-.34 0-.68.03-1 .1-1.96.4-3.5 1.94-3.9 3.9-.07.32-.1.66-.1 1v3 4h-6v-12h1c.55 0 1-.45 1-1v-3h20z" fill="#656d78"/></g><g><path d="m60 50v12h-6v-7c0-.55-.45-1-1-1h-2c-.55 0-1 .45-1 1v7h-6v-12z" fill="#969faa"/></g><g><path d="m20 50v12h-6v-7c0-.55-.45-1-1-1h-2c-.55 0-1 .45-1 1v7h-6v-12z" fill="#969faa"/></g><g><path d="m50 46h-4v-2h-4v2h-20v-2h-4v2h-4v-2-6h2 2v2h4v-2h2 2v2h4v-2h4v2h4v-2h2 2v2h4v-2h2 2v6z" fill="#969faa"/></g><g><path d="m60 44h2v5c0 .55-.45 1-1 1h-1-16-1c-.55 0-1-.45-1-1v-3-2h4v2h4v-2h4v2h4v-2z" fill="#ccd1d9"/></g><g><path d="m14 44v2h4v-2h4v2 3c0 .55-.45 1-1 1h-1-16-1c-.55 0-1-.45-1-1v-5h2 2v2h4v-2z" fill="#ccd1d9"/></g><g><path d="m59 16-5 2v-5z" fill="#fcd770"/></g><g><path d="m47.6 29.6 6.4-9.6 8 12h-2-12-2l1.33-2z" fill="#ef7385"/></g><g><path d="m10 13v5l-5-2z" fill="#fcd770"/></g><g><path d="m32 2v5l-5-2z" fill="#fcd770"/></g><g><path d="m32 9 10 11h-2-16-2z" fill="#ef7385"/></g><g><path d="m16.67 30 1.33 2h-2-12-2l8-12 6.4 9.6z" fill="#ef7385"/></g></g><g><path d="m31 29h2c1.103 0 2-.897 2-2v-2c0-1.103-.897-2-2-2h-2c-1.103 0-2 .897-2 2v2c0 1.103.897 2 2 2zm0-4h2l.001 2h-2.001z"/><path d="m61 33h2.869l-8.869-13.303v-1.02l6.243-2.498-8.243-4.945v8.463l-5.556 8.333-6.444-6.444v-.586h3.261l-11.261-12.387v-8.379l-8.243 4.946 6.243 2.497v.936l-11.261 12.387h3.261v.586l-6.444 6.444-5.556-8.333v-8.463l-8.243 4.946 6.243 2.497v1.02l-8.869 13.303h2.869v10h-2v6c0 1.103.897 2 2 2v12h58v-12c1.103 0 2-.897 2-2v-6h-2zm-6-18.234 1.757 1.054-1.757.703zm4 28.234h-2v2h-2v-2h-4v-6h-2v-4h10zm-18 0v2h-18v-2h-6v2h-2v-1-1-4h2v2h6v-2h2v2h6v-2h2v2h6v-2h2v2h6v-2h2v4 1 1h-2v-2zm2 18h-4v-6c0-3.309-2.691-6-6-6h-2c-3.309 0-6 2.691-6 6v6h-4v-10c1.103 0 2-.897 2-2v-2h18v2c0 1.103.897 2 2 2zm-8-6h2v2h-2zm-2 2h-2v-2h2zm2-4v-1.444c.599.349 1.094.845 1.444 1.444zm-2 0h-2v-2h2zm-4 0h-1.444c.349-.599.845-1.094 1.444-1.444zm-2 2h2v2h-2zm0 4h2v2h-2zm4 0h2v2h-2zm4 0h2v2h-2zm-15.131-26-1.333-2h4.464v6h-2v2h-2v-2h-2v-4zm13.131 4h-2v-4h2zm8-6h4.465l-1.333 2h2.868v4h-2v2h-2v-2h-2zm6.869 0 6.131-9.197 6.131 9.197zm-2.283-2h-4.586v-4.586zm-16.343-24.18 1.757-1.054v1.757zm2.757 5.667 7.739 8.513h-15.478zm7 10.513v16h-2v2h-2v-1-1-4c0-1.103-.897-2-2-2h-2c-1.103 0-2 .897-2 2v4 1 1h-2v-2h-2v-16zm-16 8h-4.586l4.586-4.586zm-15.757-13.18 1.757-1.054v1.757zm2.757 5.983 6.131 9.197h-12.262zm-5 11.197h10v4h-2v6h-4v2h-2v-2h-2zm-2 12h2v2h6v-2h2v2h6v-2h2v4l-18 .001zm2 6h14v10h-4v-6c0-1.103-.897-2-2-2h-2c-1.103 0-2 .897-2 2v6h-4zm8 10h-2v-6h2zm40 0h-2v-6h2zm6 0h-4v-6c0-1.103-.897-2-2-2h-2c-1.103 0-2 .897-2 2v6h-4v-10h14zm2-12-18 .001v-4.001h2v2h6v-2h2v2h6v-2h2z"/></g></g></svg>