<svg height="512" viewBox="0 0 512 512" width="512" xmlns="http://www.w3.org/2000/svg"><path d="m280 72h32v-15.056a14.472 14.472 0 0 0 -8-12.944 14.472 14.472 0 0 1 -8-12.944 14.472 14.472 0 0 1 -8 12.944 14.472 14.472 0 0 0 -8 12.944z" fill="#f1b355"/><path d="m72 328h48v128h-48z" fill="#e37c55"/><path d="m72 416h48v24h-48z" fill="#e36333"/><path d="m56 424h80v64h-80z" fill="#8c6847"/><path d="m128 424h48v64h-48z" fill="#d34437"/><path d="m128 424v17.386a24.558 24.558 0 0 0 16.721 6.614h14.558a24.161 24.161 0 0 0 8.721-1.656v41.656h8v-64z" fill="#9e1d12"/><path d="m120 424h8v64h-8z" fill="#694626"/><path d="m144.721 440h14.558a24.721 24.721 0 0 0 24.721-24.721 24.721 24.721 0 0 0 -13.666-22.112l-4.668-2.334a24.721 24.721 0 0 1 -13.666-22.112 24.721 24.721 0 0 1 -13.666 22.112l-4.668 2.334a24.721 24.721 0 0 0 -13.666 22.112 24.721 24.721 0 0 0 24.721 24.721z" fill="#aac56a"/><path d="m170.334 393.167-3-1.5a47.955 47.955 0 0 1 -41.089 39.882 24.557 24.557 0 0 0 18.476 8.451h14.558a24.721 24.721 0 0 0 11.055-46.833z" fill="#83b45a"/><path d="m240 216 30.906-66.962a125.229 125.229 0 0 0 9.094-77.038h32a125.229 125.229 0 0 0 9.094 77.038l30.906 66.962z" fill="#f08833"/><path d="m392 296h48v112h-48z" fill="#f08833"/><path d="m72 356.947a28.322 28.322 0 0 0 12.622 3.053h22.756a28.322 28.322 0 0 0 12.622-3.053v-28.947h-48z" fill="#e36333"/><path d="m84.622 352h22.756a28.621 28.621 0 0 0 28.622-28.622 28.622 28.622 0 0 0 -17.992-26.578l-4.016-1.606a28.622 28.622 0 0 1 -17.992-26.572 28.622 28.622 0 0 1 -17.992 26.578l-4.016 1.6a28.622 28.622 0 0 0 -17.992 26.578 28.621 28.621 0 0 0 28.622 28.622z" fill="#83b45a"/><path d="m88 352h11.312l35.722-35.722a28.542 28.542 0 0 0 -8.528-14.1l-44.162 44.166z"/><path d="m70.94 348.372 50.088-50.087a28.45 28.45 0 0 0 -3.02-1.482l-4.016-1.606a28.513 28.513 0 0 1 -7.79-4.712l-46.574 46.575a28.537 28.537 0 0 0 11.312 11.312z" fill="#f1b355"/><path d="m126.506 302.182-48.861 48.861a28.382 28.382 0 0 0 6.977.957h14.69l35.722-35.722a28.542 28.542 0 0 0 -8.528-14.096z" fill="#f1b355"/><path d="m240 312h112v176h-112z" fill="#6f5438"/><path d="m240 216h112v96h-112z" fill="#e37c55"/><path d="m376 384h80v104h-80z" fill="#d34437"/><path d="m192 304h48v80h-48z" fill="#f1b355"/><path d="m311.816 120a125.418 125.418 0 0 1 -1.953-16h-27.726a125.418 125.418 0 0 1 -1.953 16z" fill="#f0740f"/><path d="m336 184-16 24-24-24-24 24-16-24-16 32h112z" fill="#f08833"/><g fill="#d34437"><path d="m352 272v40h-32v-8a32 32 0 0 1 32-32z"/><path d="m240 272v40h32v-8a32 32 0 0 0 -32-32z"/><path d="m296 272a24 24 0 0 1 24 24v16h-48v-16a24 24 0 0 1 24-24z"/></g><path d="m264 312h16v24h-16z" fill="#fff5cb"/><path d="m264 352h16v16h-16z" fill="#fff5cb"/><path d="m248 384h88v16h-88z" fill="#4d8a3b"/><path d="m392 324.947a28.322 28.322 0 0 0 12.622 3.053h22.756a28.322 28.322 0 0 0 12.622-3.053v-28.947h-48z" fill="#f0740f"/><path d="m328 400h-64-8v8 80h8v-80h64z" fill="#53391e"/><path d="m304 416h24v72h-24z" fill="#53391e"/><path d="m376 416h24v72h-24z" fill="#9e1d12"/><path d="m392 376h48v8h-48z" fill="#f0740f"/><path d="m240 312h8v64h-8z" fill="#53391e"/><path d="m192 368h48v8h-48z" fill="#f1a531"/><path d="m176 376h80v112h-80z" fill="#f08833"/><path d="m176 408h80v16h-80z" fill="#f0740f"/><path d="m256 488v-25.3l-16.41-49.23a7.909 7.909 0 0 0 -8-5.457 7.992 7.992 0 0 0 -7.4 6.254l-8.19 36.854-8.191-36.855a8 8 0 0 0 -15.4-.8l-16.409 49.234v25.3h4.547a7.862 7.862 0 0 0 5.573-5.06l12.337-37.01 9.349 42.07h16.388l9.349-42.07 12.337 37.01a7.862 7.862 0 0 0 5.573 5.06z" fill="#fff5cb"/><path d="m224.191 414.266-2.163 9.734h21.072l-3.51-10.531a7.909 7.909 0 0 0 -8-5.457 7.992 7.992 0 0 0 -7.399 6.254z" fill="#ffeea5"/><path d="m200.414 408.012a7.984 7.984 0 0 0 -8 5.457l-3.514 10.531h21.072l-2.163-9.734a7.992 7.992 0 0 0 -7.395-6.254z" fill="#ffeea5"/><rect fill="#4d8a3b" height="16" rx="8" width="96" x="168" y="400"/><path d="m240 216h112v16h-112z" fill="#e36333"/><path d="m352 224h-112a8 8 0 0 1 -7.156-11.578l16-32a8 8 0 0 1 13.812-.86l10.586 15.879 17.1-17.1a8 8 0 0 1 11.312 0l17.1 17.1 10.586-15.879a8 8 0 0 1 13.812.86l16 32a8 8 0 0 1 -7.152 11.578zm-22.387-16h9.442l-4.047-8.094zm-46.3 0h25.375l-12.688-12.688zm-30.367 0h9.442l-5.395-8.094z" fill="#4d8a3b"/><path d="m404.622 320h22.756a28.621 28.621 0 0 0 28.622-28.622 28.622 28.622 0 0 0 -17.992-26.578l-4.016-1.606a28.622 28.622 0 0 1 -17.992-26.572 28.622 28.622 0 0 1 -17.992 26.578l-4.016 1.606a28.622 28.622 0 0 0 -17.992 26.572 28.621 28.621 0 0 0 28.622 28.622z" fill="#83b45a"/><path d="m406.372 257.945a28.48 28.48 0 0 1 -8.364 5.252l-4.016 1.606a28.528 28.528 0 0 0 -2.615 1.283l54.076 47.314a28.464 28.464 0 0 0 9.059-13.335z" fill="#d34437"/><path d="m385.772 269.92a28.58 28.58 0 0 0 -8.652 13.69l41.588 36.39h8.67a28.337 28.337 0 0 0 12.324-2.891z" fill="#d34437"/><path d="m328 352h48v96h-48z" fill="#f1b355"/><path d="m328 388.947a28.322 28.322 0 0 0 12.622 3.053h22.756a28.322 28.322 0 0 0 12.622-3.053v-36.947h-48z" fill="#f1a531"/><path d="m328 416h48v8h-48z" fill="#f1a531"/><path d="m192 324.947a28.322 28.322 0 0 0 12.622 3.053h22.756a28.322 28.322 0 0 0 12.622-3.053v-36.947h-48z" fill="#f1a531"/><path d="m204.622 320h22.756a28.621 28.621 0 0 0 28.622-28.622 28.622 28.622 0 0 0 -17.992-26.578l-4.016-1.606a28.622 28.622 0 0 1 -17.992-26.572 28.622 28.622 0 0 1 -17.992 26.578l-4.016 1.606a28.622 28.622 0 0 0 -17.992 26.572 28.621 28.621 0 0 0 28.622 28.622z" fill="#48c0f3"/><path d="m205.505 320h20.995a53.312 53.312 0 0 0 3.442-58.825 28.585 28.585 0 0 1 -11.312-12.664 7.956 7.956 0 0 0 -5.25 0 28.582 28.582 0 0 1 -11.312 12.663 53.314 53.314 0 0 0 3.437 58.826zm10.495-51.086a37.391 37.391 0 0 1 0 38.172 37.391 37.391 0 0 1 0-38.172z" fill="#cfeff6"/><rect fill="#d34437" height="16" rx="8" width="64" x="264" y="96"/><path d="m340.622 384h22.756a28.621 28.621 0 0 0 28.622-28.622 28.622 28.622 0 0 0 -17.992-26.578l-4.016-1.606a28.622 28.622 0 0 1 -17.992-26.572 28.622 28.622 0 0 1 -17.992 26.578l-4.016 1.606a28.622 28.622 0 0 0 -17.992 26.572 28.621 28.621 0 0 0 28.622 28.622z" fill="#aac56a"/><path d="m375.912 329.737a47.663 47.663 0 0 1 -55.791 45.563 28.5 28.5 0 0 0 20.5 8.7h22.756a28.566 28.566 0 0 0 12.534-54.263z" fill="#83b45a"/><path d="m280 63.28v8.72h32v-15.056a14.363 14.363 0 0 0 -3.755-9.537 47.865 47.865 0 0 1 -28.245 15.873z" fill="#f1a531"/><path d="m312 424h80v64h-80z" fill="#f08833"/><path d="m325.919 488h66.081v-64h-9.392a128.375 128.375 0 0 1 -56.689 64z" fill="#f0740f"/></svg>