<?xml version="1.0" encoding="iso-8859-1"?>
<!-- Generator: Adobe Illustrator 19.0.0, SVG Export Plug-In . SVG Version: 6.00 Build 0)  -->
<svg version="1.1" id="Capa_1" xmlns="http://www.w3.org/2000/svg" xmlns:xlink="http://www.w3.org/1999/xlink" x="0px" y="0px"
	 viewBox="0 0 512 512" style="enable-background:new 0 0 512 512;" xml:space="preserve">
<rect x="80.593" y="252.74" style="fill:#E8E3DF;" width="350.751" height="259.26"/>
<path style="fill:#D6CEC8;" d="M343.798,252.734v0.01H168.132v-0.01H80.586V512h350.758V252.734H343.798z M343.798,382.749
	c-16.416-31.83-49.626-53.636-87.827-53.636c-38.211,0-71.421,21.806-87.837,53.625v-87.784h175.664L343.798,382.749
	L343.798,382.749z"/>
<g>
	<path style="fill:#F1EFF0;" d="M334.463,512H177.47v-84.127c0-43.353,35.144-78.497,78.497-78.497l0,0
		c43.353,0,78.497,35.144,78.497,78.497L334.463,512L334.463,512z"/>
	<path style="fill:#F1EFF0;" d="M479.859,512h-117.58V304.125h102.144l2.483,24.094l1.894,18.451l16.421,159.388
		C485.547,509.236,483.054,512,479.859,512z"/>
</g>
<polygon style="fill:#E0D7D0;" points="468.8,346.671 362.279,346.671 362.279,328.22 466.904,328.22 "/>
<path style="fill:#F1EFF0;" d="M149.651,304.125V512H32.071c-3.195,0-5.688-2.764-5.361-5.941L43.13,346.671l1.894-18.451
	l2.483-24.094h102.144V304.125z"/>
<polygon style="fill:#E0D7D0;" points="149.651,328.22 149.651,346.671 43.13,346.671 45.025,328.22 "/>
<path style="fill:#2F2F30;" d="M310.023,512H201.91v-81.889c0-29.855,24.202-54.057,54.057-54.057l0,0
	c29.855,0,54.057,24.202,54.057,54.057V512z"/>
<g>
	<path style="fill:#D1A26F;" d="M370.367,512V312.202h60.976h33.08c0.28,0,0.55-0.01,0.83-0.043c4.074-0.41,7.255-3.848,7.255-8.042
		c0-4.463-3.622-8.084-8.084-8.084h-33.08h-69.06c-4.463,0-8.084,3.622-8.084,8.084V512H370.367z"/>
	<path style="fill:#D1A26F;" d="M255.97,367.971c-34.266,0-62.141,27.875-62.141,62.141V512H318.11v-81.888
		C318.111,395.846,290.236,367.971,255.97,367.971z M301.942,503.916h-91.945v-73.803c0-25.352,20.62-45.972,45.972-45.972
		c25.341,0,45.972,20.62,45.972,45.972V503.916z"/>
	<path style="fill:#D1A26F;" d="M466.131,336.309H362.283c-4.465,0-8.084-3.618-8.084-8.084c0-4.465,3.618-8.084,8.084-8.084
		h103.848c4.465,0,8.084,3.618,8.084,8.084C474.215,332.689,470.597,336.309,466.131,336.309z"/>
	<path style="fill:#D1A26F;" d="M157.802,512V304.118c0-4.463-3.622-8.084-8.084-8.084h-69.06H47.575
		c-4.463,0-8.084,3.622-8.084,8.084c0,4.193,3.18,7.632,7.255,8.042c0.28,0.032,0.55,0.043,0.83,0.043h33.08h60.976V512H157.802z"/>
	<path style="fill:#D1A26F;" d="M45.869,336.309h103.848c4.465,0,8.084-3.618,8.084-8.084c0-4.465-3.618-8.084-8.084-8.084H45.869
		c-4.465,0-8.084,3.618-8.084,8.084C37.785,332.689,41.403,336.309,45.869,336.309z"/>
	<path style="fill:#D1A26F;" d="M34.443,312.205h12.061c4.465,0,8.084-3.618,8.084-8.084c0-4.465-3.618-8.084-8.084-8.084h-3.977
		v-2.163H43.5c4.465,0,8.084-3.618,8.084-8.084c0-4.466-3.618-8.084-8.084-8.084h-9.057c-4.465,0-8.084,3.618-8.084,8.084v18.332
		C26.36,308.587,29.978,312.205,34.443,312.205z"/>
	<path style="fill:#D1A26F;" d="M477.557,312.205h-12.061c-4.465,0-8.084-3.618-8.084-8.084c0-4.465,3.618-8.084,8.084-8.084h3.977
		v-2.163H468.5c-4.465,0-8.084-3.618-8.084-8.084c0-4.466,3.618-8.084,8.084-8.084h9.057c4.465,0,8.084,3.618,8.084,8.084v18.332
		C485.64,308.587,482.022,312.205,477.557,312.205z"/>
</g>
<path style="fill:#114C82;" d="M471.333,220.786c4.588-0.62,7.727,4.493,5.159,8.346c-0.186,0.279-0.376,0.561-0.572,0.848
	c-11.154,16.36-37.936,45.14-88.375,45.14H129.976c-50.439,0-77.232-28.78-88.375-45.14c-0.195-0.286-0.386-0.568-0.571-0.846
	c-2.568-3.853,0.571-8.965,5.159-8.346c42.765,5.776,81.457-5.443,113.749-22.548c37.209-19.71,65.917-47.234,82.573-65.602h32.498
	c16.656,18.368,45.365,45.892,82.573,65.602C389.876,215.346,428.565,226.566,471.333,220.786z"/>
<g>
	<path style="fill:#0D3358;" d="M230.209,202.17c-0.345,1.014-4.71,13.549-14.206,27.81h-20.156
		c10.984-13.344,16.944-27.498,18.582-31.744h16.104C230.748,199.518,230.661,200.854,230.209,202.17z"/>
	<path style="fill:#0D3358;" d="M321.679,229.98h-20.168c-9.496-14.261-13.862-26.796-14.206-27.81
		c-0.452-1.316-0.539-2.662-0.324-3.934h16.104c1.229,3.18,4.883,11.921,11.254,21.719
		C316.472,223.232,318.92,226.638,321.679,229.98z"/>
</g>
<g>
	<path style="fill:#0C426B;" d="M476.491,229.131c-0.186,0.279-0.376,0.561-0.572,0.848H41.601
		c-0.195-0.286-0.386-0.568-0.571-0.846c-2.568-3.853,0.571-8.965,5.159-8.346c42.765,5.776,81.457-5.443,113.749-22.548h197.646
		c32.294,17.106,70.982,28.326,113.75,22.546C475.921,220.166,479.06,225.279,476.491,229.131z"/>
	<path style="fill:#0C426B;" d="M348.465,268.372c-0.994,0-2.004-0.184-2.984-0.574c-40.991-16.294-57.498-63.62-58.181-65.627
		c-1.438-4.227,0.823-8.819,5.051-10.257c4.222-1.437,8.811,0.819,10.253,5.039l0,0c0.145,0.421,14.876,42.316,48.85,55.819
		c4.148,1.65,6.175,6.35,4.527,10.499C354.72,266.441,351.679,268.372,348.465,268.372z"/>
	<path style="fill:#0C426B;" d="M169.048,268.372c-3.215,0-6.255-1.931-7.515-5.1c-1.65-4.149,0.378-8.849,4.527-10.499
		c33.974-13.504,48.704-55.399,48.849-55.819c1.449-4.219,6.041-6.47,10.262-5.029c4.221,1.443,6.477,6.025,5.041,10.247
		c-0.683,2.007-17.19,49.334-58.18,65.627C171.052,268.188,170.041,268.372,169.048,268.372z"/>
</g>
<g>
	<path style="fill:#0D3358;" d="M321.679,229.98h-20.168c-9.496-14.261-13.862-26.796-14.206-27.81
		c-0.452-1.316-0.539-2.662-0.324-3.934h16.104c1.229,3.18,4.883,11.921,11.254,21.719
		C316.472,223.232,318.92,226.638,321.679,229.98z"/>
	<path style="fill:#0D3358;" d="M230.209,202.17c-0.345,1.014-4.71,13.549-14.206,27.81h-20.156
		c10.984-13.344,16.944-27.498,18.582-31.744h16.104C230.748,199.518,230.661,200.854,230.209,202.17z"/>
</g>
<path style="fill:#F1EFF0;" d="M471.332,220.785c4.588-0.621,7.73,4.488,5.164,8.342c-0.187,0.281-0.379,0.566-0.577,0.856
	c-11.154,16.356-37.936,45.141-88.375,45.141H129.976c-50.439,0-77.232-28.784-88.375-45.141c-0.196-0.288-0.389-0.574-0.576-0.855
	c-2.566-3.854,0.576-8.962,5.164-8.342c5.559,0.751,11.05,1.214,16.467,1.415c14.034,14.815,37.326,30.539,72.971,30.539h246.265
	c35.646,0,58.939-15.725,72.961-30.539C460.274,222,465.77,221.537,471.332,220.785z"/>
<path style="fill:#114C82;" d="M471.279,149.558c4.615-0.622,7.797,4.463,5.213,8.337c-10.797,16.191-37.632,45.978-88.944,45.978
	H129.975c-51.32,0-78.152-29.787-88.946-45.978c-2.583-3.874,0.599-8.959,5.214-8.337c91.996,12.401,165.151-53.866,196.264-88.161
	h32.498C306.119,95.693,379.274,161.959,471.279,149.558z"/>
<g>
	<path style="fill:#0C426B;" d="M250.667,61.397h16.179c0,1.014-0.194,2.058-0.604,3.062c-0.388,0.949-2.964,7.178-7.48,16.524
		c-13.969,28.877-46.5,87.632-90.371,113.114c-1.283,0.744-2.673,1.089-4.053,1.089c-2.78,0-5.497-1.434-6.996-4.021
		c-2.242-3.859-0.937-8.806,2.932-11.049c47.751-27.735,82.621-102.637,89.692-118.719L250.667,61.397L250.667,61.397z"/>
	<path style="fill:#0C426B;" d="M266.846,61.397h-16.179c0,1.014,0.194,2.058,0.604,3.062c0.388,0.949,2.964,7.178,7.491,16.524
		c13.959,28.877,46.479,87.632,90.36,113.114c1.272,0.744,2.673,1.089,4.053,1.089c2.78,0,5.497-1.434,6.996-4.021
		c2.242-3.859,0.927-8.806-2.932-11.049c-47.696-27.702-82.61-102.648-89.692-118.719L266.846,61.397L266.846,61.397z"/>
</g>
<path style="fill:#F1EFF0;" d="M471.336,149.553c4.585-0.62,7.717,4.5,5.149,8.35c-10.796,16.191-37.628,45.972-88.941,45.972
	H129.976c-51.32,0-78.154-29.782-88.951-45.972c-2.567-3.849,0.564-8.968,5.149-8.35c5.86,0.791,11.645,1.263,17.348,1.442
	c14.098,14.537,37.166,29.641,72.104,29.641H381.88c34.939,0,58.006-15.104,72.116-29.641
	C459.694,150.816,465.477,150.345,471.336,149.553z"/>
<path style="fill:#D1A26F;" d="M272.916,62.619h-28.31c-1.496,0-2.554-1.464-2.085-2.884l8.682-26.295
	c0.297-0.9,1.138-1.507,2.085-1.507h10.945c0.948,0,1.788,0.608,2.085,1.507l8.682,26.295
	C275.471,61.156,274.412,62.619,272.916,62.619z"/>
<rect x="239.167" y="275.111" style="fill:#E0E0E3;" width="39.178" height="46.689"/>
<path style="fill:#D6CEC8;" d="M278.346,329.889h-39.179c-4.465,0-8.084-3.618-8.084-8.084v-46.689c0-4.465,3.618-8.084,8.084-8.084
	h39.178c4.465,0,8.084,3.618,8.084,8.084v46.689C286.431,326.269,282.811,329.889,278.346,329.889z M247.251,313.72h23.011v-30.521
	h-23.011L247.251,313.72L247.251,313.72z"/>
<g>
	<path style="fill:#D1A26F;" d="M258.753,309.163c-0.001,0-0.002,0-0.004,0c-4.464-0.002-8.082-3.623-8.08-8.089l0.003-6.238
		c0.002-4.463,3.622-8.08,8.084-8.08c0.001,0,0.002,0,0.004,0c4.464,0.002,8.082,3.623,8.08,8.089l-0.003,6.238
		C266.836,305.546,263.215,309.163,258.753,309.163z"/>
	<circle style="fill:#D1A26F;" cx="258.759" cy="19.565" r="19.565"/>
</g>
<g>
</g>
<g>
</g>
<g>
</g>
<g>
</g>
<g>
</g>
<g>
</g>
<g>
</g>
<g>
</g>
<g>
</g>
<g>
</g>
<g>
</g>
<g>
</g>
<g>
</g>
<g>
</g>
<g>
</g>
</svg>
