<svg height="512" viewBox="0 0 128 128" width="512" xmlns="http://www.w3.org/2000/svg"><g><g><g fill="#ffd5c8"><path d="m48.833 121.461a4.5 4.5 0 0 1 -3.873-5.049l3.412-25.873 8.922 1.177-3.412 25.872a4.5 4.5 0 0 1 -5.049 3.873z"/><path d="m79.167 121.461a4.5 4.5 0 0 0 3.873-5.049l-3.412-25.873-8.922 1.177 3.412 25.872a4.5 4.5 0 0 0 5.049 3.873z"/><path d="m97.929 74.638a4.5 4.5 0 0 0 -2.413-5.888l-20.551-8.6-3.476 8.3 20.551 8.6a4.5 4.5 0 0 0 5.889-2.412z"/><path d="m30.071 74.638a4.5 4.5 0 0 1 2.413-5.888l20.551-8.6 3.476 8.3-20.551 8.6a4.5 4.5 0 0 1 -5.889-2.412z"/></g><path d="m82.82 84.34v-17.673a9 9 0 0 0 -9-9h-19.64a9 9 0 0 0 -9 9v17.673a50.283 50.283 0 0 1 -.322 5.688c-.982 8.625-1.812 15.068-2.128 17.452a13.163 13.163 0 0 1 5.21 1 13.205 13.205 0 0 0 5.36 1 13.1 13.1 0 0 0 5.34-1 14.838 14.838 0 0 1 10.71 0 14.811 14.811 0 0 0 10.7 0 13.22 13.22 0 0 1 5.22-1c-.316-2.384-1.146-8.827-2.128-17.452a50.283 50.283 0 0 1 -.322-5.688z" fill="#fd637b"/><path d="m58 48.188h12a0 0 0 0 1 0 0v9.125a6 6 0 0 1 -6 6 6 6 0 0 1 -6-6v-9.125a0 0 0 0 1 0 0z" fill="#e8b5ad"/><path d="m81.5 21.282c7.909-.406 15.912 3.011 15.912 3.011l-2.427 10.134c-8.259-6.327-13.355-8.022-13.355-8.022z" fill="#3d6269"/><path d="m46.5 21.282c-7.909-.406-15.912 3.011-15.912 3.011l2.431 10.134c8.255-6.327 13.351-8.022 13.351-8.022z" fill="#3d6269"/><circle cx="64" cy="29.22" fill="#ffd5c8" r="22.72" transform="matrix(.16 -.987 .987 .16 24.906 87.713)"/><path d="m86.72 29.22s-15.41-1.16-22.72-8.97c-7.31 7.81-22.72 8.97-22.72 8.97a22.72 22.72 0 0 1 45.44 0z" fill="#537980"/></g><g fill="#2c0d12"><path d="m96.2 67.136-12.822-5.364a10.754 10.754 0 0 0 -9.558-5.852h-2.07v-3.5a24.528 24.528 0 0 0 16.571-20.528c1.813 1.147 3.683 2.455 5.592 3.925a1.75 1.75 0 0 0 1.067.363 1.772 1.772 0 0 0 .583-.1 1.753 1.753 0 0 0 1.119-1.242l2.439-10.138a1.748 1.748 0 0 0 -1.021-2.02 45.947 45.947 0 0 0 -11.552-2.956 24.469 24.469 0 0 0 -45.1 0 45.946 45.946 0 0 0 -11.548 2.956 1.748 1.748 0 0 0 -1.021 2.02l2.439 10.14a1.753 1.753 0 0 0 1.119 1.242 1.772 1.772 0 0 0 .583.1 1.75 1.75 0 0 0 1.067-.363q2.865-2.2 5.592-3.922a24.532 24.532 0 0 0 16.571 20.528v3.5h-2.07a10.754 10.754 0 0 0 -9.558 5.852l-12.822 5.359a6.25 6.25 0 1 0 4.832 11.528l6.798-2.844v8.52a49.791 49.791 0 0 1 -.309 5.492c-1.142 10.045-2.028 16.69-2.125 17.415a1.75 1.75 0 0 0 1.721 1.983 11.41 11.41 0 0 1 4.611.89 14.927 14.927 0 0 0 5.627 1.1l-.81 6.143a2.742 2.742 0 0 1 -3.089 2.361 2.754 2.754 0 0 1 -2.362-3.085l.229-1.725a1.75 1.75 0 1 0 -3.469-.46l-.229 1.73a6.249 6.249 0 1 0 12.39 1.634l.909-6.879a16.385 16.385 0 0 0 2.729-.821 13.088 13.088 0 0 1 9.48 0 16.215 16.215 0 0 0 2.744.823l.908 6.875a6.249 6.249 0 1 0 12.39-1.635l-.909-6.876c.422-.043.886-.071 1.417-.075a1.75 1.75 0 0 0 1.717-1.983c-.167-1.239-.472-3.586-.865-6.77a1.75 1.75 0 1 0 -3.473.43c.246 1.994.458 3.662.623 4.937a14.935 14.935 0 0 0 -3.865 1 13.06 13.06 0 0 1 -9.462-.006 16.593 16.593 0 0 0 -11.939 0 11.35 11.35 0 0 1 -4.723.888 11.488 11.488 0 0 1 -4.747-.889 14.841 14.841 0 0 0 -3.843-1c.356-2.751 1.055-8.285 1.89-15.622a53.747 53.747 0 0 0 .33-5.883v-17.662a7.258 7.258 0 0 1 7.25-7.25h2.372a7.738 7.738 0 0 0 14.9 0h2.372a7.258 7.258 0 0 1 7.25 7.25v16.268a1.75 1.75 0 0 0 3.5 0v-7.118l6.793 2.844a6.25 6.25 0 1 0 4.837-11.528zm-15.748 43.064.853 6.438a2.752 2.752 0 0 1 -4.4 2.549 2.725 2.725 0 0 1 -1.05-1.823l-.81-6.14a14.637 14.637 0 0 0 5.407-1.024zm-45.169-34.764a2.75 2.75 0 0 1 -2.127-5.072l10.305-4.312c-.012.206-.031.409-.031.618v5.355zm60.075-50.057-1.458 6.062c-1.868-1.35-3.7-2.545-5.47-3.59a24.3 24.3 0 0 0 -.656-4.413 44.751 44.751 0 0 1 7.584 1.941zm-62.716 0a44.815 44.815 0 0 1 7.585-1.943 24.408 24.408 0 0 0 -.656 4.415c-1.773 1.045-3.6 2.24-5.47 3.59zm10.467 5.4c4.065-.519 14.422-2.357 20.891-8.1a22.2 22.2 0 0 0 1.788 1.423 1.75 1.75 0 0 0 2.039-2.844 17.337 17.337 0 0 1 -2.55-2.213 1.8 1.8 0 0 0 -2.554 0c-5.26 5.62-15.332 7.588-19.593 8.188a20.963 20.963 0 0 1 41.74 0 51.288 51.288 0 0 1 -10.282-2.515 1.75 1.75 0 0 0 -1.211 3.284 54.618 54.618 0 0 0 11.514 2.77 20.948 20.948 0 0 1 -41.782 0zm20.891 30.781a4.24 4.24 0 0 1 -4.233-3.99 1.019 1.019 0 0 0 -.016-.146v-4.111a24.144 24.144 0 0 0 8.5 0v4 .079a1.565 1.565 0 0 0 -.02.181 4.24 4.24 0 0 1 -4.231 3.987zm32.315 12.4a2.754 2.754 0 0 1 -3.6 1.473l-8.145-3.408v-5.355c0-.209-.019-.412-.031-.618l10.3 4.312a2.752 2.752 0 0 1 1.476 3.599z"/><path d="m82.941 88.291a1.749 1.749 0 0 0 -1.54 1.937c.185 1.622.364 3.167.535 4.623a1.75 1.75 0 0 0 1.736 1.549 1.592 1.592 0 0 0 .206-.012 1.75 1.75 0 0 0 1.534-1.942c-.171-1.452-.35-2.993-.534-4.61a1.751 1.751 0 0 0 -1.937-1.545z"/><path d="m70.794 42.188a1.751 1.751 0 0 0 -3.356-1c-.492 1.655-2.392 2.1-3.438 2.1s-2.946-.441-3.438-2.1a1.751 1.751 0 0 0 -3.356 1c.945 3.176 4.094 4.6 6.794 4.6s5.849-1.424 6.794-4.6z"/><path d="m69.784 34.4a1.747 1.747 0 0 0 2.388-.65 1.157 1.157 0 0 1 2.075 0 1.75 1.75 0 1 0 3.039-1.735 4.653 4.653 0 0 0 -8.153 0 1.748 1.748 0 0 0 .651 2.385z"/><path d="m58.216 34.4a1.748 1.748 0 0 0 .651-2.387 4.653 4.653 0 0 0 -8.153 0 1.75 1.75 0 1 0 3.039 1.735 1.157 1.157 0 0 1 2.075 0 1.747 1.747 0 0 0 2.388.65z"/></g></g></svg>