<svg height="512" viewBox="0 0 512 512" width="512" xmlns="http://www.w3.org/2000/svg"><path d="m168 336h16v104h-16z" fill="#6f5438"/><path d="m168 357.56a159.8 159.8 0 0 0 16 9.184v-30.744h-16z" fill="#613a25"/><path d="m360 312h16v128h-16z" fill="#6f5438"/><path d="m328 344h16v96h-16z" fill="#6f5438"/><path d="m136 304h16v136h-16z" fill="#6f5438"/><path d="m152 345.441v-41.441h-16v25.586a160.72 160.72 0 0 0 16 15.855z" fill="#613a25"/><path d="m376 329.586v-17.586h-16v33.441a160.72 160.72 0 0 0 16-15.855z" fill="#613a25"/><path d="m344 344h-16v22.744a159.8 159.8 0 0 0 16-9.184z" fill="#613a25"/><path d="m256 56a160 160 0 0 0 -160 160 160 160 0 0 0 320 0 160 160 0 0 0 -160-160zm128 160a128 128 0 0 1 -256 0 128 128 0 0 1 256 0z" fill="#f6c869"/><path d="m424 200h-148.688l98.344-98.344-11.312-11.312-98.344 98.343v-140.687h-16v140.687l-98.344-98.343-11.312 11.312 98.343 98.344h-148.687v16h148.687l-106.343 106.344 11.312 11.312 106.344-106.344v156.688h16v-156.688l106.344 106.344 11.312-11.312-106.344-106.344h148.688z" fill="#6f5438"/><path d="m220.869 339a127.385 127.385 0 0 1 -15.134-5.272l-8.819 30.872a159.006 159.006 0 0 0 15.167 5.153z" fill="#f09c57"/><path d="m291.152 338.994a127.315 127.315 0 0 1 -15.676 3.37l8.852 30.983a158.851 158.851 0 0 0 15.609-3.6z" fill="#f09c57"/><g fill="#e37c55"><rect height="32" rx="16" width="48" x="232" y="376"/><rect height="32" rx="16" width="48" x="416" y="192"/><rect height="32" rx="16" width="48" x="48" y="192"/><rect height="32" rx="16" width="48" x="232" y="24"/><rect height="32" rx="16" width="48" x="360" y="72"/><rect height="32" rx="16" width="48" x="96" y="320"/><rect height="32" rx="16" width="48" x="368" y="320"/></g><path d="m312.309 442.2-56.309-197.079-56.309 197.079-15.382-4.4 64-224a8 8 0 0 1 15.382 0l64 224z" fill="#e67500"/><path d="m16 432h480v64h-480z" fill="#48c0f3"/><path d="m32 464h56v16h-56z" fill="#cfeff6"/><path d="m120 480h88v16h-88z" fill="#cfeff6"/><path d="m240 464h88v16h-88z" fill="#cfeff6"/><path d="m360 480h40v16h-40z" fill="#cfeff6"/><path d="m432 464h40v16h-40z" fill="#cfeff6"/><rect fill="#e37c55" height="32" rx="16" width="48" x="104" y="72"/></svg>