<svg height="512pt" viewBox="0 0 512 512" width="512pt" xmlns="http://www.w3.org/2000/svg"><path d="m512 256c0 141.386719-114.613281 256-256 256s-256-114.613281-256-256c0-36.863281 7.796875-71.910156 21.816406-103.570312 29.5625-66.738282 86.8125-118.480469 157.175782-140.644532 24.304687-7.65625 50.175781-11.785156 77.007812-11.785156 141.386719 0 256 114.613281 256 256zm0 0" fill="#c6e1e6"/><path d="m198.65625 73.332031c0 54.0625-40.4375 98.691407-92.722656 105.273438-4.378906.554687-8.851563.835937-13.386719.835937-27.179687 0-51.953125-10.21875-70.730469-27.011718 29.5625-66.738282 86.8125-118.480469 157.175782-140.644532 12.382812 17.355469 19.664062 38.601563 19.664062 61.546875zm0 0" fill="#fccb2b"/><g fill="#fff"><path d="m447.335938 115.171875h-1.675782c-5.535156 0-9.847656-4.566406-9.820312-10.101563 0-.039062 0-.074218 0-.113281 0-11.84375-9.601563-21.445312-21.445313-21.445312h-72.511719c-11.84375 0-21.445312 9.601562-21.445312 21.445312 0 11.847657 9.601562 21.449219 21.445312 21.449219h1.675782c5.535156 0 9.847656 4.5625 9.820312 10.101562v.109376c0 11.84375 9.601563 21.445312 21.445313 21.445312h72.511719c11.84375 0 21.445312-9.601562 21.445312-21.445312s-9.601562-21.445313-21.445312-21.445313zm0 0"/><path d="m153.382812 143.300781h-1.023437c-3.222656 0-5.703125-2.671875-5.6875-5.898437 0-.019532 0-.042969 0-.0625 0-6.914063-5.601563-12.519532-12.515625-12.519532h-42.328125c-6.914063 0-12.519531 5.605469-12.519531 12.519532 0 6.914062 5.605468 12.519531 12.519531 12.519531h1.023437c3.222657 0 5.703126 2.671875 5.683594 5.894531v.066406c0 6.914063 5.605469 12.519532 12.519532 12.519532h42.328124c6.914063 0 12.519532-5.605469 12.519532-12.519532 0-6.914062-5.605469-12.519531-12.519532-12.519531zm0 0"/><path d="m402.433594 203.226562h.660156c2 0 3.527344-1.664062 3.515625-3.667968 0-.011719 0-.027344 0-.039063 0-4.304687 3.488281-7.792969 7.789063-7.792969h26.339843c4.304688 0 7.792969 3.488282 7.792969 7.792969 0 4.300781-3.488281 7.789063-7.792969 7.789063h-.65625c-2.003906 0-3.527343 1.667968-3.515625 3.667968v.042969c0 4.300781-3.488281 7.789063-7.792968 7.789063h-26.339844c-4.300782 0-7.789063-3.488282-7.789063-7.789063 0-4.304687 3.488281-7.792969 7.789063-7.792969zm0 0"/><path d="m249.492188 196.363281h-.742188c-2.257812 0-3.976562-1.878906-3.964844-4.136719 0-.015624 0-.03125 0-.042968 0-4.851563-3.929687-8.78125-8.777344-8.78125h-29.6875c-4.847656 0-8.78125 3.929687-8.78125 8.78125 0 4.847656 3.933594 8.777344 8.78125 8.777344h.742188c2.257812 0 3.976562 1.878906 3.964844 4.136718v.046875c0 4.847657 3.929687 8.777344 8.78125 8.777344h29.683594c4.847656 0 8.78125-3.929687 8.78125-8.777344 0-4.851562-3.933594-8.78125-8.78125-8.78125zm0 0"/><path d="m162.785156 60.007812h1.941406c6.535157 0 11.648438-5.382812 11.617188-11.917968 0-.042969 0-.085938 0-.128906 0-13.972657 11.328125-25.300782 25.300781-25.300782h85.535157c13.972656 0 25.296874 11.328125 25.296874 25.300782 0 13.972656-11.324218 25.300781-25.296874 25.300781h-1.945313c-6.535156 0-11.648437 5.378906-11.617187 11.914062v.128907c0 13.972656-11.324219 25.300781-25.296876 25.300781h-85.535156c-13.972656 0-25.300781-11.328125-25.300781-25.300781 0-13.96875 11.328125-25.296876 25.300781-25.296876zm0 0"/></g><path d="m512 256c0 37.804688-8.191406 73.707031-22.914062 106.003906-1.410157 3.105469-2.882813 6.175782-4.410157 9.207032-7.503906 14.859374-16.414062 28.890624-26.550781 41.910156-.082031.105468-.167969.210937-.25.3125-.074219.09375-.148438.199218-.230469.292968-1.964843 2.507813-3.972656 4.984376-6.027343 7.417969-8.453126 10.011719-17.671876 19.351563-27.546876 27.953125-5.808593 5.066406-11.847656 9.875-18.105468 14.398438-1.453125 1.054687-2.917969 2.089844-4.398438 3.101562-4.976562 3.460938-10.074218 6.730469-15.300781 9.824219-21.117187 12.515625-44.1875 22.066406-68.648437 28.097656-.617188.15625-1.242188.3125-1.859376.457031-.617187.148438-1.242187.292969-1.859374.441407-5.078126 1.191406-10.210938 2.203125-15.402344 3.050781-.28125.050781-.5625.105469-.847656.144531-.511719.09375-1.035157.179688-1.554688.261719-13.0625 2.058594-26.457031 3.125-40.09375 3.125-16.175781 0-32.003906-1.496094-47.34375-4.378906-.40625-.074219-.804688-.15625-1.210938-.230469-.492187-.09375-.984374-.1875-1.476562-.28125-5.054688-1.003906-10.0625-2.164063-15.003906-3.457031-.542969-.125-1.085938-.273438-1.628906-.417969-1.242188-.335937-2.488282-.679687-3.730469-1.035156-24.074219-6.875-46.6875-17.179688-67.292969-30.355469-5.117188-3.269531-10.113281-6.71875-14.984375-10.34375-1.410156-1.042969-2.808594-2.109375-4.199219-3.199219-6.269531-4.867187-12.308594-10.019531-18.097656-15.453125-9.078125-8.492187-17.542969-17.65625-25.308594-27.394531-.03125-.03125-.050781-.054687-.070312-.085937-.042969-.042969-.074219-.082032-.105469-.125-3.824219-4.804688-7.480469-9.75-10.960937-14.828126-.792969-1.167968-1.589844-2.351562-2.371094-3.53125-5.683594-8.609374-10.867188-17.585937-15.496094-26.882812-17.105469-34.335938-26.71875-73.050781-26.71875-114zm0 0" fill="#a07c62"/><path d="m34.253906 278.277344c0-31.542969 26.28125-45.886719 27.398438-46.484375 2.546875-1.355469 5.710937-.390625 7.066406 2.160156 1.355469 2.546875.390625 5.707031-2.15625 7.066406-.878906.472657-21.859375 12.109375-21.859375 37.257813 0 2.886718-10.449219 2.886718-10.449219 0zm0 0" fill="#17a434"/><path d="m34.253906 278.277344v-44.933594c0-2.886719 2.339844-5.226562 5.222656-5.226562 2.886719 0 5.226563 2.339843 5.226563 5.226562v44.933594c0 2.886718-10.449219 2.886718-10.449219 0zm0 0" fill="#77d98f"/><path d="m34.253906 278.277344c0-11.277344-6.921875-20.101563-11.976562-26.546875-.859375-1.097657-1.660156-2.117188-2.363282-3.066407-1.722656-2.316406-1.238281-5.589843 1.078126-7.308593 2.3125-1.722657 5.589843-1.238281 7.308593 1.078125.65625.878906 1.398438 1.828125 2.199219 2.847656 5.65625 7.210938 14.203125 18.109375 14.203125 32.996094 0 2.886718-10.449219 2.886718-10.449219 0zm0 0" fill="#35cc6d"/><path d="m96.765625 278.277344c0-31.542969 26.28125-45.886719 27.398437-46.484375 2.546876-1.355469 5.710938-.390625 7.066407 2.160156 1.355469 2.546875.390625 5.707031-2.15625 7.066406-.878907.472657-21.859375 12.109375-21.859375 37.257813 0 2.886718-10.449219 2.886718-10.449219 0zm0 0" fill="#17a434"/><path d="m96.765625 278.277344v-44.933594c0-2.886719 2.339844-5.226562 5.226563-5.226562 2.882812 0 5.222656 2.339843 5.222656 5.226562v44.933594c0 2.886718-10.449219 2.886718-10.449219 0zm0 0" fill="#77d98f"/><path d="m96.765625 278.277344c0-11.277344-6.921875-20.101563-11.976563-26.546875-.859374-1.097657-1.660156-2.117188-2.363281-3.066407-1.722656-2.316406-1.238281-5.589843 1.078125-7.308593 2.316406-1.722657 5.589844-1.238281 7.308594 1.078125.65625.878906 1.398438 1.828125 2.199219 2.847656 5.65625 7.210938 14.203125 18.109375 14.203125 32.996094 0 2.886718-10.449219 2.886718-10.449219 0zm0 0" fill="#35cc6d"/><path d="m159.277344 278.277344c0-31.542969 26.28125-45.886719 27.398437-46.484375 2.546875-1.355469 5.710938-.390625 7.066407 2.160156 1.355468 2.546875.390624 5.707031-2.15625 7.066406-.878907.472657-21.859376 12.109375-21.859376 37.257813 0 2.886718-10.449218 2.886718-10.449218 0zm0 0" fill="#17a434"/><path d="m159.277344 278.277344v-44.933594c0-2.886719 2.339844-5.226562 5.222656-5.226562 2.886719 0 5.226562 2.339843 5.226562 5.226562v44.933594c0 2.886718-10.449218 2.886718-10.449218 0zm0 0" fill="#77d98f"/><path d="m159.277344 278.277344c0-11.277344-6.921875-20.101563-11.976563-26.546875-.859375-1.097657-1.660156-2.117188-2.363281-3.066407-1.722656-2.316406-1.238281-5.589843 1.078125-7.308593 2.3125-1.722657 5.585937-1.238281 7.308594 1.078125.652343.878906 1.398437 1.828125 2.199219 2.847656 5.65625 7.210938 14.203124 18.109375 14.203124 32.996094 0 2.886718-10.449218 2.886718-10.449218 0zm0 0" fill="#35cc6d"/><path d="m221.789062 278.277344c0-31.542969 26.28125-45.886719 27.398438-46.484375 2.546875-1.355469 5.710938-.390625 7.066406 2.160156 1.355469 2.546875.390625 5.707031-2.15625 7.066406-.878906.472657-21.859375 12.109375-21.859375 37.257813 0 2.886718-10.449219 2.886718-10.449219 0zm0 0" fill="#17a434"/><path d="m221.789062 278.277344v-44.933594c0-2.886719 2.339844-5.226562 5.222657-5.226562 2.886719 0 5.226562 2.339843 5.226562 5.226562v44.933594c0 2.886718-10.449219 2.886718-10.449219 0zm0 0" fill="#77d98f"/><path d="m221.789062 278.277344c0-11.277344-6.921874-20.101563-11.976562-26.546875-.859375-1.097657-1.660156-2.117188-2.363281-3.066407-1.722657-2.316406-1.238281-5.589843 1.078125-7.308593 2.3125-1.722657 5.589844-1.238281 7.308594 1.078125.65625.878906 1.398437 1.828125 2.199218 2.847656 5.65625 7.210938 14.203125 18.109375 14.203125 32.996094 0 2.886718-10.449219 2.886718-10.449219 0zm0 0" fill="#35cc6d"/><path d="m284.300781 278.277344c0-31.542969 26.28125-45.886719 27.398438-46.484375 2.546875-1.355469 5.710937-.390625 7.066406 2.160156 1.355469 2.546875.390625 5.707031-2.15625 7.066406-.878906.472657-21.859375 12.109375-21.859375 37.257813 0 2.886718-10.449219 2.886718-10.449219 0zm0 0" fill="#17a434"/><path d="m284.300781 278.277344v-44.933594c0-2.886719 2.339844-5.226562 5.222657-5.226562 2.886718 0 5.226562 2.339843 5.226562 5.226562v44.933594c0 2.886718-10.449219 2.886718-10.449219 0zm0 0" fill="#77d98f"/><path d="m284.300781 278.277344c0-11.277344-6.921875-20.101563-11.976562-26.546875-.859375-1.097657-1.660157-2.117188-2.363281-3.066407-1.722657-2.316406-1.242188-5.589843 1.078124-7.308593 2.3125-1.722657 5.585938-1.238281 7.308594 1.078125.652344.878906 1.398438 1.828125 2.199219 2.847656 5.65625 7.210938 14.203125 18.109375 14.203125 32.996094 0 2.886718-10.449219 2.886718-10.449219 0zm0 0" fill="#35cc6d"/><path d="m346.8125 278.277344c0-31.542969 26.28125-45.886719 27.398438-46.484375 2.546874-1.355469 5.710937-.390625 7.066406 2.160156 1.355468 2.546875.390625 5.707031-2.15625 7.066406-.878906.472657-21.859375 12.109375-21.859375 37.257813 0 2.886718-10.449219 2.886718-10.449219 0zm0 0" fill="#17a434"/><path d="m346.8125 278.277344v-44.933594c0-2.886719 2.339844-5.226562 5.222656-5.226562 2.886719 0 5.226563 2.339843 5.226563 5.226562v44.933594c0 2.886718-10.449219 2.886718-10.449219 0zm0 0" fill="#77d98f"/><path d="m346.8125 278.277344c0-11.277344-6.921875-20.101563-11.976562-26.546875-.859376-1.097657-1.660157-2.117188-2.363282-3.066407-1.722656-2.316406-1.238281-5.589843 1.078125-7.308593 2.3125-1.722657 5.585938-1.238281 7.308594 1.078125.652344.878906 1.398437 1.828125 2.199219 2.847656 5.65625 7.210938 14.203125 18.109375 14.203125 32.996094 0 2.886718-10.449219 2.886718-10.449219 0zm0 0" fill="#35cc6d"/><path d="m409.324219 278.277344c0-31.542969 26.277343-45.886719 27.398437-46.484375 2.546875-1.355469 5.710938-.390625 7.066406 2.160156 1.355469 2.546875.390626 5.707031-2.15625 7.066406-.878906.472657-21.859374 12.109375-21.859374 37.257813 0 2.886718-10.449219 2.886718-10.449219 0zm0 0" fill="#17a434"/><path d="m409.324219 278.277344v-44.933594c0-2.886719 2.339843-5.226562 5.222656-5.226562 2.886719 0 5.226563 2.339843 5.226563 5.226562v44.933594c0 2.886718-10.449219 2.886718-10.449219 0zm0 0" fill="#77d98f"/><path d="m409.324219 278.277344c0-11.277344-6.921875-20.101563-11.976563-26.546875-.859375-1.097657-1.660156-2.117188-2.363281-3.066407-1.722656-2.316406-1.242187-5.589843 1.074219-7.308593 2.316406-1.722657 5.589844-1.238281 7.3125 1.078125.652344.878906 1.398437 1.828125 2.199218 2.847656 5.65625 7.210938 14.203126 18.109375 14.203126 32.996094 0 2.886718-10.449219 2.886718-10.449219 0zm0 0" fill="#35cc6d"/><path d="m471.835938 278.277344c0-31.542969 26.28125-45.886719 27.398437-46.484375 2.546875-1.355469 5.710937-.390625 7.066406 2.160156 1.355469 2.546875.390625 5.707031-2.15625 7.066406-.878906.472657-21.859375 12.109375-21.859375 37.257813 0 2.886718-10.449218 2.886718-10.449218 0zm0 0" fill="#17a434"/><path d="m471.835938 278.277344v-44.933594c0-2.886719 2.339843-5.226562 5.222656-5.226562 2.886718 0 5.226562 2.339843 5.226562 5.226562v44.933594c0 2.886718-10.449218 2.886718-10.449218 0zm0 0" fill="#77d98f"/><path d="m471.835938 278.277344c0-11.277344-6.921876-20.101563-11.976563-26.546875-.859375-1.097657-1.660156-2.117188-2.363281-3.066407-1.722656-2.316406-1.242188-5.589843 1.078125-7.308593 2.3125-1.722657 5.585937-1.238281 7.308593 1.078125.652344.878906 1.398438 1.828125 2.199219 2.847656 5.65625 7.210938 14.203125 18.109375 14.203125 32.996094 0 2.886718-10.449218 2.886718-10.449218 0zm0 0" fill="#35cc6d"/><path d="m32.808594 346.464844c0-35.664063 29.714844-51.886719 30.980468-52.5625 2.878907-1.53125 6.457032-.441406 7.992188 2.441406 1.53125 2.878906.4375 6.457031-2.441406 7.988281-.992188.539063-24.714844 13.695313-24.714844 42.132813 0 3.261718-11.816406 3.261718-11.816406 0zm0 0" fill="#17a434"/><path d="m32.808594 346.464844v-50.808594c0-3.261719 2.644531-5.910156 5.90625-5.910156 3.265625 0 5.910156 2.644531 5.910156 5.910156v50.808594c0 3.261718-11.816406 3.261718-11.816406 0zm0 0" fill="#77d98f"/><path d="m32.808594 346.464844c0-12.753906-7.824219-22.730469-13.542969-30.015625-.96875-1.242188-1.875-2.398438-2.671875-3.46875-1.945312-2.617188-1.402344-6.320313 1.21875-8.265625 2.617188-1.945313 6.320312-1.402344 8.265625 1.21875.738281.996094 1.582031 2.070312 2.484375 3.222656 6.398438 8.152344 16.0625 20.472656 16.0625 37.308594 0 3.261718-11.816406 3.261718-11.816406 0zm0 0" fill="#35cc6d"/><path d="m103.492188 346.464844c0-35.664063 29.714843-51.886719 30.980468-52.5625 2.878906-1.53125 6.457032-.441406 7.992188 2.441406 1.53125 2.878906.4375 6.457031-2.441406 7.988281-.992188.539063-24.714844 13.695313-24.714844 42.132813-.003906 3.261718-11.816406 3.261718-11.816406 0zm0 0" fill="#17a434"/><path d="m103.492188 346.464844v-50.808594c0-3.261719 2.644531-5.910156 5.90625-5.910156 3.261718 0 5.910156 2.644531 5.910156 5.910156v50.808594c-.003906 3.261718-11.816406 3.261718-11.816406 0zm0 0" fill="#77d98f"/><path d="m103.492188 346.464844c0-12.753906-7.828126-22.730469-13.542969-30.015625-.972657-1.242188-1.875-2.398438-2.671875-3.46875-1.945313-2.617188-1.402344-6.320313 1.21875-8.265625 2.617187-1.945313 6.316406-1.402344 8.261718 1.21875.742188.996094 1.585938 2.070312 2.488282 3.222656 6.394531 8.152344 16.058594 20.472656 16.058594 37.308594 0 3.261718-11.8125 3.261718-11.8125 0zm0 0" fill="#35cc6d"/><path d="m174.175781 346.464844c0-35.664063 29.714844-51.886719 30.980469-52.5625 2.878906-1.53125 6.457031-.441406 7.992188 2.441406 1.53125 2.878906.4375 6.457031-2.441407 7.988281-.992187.539063-24.714843 13.695313-24.714843 42.132813-.003907 3.261718-11.816407 3.261718-11.816407 0zm0 0" fill="#17a434"/><path d="m174.175781 346.464844v-50.808594c0-3.261719 2.644531-5.910156 5.90625-5.910156s5.910157 2.644531 5.910157 5.910156v50.808594c-.003907 3.261718-11.816407 3.261718-11.816407 0zm0 0" fill="#77d98f"/><path d="m174.175781 346.464844c0-12.753906-7.828125-22.730469-13.542969-30.015625-.972656-1.242188-1.878906-2.398438-2.671874-3.46875-1.945313-2.617188-1.402344-6.320313 1.214843-8.265625 2.621094-1.945313 6.320313-1.402344 8.265625 1.21875.742188.996094 1.585938 2.070312 2.488282 3.222656 6.394531 8.152344 16.058593 20.472656 16.058593 37.308594 0 3.261718-11.8125 3.261718-11.8125 0zm0 0" fill="#35cc6d"/><path d="m244.859375 346.464844c0-35.664063 29.714844-51.886719 30.980469-52.5625 2.878906-1.53125 6.457031-.441406 7.988281 2.441406 1.535156 2.878906.441406 6.457031-2.4375 7.988281-.992187.539063-24.714844 13.695313-24.714844 42.132813-.003906 3.261718-11.816406 3.261718-11.816406 0zm0 0" fill="#17a434"/><path d="m244.859375 346.464844v-50.808594c0-3.261719 2.644531-5.910156 5.90625-5.910156s5.910156 2.644531 5.910156 5.910156v50.808594c-.003906 3.261718-11.816406 3.261718-11.816406 0zm0 0" fill="#77d98f"/><path d="m244.859375 346.464844c0-12.753906-7.828125-22.730469-13.542969-30.015625-.972656-1.242188-1.878906-2.398438-2.675781-3.46875-1.945313-2.617188-1.398437-6.320313 1.21875-8.265625 2.621094-1.945313 6.320313-1.402344 8.265625 1.21875.742188.996094 1.585938 2.070312 2.488281 3.222656 6.394531 8.152344 16.058594 20.472656 16.058594 37.308594 0 3.261718-11.8125 3.261718-11.8125 0zm0 0" fill="#35cc6d"/><path d="m315.542969 346.464844c0-35.664063 29.714843-51.886719 30.980469-52.5625 2.878906-1.53125 6.457031-.441406 7.988281 2.441406 1.53125 2.878906.441406 6.457031-2.4375 7.988281-.992188.539063-24.71875 13.695313-24.71875 42.132813 0 3.261718-11.8125 3.261718-11.8125 0zm0 0" fill="#17a434"/><path d="m315.542969 346.464844v-50.808594c0-3.261719 2.644531-5.910156 5.90625-5.910156s5.90625 2.644531 5.90625 5.910156v50.808594c0 3.261718-11.8125 3.261718-11.8125 0zm0 0" fill="#77d98f"/><path d="m315.542969 346.464844c0-12.753906-7.828125-22.730469-13.542969-30.015625-.972656-1.242188-1.878906-2.398438-2.675781-3.46875-1.945313-2.617188-1.398438-6.320313 1.21875-8.265625 2.621093-1.945313 6.320312-1.402344 8.265625 1.21875.742187.996094 1.585937 2.070312 2.488281 3.222656 6.394531 8.152344 16.058594 20.472656 16.058594 37.308594 0 3.261718-11.8125 3.261718-11.8125 0zm0 0" fill="#35cc6d"/><path d="m386.222656 346.464844c0-35.664063 29.71875-51.886719 30.984375-52.5625 2.878907-1.53125 6.457031-.441406 7.988281 2.441406 1.53125 2.878906.441407 6.457031-2.4375 7.988281-.996093.539063-24.71875 13.695313-24.71875 42.132813 0 3.261718-11.816406 3.261718-11.816406 0zm0 0" fill="#17a434"/><path d="m386.222656 346.464844v-50.808594c0-3.261719 2.648438-5.910156 5.910156-5.910156 3.261719 0 5.90625 2.644531 5.90625 5.910156v50.808594c0 3.261718-11.816406 3.261718-11.816406 0zm0 0" fill="#77d98f"/><path d="m386.222656 346.464844c0-12.753906-7.824218-22.730469-13.539062-30.015625-.972656-1.242188-1.878906-2.398438-2.675782-3.46875-1.945312-2.617188-1.398437-6.320313 1.21875-8.265625 2.617188-1.945313 6.320313-1.402344 8.265626 1.21875.742187.996094 1.585937 2.070312 2.488281 3.222656 6.394531 8.152344 16.058593 20.472656 16.058593 37.308594 0 3.261718-11.816406 3.261718-11.816406 0zm0 0" fill="#35cc6d"/><path d="m456.90625 346.464844c0-35.664063 29.71875-51.886719 30.984375-52.5625 2.878906-1.53125 6.457031-.441406 7.988281 2.441406 1.53125 2.878906.441406 6.457031-2.4375 7.988281-.996094.539063-24.71875 13.695313-24.71875 42.132813 0 3.261718-11.816406 3.261718-11.816406 0zm0 0" fill="#17a434"/><path d="m456.90625 346.464844v-50.808594c0-3.261719 2.644531-5.910156 5.910156-5.910156 3.261719 0 5.90625 2.644531 5.90625 5.910156v50.808594c0 3.261718-11.816406 3.261718-11.816406 0zm0 0" fill="#77d98f"/><path d="m456.90625 346.464844c0-12.753906-7.824219-22.730469-13.539062-30.015625-.972657-1.242188-1.878907-2.398438-2.675782-3.46875-1.945312-2.617188-1.402344-6.320313 1.21875-8.265625 2.617188-1.945313 6.320313-1.402344 8.265625 1.21875.742188.996094 1.582031 2.070312 2.488281 3.222656 6.394532 8.152344 16.058594 20.472656 16.058594 37.308594 0 3.261718-11.816406 3.261718-11.816406 0zm0 0" fill="#35cc6d"/><path d="m83.789062 370.425781c-1.105468.585938-26.507812 14.691407-28.066406 45.027344-.03125-.03125-.050781-.054687-.070312-.085937-.042969-.042969-.074219-.082032-.105469-.125-3.824219-4.804688-7.480469-9.75-10.960937-14.828126 7.710937-28.136718 31.671874-41.21875 32.882812-41.855468 3.28125-1.746094 7.34375-.503906 9.089844 2.777344 1.746094 3.269531.503906 7.347656-2.769532 9.089843zm0 0" fill="#17a434"/><path d="m55.652344 360.550781v54.816407c-.042969-.042969-.074219-.082032-.105469-.125-4.710937-5.914063-9.164063-12.035157-13.332031-18.359376v-36.332031c0-3.71875 3.007812-6.726562 6.71875-6.726562 3.707031 0 6.71875 3.007812 6.71875 6.726562zm0 0" fill="#77d98f"/><path d="m55.546875 415.242188c-11.117187-13.960938-20.792969-29.121094-28.828125-45.242188 2.746094-1.078125 5.976562-.242188 7.824219 2.246094.847656 1.136718 1.808593 2.359375 2.832031 3.667968 6.875 8.765626 17.0625 21.761719 18.171875 39.328126zm0 0" fill="#35cc6d"/><path d="m122.65625 418.375c0-40.589844 33.816406-59.050781 35.257812-59.816406 3.273438-1.746094 7.347657-.503906 9.09375 2.777344 1.742188 3.277343.5 7.347656-2.777343 9.09375-1.128907.609374-28.128907 15.582031-28.128907 47.945312 0 3.710938-13.445312 3.710938-13.445312 0zm0 0" fill="#17a434"/><path d="m122.65625 418.375v-57.824219c0-3.714843 3.007812-6.722656 6.722656-6.722656 3.710938 0 6.722656 3.007813 6.722656 6.722656v57.824219c0 3.710938-13.445312 3.710938-13.445312 0zm0 0" fill="#77d98f"/><path d="m122.65625 418.375c0-14.511719-8.910156-25.871094-15.414062-34.160156-1.105469-1.414063-2.136719-2.726563-3.042969-3.945313-2.214844-2.980469-1.59375-7.191406 1.386719-9.40625 2.980468-2.21875 7.191406-1.597656 9.40625 1.382813.84375 1.136718 1.804687 2.359375 2.832031 3.667968 7.277343 9.28125 18.277343 23.304688 18.277343 42.460938 0 3.710938-13.445312 3.710938-13.445312 0zm0 0" fill="#35cc6d"/><path d="m203.097656 418.375c0-40.589844 33.820313-59.050781 35.257813-59.816406 3.277343-1.746094 7.351562-.503906 9.09375 2.777344 1.746093 3.277343.5 7.347656-2.777344 9.09375-1.128906.609374-28.128906 15.582031-28.128906 47.945312 0 3.710938-13.445313 3.710938-13.445313 0zm0 0" fill="#17a434"/><path d="m203.097656 418.375v-57.824219c0-3.714843 3.011719-6.722656 6.722656-6.722656 3.714844 0 6.722657 3.007813 6.722657 6.722656v57.824219c0 3.710938-13.445313 3.710938-13.445313 0zm0 0" fill="#77d98f"/><path d="m203.097656 418.375c0-14.511719-8.90625-25.871094-15.410156-34.160156-1.105469-1.414063-2.136719-2.726563-3.042969-3.945313-2.214843-2.980469-1.59375-7.191406 1.386719-9.40625 2.980469-2.21875 7.191406-1.597656 9.40625 1.382813.84375 1.136718 1.800781 2.359375 2.828125 3.667968 7.28125 9.28125 18.28125 23.304688 18.28125 42.460938-.003906 3.710938-13.449219 3.710938-13.449219 0zm0 0" fill="#35cc6d"/><path d="m283.542969 418.375c0-40.589844 33.820312-59.050781 35.257812-59.816406 3.277344-1.746094 7.351563-.503906 9.09375 2.777344 1.746094 3.277343.5 7.347656-2.777343 9.09375-1.128907.609374-28.128907 15.582031-28.128907 47.945312 0 3.710938-13.445312 3.710938-13.445312 0zm0 0" fill="#17a434"/><path d="m283.542969 418.375v-57.824219c0-3.714843 3.011719-6.722656 6.722656-6.722656s6.722656 3.007813 6.722656 6.722656v57.824219c0 3.710938-13.445312 3.710938-13.445312 0zm0 0" fill="#77d98f"/><path d="m283.542969 418.375c0-14.511719-8.910157-25.871094-15.410157-34.160156-1.109374-1.414063-2.136718-2.726563-3.042968-3.945313-2.214844-2.980469-1.597656-7.191406 1.386718-9.40625 2.980469-2.21875 7.191407-1.597656 9.40625 1.382813.839844 1.136718 1.800782 2.359375 2.828126 3.667968 7.28125 9.28125 18.28125 23.304688 18.28125 42.460938-.003907 3.710938-13.449219 3.710938-13.449219 0zm0 0" fill="#35cc6d"/><path d="m363.984375 418.375c0-40.589844 33.820313-59.050781 35.261719-59.816406 3.273437-1.746094 7.347656-.503906 9.09375 2.777344 1.742187 3.277343.5 7.347656-2.777344 9.09375-1.128906.609374-28.128906 15.582031-28.128906 47.945312 0 3.710938-13.449219 3.710938-13.449219 0zm0 0" fill="#17a434"/><path d="m363.984375 418.375v-57.824219c0-3.714843 3.011719-6.722656 6.722656-6.722656 3.714844 0 6.726563 3.007813 6.726563 6.722656v57.824219c0 3.710938-13.449219 3.710938-13.449219 0zm0 0" fill="#77d98f"/><path d="m363.984375 418.375c0-14.511719-8.90625-25.871094-15.410156-34.160156-1.105469-1.414063-2.136719-2.726563-3.042969-3.945313-2.214844-2.980469-1.59375-7.191406 1.386719-9.40625 2.980469-2.21875 7.191406-1.597656 9.40625 1.382813.84375 1.136718 1.804687 2.359375 2.832031 3.667968 7.277344 9.28125 18.277344 23.304688 18.277344 42.460938 0 3.710938-13.449219 3.710938-13.449219 0zm0 0" fill="#35cc6d"/><path d="m489.085938 362.003906c-1.410157 3.105469-2.882813 6.175782-4.410157 9.207032-5.277343 3.257812-24.1875 16.664062-26.550781 41.910156-2.121094 2.71875-4.285156 5.390625-6.507812 8.023437-3.503907.09375-7.191407-.824219-7.191407-2.765625 0-40.597656 33.824219-59.058594 35.265625-59.820312 3.269532-1.746094 7.347656-.503906 9.089844 2.777344.117188.21875.21875.4375.304688.667968zm0 0" fill="#17a434"/><path d="m457.875 360.550781v52.882813c-.074219.09375-.148438.199218-.230469.292968-1.964843 2.507813-3.972656 4.984376-6.027343 7.417969-3.503907.09375-7.191407-.824219-7.191407-2.765625v-57.828125c0-3.71875 3.011719-6.726562 6.730469-6.726562 3.707031 0 6.71875 3.007812 6.71875 6.726562zm0 0" fill="#77d98f"/><path d="m457.644531 413.726562c-1.964843 2.507813-3.972656 4.984376-6.027343 7.417969-3.503907.09375-7.191407-.824219-7.191407-2.765625 0-14.515625-8.902343-25.875-15.410156-34.171875-1.097656-1.410156-2.132813-2.714843-3.042969-3.9375-2.214844-2.976562-1.585937-7.1875 1.390625-9.402343 2.976563-2.214844 7.1875-1.601563 9.402344 1.378906.847656 1.136718 1.808594 2.359375 2.832031 3.667968 6.679688 8.515626 16.480469 21.011719 18.046875 37.8125zm0 0" fill="#35cc6d"/><path d="m137.007812 456.515625c-.742187.398437-9.6875 5.351563-18.695312 15.328125-5.117188-3.269531-10.113281-6.71875-14.984375-10.34375 11.851563-13.71875 24.179687-20.449219 25.171875-20.972656 4.410156-2.347656 9.898438-.675782 12.238281 3.742187 2.351563 4.410157.679688 9.894531-3.730469 12.246094zm0 0" fill="#17a434"/><path d="m99.128906 443.214844v15.085937c-6.269531-4.867187-12.308594-10.019531-18.097656-15.453125.1875-4.835937 4.167969-8.691406 9.039062-8.691406 5.003907 0 9.058594 4.054688 9.058594 9.058594zm0 0" fill="#77d98f"/><path d="m245.3125 456.515625c-1.351562.722656-30.335938 16.800781-36.65625 51.105469-.40625-.074219-.804688-.15625-1.210938-.230469-.492187-.09375-.984374-.1875-1.476562-.28125-5.054688-1.003906-10.0625-2.164063-15.003906-3.457031 8.121094-42.550782 44.125-62.203125 45.851562-63.125 4.410156-2.347656 9.894532-.675782 12.234375 3.742187 2.351563 4.410157.679688 9.894531-3.738281 12.246094zm0 0" fill="#17a434"/><path d="m207.445312 443.214844v64.175781c-.492187-.09375-.984374-.1875-1.476562-.28125-5.609375-1.117187-11.15625-2.414063-16.632812-3.875v-60.019531c0-5.003906 4.054687-9.058594 9.046874-9.058594 5.007813 0 9.0625 4.054688 9.0625 9.058594zm0 0" fill="#77d98f"/><path d="m205.96875 507.109375c-6.894531-1.367187-13.6875-3.007813-20.363281-4.910156-4.230469-10.816407-11.316407-19.84375-17.023438-27.125-1.480469-1.902344-2.871093-3.667969-4.09375-5.308594-2.976562-4.011719-2.140625-9.6875 1.871094-12.664063 4.011719-2.988281 9.675781-2.152343 12.664063 1.859376 1.128906 1.527343 2.421874 3.175781 3.800781 4.941406 7.941406 10.117187 19.164062 24.429687 23.144531 43.207031zm0 0" fill="#35cc6d"/><path d="m353.625 456.515625c-1.304688.699219-28.589844 15.832031-36.007812 48.003906-.617188.15625-1.242188.3125-1.859376.457031-.617187.148438-1.242187.292969-1.859374.441407-5.078126 1.191406-10.210938 2.203125-15.402344 3.050781 6.195312-45.890625 44.847656-66.988281 46.632812-67.941406 4.410156-2.347656 9.894532-.675782 12.238282 3.742187 2.347656 4.410157.675781 9.894531-3.742188 12.246094zm0 0" fill="#17a434"/><path d="m315.757812 443.214844v61.761718c-.617187.148438-1.242187.292969-1.859374.441407-5.351563 1.253906-10.773438 2.320312-16.25 3.195312v-65.398437c0-5.003906 4.054687-9.058594 9.050781-9.058594 5.003906 0 9.058593 4.054688 9.058593 9.058594zm0 0" fill="#77d98f"/><path d="m313.898438 505.417969c-5.863282 1.367187-11.796876 2.515625-17.804688 3.457031-3.53125-13.824219-12.351562-25.066406-19.195312-33.800781-1.484376-1.902344-2.875-3.667969-4.097657-5.308594-2.976562-4.011719-2.140625-9.6875 1.871094-12.664063 4.011719-2.988281 9.675781-2.152343 12.664063 1.859376 1.128906 1.527343 2.425781 3.175781 3.804687 4.941406 7.699219 9.8125 18.484375 23.5625 22.757813 41.515625zm0 0" fill="#35cc6d"/><path d="m424.070312 443.214844v5.882812c-5.808593 5.066406-11.847656 9.875-18.105468 14.398438v-20.28125c0-5.003906 4.054687-9.058594 9.046875-9.058594 5.007812 0 9.058593 4.054688 9.058593 9.058594zm0 0" fill="#77d98f"/><path d="m401.566406 466.597656c-4.976562 3.460938-10.074218 6.730469-15.300781 9.824219-.351563-.460937-.707031-.910156-1.054687-1.347656-1.492188-1.902344-2.871094-3.667969-4.09375-5.308594-2.980469-4.011719-2.152344-9.6875 1.871093-12.664063 4.011719-2.988281 9.675781-2.152343 12.664063 1.859376 1.125 1.527343 2.421875 3.175781 3.800781 4.941406.679687.867187 1.390625 1.765625 2.113281 2.695312zm0 0" fill="#35cc6d"/></svg>