<?xml version="1.0" encoding="iso-8859-1"?>
<!-- Generator: Adobe Illustrator 18.0.0, SVG Export Plug-In . SVG Version: 6.00 Build 0)  -->
<!DOCTYPE svg PUBLIC "-//W3C//DTD SVG 1.1//EN" "http://www.w3.org/Graphics/SVG/1.1/DTD/svg11.dtd">
<svg version="1.1" id="Capa_1" xmlns="http://www.w3.org/2000/svg" xmlns:xlink="http://www.w3.org/1999/xlink" x="0px" y="0px"
	 viewBox="0 0 449.54 449.54" style="enable-background:new 0 0 449.54 449.54;" xml:space="preserve">
<g id="XMLID_42_">
	<g>
		<polygon style="fill:#CC8B2E;" points="346.493,369.089 348.803,434.289 317.843,434.289 320.153,369.089 		"/>
		<polygon style="fill:#CC8B2E;" points="129.383,369.089 131.693,434.289 100.733,434.289 103.043,369.089 		"/>
		<path style="fill:#368753;" d="M190.723,336.099l-1.16,17.99H40.423l30.48-52.78h35.15l-13.59,23.54c-1.34,2.32-1.34,5.18,0,7.5
			c1.34,2.32,3.82,3.75,6.5,3.75H190.723z"/>
		<polygon style="fill:#368753;" points="141.193,240.319 114.723,286.309 66.573,286.309 60.273,286.309 86.833,240.319 		"/>
		<polygon style="fill:#368753;" points="116.213,149.219 141.433,192.899 122.713,225.319 72.283,225.319 		"/>
		<polygon style="fill:#368753;" points="333.323,149.219 377.253,225.319 325.773,225.319 307.583,193.799 		"/>
		<polygon style="fill:#368753;" points="362.713,240.319 389.263,286.309 382.973,286.309 333.773,286.309 307.303,240.319 		"/>
		<path style="fill:#368753;" d="M378.643,301.309l30.47,52.78h-150.19l-1.15-17.99h91.76c2.68,0,5.16-1.43,6.5-3.75
			s1.34-5.18,0-7.5l-13.6-23.54H378.643z"/>
		<polygon style="fill:#E29E30;" points="242.743,336.099 249.063,434.289 199.433,434.289 205.753,336.099 		"/>
		<polygon style="fill:#6DCC93;" points="224.243,22.749 291.583,139.389 156.903,139.389 		"/>
		<polygon style="fill:#6DCC93;" points="267.503,154.389 308.453,225.319 139.963,225.449 180.993,154.389 		"/>
		<polygon style="fill:#6DCC93;" points="289.983,240.449 336.543,321.099 111.953,321.099 158.513,240.449 		"/>
		<path style="fill:#4D4D4D;" d="M428.603,357.839c1.34,2.32,1.34,5.18,0,7.5c-1.34,2.32-3.82,3.75-6.5,3.75h-60.6l2.57,72.43
			c0.07,2.04-0.69,4.02-2.1,5.48c-1.41,1.46-3.36,2.29-5.4,2.29h-46.5c-2.04,0-3.98-0.83-5.4-2.29c-1.41-1.46-2.17-3.44-2.1-5.48
			l2.57-72.43h-45.25l4.65,72.22c0.14,2.07-0.59,4.1-2.01,5.61c-1.42,1.51-3.4,2.37-5.47,2.37h-65.63c-2.07,0-4.05-0.86-5.47-2.37
			s-2.15-3.54-2.01-5.61l4.65-72.22h-44.21l2.57,72.43c0.07,2.04-0.69,4.02-2.1,5.48c-1.41,1.46-3.36,2.29-5.4,2.29h-46.5
			c-2.04,0-3.98-0.83-5.4-2.29c-1.41-1.46-2.17-3.44-2.1-5.48l2.57-72.43h-60.6c-2.68,0-5.15-1.43-6.49-3.75
			c-1.34-2.32-1.34-5.18,0-7.5l32.63-56.53h-6.29c-2.68,0-5.16-1.43-6.5-3.75c-1.34-2.32-1.34-5.18,0-7.5l28.73-49.74h-10.22
			c-2.68,0-5.15-1.43-6.49-3.75c-1.34-2.32-1.34-5.18,0-7.5l56.92-98.6c1.33-2.32,3.81-3.75,6.49-3.75s5.16,1.43,6.5,3.75
			l12.41,21.5l14.97,25.93l13.58-23.51h-19.76c-2.68,0-5.15-1.43-6.49-3.75c-1.34-2.33-1.34-5.18,0-7.5l80.33-139.14
			c1.34-2.32,3.81-3.75,6.49-3.75c2.68,0,5.16,1.43,6.5,3.75l80.33,139.14c1.34,2.32,1.34,5.17,0,7.5c-1.34,2.32-3.82,3.75-6.5,3.75
			h-19.75l14.1,24.42l27.91-48.34c0.67-1.16,1.62-2.1,2.74-2.75c1.12-0.64,2.41-1,3.75-1c2.68,0,5.16,1.43,6.5,3.75l56.92,98.6
			c1.34,2.32,1.34,5.18,0,7.5c-1.34,2.32-3.82,3.75-6.5,3.75h-10.21l28.72,49.74c1.34,2.32,1.34,5.18,0,7.5
			c-1.34,2.32-3.82,3.75-6.5,3.75h-6.29L428.603,357.839z M409.113,354.089l-30.47-52.78h-36.21l13.6,23.54
			c1.34,2.32,1.34,5.18,0,7.5s-3.82,3.75-6.5,3.75h-91.76l1.15,17.99H409.113z M389.263,286.309l-26.55-45.99h-55.41l26.47,45.99
			h49.2H389.263z M377.253,225.319l-43.93-76.1l-25.74,44.58l18.19,31.52H377.253z M348.803,434.289l-2.31-65.2h-26.34l-2.31,65.2
			H348.803z M336.543,321.099l-46.56-80.65h-131.47l-46.56,80.65H336.543z M308.453,225.319l-40.95-70.93h-86.51l-41.03,71.06
			L308.453,225.319z M291.583,139.389l-67.34-116.64l-67.34,116.64H291.583z M249.063,434.289l-6.32-98.19h-36.99l-6.32,98.19
			H249.063z M189.563,354.089l1.16-17.99h-91.76c-2.68,0-5.16-1.43-6.5-3.75c-1.34-2.32-1.34-5.18,0-7.5l13.59-23.54h-35.15
			l-30.48,52.78H189.563z M141.433,192.899l-25.22-43.68l-43.93,76.1h50.43L141.433,192.899z M114.723,286.309l26.47-45.99h-54.36
			l-26.56,45.99h6.3H114.723z M131.693,434.289l-2.31-65.2h-26.34l-2.31,65.2H131.693z"/>
	</g>
	<g>
	</g>
</g>
<g>
</g>
<g>
</g>
<g>
</g>
<g>
</g>
<g>
</g>
<g>
</g>
<g>
</g>
<g>
</g>
<g>
</g>
<g>
</g>
<g>
</g>
<g>
</g>
<g>
</g>
<g>
</g>
<g>
</g>
</svg>
