<?xml version="1.0" encoding="iso-8859-1"?>
<!-- Generator: Adobe Illustrator 19.0.0, SVG Export Plug-In . SVG Version: 6.00 Build 0)  -->
<svg version="1.1" id="Capa_1" xmlns="http://www.w3.org/2000/svg" xmlns:xlink="http://www.w3.org/1999/xlink" x="0px" y="0px"
	 viewBox="0 0 511.999 511.999" style="enable-background:new 0 0 511.999 511.999;" xml:space="preserve">
<path style="fill:#4FA9ED;" d="M255.998,289.799L255.998,289.799c106.687,0,193.173,86.486,193.173,193.173v21.51H62.827v-21.51
	C62.827,376.285,149.312,289.799,255.998,289.799z"/>
<path style="fill:#2782C7;" d="M255.999,289.799c90.375,0,163.638,73.264,163.638,163.638v51.043h29.534v-21.51
	C449.171,376.285,362.685,289.799,255.999,289.799z"/>
<path style="fill:#FF5F5F;" d="M316.503,27.458c-43.046-39.904-65.505-9.208-47.258,0c18.248,9.208,3.579,20.901-27.606,33.254
	c-68.904,27.295-99.287,103.361-100.238,151.41h228.973C383.709,148.861,359.002,66.854,316.503,27.458z"/>
<path style="fill:#E24B4B;" d="M316.503,27.458C295.503,7.989,279.406,5.329,270.541,8.776c7.314,2.298,16.308,7.918,26.64,18.682
	c37.808,39.396,59.79,121.403,47.926,184.664h25.268C383.709,148.861,359.002,66.854,316.503,27.458z"/>
<g>
	<path style="fill:#FFD2C0;" d="M383.243,252.518h-48.059c-14.268,0-25.835-11.567-25.835-25.835l0,0
		c0-14.268,11.567-25.834,25.835-25.834h48.059c14.268,0,25.835,11.567,25.835,25.834l0,0
		C409.078,240.951,397.511,252.518,383.243,252.518z"/>
	<path style="fill:#FFD2C0;" d="M176.814,252.518h-48.059c-14.268,0-25.835-11.567-25.835-25.835l0,0
		c0-14.268,11.567-25.834,25.835-25.834h48.059c14.268,0,25.835,11.567,25.835,25.834l0,0
		C202.649,240.951,191.082,252.518,176.814,252.518z"/>
	<path style="fill:#FFD2C0;" d="M357.711,246.139c0,0.527-0.008,1.063-0.034,1.582c-0.017,0.527-0.051,1.054-0.093,1.573
		c-0.034,0.442-0.076,0.885-0.127,1.319c-0.059,0.527-0.127,1.046-0.212,1.565c-0.034,0.246-0.076,0.493-0.119,0.731
		c-0.119,0.705-0.264,1.403-0.425,2.092c-0.051,0.246-0.11,0.485-0.178,0.731c-0.093,0.374-0.187,0.748-0.298,1.122
		c-0.136,0.485-0.281,0.961-0.442,1.429v0.026c-0.127,0.383-0.256,0.757-0.391,1.131c-0.017,0.043-0.034,0.085-0.051,0.136
		c-0.076,0.212-0.153,0.425-0.238,0.629c-0.119,0.315-0.246,0.629-0.375,0.944c-0.153,0.358-0.307,0.714-0.468,1.072
		c0,0.008-0.008,0.017-0.008,0.025c-0.093,0.204-0.178,0.4-0.281,0.595c-0.178,0.392-0.374,0.774-0.57,1.156
		c-0.195,0.383-0.4,0.766-0.612,1.148c-0.238,0.425-0.485,0.842-0.731,1.259c-0.008,0.009-0.017,0.017-0.017,0.026
		c-0.264,0.417-0.527,0.834-0.8,1.25c-0.808,1.233-1.692,2.424-2.653,3.555c-0.621,0.748-1.276,1.48-1.965,2.177
		c-0.009,0.009-0.017,0.017-0.026,0.026c-0.332,0.34-0.663,0.672-1.003,0.995c-0.009,0-0.026,0.017-0.034,0.026
		c-0.357,0.341-0.714,0.672-1.088,0.995c-0.366,0.324-0.739,0.646-1.122,0.953c-0.383,0.315-0.774,0.621-1.165,0.919
		c-0.391,0.298-0.791,0.587-1.19,0.868c-0.408,0.281-0.817,0.561-1.233,0.825c-0.417,0.273-0.834,0.527-1.268,0.783
		c-0.425,0.246-0.851,0.493-1.293,0.731c-0.434,0.238-0.876,0.459-1.319,0.68c-0.451,0.221-0.902,0.434-1.352,0.638
		c-0.91,0.408-1.837,0.783-2.79,1.114c-4.099,1.463-8.513,2.262-13.114,2.262H193.373c-4.601,0-9.015-0.8-13.114-2.262
		c-0.953-0.332-1.88-0.705-2.79-1.114c-0.451-0.204-0.902-0.417-1.353-0.638c-0.442-0.221-0.885-0.442-1.318-0.68
		c-0.442-0.238-0.868-0.485-1.293-0.731c-0.434-0.255-0.851-0.51-1.268-0.783c-0.417-0.264-0.825-0.544-1.233-0.825
		c-0.4-0.281-0.8-0.57-1.19-0.868c-0.391-0.298-0.783-0.604-1.165-0.919c-0.383-0.307-0.757-0.629-1.122-0.953
		c-0.374-0.323-0.731-0.654-1.088-0.995c-0.008-0.009-0.025-0.026-0.034-0.026c-0.341-0.332-0.672-0.663-1.004-0.995
		c-0.008-0.009-0.017-0.017-0.025-0.026c-0.689-0.697-1.344-1.429-1.965-2.177c-0.961-1.131-1.846-2.322-2.653-3.555
		c-0.273-0.417-0.536-0.834-0.8-1.25c0-0.008-0.008-0.017-0.017-0.026c-0.246-0.417-0.493-0.834-0.731-1.259
		c-0.212-0.383-0.417-0.766-0.612-1.148c-0.195-0.383-0.391-0.766-0.57-1.156c-0.102-0.195-0.187-0.391-0.281-0.595
		c0-0.008-0.008-0.017-0.008-0.025c-0.161-0.358-0.315-0.714-0.468-1.072c-0.127-0.315-0.256-0.629-0.375-0.944
		c-0.085-0.204-0.161-0.417-0.238-0.629c-0.017-0.051-0.034-0.093-0.051-0.136c-0.136-0.374-0.264-0.749-0.392-1.131v-0.026
		c-0.161-0.468-0.306-0.944-0.442-1.429c-0.11-0.374-0.204-0.749-0.298-1.122c-0.068-0.246-0.127-0.485-0.178-0.731
		c-0.161-0.689-0.307-1.386-0.425-2.092c-0.042-0.238-0.085-0.485-0.119-0.731c-0.085-0.519-0.153-1.038-0.212-1.565
		c-0.051-0.434-0.093-0.876-0.127-1.319c-0.042-0.519-0.076-1.046-0.093-1.573c-0.025-0.519-0.034-1.054-0.034-1.582
		c0-17.502,11.507-32.308,27.358-37.292v-17.069c23.005-5.324,48.093-8.249,74.354-8.249s51.35,2.926,74.354,8.249v17.069
		C346.206,213.831,357.711,228.637,357.711,246.139z"/>
</g>
<path style="fill:#E1EEF7;" d="M255.998,368.603c-155.103,0-150.553-95.011-114.172-136.053v-28.362
	c12.349-4.958,25.692-9.134,39.818-12.408v17.069c-15.852,4.984-27.358,19.79-27.358,37.292c0,0.527,0.008,1.063,0.034,1.582
	c0.017,0.527,0.051,1.054,0.093,1.573c0.034,0.442,0.076,0.885,0.127,1.319c0.059,0.527,0.127,1.046,0.212,1.565
	c0.034,0.246,0.076,0.485,0.119,0.731c0.119,0.705,0.264,1.403,0.425,2.092c0.051,0.246,0.11,0.493,0.178,0.731
	c0.093,0.374,0.187,0.748,0.298,1.122c0.136,0.485,0.281,0.961,0.442,1.429v0.026c0.127,0.383,0.256,0.757,0.391,1.131
	c0.017,0.043,0.034,0.085,0.051,0.136c0.076,0.212,0.153,0.417,0.238,0.629c0.119,0.315,0.246,0.629,0.375,0.944
	c0.153,0.358,0.307,0.714,0.468,1.072c0,0.008,0.008,0.017,0.008,0.025c0.093,0.204,0.187,0.4,0.281,0.595
	c0.178,0.392,0.374,0.774,0.57,1.156c0.195,0.383,0.4,0.766,0.612,1.148c0.238,0.425,0.485,0.842,0.731,1.259
	c0.008,0.009,0.017,0.017,0.017,0.026c0.264,0.417,0.527,0.834,0.8,1.25c0.817,1.233,1.701,2.424,2.653,3.555
	c0.629,0.748,1.285,1.471,1.965,2.177c0.008,0.009,0.017,0.017,0.025,0.026c0.332,0.332,0.663,0.663,1.004,0.995
	c0.008,0,0.025,0.017,0.034,0.026c0.357,0.341,0.714,0.672,1.088,0.995c0.366,0.324,0.739,0.646,1.122,0.953
	c0.383,0.315,0.774,0.621,1.165,0.919c0.391,0.298,0.791,0.587,1.19,0.868c0.408,0.281,0.817,0.561,1.233,0.825
	c0.417,0.273,0.834,0.527,1.268,0.783c0.425,0.246,0.851,0.493,1.293,0.731c0.434,0.238,0.876,0.459,1.319,0.68
	c0.451,0.221,0.902,0.434,1.353,0.638c0.91,0.408,1.846,0.774,2.79,1.114c1.684,0.195,3.394,0.307,5.128,0.307h12.322
	c3.265-13.19,10.852-24.578,21.108-32.674c10.256-8.105,23.2-12.902,37.181-12.902c27.972,0,51.749,19.203,58.289,45.576h12.322
	c1.734,0,3.444-0.11,5.128-0.307c0.944-0.341,1.88-0.705,2.79-1.114c0.451-0.204,0.902-0.417,1.353-0.638
	c0.442-0.221,0.885-0.442,1.318-0.68c0.442-0.238,0.868-0.485,1.293-0.731c0.434-0.255,0.851-0.51,1.268-0.783
	c0.417-0.264,0.825-0.544,1.233-0.825c0.4-0.281,0.8-0.57,1.19-0.868c0.391-0.298,0.783-0.604,1.165-0.919
	c0.383-0.307,0.757-0.629,1.122-0.953c0.374-0.323,0.731-0.654,1.088-0.995c0.008-0.009,0.025-0.026,0.034-0.026
	c0.341-0.323,0.672-0.655,1.004-0.995c0.008-0.009,0.017-0.017,0.025-0.026c0.68-0.705,1.336-1.429,1.965-2.177
	c0.953-1.131,1.837-2.322,2.653-3.555c0.273-0.417,0.536-0.834,0.8-1.25c0-0.008,0.009-0.017,0.017-0.026
	c0.246-0.417,0.493-0.834,0.731-1.259c0.212-0.383,0.417-0.766,0.612-1.148s0.391-0.766,0.57-1.156
	c0.093-0.195,0.187-0.391,0.281-0.595c0-0.008,0.009-0.017,0.009-0.025c0.161-0.358,0.315-0.714,0.468-1.072
	c0.127-0.315,0.256-0.629,0.375-0.944c0.085-0.212,0.161-0.417,0.238-0.629c0.017-0.051,0.034-0.093,0.051-0.136
	c0.136-0.374,0.264-0.749,0.392-1.131v-0.026c0.161-0.468,0.306-0.944,0.442-1.429c0.11-0.374,0.204-0.749,0.298-1.122
	c0.068-0.238,0.127-0.485,0.178-0.731c0.161-0.689,0.307-1.386,0.425-2.092c0.042-0.247,0.085-0.485,0.119-0.731
	c0.085-0.519,0.153-1.038,0.212-1.565c0.051-0.434,0.093-0.876,0.127-1.319c0.043-0.519,0.076-1.046,0.093-1.573
	c0.026-0.519,0.034-1.054,0.034-1.582c0-17.502-11.507-32.308-27.358-37.292v-17.069c14.5,3.36,28.175,7.671,40.796,12.799
	l0.085,27.963l0.442,1.76C406.654,276.227,408.933,368.603,255.998,368.603z"/>
<g>
	<circle style="fill:#F7E3AA;" cx="255.997" cy="402.42" r="15"/>
	<circle style="fill:#F7E3AA;" cx="255.997" cy="458.481" r="15"/>
</g>
<path d="M385.53,329.7c5.77-8.249,9.005-16.403,10.798-23.313c1.042-4.017-1.37-8.119-5.387-9.162
	c-4.013-1.037-8.119,1.37-9.161,5.387c-5.667,21.84-29.544,58.48-125.78,58.48c-35.603,0-64.554-5.104-86.05-15.17
	c-17.776-8.325-30.07-19.837-36.54-34.218c-11.962-26.589-1.109-57.087,14.036-74.172c0.05-0.056,0.098-0.113,0.146-0.17
	c-0.007,0.039-0.012,0.078-0.019,0.117c-0.119,0.642-0.226,1.288-0.32,1.938c-0.022,0.155-0.039,0.312-0.059,0.467
	c-0.067,0.506-0.128,1.014-0.179,1.524c-0.022,0.221-0.041,0.444-0.06,0.666c-0.041,0.473-0.073,0.948-0.1,1.424
	c-0.012,0.206-0.025,0.413-0.034,0.62c-0.029,0.672-0.047,1.347-0.047,2.025c0,0.616,0.012,1.256,0.035,1.873
	c0.024,0.627,0.061,1.267,0.119,1.896c0.037,0.529,0.086,1.055,0.143,1.54c0.07,0.623,0.152,1.223,0.254,1.833
	c0.039,0.293,0.085,0.58,0.134,0.876c0.157,0.928,0.346,1.784,0.498,2.443c0.072,0.346,0.154,0.675,0.249,1.021
	c0.056,0.23,0.113,0.462,0.171,0.687c0.058,0.222,0.117,0.439,0.177,0.641l0.214,0.735c0.025,0.086,0.052,0.171,0.08,0.257
	l0.063,0.195c0.025,0.081,0.051,0.161,0.077,0.24c0.034,0.12,0.072,0.24,0.112,0.359c0.134,0.393,0.27,0.785,0.412,1.169
	c0,0.001,0.001,0.002,0.001,0.003c0.005,0.013,0.009,0.024,0.013,0.037c0.026,0.074,0.051,0.146,0.076,0.212
	c0.071,0.201,0.146,0.4,0.223,0.601l0.032,0.082c0.122,0.325,0.251,0.643,0.383,0.965l0.082,0.2
	c0.079,0.191,0.166,0.393,0.256,0.596c0.092,0.225,0.191,0.453,0.292,0.678c0.028,0.063,0.057,0.125,0.087,0.187l0.001,0.001
	l0.006,0.013c0,0.001,0.001,0.001,0.001,0.002l0.234,0.502c0.168,0.367,0.35,0.727,0.531,1.084l0.144,0.285
	c0.023,0.047,0.074,0.145,0.098,0.191c0.202,0.384,0.405,0.769,0.616,1.162c0.031,0.057,0.063,0.114,0.095,0.17
	c0.179,0.314,0.364,0.627,0.546,0.938l0.22,0.376c0.071,0.121,0.145,0.24,0.223,0.359l0.81,1.263
	c0.976,1.483,2.043,2.91,3.172,4.242c0.313,0.378,0.642,0.758,0.995,1.152c0.16,0.18,0.327,0.361,0.489,0.537
	c0.258,0.28,0.524,0.565,0.814,0.867c0.037,0.039,0.074,0.077,0.112,0.115c0.001,0.002,0.07,0.07,0.071,0.071
	c0.34,0.339,0.679,0.678,1.029,1.018c0.081,0.078,0.162,0.154,0.246,0.228c0.375,0.358,0.758,0.707,1.15,1.047
	c0.452,0.403,0.906,0.792,1.37,1.161c0.425,0.347,0.851,0.675,1.304,1.024c0.456,0.351,0.924,0.69,1.38,1.019
	c0.049,0.035,0.099,0.07,0.149,0.104c0.472,0.322,0.945,0.641,1.426,0.943c0.499,0.327,1.008,0.641,1.47,0.909
	c0.502,0.299,1.015,0.587,1.473,0.836c0.55,0.308,1.112,0.591,1.684,0.871c0.482,0.235,0.964,0.461,1.476,0.7
	c0.042,0.02,0.084,0.039,0.127,0.058c1.002,0.446,2.106,0.887,3.283,1.313c0.266,0.096,0.533,0.173,0.802,0.237
	c0.068,0.016,0.137,0.026,0.206,0.041c0.206,0.044,0.412,0.081,0.618,0.107c0.028,0.004,0.055,0.011,0.084,0.014
	c2.042,0.231,4.052,0.348,5.974,0.348h12.324c3.457,0,6.467-2.358,7.296-5.713c2.769-11.212,9.327-21.361,18.462-28.577
	c9.353-7.38,20.6-11.28,32.529-11.28c24.209,0,45.177,16.392,50.991,39.862c0.831,3.354,3.84,5.708,7.294,5.708h12.324
	c1.826,0,3.732-0.113,5.667-0.322c0.066-0.005,0.133-0.01,0.2-0.017c0.036-0.004,0.071-0.005,0.106-0.009
	c0.036-0.004,0.072-0.014,0.108-0.019c0.211-0.027,0.422-0.064,0.633-0.109c0.067-0.015,0.134-0.028,0.201-0.044
	c0.257-0.063,0.514-0.136,0.769-0.227c1.111-0.402,2.206-0.839,3.253-1.3c0.052-0.022,0.133-0.06,0.185-0.084
	c0.482-0.225,0.964-0.451,1.502-0.714c0.523-0.261,1.044-0.523,1.561-0.806c0.502-0.274,0.982-0.547,1.476-0.835
	c0.523-0.304,1.035-0.619,1.534-0.946c0.507-0.318,1.005-0.655,1.491-0.996c0.494-0.345,0.986-0.703,1.487-1.088
	c0.429-0.33,0.856-0.661,1.276-1.009c0.208-0.163,0.418-0.336,0.63-0.514c0.016-0.013,0.031-0.024,0.046-0.038
	c0.006-0.005,0.013-0.011,0.019-0.017c0.222-0.188,0.447-0.386,0.677-0.595c0.443-0.38,0.86-0.768,1.285-1.169
	c0.024-0.022,0.054-0.051,0.084-0.081c0.007-0.006,0.013-0.013,0.02-0.019c0.38-0.36,0.76-0.729,1.13-1.109
	c0.007-0.007,0.014-0.015,0.022-0.022c0.005-0.005,0.009-0.01,0.014-0.015c0.02-0.02,0.04-0.04,0.059-0.06
	c0.05-0.052,0.094-0.103,0.143-0.154c0.736-0.76,1.452-1.553,2.145-2.392c1.166-1.387,2.237-2.819,3.224-4.32l0.768-1.199
	c0.077-0.116,0.15-0.234,0.221-0.356l0.22-0.376c0.182-0.31,0.367-0.624,0.546-0.938c0.032-0.056,0.064-0.113,0.095-0.17
	c0.211-0.394,0.414-0.778,0.643-1.213c0.024-0.046,0.048-0.092,0.071-0.139l0.143-0.285c0.181-0.358,0.363-0.718,0.553-1.131
	l0.22-0.47c0.076-0.161,0.146-0.324,0.211-0.49c0.131-0.296,0.263-0.596,0.398-0.911c0.088-0.21,0.169-0.411,0.246-0.61
	c0.069-0.163,0.132-0.324,0.186-0.47c0.103-0.257,0.203-0.524,0.298-0.792c0.005-0.015,0.012-0.029,0.017-0.044
	c0.028-0.076,0.058-0.159,0.088-0.248c0.162-0.44,0.315-0.888,0.457-1.337c0.01-0.03,0.019-0.061,0.028-0.091
	c0.17-0.503,0.321-1.007,0.459-1.481c0.125-0.42,0.231-0.849,0.335-1.272c0.006-0.023,0.013-0.045,0.018-0.068
	c0.002-0.007,0.003-0.014,0.005-0.021c0.001-0.006,0.003-0.012,0.005-0.018c0.092-0.335,0.17-0.655,0.241-0.989
	c0.002-0.012,0.006-0.023,0.008-0.034c0.051-0.22,0.104-0.472,0.157-0.715c0.034-0.158,0.067-0.306,0.101-0.472
	c0.076-0.374,0.15-0.764,0.217-1.173c0.062-0.316,0.114-0.632,0.157-0.958c0.101-0.608,0.183-1.206,0.249-1.797
	c0.064-0.551,0.116-1.115,0.149-1.609c0.047-0.616,0.093-1.244,0.117-1.861c0.023-0.616,0.035-1.257,0.035-1.873
	c0-16.759-9.063-32.299-23.632-40.547c-1.206-0.687-2.45-1.323-3.722-1.901v-2.3c8.933,2.389,17.559,5.168,25.776,8.305
	l0.065,22.855c0.002,0.621,0.081,1.239,0.234,1.841l0.451,1.764c0.277,1.083,0.792,2.091,1.508,2.95
	c8.27,9.922,14.156,22.443,16.574,35.258c0.77,4.078,4.698,6.759,8.777,5.992c4.078-0.77,6.761-4.699,5.992-8.777
	c-0.842-4.461-2.04-8.892-3.555-13.226c4.893-1.608,9.378-4.344,13.122-8.087c6.308-6.294,9.781-14.671,9.781-23.586
	c0-18.387-14.964-33.346-33.356-33.346h-2.518c5.467-61.612-18.906-134.122-59.116-171.39
	C293.026-4.554,274.124-0.859,267.327,1.961c-7.127,2.955-11.713,9.051-11.968,15.91c-0.252,6.758,3.674,12.851,10.501,16.295
	c2.131,1.075,3.162,1.921,3.629,2.391c-1.047,1.673-6.226,7.506-30.616,17.169c-41.176,16.309-65.879,47.702-79.352,71.164
	c-12.323,21.461-20.702,45.576-24.033,68.446h-6.732c-8.908,0-17.282,3.468-23.575,9.76c-6.308,6.294-9.781,14.671-9.781,23.586
	c0,14.719,9.593,27.233,22.853,31.643c-6.466,18.342-7.543,39.556,1.449,59.542c11.956,26.574,45.306,58.252,136.296,58.252
	c65.052,0,100.493-16.346,119.759-35.003c41.962,35.403,65.9,86.714,65.9,141.854v13.998H70.341v-13.998
	c0-46.046,16.977-90.208,47.802-124.351c2.782-3.08,2.539-7.833-0.542-10.614c-3.081-2.781-7.833-2.539-10.614,0.542
	c-33.323,36.909-51.676,84.648-51.676,134.423v21.513c0,4.15,3.365,7.515,7.515,7.515h386.347c4.15,0,7.515-3.365,7.515-7.515
	v-21.513C456.688,423.401,430.841,367.964,385.53,329.7z M149.336,230.796v-21.468c7.927-2.989,16.222-5.643,24.789-7.934v2.289
	c-0.657,0.297-1.303,0.612-1.942,0.936c-0.173,0.088-0.346,0.178-0.518,0.269c-0.529,0.277-1.052,0.562-1.568,0.858
	c-0.112,0.064-0.227,0.126-0.339,0.191c-0.611,0.357-1.21,0.727-1.802,1.11c-0.14,0.091-0.279,0.185-0.418,0.278
	c-0.477,0.316-0.948,0.64-1.412,0.973c-0.139,0.1-0.281,0.198-0.419,0.301c-0.566,0.416-1.124,0.842-1.669,1.281
	c-0.081,0.066-0.16,0.134-0.241,0.2c-0.471,0.385-0.933,0.78-1.388,1.181c-0.138,0.122-0.276,0.244-0.412,0.369
	c-0.499,0.453-0.991,0.913-1.47,1.387c-0.02,0.02-0.041,0.038-0.061,0.058c-0.498,0.495-0.981,1.004-1.456,1.52
	c-0.12,0.13-0.238,0.264-0.357,0.396c-0.39,0.435-0.773,0.876-1.145,1.324c-0.084,0.101-0.17,0.2-0.254,0.302
	c-0.441,0.539-0.869,1.088-1.285,1.646c-0.09,0.12-0.176,0.243-0.266,0.366c-0.338,0.462-0.665,0.93-0.985,1.404
	c-0.096,0.142-0.193,0.285-0.288,0.428c-0.384,0.583-0.758,1.172-1.114,1.773c-0.04,0.068-0.078,0.137-0.118,0.205
	c-0.317,0.538-0.621,1.084-0.917,1.636c-0.087,0.163-0.174,0.328-0.26,0.492c-0.295,0.566-0.58,1.138-0.852,1.717
	c-0.028,0.059-0.058,0.117-0.085,0.177c-0.294,0.634-0.57,1.278-0.836,1.927c-0.068,0.167-0.134,0.336-0.2,0.504
	c-0.21,0.531-0.411,1.067-0.602,1.607C149.415,230.596,149.372,230.695,149.336,230.796z M350.195,246.142
	c0,0.426-0.008,0.869-0.024,1.295s-0.051,0.86-0.088,1.355c-0.022,0.318-0.05,0.636-0.09,0.982
	c-0.043,0.382-0.093,0.748-0.157,1.123c-0.021,0.124-0.055,0.342-0.07,0.468c-0.027,0.13-0.051,0.263-0.071,0.394
	c-0.077,0.499-0.196,1.037-0.315,1.544c-0.016,0.069-0.047,0.199-0.064,0.283l-0.03,0.113c-0.024,0.087-0.047,0.174-0.068,0.263
	c-0.061,0.251-0.127,0.506-0.202,0.757c-0.017,0.058-0.034,0.117-0.05,0.175c-0.088,0.327-0.191,0.653-0.301,0.973
	c-0.044,0.13-0.085,0.263-0.122,0.396c-0.058,0.174-0.118,0.348-0.183,0.518c-0.02,0.055-0.04,0.11-0.06,0.165
	c-0.039,0.099-0.079,0.205-0.108,0.294c-0.038,0.089-0.09,0.218-0.124,0.31c-0.049,0.128-0.098,0.258-0.147,0.393
	c-0.036,0.092-0.072,0.188-0.101,0.256c-0.136,0.319-0.283,0.646-0.428,0.975c-0.025,0.056-0.049,0.112-0.073,0.168
	c-0.062,0.131-0.118,0.254-0.167,0.364c-0.089,0.192-0.186,0.381-0.282,0.568l-0.141,0.28c-0.165,0.315-0.332,0.63-0.504,0.952
	c-0.134,0.233-0.273,0.468-0.409,0.699l-0.852,1.352c-0.619,0.941-1.333,1.893-2.158,2.875c-0.492,0.584-1.007,1.158-1.573,1.75
	c-0.007,0.007-0.014,0.015-0.021,0.022c-0.252,0.26-0.512,0.511-0.772,0.754c-0.027,0.026-0.063,0.06-0.097,0.094
	c-0.098,0.092-0.199,0.18-0.297,0.271c-0.137,0.128-0.273,0.259-0.418,0.382c-0.081,0.068-0.161,0.138-0.239,0.21
	c-0.201,0.185-0.408,0.367-0.626,0.535c-0.086,0.067-0.172,0.135-0.257,0.206c-0.29,0.243-0.588,0.471-0.905,0.714
	c-0.301,0.232-0.609,0.455-0.918,0.67c-0.288,0.201-0.581,0.405-0.884,0.591c-0.059,0.037-0.118,0.074-0.176,0.113
	c-0.295,0.194-0.597,0.381-0.903,0.559c-0.371,0.215-0.732,0.423-1.118,0.633c-0.36,0.196-0.719,0.375-1.023,0.526
	c-0.375,0.183-0.75,0.359-1.149,0.545c-0.002,0.001-0.005,0.002-0.007,0.003c-0.471,0.205-0.973,0.393-1.469,0.584
	c-1.151,0.104-2.273,0.158-3.342,0.158h-6.71c-9.283-27.11-34.767-45.571-63.9-45.571c-15.121,0-29.98,5.153-41.842,14.513
	c-10.173,8.036-17.859,18.909-22.052,31.058h-6.717c-1.084,0-2.221-0.055-3.39-0.161c-0.049-0.019-0.101-0.037-0.149-0.056
	c-0.433-0.169-0.848-0.338-1.227-0.505c-0.012-0.005-0.026-0.011-0.038-0.016c-0.387-0.18-0.775-0.361-1.164-0.552
	c-0.326-0.159-0.646-0.317-1.025-0.528c-0.356-0.194-0.704-0.388-1.109-0.628c-0.309-0.18-0.611-0.367-0.906-0.561
	c-0.058-0.039-0.117-0.076-0.176-0.113c-0.302-0.186-0.595-0.388-0.89-0.589c-0.079-0.057-0.165-0.123-0.245-0.181
	c-0.226-0.164-0.453-0.327-0.693-0.512c-0.322-0.246-0.643-0.494-0.964-0.757c-0.035-0.028-0.069-0.056-0.104-0.084
	c-0.264-0.208-0.52-0.433-0.777-0.662c-0.03-0.027-0.061-0.054-0.092-0.081c-0.262-0.225-0.515-0.459-0.762-0.697
	c-0.068-0.066-0.138-0.131-0.209-0.195c-0.182-0.178-0.376-0.372-0.578-0.574c-0.047-0.047-0.091-0.091-0.14-0.139
	c-0.628-0.657-1.119-1.204-1.541-1.714c-0.021-0.025-0.043-0.051-0.064-0.077c-0.746-0.879-1.455-1.826-2.061-2.746l-0.745-1.163
	l-0.15-0.256c-0.136-0.231-0.274-0.466-0.409-0.699c-0.164-0.307-0.324-0.609-0.503-0.951l-0.142-0.282
	c-0.095-0.188-0.192-0.376-0.261-0.521c-0.062-0.138-0.124-0.273-0.189-0.409c-0.024-0.058-0.049-0.116-0.075-0.174l-0.237-0.534
	c-0.051-0.114-0.102-0.228-0.138-0.316l-0.085-0.207c-0.075-0.183-0.15-0.364-0.231-0.58l-0.128-0.336
	c-0.02-0.06-0.042-0.124-0.066-0.188c-0.026-0.076-0.053-0.151-0.082-0.227c-0.063-0.167-0.123-0.338-0.18-0.509
	c-0.042-0.152-0.09-0.304-0.142-0.453l-0.346-1.109c-0.063-0.21-0.112-0.428-0.163-0.639l-0.026-0.108
	c-0.027-0.115-0.08-0.314-0.113-0.427c-0.015-0.077-0.032-0.154-0.05-0.231c-0.126-0.544-0.247-1.088-0.339-1.632
	c-0.021-0.13-0.045-0.261-0.062-0.397c-0.016-0.126-0.034-0.252-0.055-0.376c-0.064-0.374-0.114-0.741-0.161-1.157
	c-0.036-0.311-0.065-0.629-0.087-0.947c-0.005-0.072-0.011-0.143-0.018-0.215c-0.037-0.377-0.057-0.762-0.071-1.138
	c-0.017-0.426-0.024-0.868-0.024-1.295c0-13.868,8.878-25.974,22.091-30.124c3.132-0.984,5.262-3.887,5.262-7.169v-11.037
	c21.375-4.493,43.83-6.768,66.843-6.768s45.466,2.275,66.843,6.768v11.037c0,3.28,2.126,6.18,5.254,7.166
	c2.12,0.669,4.156,1.556,6.074,2.649C344.055,224.26,350.195,234.789,350.195,246.142z M383.242,208.367
	c10.105,0,18.326,8.217,18.326,18.316c0,4.895-1.907,9.493-5.374,12.953c-2.415,2.415-5.393,4.052-8.642,4.833
	c-2.564-4.74-5.515-9.246-8.815-13.4l-0.064-22.286c0.025-0.138,0.048-0.278,0.072-0.416H383.242z M172.555,132.376
	c12.279-21.384,34.713-49.963,71.854-64.675c27.783-11.008,39.84-20.201,40.315-30.74c0.203-4.509-1.729-10.982-12.093-16.211
	c-1.395-0.703-2.279-1.614-2.253-2.319c0.027-0.715,0.885-1.831,2.704-2.585c6.324-2.62,20.15,0.29,38.308,17.124
	c19.251,17.842,35.295,45.536,45.175,77.981c8.475,27.829,11.574,56.564,9.054,82.387h-2.971
	c-9.771-3.445-20.012-6.426-30.592-8.883c-0.001,0-0.003,0-0.004-0.001c-0.001,0-0.001-0.001-0.002-0.001
	c-24.214-5.6-49.802-8.44-76.051-8.44s-51.837,2.84-76.051,8.44c0,0-0.001,0-0.001,0.001c-0.001,0-0.002,0-0.003,0
	c-10.046,2.33-19.796,5.142-29.14,8.378C154.157,172.626,161.801,151.104,172.555,132.376z M110.43,226.684
	c0-4.895,1.907-9.493,5.374-12.953c3.459-3.459,8.059-5.365,12.953-5.365h5.272c-0.055,1.206-0.117,2.416-0.141,3.609
	c-0.018,0.894,0.133,1.772,0.419,2.6v15.194c-3.626,4.387-6.967,9.336-9.879,14.692C116.409,242.511,110.43,235.292,110.43,226.684z
	"/>
<path d="M301.789,212.415c-0.411-0.271-0.842-0.501-1.303-0.691c-0.451-0.18-0.922-0.331-1.403-0.421c-0.972-0.2-1.964-0.2-2.936,0
	c-0.481,0.09-0.952,0.24-1.403,0.421c-0.461,0.19-0.892,0.421-1.303,0.691c-0.411,0.281-0.792,0.591-1.142,0.942
	c-0.341,0.341-0.661,0.721-0.932,1.142c-0.271,0.401-0.501,0.842-0.691,1.293c-0.19,0.451-0.331,0.932-0.431,1.403
	c-0.1,0.491-0.14,0.982-0.14,1.473c0,1.974,0.802,3.918,2.194,5.311c0.351,0.351,0.731,0.661,1.142,0.942
	c0.411,0.271,0.842,0.501,1.303,0.681c0.451,0.19,0.922,0.341,1.403,0.431c0.481,0.1,0.972,0.15,1.463,0.15s0.992-0.05,1.473-0.15
	c0.481-0.09,0.952-0.24,1.403-0.431c0.461-0.18,0.892-0.411,1.303-0.681c0.411-0.281,0.792-0.591,1.142-0.942
	c1.393-1.393,2.194-3.337,2.194-5.311s-0.802-3.918-2.194-5.311C302.581,213.007,302.201,212.696,301.789,212.415z"/>
<path d="M221.319,215.792c-0.19-0.451-0.421-0.892-0.691-1.293c-0.271-0.421-0.581-0.802-0.932-1.142
	c-0.351-0.351-0.731-0.661-1.142-0.942c-0.411-0.271-0.842-0.501-1.303-0.691c-0.451-0.18-0.922-0.331-1.403-0.421
	c-0.972-0.2-1.964-0.2-2.936,0c-0.481,0.09-0.952,0.24-1.403,0.421c-0.461,0.19-0.892,0.421-1.303,0.691
	c-0.411,0.281-0.792,0.591-1.142,0.942c-0.341,0.341-0.661,0.721-0.932,1.142c-0.271,0.401-0.501,0.842-0.691,1.293
	c-0.19,0.451-0.331,0.922-0.431,1.403c-0.1,0.491-0.14,0.982-0.14,1.473c0,1.974,0.802,3.918,2.194,5.311
	c0.351,0.351,0.731,0.661,1.142,0.932c0.411,0.271,0.842,0.511,1.303,0.691c0.451,0.19,0.922,0.341,1.403,0.431
	c0.481,0.1,0.982,0.15,1.473,0.15c0.481,0,0.982-0.05,1.463-0.15c0.481-0.09,0.952-0.24,1.403-0.431
	c0.461-0.18,0.892-0.421,1.303-0.691c0.411-0.271,0.792-0.581,1.142-0.932c1.403-1.393,2.204-3.337,2.204-5.311
	c0-0.491-0.05-0.982-0.15-1.473C221.65,216.714,221.51,216.243,221.319,215.792z"/>
<path d="M255.999,424.937c12.415,0,22.515-10.1,22.515-22.515s-10.1-22.515-22.515-22.515c-12.415,0-22.515,10.1-22.515,22.515
	C233.485,414.837,243.585,424.937,255.999,424.937z M255.999,394.937c4.127,0,7.485,3.358,7.485,7.485
	c0,4.127-3.358,7.485-7.485,7.485s-7.485-3.358-7.485-7.485S251.872,394.937,255.999,394.937z"/>
<path d="M255.999,480.997c12.415,0,22.515-10.1,22.515-22.515s-10.1-22.515-22.515-22.515c-12.415,0-22.515,10.1-22.515,22.515
	S243.585,480.997,255.999,480.997z M255.999,450.997c4.127,0,7.485,3.358,7.485,7.485c0,4.127-3.358,7.485-7.485,7.485
	s-7.485-3.358-7.485-7.485S251.872,450.997,255.999,450.997z"/>
<g>
</g>
<g>
</g>
<g>
</g>
<g>
</g>
<g>
</g>
<g>
</g>
<g>
</g>
<g>
</g>
<g>
</g>
<g>
</g>
<g>
</g>
<g>
</g>
<g>
</g>
<g>
</g>
<g>
</g>
</svg>
