<svg height="512" viewBox="0 0 512 512" width="512" xmlns="http://www.w3.org/2000/svg"><g id="filled_outline" data-name="filled outline"><path d="m128 136h256v104h-256z" fill="#00a99d"/><path d="m128 192h256v16h-256z" fill="#33918b"/><path d="m88 256h336v144h-336z" fill="#00a99d"/><path d="m88 304h336v96h-336z" fill="#aac56a"/><path d="m88 304h336v16h-336z" fill="#7e924f"/><path d="m40 384h432v32h-432z" fill="#b3b3b3"/><path d="m24 416h464v32h-464z" fill="#999"/><path d="m88 264h336v16h-336z" fill="#33918b"/><path d="m56 248 72-24h256l72 24a24 24 0 0 1 -24 24h-352a24 24 0 0 1 -24-24z" fill="#0877a6"/><path d="m295.963 272h136.037a24 24 0 0 0 24-24l-60.871-20.291a397.811 397.811 0 0 1 -99.166 44.291z" fill="#066086"/><path d="m128 152h256v16h-256z" fill="#33918b"/><path d="m80 160h352a24 24 0 0 0 24-24l-72-24-8-32h-240l-8 32-72 24a24 24 0 0 0 24 24z" fill="#0877a6"/><path d="m379.344 93.377a398.556 398.556 0 0 1 -131.381 66.623h184.037a24 24 0 0 0 24-24l-72-24z" fill="#066086"/><path d="m224 336h64v56h-64z" fill="#5e6e3b"/><path d="m224 376v16h64v-48.146a79.8 79.8 0 0 1 -64 32.146z" fill="#47532c"/><path d="m200 336h32v48h-32z" fill="#e6e6e6"/><path d="m280 336h32v48h-32z" fill="#e6e6e6"/><path d="m200 374.393v9.607h32v-24.109a79.515 79.515 0 0 1 -32 14.502z" fill="#ccc"/><path d="m280 372.326v11.674h32v-30.915a79.927 79.927 0 0 1 -32 19.241z" fill="#ccc"/><path d="m445.21 384a80.224 80.224 0 0 1 -34.51 32h61.3v-32z" fill="#999"/><path d="m173.21 384a80.224 80.224 0 0 1 -34.51 32h61.3v-32z" fill="#999"/><path d="m389.21 416a80.224 80.224 0 0 1 -34.51 32h133.3v-32z" fill="#808080"/><path d="m114.514 416a80.218 80.218 0 0 1 -34.514 32h133.3v-32z" fill="#808080"/><path d="m320 384h-128l-16 64h160z" fill="#e6e6e6"/><path d="m178.393 438.43-2.393 9.57h160l-12.624-50.5a397.327 397.327 0 0 1 -144.983 40.93z" fill="#ccc"/><path d="m488 408h-8v-24a8 8 0 0 0 -8-8h-40v-96a32.031 32.031 0 0 0 32-32.14 7.959 7.959 0 0 0 -5.469-7.446l-66.531-22.177v-50.237h40a32.032 32.032 0 0 0 32-32.139 7.96 7.96 0 0 0 -5.469-7.447l-67.831-22.614-6.7-26.769v-15.031a8 8 0 0 0 -8-8 8 8 0 0 0 -8 8v8h-224v-8a8 8 0 0 0 -8-8 8 8 0 0 0 -8 8v15.031l-6.695 26.769-67.836 22.614a7.96 7.96 0 0 0 -5.469 7.447 32.032 32.032 0 0 0 32 32.139h40v50.237l-66.531 22.177a7.959 7.959 0 0 0 -5.469 7.446 32.031 32.031 0 0 0 32 32.14v96h-40a8 8 0 0 0 -8 8v24h-8a8 8 0 0 0 -8 8v32a8 8 0 0 0 8 8h464a8 8 0 0 0 8-8v-32a8 8 0 0 0 -8-8zm-24 0h-129.758l-4-16h133.758zm-269.75 0 4-16h25.75v8h16v-8h32v8h16v-8h25.75l4 16zm-98.25-96h48v16h-48zm64 0h32v16h-32zm256 16h-48v-16h48zm-64 0h-32v-16h32zm-32 48v-32h32v32zm-80 0v-32h32v32zm-32-32h16v32h-16zm80 0h16v32h-16zm16-16h-96v-16h96zm-112 16v32h-32v-32zm176 32v-32h48v32zm8-160h-16v-16h16zm-192-16v16h-16v-16zm16 0h16v16h-16zm32 0h16v16h-16zm32 0h16v16h-16zm32 0h16v16h-16zm32 0h16v16h-16zm-263.047-58.555 65.578-21.859a7.965 7.965 0 0 0 5.227-5.648l6.492-25.938h227.5l6.492 25.938a7.965 7.965 0 0 0 5.227 5.648l65.578 21.859a16.03 16.03 0 0 1 -15.047 10.555h-352a16.03 16.03 0 0 1 -15.047-10.555zm71.047 26.555h240v16h-240zm16 32v16h-16v-16zm-87.047 53.445 64.347-21.445h253.4l64.344 21.445a16.03 16.03 0 0 1 -15.044 10.555h-352a16.03 16.03 0 0 1 -15.047-10.555zm351.047 26.555v16h-320v-16zm-320 64h48v32h-48zm-48 48h133.758l-4 16h-129.758zm-16 32h141.758l-4 16h-137.758zm154.25 16 4-16h33.75v8h16v-8h32v8h16v-8h33.75l4 16zm293.75 0h-137.758l-4-16h141.758z"/></g></svg>