<svg height="512" viewBox="0 0 512 512" width="512" xmlns="http://www.w3.org/2000/svg"><path d="m64 360h-16v32h-32v16h32v32h16v-32h32v-16h-32z" fill="#694626"/><path d="m464 392v-32h-16v32h-32v16h32v32h16v-32h32v-16z" fill="#694626"/><path d="m432 488 8-56h32l8 56z" fill="#f6c869"/><path d="m32 488 8-56h32l8 56z" fill="#f6c869"/><path d="m34.3 471.884-2.3 16.116h48l-4.16-29.123a79.531 79.531 0 0 1 -41.54 13.007z" fill="#f6bc44"/><path d="m434.3 471.884-2.3 16.116h48l-4.16-29.123a79.531 79.531 0 0 1 -41.54 13.007z" fill="#f6bc44"/><path d="m320 248v-8h-128v8l-40 240h208z" fill="#f6c869"/><path d="m156.157 463.056-4.157 24.944h208l-19.867-119.2a398.841 398.841 0 0 1 -183.976 94.256z" fill="#f6bc44"/><path d="m320 488v-48a16 16 0 0 0 -16-16 16 16 0 0 0 -16 16v48z" fill="#694626"/><path d="m168 248h176l-88-80z" fill="#694626"/><path d="m288 340v20h24v-20a12 12 0 0 0 -12-12 12 12 0 0 0 -12 12z" fill="#f1a531"/><path d="m248 24h16v384h-16z" fill="#f1a531"/><path d="m24 208h464v16h-464z" fill="#f1a531"/><path d="m24 144h128v80h-128z" fill="#48c0f3"/><path d="m144 144v32h-16v-32h-16v32h-16v-32h-16v32h-16v-32h-16v32h-16v-32h-16v32 16 32h16v-32h16v32h16v-32h16v32h16v-32h16v32h16v-32h16v32h16v-32-16-32z" fill="#3998c0"/><path d="m248 24h80v128h-80z" fill="#48c0f3"/><path d="m328 32v-16h-32-16-32v16h32v16h-32v16h32v16h-32v16h32v16h-32v16h32v16h-32v16h32 16 32v-16h-32v-16h32v-16h-32v-16h32v-16h-32v-16h32v-16h-32v-16z" fill="#3998c0"/><path d="m184 280h80v128h-80z" fill="#48c0f3"/><path d="m264 288v-16h-32-16-32v16h32v16h-32v16h32v16h-32v16h32v16h-32v16h32v16h-32v16h80v-16h-32v-16h32v-16h-32v-16h32v-16h-32v-16h32v-16h-32v-16z" fill="#3998c0"/><rect fill="#e37c55" height="32" rx="16" width="32" x="240" y="200"/><path d="m16 480h480v16h-480z" fill="#694626"/><path d="m360 208h128v80h-128z" fill="#48c0f3"/><path d="m360 278v10h128v-45a397.232 397.232 0 0 1 -128 35z" fill="#24b5f3"/><path d="m480 208v32h-16v-32h-16v32h-16v-32h-16v32h-16v-32h-16v32h-16v-32h-16v32 16 32h16v-32h16v32h16v-32h16v32h16v-32h16v32h16v-32h16v32h16v-80z" fill="#3998c0"/><g fill="#1c8fc0"><path d="m352 278.611v9.389h16v-10.967q-7.953.951-16 1.578z"/><path d="m448 258.954v29.046h16v-32h16v32h16v-48.768a397.51 397.51 0 0 1 -48 19.722z"/><path d="m384 274.84v13.16h16v-16.017c-5.291 1.074-10.636 1.995-16 2.857z"/><path d="m416 268.322v19.678h16v-24.01c-5.294 1.542-10.618 3.01-16 4.332z"/></g><path d="m184 379.135v28.865h80v-83.625a400.591 400.591 0 0 1 -80 54.76z" fill="#24b5f3"/><path d="m216 360.586v7.414h-11.906c-6.573 3.908-13.285 7.6-20.094 11.135v4.865h32v16h-32v16h80v-16h-32v-16h32v-16h-32v-16h32v-16h-13.814a400.834 400.834 0 0 1 -34.186 24.586z" fill="#1c8fc0"/><path d="m24 204.016v19.984h128v-60.865a397.087 397.087 0 0 1 -128 40.881z" fill="#24b5f3"/><path d="m16 205.033v18.967h16v-21.16c-5.295.852-10.638 1.551-16 2.193z" fill="#1c8fc0"/><path d="m144 167.232v8.768h-16v-1.379a396.885 396.885 0 0 1 -48.037 17.379h.037v32h16v-32h16v32h16v-32h16v32h16v-65.046c-5.259 2.883-10.6 5.628-16 8.278z" fill="#1c8fc0"/><path d="m48 199.983v24.017h16v-27.678c-5.3 1.306-10.619 2.568-16 3.661z" fill="#1c8fc0"/><path d="m248 109.178v42.822h80v-84.567a398.857 398.857 0 0 1 -80 41.745z" fill="#24b5f3"/><path d="m278.5 96h1.5v16h-32v16h32v16h-32v16h80v-16h-32v-16h32v-16h-32v-16h32v-16h-19.906c-9.62 5.72-19.474 11.086-29.594 16z" fill="#1c8fc0"/></svg>