<svg height="512" viewBox="0 0 512 512" width="512" xmlns="http://www.w3.org/2000/svg"><path d="m251.521 7.621h48v96h-48z" fill="#f6c869" transform="matrix(.122 -.993 .993 .122 186.737 322.31)"/><path d="m263.68 86.41-15.875-1.949 2.924-23.828a8 8 0 0 1 8.912-6.963 8 8 0 0 1 6.963 8.912z" fill="#f09c57"/><path d="m295.438 90.309-15.876-1.95 2.925-23.827a8 8 0 0 1 8.912-6.964 8 8 0 0 1 6.963 8.912z" fill="#f09c57"/><path d="m228.096 48h96.721l1.271-10.351-95.284-11.699z" fill="#f1b355"/><path d="m270.444-32.202h16.002v128.001h-16.002z" fill="#8c6847" transform="matrix(.122 -.993 .993 .122 212.953 304.294)"/><path d="m162.763 448.81a12 12 0 1 1 23.821 2.924l-4.453 36.266h24.18l3.607-29.371a16 16 0 0 1 31.761 3.9l-3.127 25.471h24.18l3.256-26.516a12 12 0 0 1 23.821 2.922l46.31-377.165-127.046-15.6-51.122 416.359z" fill="#f6c869"/><g fill="#f09c57"><path d="m272.734 143.941-15.875-1.953 3.9-31.764a8 8 0 0 1 8.913-6.962 8 8 0 0 1 6.961 8.912z"/><path d="m240.977 140.039-15.877-1.945 3.9-31.766a8 8 0 0 1 8.91-6.965 8 8 0 0 1 6.965 8.911z"/><path d="m304.492 147.84-15.875-1.953 3.9-31.76a8 8 0 0 1 8.914-6.963 8 8 0 0 1 6.961 8.912z"/><path d="m265.906 199.523-15.875-1.953 3.9-31.763a8 8 0 0 1 8.915-6.963 8 8 0 0 1 6.961 8.912z"/><path d="m234.148 195.625-15.875-1.953 3.9-31.764a8 8 0 0 1 8.914-6.962 8 8 0 0 1 6.961 8.912z"/><path d="m297.672 203.422-15.872-1.953 3.9-31.76a8 8 0 0 1 8.914-6.963 8 8 0 0 1 6.961 8.913z"/><path d="m259.086 255.105-15.875-1.953 3.9-31.759a8 8 0 0 1 8.914-6.963 8 8 0 0 1 6.961 8.912z"/><path d="m227.32 251.207-15.875-1.953 3.9-31.764a8 8 0 0 1 8.915-6.962 8 8 0 0 1 6.961 8.912z"/><path d="m290.844 259.008-15.875-1.953 3.9-31.764a8 8 0 0 1 8.914-6.963 8 8 0 0 1 6.961 8.912z"/><path d="m252.258 310.687-15.875-1.953 3.9-31.759a8 8 0 0 1 8.914-6.963 8 8 0 0 1 6.961 8.912z"/><path d="m220.5 306.789-15.875-1.953 3.9-31.764a8 8 0 0 1 8.914-6.962 8 8 0 0 1 6.962 8.912z"/><path d="m284.023 314.59-15.875-1.953 3.9-31.764a8 8 0 0 1 8.914-6.963 8 8 0 0 1 6.961 8.913z"/><path d="m245.438 366.273-15.876-1.953 3.9-31.763a8 8 0 0 1 8.914-6.963 8 8 0 0 1 6.961 8.912z"/><path d="m213.672 362.371-15.872-1.953 3.9-31.76a8 8 0 0 1 8.914-6.962 8 8 0 0 1 6.961 8.912z"/><path d="m277.2 370.172-15.875-1.953 3.9-31.764a8 8 0 0 1 8.915-6.963 8 8 0 0 1 6.961 8.913z"/><path d="m238.609 421.855-15.875-1.955 3.9-31.763a8 8 0 0 1 8.915-6.963 8 8 0 0 1 6.961 8.912z"/><path d="m206.852 417.953-15.875-1.953 3.9-31.76a8 8 0 0 1 8.914-6.962 8 8 0 0 1 6.961 8.912z"/><path d="m270.375 425.754-15.875-1.954 3.9-31.764a8 8 0 0 1 8.914-6.963 8 8 0 0 1 6.962 8.913z"/><path d="m176.136 438.361a12 12 0 0 0 -13.373 10.449l-4.812 39.19h24.18l4.453-36.266a12 12 0 0 0 -10.448-13.373z"/><path d="m227.748 444.7a16 16 0 0 0 -17.83 13.93l-3.607 29.37h32.241l3.127-25.471a16 16 0 0 0 -13.931-17.829z"/><path d="m279.361 451.036a12 12 0 0 0 -13.373 10.448l-3.256 26.516h24.18l2.9-23.594a12 12 0 0 0 -10.451-13.37z"/></g><path d="m206.083 96h128.96l1.076-8.759-127.046-15.599z" fill="#f1b355"/><path d="m264.596-.557h16.002v159.997h-16.002z" fill="#8c6847" transform="matrix(.122 -.993 .993 .122 160.525 340.325)"/><path d="m274.222 128h-72.069l-2.946 24h128.961l.151-1.234 1.951-15.884z" fill="#f1b355"/><path d="m257.768 55.025h16.002v159.997h-16.002z" fill="#8c6847" transform="matrix(.122 -.993 .993 .122 99.361 382.355)"/><path d="m240.002 184h-44.725l-2.946 24h128.961l2.017-16.426z" fill="#f1b355"/><path d="m250.948 110.609h16.002v159.997h-16.002z" fill="#8c6847" transform="matrix(.122 -.993 .993 .122 38.208 424.401)"/><path d="m240 240h-51.599l-2.946 24h128.961l1.257-10.241z" fill="#f1b355"/><path d="m244.12 166.191h16.002v159.997h-16.002z" fill="#8c6847" transform="matrix(.122 -.993 .993 .122 -22.956 466.433)"/><path d="m232 296h-50.474l-2.947 24h128.961l1.065-8.679z" fill="#f1b355"/><path d="m237.296 221.771h16.002v160.005h-16.002z" fill="#8c6847" transform="matrix(.122 -.993 .993 .122 -84.122 508.464)"/><path d="m232 352h-57.35l-2.947 24h128.961l1.231-10.021z" fill="#f1b355"/><path d="m230.471 277.357h16.002v159.997h-16.002z" fill="#8c6847" transform="matrix(.122 -.993 .993 .122 -145.283 550.497)"/><path d="m224.001 408h-56.227l-2.947 24h128.961l1.204-9.802z" fill="#f1b355"/><path d="m223.647 332.935h16.002v160.005h-16.002z" fill="#8c6847" transform="matrix(.122 -.993 .993 .122 -206.442 592.534)"/><path d="m64 448h16v40h-16z" fill="#8c6847"/><path d="m432 448h16v40h-16z" fill="#8c6847"/><path d="m400 432h16v64h-16z" fill="#8c6847"/><rect fill="#aac56a" height="48" rx="16" width="32" x="56" y="408"/><rect fill="#aac56a" height="48" rx="16" width="32" x="424" y="408"/><rect fill="#83b45a" height="80" rx="16" width="32" x="392" y="360"/><path d="m159.741 473.424-1.79 14.576h24.18l4.081-33.241a80.075 80.075 0 0 1 -26.471 18.665z" fill="#f08833"/><path d="m208.124 473.239-1.812 14.761h32.24l3.127-25.471a15.909 15.909 0 0 0 -3.579-12.129 80.2 80.2 0 0 1 -29.976 22.839z" fill="#f08833"/><path d="m264.571 473.024-1.839 14.976h24.18l2.9-23.594a11.889 11.889 0 0 0 -1.6-7.51 80.116 80.116 0 0 1 -23.641 16.128z" fill="#f08833"/><path d="m16 480h480v16h-480z" fill="#6f5438"/><path d="m392 423.891v.109a16 16 0 0 0 32 0v-48a15.86 15.86 0 0 0 -.854-4.93 79.818 79.818 0 0 1 -31.146 52.821z" fill="#5d9133"/><path d="m428.164 450.68a15.946 15.946 0 0 0 27.836-10.68v-16a15.88 15.88 0 0 0 -.59-4.079 80.287 80.287 0 0 1 -27.246 30.759z" fill="#889d55"/><path d="m60.164 450.68a15.946 15.946 0 0 0 27.836-10.68v-16a15.88 15.88 0 0 0 -.59-4.079 80.287 80.287 0 0 1 -27.246 30.759z" fill="#889d55"/></svg>