<?xml version="1.0" encoding="iso-8859-1"?>
<!-- Generator: Adobe Illustrator 19.0.0, SVG Export Plug-In . SVG Version: 6.00 Build 0)  -->
<svg version="1.1" id="Layer_1" xmlns="http://www.w3.org/2000/svg" xmlns:xlink="http://www.w3.org/1999/xlink" x="0px" y="0px"
	 viewBox="0 0 512.001 512.001" style="enable-background:new 0 0 512.001 512.001;" xml:space="preserve">
<path style="fill:#E2B700;" d="M122.89,383.224l17.665-27.315c0,0,17.026-20.548,31.653-38.947
	c-23.391-7.002-48.703-16.639-48.703-16.639c-8.382,10.908-14.277,17.202-21.862,26.477c0,0-10.572,28.171-13.708,35.12
	c-1.059,2.346-2.429,4.519-3.937,6.606c-2.235,3.092-3.461,6.831-3.461,10.697v34.303v27.893c0,4.86,3.94,8.8,8.8,8.8h27.838h8.981
	c4.015,0,7.27-3.255,7.27-7.27V432.75c0-10.618-5.022-19.225-16.251-19.225v-17.032C117.175,391.472,119.242,386.673,122.89,383.224
	z"/>
<path style="fill:#D6AF07;" d="M117.175,413.524L117.175,413.524v-17.031c0-5.02,2.067-9.82,5.715-13.269l17.665-27.315
	c0,0,17.026-20.548,31.653-38.947c-6.104-1.827-12.334-3.833-18.216-5.801c-23.85,37.378-62.264,72.064-62.264,72.064
	c-3.648,3.45-5.715,8.249-5.715,13.269v17.031c11.229,0,16.251,8.607,16.251,19.226v10.197c0,4.015-3.255,7.27-7.269,7.27h22.18
	h8.981c1.255,0,2.435-0.318,3.465-0.877c2.266-1.231,3.804-3.632,3.804-6.392V432.75
	C133.426,422.132,128.404,413.524,117.175,413.524z"/>
<path style="fill:#FEDA2E;" d="M80.538,413.514v0.01v27.893c0,4.86,3.94,8.8,8.8,8.8h27.838h8.981c4.015,0,7.27-3.255,7.27-7.27
	V432.75c0-10.618-5.022-19.226-16.251-19.226v-0.01L80.538,413.514L80.538,413.514z"/>
<g>
	<path style="fill:#FDBF00;" d="M117.175,413.524v-0.01H86.014v0.01c11.229,0,16.251,8.608,16.251,19.226v10.197
		c0,4.015-3.255,7.27-7.27,7.27h22.18h8.981c4.015,0,7.27-3.255,7.27-7.27V432.75C133.426,422.132,128.404,413.524,117.175,413.524z
		"/>
	<path style="fill:#FDBF00;" d="M357.124,418.963L357.124,418.963l2.539-62.906c5.689-17.67,16.548-52.07,20.222-63.719
		c-13.391,3.665-27.986,1.543-39.975-6.382c-29.804-19.702-75.977-55.383-94.426-97.332c-1.867-4.245-3.093-8.683-3.7-13.177
		l-128.281-0.001c-37.519,0-67.935,30.415-67.935,67.934v25.624l-6.061,70.247c-0.219,2.535-6.042,15.719-9.178,22.668
		c-1.059,2.347-2.429,4.519-3.937,6.606c-2.235,3.092-3.461,6.831-3.461,10.697v34.303v27.893c0,4.86,3.94,8.8,8.8,8.8h27.838h8.981
		c4.015,0,7.27-3.255,7.27-7.27V432.75c0-10.618-5.022-19.225-16.251-19.225v-17.031c0-5.02,2.067-9.82,5.715-13.269l17.665-27.315
		c0,0,22.191-26.397,39.644-49.109h7.791c0,0,85.728,37.273,156.258,27.203c14.684-2.096,28.059,8.722,29.181,23.512l4.663,61.448
		v27.893c0,4.86,3.94,8.8,8.8,8.8h27.838h8.981c4.015,0,7.27-3.255,7.27-7.27V438.19
		C373.375,427.57,368.353,418.963,357.124,418.963z"/>
</g>
<path style="fill:#EDAF00;" d="M357.124,418.963L357.124,418.963l2.539-62.906c6.082-18.892,48.447-68.51,61.086-89.309
	c-9.538,7.432-18.752,13.904-26.777,19.209c-13.5,8.924-30.306,10.493-44.974,4.719c-7.868,25.163-16.627,52.773-20.687,65.381
	l-2.54,62.906l0,0c11.229,0,16.251,8.607,16.251,19.225v10.197c0,4.015-3.255,7.27-7.27,7.27h22.37h8.981
	c4.015,0,7.27-3.255,7.27-7.27v-10.197C373.375,427.57,368.353,418.963,357.124,418.963z"/>
<path style="fill:#E2B700;" d="M431.94,436.252c-0.018-0.298-0.054-0.587-0.081-0.881c-0.03-0.332-0.052-0.668-0.093-0.993
	c-0.047-0.378-0.115-0.744-0.177-1.114c-0.039-0.23-0.068-0.465-0.113-0.691c-0.083-0.424-0.187-0.834-0.29-1.245
	c-0.04-0.159-0.072-0.324-0.115-0.482c-0.124-0.453-0.27-0.891-0.42-1.326c-0.036-0.104-0.065-0.213-0.103-0.315
	c-0.17-0.468-0.361-0.919-0.562-1.363c-0.028-0.061-0.051-0.125-0.079-0.186c-0.219-0.471-0.459-0.923-0.714-1.364
	c-0.016-0.027-0.029-0.056-0.045-0.084c-0.27-0.461-0.562-0.903-0.872-1.328c-0.003-0.004-0.006-0.009-0.009-0.013
	c-2.524-3.456-6.386-5.656-11.71-5.863h-0.002h-0.001c-0.272-0.011-0.53-0.04-0.809-0.04l2.54-62.906
	c9.476-29.432,25.321-85.468,32.95-116.072c-19.101,19.144-40.707,35.026-57.265,45.972c-7.304,4.829-15.577,7.5-23.955,8.025
	l9.093,124.98v0.04v5.563v22.29c0,2.327,0.91,4.437,2.386,6.011l0.001,0.001c0.4,0.426,0.84,0.813,1.317,1.153
	c0.003,0.002,0.005,0.004,0.008,0.006c0.229,0.163,0.466,0.315,0.711,0.455c0.014,0.008,0.027,0.017,0.041,0.025
	c0.231,0.131,0.469,0.251,0.712,0.361c0.03,0.014,0.058,0.029,0.088,0.042c0.228,0.1,0.462,0.188,0.699,0.269
	c0.047,0.016,0.093,0.036,0.141,0.051c0.223,0.072,0.452,0.13,0.683,0.184c0.064,0.015,0.126,0.035,0.191,0.049
	c0.229,0.048,0.464,0.082,0.699,0.112c0.067,0.009,0.132,0.023,0.2,0.031c0.303,0.032,0.611,0.049,0.923,0.049h27.838h8.981
	c2.598,0,4.872-1.367,6.157-3.417c0.701-1.118,1.113-2.436,1.113-3.853v-10.197c0-0.058-0.005-0.113-0.005-0.171
	C431.99,437.423,431.975,436.833,431.94,436.252z"/>
<path style="fill:#D6AF07;" d="M431.94,436.251c-0.017-0.278-0.049-0.549-0.075-0.823c-0.031-0.351-0.055-0.706-0.098-1.051
	c-0.004-0.031-0.01-0.06-0.014-0.09c-0.045-0.336-0.102-0.666-0.158-0.996c-0.039-0.239-0.071-0.483-0.117-0.718
	c-0.083-0.423-0.186-0.831-0.289-1.241c-0.04-0.162-0.073-0.328-0.116-0.487c-0.044-0.159-0.099-0.311-0.148-0.467
	c-0.088-0.284-0.173-0.571-0.269-0.85c-0.033-0.095-0.06-0.194-0.094-0.288c-0.004-0.012-0.007-0.024-0.012-0.036
	c-0.169-0.468-0.36-0.918-0.561-1.361c-0.028-0.062-0.051-0.127-0.08-0.188c-0.219-0.471-0.459-0.923-0.714-1.364
	c-0.007-0.012-0.014-0.025-0.02-0.037c-0.008-0.016-0.017-0.033-0.026-0.048c-0.27-0.461-0.561-0.902-0.871-1.327l0,0
	c-0.003-0.004-0.006-0.009-0.009-0.013c-0.304-0.416-0.629-0.812-0.972-1.19c-0.017-0.018-0.032-0.038-0.048-0.056
	c-0.341-0.372-0.702-0.723-1.081-1.056c-0.02-0.018-0.038-0.037-0.058-0.054c-0.387-0.335-0.794-0.648-1.22-0.94
	c-0.014-0.009-0.027-0.02-0.041-0.03c-0.438-0.297-0.897-0.571-1.377-0.82c-0.003-0.002-0.006-0.004-0.009-0.005
	c-0.053-0.028-0.114-0.047-0.168-0.075c-0.437-0.219-0.886-0.426-1.358-0.603c-0.094-0.035-0.199-0.058-0.294-0.092
	c-0.443-0.156-0.891-0.306-1.363-0.425c-0.328-0.083-0.68-0.135-1.023-0.199c-0.258-0.048-0.503-0.112-0.769-0.149
	c-0.62-0.087-1.262-0.144-1.928-0.17h-0.001c-0.273-0.011-0.531-0.04-0.812-0.04l2.54-62.906
	c9.476-29.432,25.321-85.468,32.95-116.072c-0.148,0.148-0.299,0.292-0.447,0.44c-0.586,0.584-1.177,1.16-1.767,1.738
	c-0.596,0.584-1.189,1.169-1.789,1.747c-0.614,0.591-1.232,1.173-1.85,1.757c-0.584,0.552-1.166,1.107-1.753,1.653
	c-0.641,0.597-1.286,1.183-1.931,1.773c-0.57,0.521-1.138,1.046-1.71,1.562c-0.661,0.596-1.325,1.18-1.988,1.768
	c-0.562,0.498-1.122,1-1.684,1.491c-0.671,0.586-1.342,1.16-2.014,1.737c-0.558,0.48-1.116,0.965-1.674,1.439
	c-0.659,0.56-1.318,1.106-1.977,1.657c-0.574,0.48-1.149,0.967-1.723,1.441c-0.599,0.494-1.195,0.975-1.793,1.462
	c-0.635,0.518-1.271,1.041-1.904,1.55c-0.416,0.334-0.828,0.657-1.243,0.988c-6.841,5.452-13.565,10.428-19.862,14.848
	c-6.692,32.168-14.097,66.614-17.447,77.021l-2.54,62.906l0,0c11.229,0,16.251,8.607,16.251,19.225v10.197
	c0,4.015-3.255,7.27-7.27,7.27h22.625h8.981c0.296,0,0.585-0.023,0.872-0.057c0.083-0.01,0.164-0.024,0.246-0.037
	c0.11-0.017,0.217-0.043,0.325-0.065c0.099-0.02,0.2-0.035,0.298-0.059c0.078-0.019,0.157-0.038,0.234-0.06
	c0.245-0.069,0.486-0.149,0.719-0.243c0.024-0.009,0.048-0.017,0.072-0.026c0.273-0.113,0.537-0.242,0.792-0.385
	c0.018-0.01,0.034-0.021,0.051-0.031c0.234-0.135,0.46-0.283,0.677-0.442c0.029-0.021,0.057-0.043,0.086-0.065
	c0.316-0.24,0.605-0.512,0.879-0.799c0.061-0.064,0.122-0.129,0.181-0.196c0.265-0.299,0.513-0.612,0.726-0.952l0,0
	c0.348-0.555,0.623-1.159,0.814-1.8c0.006-0.018,0.009-0.038,0.015-0.057c0.078-0.271,0.136-0.55,0.183-0.833
	c0.012-0.072,0.024-0.144,0.033-0.218c0.03-0.231,0.043-0.468,0.051-0.705c0.003-0.079,0.017-0.154,0.017-0.234v-0.006v-10.197
	c0-0.009-0.001-0.019-0.001-0.028C431.997,437.516,431.978,436.879,431.94,436.251z"/>
<path style="fill:#FEDA2E;" d="M416.558,419.002H379.11v27.853c0,4.86,3.94,8.8,8.8,8.8h27.838h8.981c4.015,0,7.27-3.255,7.27-7.27
	v-10.197C431.998,427.835,427.206,419.417,416.558,419.002z"/>
<path style="fill:#FDBF00;" d="M431.863,435.406c-0.031-0.345-0.054-0.693-0.097-1.031c-0.046-0.369-0.112-0.726-0.172-1.087
	c-0.04-0.239-0.071-0.482-0.117-0.717c-0.082-0.419-0.185-0.824-0.287-1.23c-0.041-0.165-0.074-0.334-0.119-0.497
	c-0.124-0.451-0.268-0.887-0.418-1.319c-0.036-0.106-0.067-0.217-0.105-0.321c-0.17-0.466-0.359-0.917-0.56-1.359
	c-0.028-0.062-0.052-0.128-0.081-0.19c-0.219-0.469-0.458-0.922-0.712-1.361c-0.016-0.028-0.03-0.059-0.047-0.087
	c-0.27-0.46-0.56-0.903-0.871-1.327c-0.003-0.005-0.006-0.01-0.01-0.014c-2.529-3.449-6.388-5.656-11.711-5.864H384.95
	c10.648,0.414,15.44,8.833,15.44,19.186v10.197c0,4.015-3.255,7.27-7.27,7.27h22.625h8.981c4.015,0,7.27-3.255,7.27-7.27v-10.197
	c0-0.654-0.02-1.3-0.058-1.937C431.923,435.965,431.888,435.688,431.863,435.406z"/>
<path style="fill:#EDAF00;" d="M65.285,383.224l17.665-27.315c0,0,22.191-26.397,39.644-49.109l0,0
	c-19.511,0-37.977,8.824-50.246,23.995c-11.326,14.005-20.664,25.114-20.664,25.114l-17.665,27.315
	c-3.648,3.45-5.715,8.249-5.715,13.269v17.031c11.229,0,16.251,8.607,16.251,19.226v10.197c0,4.015-3.255,7.27-7.27,7.27H59.57
	h8.982c4.015,0,7.27-3.255,7.27-7.27V432.75c0-10.618-5.022-19.226-16.251-19.226v-17.031
	C59.57,391.472,61.637,386.673,65.285,383.224z"/>
<path style="fill:#FDBF00;" d="M7.32,296.286c0.655-11.951,8.176-21.256,16.798-20.784c8.623,0.472,15.082,10.544,14.427,22.495
	c-0.655,11.951-8.429,37.178-17.051,36.706C12.872,334.23,6.665,308.237,7.32,296.286z"/>
<path style="fill:#FEDA2E;" d="M31.732,450.217H59.57h8.981c4.015,0,7.27-3.255,7.27-7.27V432.75
	c0-10.618-5.022-19.226-16.251-19.226H22.932v27.893C22.932,446.277,26.872,450.217,31.732,450.217z"/>
<path style="fill:#FDBF00;" d="M59.57,413.524H28.303c11.229,0,16.251,8.608,16.251,19.226v10.197c0,4.015-3.255,7.27-7.27,7.27
	h22.285h8.981c4.015,0,7.27-3.255,7.27-7.27V432.75C75.821,422.132,70.799,413.524,59.57,413.524z"/>
<path style="fill:#FEDA2E;" d="M320.487,446.856c0,4.86,3.94,8.8,8.8,8.8h27.838h8.981c4.015,0,7.27-3.255,7.27-7.27v-10.197
	c0-10.352-4.791-18.77-15.438-19.186h-37.451V446.856z"/>
<path style="fill:#FDBF00;" d="M373.24,435.41c-0.031-0.345-0.054-0.695-0.097-1.034c-0.046-0.368-0.112-0.726-0.172-1.086
	c-0.04-0.239-0.071-0.484-0.117-0.719c-0.082-0.419-0.185-0.825-0.287-1.232c-0.041-0.164-0.074-0.332-0.118-0.494
	c-0.124-0.451-0.268-0.888-0.418-1.321c-0.036-0.106-0.066-0.216-0.104-0.32c-0.17-0.467-0.36-0.918-0.561-1.361
	c-0.028-0.061-0.051-0.126-0.079-0.187c-0.219-0.47-0.458-0.924-0.713-1.364c-0.016-0.027-0.03-0.057-0.046-0.084
	c-0.27-0.46-0.56-0.902-0.87-1.326c-0.004-0.005-0.007-0.011-0.011-0.016c-2.528-3.448-6.386-5.655-11.706-5.864
	c-0.002,0-0.004,0-0.006,0h-31.352c10.648,0.414,15.441,8.833,15.441,19.186v10.197c0,4.015-3.255,7.27-7.27,7.27h22.37h8.981
	c4.015,0,7.27-3.255,7.27-7.27v-10.197c0-0.654-0.02-1.3-0.058-1.938C373.3,435.966,373.265,435.691,373.24,435.41z"/>
<path style="fill:#FE8901;" d="M470.192,100.78c-7.995-8.994-16.54-17.352-24.454-24.554
	c-17.792-16.189-42.168-23.049-65.797-18.545l0,0c-8.589,1.637-17.409,1.637-25.998,0l0,0c-23.629-4.504-48.005,2.356-65.797,18.545
	c-7.915,7.202-16.46,15.56-24.454,24.554c-11.11,12.499-20.977,28.534-27.875,41.015c-8.102,14.66-8.872,32.267-2.129,47.599
	c20.241,46.024,70.899,85.17,103.598,106.786c17.987,11.89,41.326,11.89,59.313,0c32.699-21.615,83.356-60.762,103.598-106.786
	c6.743-15.332,5.973-32.939-2.129-47.599C491.169,129.315,481.302,113.279,470.192,100.78z"/>
<path style="fill:#FECE00;" d="M420.924,118.549l-5.46-4.443c-3.304-2.689-6.873-4.985-10.635-6.863
	c-12.814-6.397-28.413-1.605-35.771,10.681l0,0c-0.958,1.599-3.275,1.599-4.232,0c-7.358-12.287-22.957-17.078-35.771-10.681
	c-3.762,1.878-7.332,4.174-10.635,6.863l-5.46,4.443c-13.448,10.944-21.255,27.361-21.255,44.7v14.801
	c0,9.812,4.198,19.061,11.275,25.858c4.718,4.531,7.962,10.376,9.312,16.776c1.702,8.07,5.295,15.504,10.41,21.675
	c0.121,4.247,1.558,8.503,3.544,12.407c2.419,4.757,6.396,8.193,10.997,10.057c-0.001,0-0.002-0.001-0.002-0.001
	c3.915,8.244,15.731,14.235,29.701,14.235c14,0,25.834-6.018,29.724-14.29c4.643-1.897,8.65-5.387,11.054-10.161
	c1.943-3.859,3.34-8.055,3.459-12.243c5.117-6.172,8.711-13.608,10.413-21.679c1.35-6.399,4.594-12.245,9.312-16.776
	c7.077-6.796,11.275-16.046,11.275-25.858v-14.801C442.178,145.91,434.372,129.493,420.924,118.549z"/>
<path style="fill:#E57501;" d="M498.067,141.795c-6.898-12.48-16.765-28.516-27.875-41.015c-7.995-8.994-16.54-17.353-24.454-24.554
	c-17.792-16.189-42.168-23.049-65.797-18.545l0,0c-0.527,0.101-1.057,0.175-1.585,0.264c13.196,2.751,25.61,8.97,35.844,18.282
	c7.915,7.201,16.46,15.56,24.454,24.554c11.11,12.499,20.977,28.535,27.875,41.015c8.102,14.66,8.872,32.267,2.129,47.599
	c-20.241,46.024-70.899,85.17-103.598,106.786c-4.365,2.885-9.046,5.064-13.888,6.549c15.112,4.635,31.803,2.456,45.425-6.549
	c32.699-21.615,83.357-60.762,103.598-106.786C506.939,174.062,506.169,156.455,498.067,141.795z"/>
<path style="fill:#FEF3CA;" d="M406.702,229.872c-14.919-17.251-39.761,1.865-39.761,1.865s-24.841-19.116-39.761-1.865
	c-6.715,7.764-4.93,17.039-0.936,24.893c2.419,4.757,6.396,8.193,10.997,10.057c-0.001,0-0.002-0.001-0.002-0.001
	c3.915,8.244,15.731,14.235,29.701,14.235c14,0,25.834-6.018,29.724-14.29c4.643-1.897,8.65-5.387,11.054-10.161
	C411.656,246.785,413.372,237.583,406.702,229.872z"/>
<path style="fill:#FDBF00;" d="M398.855,191.603c-6.862-6.605-14.35-19.003-20.346-30.259c-4.922-9.239-18.212-9.239-23.134,0
	c-5.997,11.256-13.484,23.654-20.346,30.259c-14.575,14.027-13.358,48.361-13.311,49.568c0.317,0.404,0.654,0.792,0.984,1.185
	c-0.122-4.295,1.103-8.58,4.479-12.484c14.919-17.251,39.761,1.865,39.761,1.865s24.842-19.116,39.761-1.865
	c3.377,3.905,4.599,8.192,4.476,12.488c0.331-0.395,0.669-0.784,0.986-1.189C412.213,239.964,413.429,205.63,398.855,191.603z"/>
<path style="fill:#F2B200;" d="M420.924,118.549l-5.46-4.443c-3.304-2.688-6.873-4.985-10.635-6.863
	c-9.085-4.535-19.568-3.441-27.523,1.956c2.463,1.455,4.835,3.082,7.076,4.907l5.46,4.443c13.448,10.944,21.255,27.362,21.255,44.7
	v14.801c0,9.812-4.198,19.061-11.275,25.858c-4.718,4.531-7.962,10.376-9.312,16.776c-0.142,0.676-0.312,1.341-0.481,2.008
	c5.807-0.213,11.775,1.517,16.673,7.181c3.378,3.905,4.599,8.193,4.476,12.489c5.117-6.172,8.711-13.607,10.413-21.678
	c1.35-6.4,4.594-12.245,9.312-16.776c7.077-6.796,11.275-16.046,11.275-25.858v-14.801
	C442.178,145.91,434.372,129.493,420.924,118.549z"/>
<path style="fill:#EAA803;" d="M409.98,235.28c0.089,0.23,0.194,0.459,0.273,0.69c0.026,0.076,0.041,0.153,0.066,0.229
	c0.316,0.974,0.548,1.958,0.687,2.948c0.005,0.037,0.006,0.075,0.011,0.113c0.138,1.03,0.191,2.065,0.162,3.101
	c0.006-0.008,0.013-0.015,0.019-0.023c0.336-0.406,0.648-0.83,0.97-1.247c0.062-1.684,0.799-26.423-7.929-42.264
	c-1.311,1.807-2.783,3.512-4.417,5.081c-4.718,4.531-7.962,10.376-9.312,16.776c-0.142,0.676-0.312,1.341-0.481,2.008
	c0.001,0,0.002,0,0.002,0c1.044-0.038,2.091-0.012,3.138,0.088c0.104,0.01,0.208,0.021,0.312,0.033
	c0.539,0.059,1.077,0.139,1.613,0.24c0.143,0.027,0.287,0.049,0.429,0.079c0.26,0.055,0.519,0.118,0.779,0.183
	c0.227,0.057,0.454,0.12,0.681,0.185c0.252,0.073,0.504,0.146,0.755,0.23c0.377,0.125,0.753,0.265,1.126,0.416
	c0.186,0.075,0.371,0.156,0.556,0.238c0.334,0.147,0.666,0.306,0.996,0.475c0.124,0.064,0.249,0.12,0.372,0.187
	c0.435,0.235,0.865,0.497,1.292,0.772c0.135,0.087,0.268,0.178,0.402,0.269c0.404,0.275,0.804,0.565,1.199,0.878
	c0.047,0.037,0.095,0.07,0.142,0.108c0.437,0.353,0.866,0.739,1.29,1.143c0.107,0.102,0.214,0.206,0.32,0.311
	c0.429,0.424,0.854,0.865,1.268,1.345c0.422,0.488,0.811,0.982,1.167,1.482C408.781,232.631,409.462,233.946,409.98,235.28z"/>
<path style="fill:#FDEA96;" d="M408.742,232.697c-0.319,0.739-0.661,1.469-1.023,2.186c-5.256,10.44-18.172,14.766-28.671,9.63
	l-7.175-3.51c-3.018-1.476-4.932-4.543-4.932-7.903v-0.018c0,3.371-1.92,6.447-4.948,7.928l-7.134,3.49
	c-10.523,5.148-23.305,0.985-28.615-9.458c-0.391-0.769-0.761-1.553-1.104-2.347c-4.217,7.122-2.417,15.147,1.104,22.068
	c5.311,10.442,18.092,14.605,28.615,9.458l7.134-3.49c3.028-1.481,4.948-4.558,4.948-7.928v0.018c0,3.36,1.914,6.426,4.932,7.903
	l7.175,3.51c10.499,5.136,23.415,0.81,28.671-9.63C411.185,247.72,412.926,239.764,408.742,232.697z"/>
<path style="fill:#513622;" d="M392.195,215.254L392.195,215.254c-3.449-6.309-11.378-8.599-17.659-5.099l-0.014,0.008
	c-4.713,2.626-10.449,2.626-15.163,0l-0.014-0.008c-6.281-3.5-14.21-1.21-17.659,5.099l0,0c-3.494,6.392-1.028,14.406,5.455,17.729
	l0.033,0.017c3.281,1.682,5.74,4.544,7.173,7.941c1.856,4.4,6.211,7.488,11.286,7.488h1.255h0.105h1.255
	c5.076,0,9.43-3.088,11.286-7.488c1.433-3.397,3.892-6.26,7.173-7.941l0.033-0.017C393.223,229.66,395.689,221.645,392.195,215.254z
	"/>
<path style="fill:#3A2516;" d="M392.195,215.254L392.195,215.254c-3.449-6.309-11.378-8.599-17.659-5.099l-0.014,0.008
	c-0.774,0.431-1.578,0.785-2.398,1.074c1.364,1.058,2.538,2.405,3.419,4.017l0,0c3.494,6.392,1.028,14.406-5.455,17.729L370.056,233
	c-2.903,1.488-3.248,0-3.248,15.43h0.08h0.105h1.255c5.076,0,9.43-3.088,11.287-7.488c1.433-3.397,3.892-6.26,7.173-7.941
	l0.033-0.017C393.223,229.66,395.689,221.645,392.195,215.254z"/>
<g>
	<path style="fill:#FECE00;" d="M291.704,163.249c0-17.339,7.806-33.756,21.255-44.7l5.46-4.443c2.02-1.644,4.15-3.123,6.353-4.468
		c-10.187-4.286-24.402-7.637-33.715,0.951c-18.397,16.968-10.317,38.924,0.647,53.157V163.249z"/>
	<path style="fill:#FECE00;" d="M412.229,111.678c0.047,0.033,0.095,0.065,0.142,0.097c0.384,0.272,0.764,0.548,1.141,0.83
		c0.537,0.398,1.068,0.805,1.592,1.224c0.118,0.095,0.242,0.181,0.36,0.276l5.46,4.443c13.448,10.944,21.255,27.362,21.255,44.7
		v0.489c10.96-14.233,19.034-36.184,0.64-53.148c-9.311-8.587-23.524-5.239-33.711-0.953
		C410.168,110.283,411.21,110.961,412.229,111.678z"/>
</g>
<g>
	<path style="fill:#121419;" d="M504.445,138.27c-6.615-11.968-16.981-29.027-28.807-42.331
		c-7.278-8.189-15.689-16.635-24.996-25.102c-19.374-17.629-46.314-25.226-72.066-20.314c-7.721,1.471-15.55,1.471-23.269,0
		c-25.749-4.905-52.692,2.684-72.065,20.313c-9.308,8.469-17.719,16.914-24.997,25.103c-11.822,13.298-22.19,30.36-28.808,42.331
		c-5.084,9.201-7.611,19.542-7.545,29.89l-108.389-0.001c-14.021,0-27.151,3.867-38.4,10.574H54.979
		c-21.689,0-39.334,17.645-39.334,39.334v9.344c0,4.025,3.262,7.287,7.287,7.287s7.287-3.262,7.287-7.287v-9.344
		c0-13.652,11.107-24.76,24.76-24.76h2.452c-11.899,13.31-19.15,30.857-19.15,50.073v25.309l-0.503,5.827
		c-2.221-2.277-4.789-3.994-7.559-5.058v-12.171c0-4.025-3.262-7.287-7.287-7.287s-7.287,3.262-7.287,7.287v12.631
		c-8.574,3.875-14.94,13.905-15.601,25.968c-0.591,10.8,4.618,45.192,21.052,46.092c0.213,0.012,0.425,0.018,0.638,0.018
		c4.148,0,7.698-2.15,10.699-5.517l-0.159,1.847c-0.384,1.463-2.566,7.253-8.588,20.597c-0.74,1.642-1.756,3.336-3.2,5.333
		c-3.167,4.383-4.841,9.558-4.841,14.965v34.302v27.893c0,7.762,5.526,14.257,12.849,15.76c1.046,0.215,2.129,0.327,3.238,0.327
		h36.819h0.001c3.921,0,7.479-1.566,10.099-4.096c2.845,2.539,6.583,4.096,10.687,4.096h36.819h0.001
		c6.02,0,11.198-3.673,13.411-8.896c0.738-1.741,1.146-3.654,1.146-5.661V432.75c0-0.74-0.026-1.463-0.065-2.178
		c-0.007-0.137-0.014-0.275-0.022-0.411c-0.044-0.685-0.106-1.359-0.185-2.02c-0.015-0.126-0.033-0.25-0.049-0.375
		c-0.086-0.656-0.184-1.302-0.304-1.933c-0.006-0.031-0.01-0.063-0.016-0.094c-0.125-0.647-0.272-1.277-0.432-1.897
		c-0.032-0.125-0.064-0.25-0.097-0.373c-0.162-0.599-0.34-1.186-0.535-1.758c-0.035-0.104-0.074-0.205-0.11-0.308
		c-0.195-0.551-0.403-1.091-0.627-1.616c-0.02-0.048-0.039-0.097-0.059-0.145c-0.238-0.547-0.497-1.076-0.767-1.594
		c-0.056-0.108-0.113-0.216-0.17-0.323c-0.272-0.503-0.557-0.994-0.86-1.468c-0.051-0.08-0.105-0.158-0.158-0.238
		c-0.293-0.447-0.597-0.881-0.916-1.3c-0.04-0.053-0.078-0.108-0.119-0.161c-0.342-0.44-0.701-0.861-1.072-1.269
		c-0.079-0.087-0.158-0.173-0.238-0.259c-0.374-0.399-0.76-0.784-1.161-1.151c-0.061-0.056-0.125-0.109-0.188-0.164
		c-0.383-0.341-0.778-0.668-1.185-0.979c-0.061-0.047-0.121-0.097-0.183-0.143c-0.436-0.325-0.887-0.63-1.349-0.921
		c-0.099-0.062-0.199-0.124-0.299-0.185c-0.468-0.284-0.946-0.554-1.44-0.803c-0.066-0.033-0.133-0.062-0.199-0.095
		c-0.467-0.229-0.946-0.441-1.434-0.638c-0.084-0.034-0.167-0.071-0.252-0.104c-0.519-0.202-1.052-0.382-1.595-0.547
		c-0.056-0.017-0.108-0.04-0.164-0.056v-10.752c0-3.003,1.252-5.91,3.435-7.974c0.422-0.399,0.796-0.849,1.112-1.338l17.433-26.956
		c1.934-2.338,13.701-16.579,25.486-31.244c24.801,7.134,57.058,14.035,89.057,14.035c9.345,0,18.324-0.605,26.687-1.799
		c0.869-0.124,1.751-0.187,2.618-0.187c9.519,0,17.543,7.483,18.268,17.036l4.642,61.173v27.617c0,1.109,0.113,2.192,0.327,3.238
		c1.503,7.323,7.998,12.849,15.76,12.849h36.819h0.001c0.514,0,1.021-0.028,1.521-0.081c0.115-0.012,0.226-0.037,0.34-0.052
		c0.386-0.05,0.77-0.104,1.145-0.183c0.105-0.022,0.205-0.055,0.309-0.08c0.383-0.089,0.762-0.186,1.133-0.305
		c0.076-0.025,0.149-0.057,0.225-0.083c0.395-0.134,0.784-0.28,1.162-0.446c0.045-0.02,0.088-0.044,0.133-0.064
		c0.406-0.184,0.802-0.382,1.188-0.601c0.018-0.011,0.036-0.023,0.055-0.033c1.251-0.718,2.383-1.615,3.367-2.658
		c0.457,0.446,0.946,0.858,1.453,1.248c0.148,0.116,0.292,0.241,0.445,0.35c0.021,0.015,0.044,0.03,0.065,0.047
		c0.044,0.031,0.092,0.057,0.136,0.088c0.188,0.13,0.383,0.248,0.576,0.37c0.155,0.097,0.303,0.204,0.462,0.296
		c0.045,0.027,0.089,0.052,0.134,0.079c0.043,0.025,0.093,0.046,0.136,0.07c0.21,0.117,0.427,0.222,0.643,0.33
		c0.149,0.074,0.285,0.155,0.439,0.225c0.095,0.046,0.195,0.093,0.278,0.129c0.029,0.013,0.06,0.022,0.09,0.035
		c0.193,0.083,0.392,0.153,0.589,0.229c0.17,0.065,0.338,0.139,0.509,0.198c0.109,0.04,0.244,0.086,0.333,0.116
		c0.024,0.008,0.049,0.014,0.073,0.022c0.077,0.024,0.155,0.046,0.232,0.069c0.257,0.076,0.522,0.148,0.824,0.222
		c0.176,0.047,0.348,0.089,0.478,0.116c0.008,0.002,0.016,0.002,0.024,0.004c0.158,0.033,0.32,0.052,0.479,0.08
		c0.223,0.038,0.445,0.083,0.665,0.112c0.175,0.027,0.342,0.05,0.466,0.063c0.005,0,0.009,0,0.014,0.001
		c0.553,0.058,1.115,0.089,1.683,0.089h36.819c0.451,0,0.897-0.027,1.34-0.068c0.087-0.008,0.174-0.015,0.26-0.025
		c0.441-0.048,0.877-0.113,1.307-0.2c0.025-0.005,0.05-0.012,0.075-0.017c0.449-0.093,0.891-0.208,1.326-0.342
		c0.008-0.002,0.016-0.005,0.024-0.007c2.237-0.694,4.269-1.922,5.936-3.591c0.014-0.014,0.028-0.029,0.042-0.043
		c0.6-0.606,1.152-1.268,1.648-1.985c0.073-0.106,0.145-0.213,0.215-0.32c0.052-0.079,0.108-0.155,0.158-0.235
		c0.107-0.171,0.202-0.347,0.302-0.521c0.067-0.117,0.139-0.231,0.203-0.35c0.181-0.339,0.346-0.685,0.499-1.035
		c0.067-0.154,0.127-0.311,0.189-0.467c0.096-0.241,0.185-0.484,0.267-0.729c0.053-0.157,0.107-0.313,0.154-0.473
		c0.113-0.378,0.213-0.759,0.295-1.145c0.022-0.105,0.037-0.213,0.057-0.319c0.062-0.328,0.112-0.658,0.152-0.99
		c0.015-0.129,0.029-0.258,0.041-0.388c0.039-0.434,0.066-0.87,0.066-1.308v-10.197c0-0.729-0.026-1.442-0.064-2.148
		c-0.004-0.075-0.003-0.153-0.007-0.228c-0.003-0.056-0.01-0.11-0.014-0.165c-0.045-0.695-0.109-1.377-0.19-2.047
		c-0.005-0.042-0.008-0.089-0.013-0.13c-0.008-0.062-0.02-0.121-0.028-0.183c-0.197-1.506-0.483-2.952-0.859-4.328
		c-0.003-0.012-0.007-0.028-0.01-0.039c-0.001-0.002-0.002-0.005-0.002-0.005c-0.188-0.684-0.401-1.346-0.631-1.994
		c-0.024-0.07-0.044-0.137-0.071-0.211c-0.013-0.037-0.03-0.075-0.043-0.111c-0.074-0.2-0.151-0.396-0.229-0.592
		c-0.035-0.087-0.07-0.176-0.107-0.265c-0.121-0.296-0.246-0.588-0.376-0.875c-0.047-0.111-0.093-0.215-0.122-0.275
		c-0.019-0.042-0.042-0.083-0.061-0.125c-0.103-0.217-0.208-0.431-0.316-0.644c-0.048-0.095-0.098-0.191-0.148-0.287
		c-0.135-0.257-0.273-0.511-0.416-0.761c-0.007-0.013-0.013-0.024-0.02-0.037c-0.037-0.068-0.078-0.139-0.116-0.206
		c-0.027-0.046-0.058-0.092-0.085-0.138c-0.126-0.212-0.255-0.42-0.387-0.626c-0.069-0.109-0.139-0.216-0.21-0.324
		c-0.14-0.211-0.282-0.418-0.428-0.623c-0.036-0.05-0.068-0.102-0.104-0.152c-0.025-0.034-0.048-0.068-0.073-0.102
		c-0.022-0.03-0.046-0.056-0.068-0.086c-0.311-0.421-0.633-0.831-0.97-1.225c-0.061-0.072-0.125-0.139-0.187-0.209
		c-0.258-0.294-0.523-0.579-0.795-0.857c-0.133-0.136-0.265-0.272-0.401-0.404c-0.257-0.249-0.52-0.489-0.788-0.724
		c-0.25-0.219-0.506-0.428-0.765-0.634c-0.134-0.106-0.267-0.211-0.403-0.314c-0.804-0.608-1.65-1.152-2.536-1.637
		c-0.073-0.04-0.146-0.08-0.22-0.12c-0.885-0.47-1.809-0.879-2.769-1.225c-0.158-0.057-0.315-0.114-0.475-0.168
		c-0.163-0.055-0.32-0.12-0.485-0.171l2.238-55.452c7.324-22.863,18.989-63.271,27.579-95.523
		c6.555-5.954,13.018-12.267,19.142-18.899c2.731-2.957,2.547-7.567-0.41-10.297c-2.957-2.731-7.568-2.548-10.297,0.41
		c-6.607,7.155-13.644,13.932-20.765,20.273c-1.069,0.952-2.152,1.902-3.244,2.852c-0.681,0.592-1.362,1.187-2.043,1.77
		c-1.034,0.886-2.088,1.769-3.142,2.652c-1.439,1.204-2.874,2.388-4.307,3.553c-0.815,0.663-1.626,1.327-2.452,1.989
		c-1.07,0.856-2.133,1.69-3.196,2.523c-0.644,0.505-1.289,1.01-1.939,1.513c-1.104,0.855-2.205,1.703-3.295,2.531
		c-0.633,0.48-1.275,0.959-1.913,1.438c-1.739,1.305-3.454,2.573-5.145,3.805c-0.931,0.678-1.862,1.355-2.803,2.029
		c-0.834,0.598-1.661,1.188-2.48,1.767c-1.673,1.182-3.355,2.36-5.06,3.531c-0.425,0.292-0.834,0.568-1.254,0.855
		c-1.957,1.336-3.927,2.667-5.924,3.988c-0.606,0.4-1.221,0.781-1.843,1.151c-0.15,0.089-0.3,0.176-0.451,0.263
		c-0.564,0.327-1.133,0.645-1.709,0.948c-0.055,0.029-0.109,0.059-0.163,0.088c-4.215,2.19-8.75,3.713-13.535,4.54
		c-0.118,0.02-0.229,0.059-0.345,0.085c-2.506,0.414-5.06,0.631-7.602,0.631c-5.711,0-11.312-1.04-16.572-3.05
		c-0.031-0.012-0.061-0.025-0.092-0.037c-0.49-0.188-0.977-0.384-1.46-0.589c-0.118-0.05-0.235-0.105-0.352-0.157
		c-0.397-0.172-0.794-0.346-1.186-0.529c-0.184-0.086-0.366-0.18-0.549-0.269c-0.325-0.157-0.651-0.312-0.973-0.478
		c-0.239-0.123-0.475-0.254-0.712-0.381c-0.264-0.141-0.529-0.278-0.791-0.425c-0.3-0.168-0.596-0.346-0.893-0.521
		c-0.196-0.116-0.395-0.226-0.589-0.345c-0.49-0.299-0.976-0.607-1.458-0.925c-8.199-5.42-18.196-12.407-28.774-20.659
		c-2.351-1.834-4.73-3.73-7.125-5.685c-1.197-0.978-2.398-1.97-3.602-2.977c-24.067-20.136-49-46.018-61.446-74.318
		c-0.009-0.021-0.017-0.043-0.026-0.065c-0.383-0.876-0.736-1.766-1.064-2.666c-0.096-0.264-0.179-0.532-0.27-0.798
		c-0.231-0.671-0.453-1.346-0.654-2.029c-0.089-0.305-0.169-0.612-0.252-0.919c-0.177-0.654-0.343-1.312-0.492-1.975
		c-0.073-0.326-0.144-0.653-0.21-0.98c-0.129-0.638-0.241-1.281-0.345-1.926c-1.608-10.135,0.124-20.691,5.149-29.782
		c6.258-11.323,16.013-27.401,26.944-39.699c6.938-7.805,14.983-15.881,23.912-24.005c16.002-14.561,38.259-20.834,59.528-16.777
		c9.53,1.816,19.195,1.816,28.727,0c21.272-4.055,43.526,2.216,59.529,16.778c8.929,8.123,16.973,16.199,23.911,24.004
		c10.935,12.302,20.687,28.379,26.943,39.699c6.949,12.573,7.636,27.953,1.837,41.14c-3.415,7.764-7.952,15.745-13.485,23.72
		c-2.294,3.307-1.474,7.847,1.833,10.141c3.308,2.295,7.848,1.473,10.141-1.833c6.064-8.742,11.061-17.543,14.852-26.16
		C514.484,175.005,513.578,154.796,504.445,138.27z M31.27,297.599c-0.554,10.102-5.795,24.712-9.42,29.009
		c-3.479-4.672-7.778-20.333-7.253-29.923c0.45-8.198,5.048-13.911,8.894-13.911c0.077,0,0.154,0.002,0.232,0.007
		c2.386,0.13,4.129,2.311,4.956,3.599C30.554,289.306,31.499,293.396,31.27,297.599z M31.732,442.929
		c-0.834,0-1.512-0.678-1.512-1.513V420.81h29.35c5.948,0,8.964,4.017,8.964,11.939l0.017,10.179H31.732V442.929z M73.25,410.344
		c-0.344-0.246-0.699-0.481-1.059-0.706c-0.091-0.057-0.184-0.11-0.276-0.166c-0.436-0.264-0.881-0.514-1.339-0.747
		c-0.059-0.03-0.116-0.063-0.175-0.092c-0.494-0.245-1.003-0.468-1.522-0.677c-0.117-0.047-0.234-0.094-0.353-0.139
		c-0.52-0.199-1.05-0.384-1.594-0.547c-0.026-0.008-0.05-0.018-0.075-0.026v-10.752c0-3.003,6.393-12.167,6.393-12.167V410.344z
		 M126.139,432.75l0.025,10.179H89.337c-0.834,0-1.512-0.678-1.512-1.513V420.8h28.956c0.13,0.007,0.262,0.01,0.394,0.01
		C123.124,420.811,126.139,424.828,126.139,432.75z M134.944,351.259c-0.182,0.22-0.352,0.452-0.508,0.692l-17.23,26.644
		c-4.662,4.754-7.318,11.223-7.318,17.898v9.733H87.825v-27.005c0-2.323,0.719-4.546,2.079-6.428
		c2.032-2.811,3.518-5.316,4.674-7.878c1.438-3.187,4.431-10.72,8.897-22.398c6.014-7.362,11.523-14.213,16.498-20.511
		c0.076-0.097,0.152-0.193,0.229-0.289c0.479-0.606,0.956-1.211,1.424-1.807c0.571-0.726,1.139-1.451,1.706-2.175
		c0.268-0.342,0.533-0.682,0.797-1.02c0.686-0.879,1.369-1.756,2.045-2.628h2.725c3.665,1.537,13.788,5.639,28.024,10.287
		C145.499,338.515,135.068,351.109,134.944,351.259z M329.286,448.368c-0.834,0-1.513-0.678-1.513-1.512v-20.567h30.004
		c1.366,0.068,2.563,0.366,3.594,0.89c0.023,0.012,0.045,0.024,0.067,0.036c0.228,0.119,0.448,0.25,0.659,0.391
		c0.04,0.027,0.079,0.056,0.119,0.083c0.192,0.134,0.377,0.277,0.555,0.431c0.052,0.045,0.101,0.092,0.152,0.139
		c0.161,0.147,0.317,0.301,0.465,0.464c0.058,0.064,0.113,0.132,0.169,0.199c0.134,0.158,0.265,0.32,0.388,0.493
		c0.06,0.085,0.117,0.175,0.174,0.263c0.111,0.168,0.22,0.338,0.321,0.519c0.06,0.107,0.114,0.22,0.171,0.332
		c0.09,0.176,0.18,0.353,0.262,0.54c0.057,0.13,0.107,0.268,0.159,0.403c0.072,0.184,0.145,0.366,0.209,0.559
		c0.051,0.154,0.095,0.318,0.142,0.479c0.055,0.189,0.112,0.375,0.161,0.572c0.045,0.184,0.082,0.38,0.121,0.572
		c0.039,0.189,0.082,0.373,0.115,0.569c0.037,0.22,0.065,0.452,0.096,0.681c0.025,0.184,0.054,0.362,0.074,0.552
		c0.029,0.275,0.047,0.565,0.067,0.853c0.011,0.157,0.027,0.307,0.035,0.468c0.023,0.456,0.035,0.927,0.035,1.413l0.025,10.18
		h-36.826V448.368z M387.91,448.368c-0.065,0-0.127-0.011-0.189-0.019c-0.01-0.001-0.024-0.003-0.034-0.005l-0.072-0.01
		c-0.012-0.003-0.024-0.006-0.033-0.009l-0.06-0.014c-0.056-0.015-0.112-0.03-0.165-0.051c-0.026-0.012-0.05-0.024-0.072-0.033
		c-0.01-0.005-0.02-0.01-0.031-0.014c-0.035-0.017-0.068-0.036-0.102-0.055c-0.033-0.019-0.067-0.04-0.097-0.062
		c-0.01-0.008-0.021-0.014-0.031-0.022c-0.072-0.054-0.144-0.119-0.213-0.192c-0.13-0.138-0.271-0.347-0.351-0.617
		c-0.008-0.029-0.02-0.056-0.027-0.085c-0.022-0.1-0.037-0.207-0.037-0.323V426.29h29.931c0.389,0.017,0.749,0.052,1.092,0.098
		c2.153,0.311,3.826,1.277,5.028,2.872c0.13,0.182,0.255,0.366,0.365,0.55c0.001,0.002,0.002,0.003,0.003,0.004
		c0.023,0.041,0.046,0.082,0.069,0.122c0.142,0.247,0.262,0.472,0.383,0.724c0.028,0.065,0.058,0.135,0.077,0.176
		c0.115,0.254,0.226,0.511,0.322,0.764c0.031,0.101,0.064,0.2,0.097,0.295c0.092,0.268,0.184,0.541,0.269,0.843
		c0.031,0.132,0.061,0.265,0.084,0.351l0.025,0.099c0.064,0.255,0.131,0.51,0.179,0.759l0.128,0.789
		c0.03,0.182,0.064,0.363,0.089,0.566c0.016,0.127,0.025,0.258,0.035,0.388l0.066,0.724c0.009,0.092,0.021,0.184,0.027,0.278
		c0.009,0.155,0.015,0.315,0.021,0.475c0.008,0.222,0.013,0.447,0.016,0.675c0.001,0.1,0.004,0.19,0.004,0.297l0.027,10.229
		L387.91,448.368L387.91,448.368z M379.358,318.199c0.827-2.614,1.636-5.172,2.416-7.638c4.078-1.023,8.072-2.478,11.921-4.358
		c0.121-0.059,0.242-0.118,0.363-0.177c0.585-0.291,1.167-0.593,1.745-0.903c0.185-0.099,0.372-0.196,0.556-0.298
		c0.537-0.296,1.07-0.604,1.6-0.917c0.19-0.112,0.382-0.219,0.571-0.333c0.701-0.425,1.398-0.862,2.086-1.317
		c1.288-0.851,2.616-1.74,3.975-2.657c1.016-0.686,2.022-1.375,3.028-2.064c0.296-0.203,0.581-0.395,0.879-0.601
		c8.741-6.021,17.088-12.184,24.982-18.456c-7.67,27.759-16.35,57.39-22.129,75.344c-0.203,0.628-0.319,1.281-0.345,1.939
		l-2.259,55.952h-22.858l-6.753-92.815L379.358,318.199z M367.244,356.291l4.374,60.119c-2.029-1.611-4.354-2.849-6.95-3.649
		l2.238-55.417C367.014,357.006,367.132,356.64,367.244,356.291z M333.267,302.258c0.623,0.412,1.253,0.811,1.888,1.199
		c0.237,0.144,0.478,0.279,0.716,0.42c0.399,0.236,0.797,0.474,1.201,0.701c0.303,0.17,0.609,0.329,0.914,0.494
		c0.343,0.185,0.684,0.373,1.03,0.551c0.345,0.178,0.694,0.345,1.042,0.516c0.308,0.151,0.614,0.306,0.924,0.451
		c0.388,0.182,0.779,0.355,1.169,0.529c0.271,0.121,0.541,0.245,0.814,0.361c0.434,0.186,0.872,0.361,1.309,0.537
		c0.229,0.092,0.457,0.186,0.687,0.275c0.488,0.189,0.978,0.367,1.47,0.543c0.179,0.064,0.357,0.13,0.536,0.192
		c0.546,0.189,1.095,0.368,1.645,0.541c0.123,0.039,0.246,0.08,0.37,0.118c0.612,0.189,1.226,0.366,1.842,0.535
		c0.058,0.016,0.116,0.033,0.175,0.049c4.885,1.324,9.893,2.027,14.912,2.112l-1.028,3.252c-4.326,13.667-9.021,28.452-12.156,38.19
		c-0.202,0.627-0.318,1.28-0.344,1.939l-2.259,55.952h-22.879l-4.155-54.751c-1.298-17.107-15.706-30.508-32.8-30.508
		c-1.554,0-3.128,0.112-4.678,0.333c-7.683,1.097-15.968,1.653-24.627,1.653c-61.74,0-127.044-28.042-127.697-28.326
		c-0.916-0.398-1.905-0.603-2.904-0.603h-7.791c-2.264,0-4.399,1.052-5.779,2.848c-0.75,0.976-1.527,1.981-2.313,2.995
		c-0.225,0.29-0.45,0.58-0.676,0.871c-0.69,0.887-1.395,1.791-2.111,2.706c-0.38,0.486-0.762,0.972-1.144,1.459
		c-0.366,0.466-0.739,0.939-1.111,1.412c-0.821,1.042-1.644,2.084-2.468,3.122c-0.107,0.135-0.214,0.27-0.322,0.406
		c-14.617,18.411-29.119,35.676-29.298,35.888c-0.195,0.232-0.376,0.477-0.541,0.733L59.6,378.596
		c-4.662,4.754-7.318,11.222-7.318,17.898v9.744H30.219v-27.015c0-2.323,0.719-4.546,2.079-6.428
		c2.033-2.813,3.519-5.317,4.673-7.878c9.44-20.917,9.663-23.496,9.797-25.039l6.06-70.247c0.018-0.208,0.027-0.418,0.027-0.626
		V243.38c0-33.441,27.207-60.647,60.648-60.647l110.227,0.001c0.233,0.927,0.493,1.844,0.769,2.757
		c0.074,0.245,0.156,0.487,0.233,0.731c0.247,0.783,0.51,1.56,0.789,2.331c0.102,0.283,0.204,0.567,0.311,0.849
		c0.373,0.985,0.761,1.963,1.185,2.925C247.36,238.584,296.025,277.64,333.267,302.258z"/>
	<path style="fill:#121419;" d="M324.428,184.878h4.335c4.025,0,7.287-3.262,7.287-7.287s-3.262-7.287-7.287-7.287h-4.335
		c-4.025,0-7.287,3.262-7.287,7.287S320.403,184.878,324.428,184.878z"/>
	<path style="fill:#121419;" d="M404.946,184.878h4.336c4.025,0,7.287-3.262,7.287-7.287s-3.262-7.287-7.287-7.287h-4.336
		c-4.025,0-7.287,3.262-7.287,7.287S400.921,184.878,404.946,184.878z"/>
	<path style="fill:#121419;" d="M297.931,209.163c3.677,3.532,6.177,8.035,7.229,13.024c1.764,8.36,5.359,16.246,10.447,22.951
		c0.007,0.055,0.017,0.111,0.024,0.167c0.052,0.421,0.113,0.847,0.185,1.279c0.02,0.117,0.042,0.236,0.063,0.353
		c0.067,0.377,0.142,0.76,0.225,1.146c0.022,0.102,0.042,0.203,0.065,0.305c0.107,0.478,0.226,0.962,0.358,1.453
		c0.013,0.047,0.027,0.095,0.04,0.142c0.122,0.445,0.256,0.896,0.4,1.351c0.03,0.094,0.059,0.188,0.09,0.282
		c0.317,0.978,0.684,1.981,1.108,3.008c0.048,0.117,0.099,0.235,0.148,0.352c0.164,0.389,0.336,0.781,0.517,1.176
		c0.061,0.134,0.121,0.269,0.184,0.404c0.233,0.499,0.475,1.002,0.734,1.511c0.304,0.599,0.634,1.176,0.975,1.744
		c0.074,0.124,0.149,0.247,0.225,0.369c0.351,0.565,0.716,1.118,1.102,1.651c0.023,0.032,0.048,0.062,0.071,0.093
		c0.374,0.512,0.766,1.006,1.169,1.487c0.083,0.099,0.164,0.198,0.248,0.295c0.417,0.483,0.846,0.952,1.291,1.402
		c0.107,0.109,0.218,0.212,0.326,0.319c0.355,0.348,0.717,0.685,1.088,1.012c0.101,0.09,0.195,0.188,0.297,0.276
		c0.049,0.042,0.102,0.079,0.152,0.121c0.413,0.349,0.836,0.684,1.266,1.008c0.251,0.19,0.506,0.372,0.763,0.554
		c0.218,0.153,0.44,0.301,0.662,0.448c0.537,0.357,1.086,0.695,1.647,1.016c0.113,0.064,0.224,0.13,0.338,0.192
		c0.225,0.124,0.441,0.262,0.669,0.381c6.116,9.614,19.704,15.906,34.905,15.906c15.238,0,28.834-6.314,34.935-15.963
		c1.307-0.682,2.559-1.471,3.754-2.35c0.016-0.012,0.034-0.022,0.05-0.034c0.024-0.018,0.046-0.037,0.069-0.055
		c0.538-0.4,1.062-0.819,1.573-1.257c0.061-0.053,0.123-0.105,0.184-0.158c0.481-0.42,0.947-0.857,1.401-1.31
		c0.072-0.071,0.144-0.141,0.215-0.214c0.43-0.439,0.846-0.895,1.25-1.365c0.078-0.091,0.159-0.178,0.236-0.27
		c0.38-0.453,0.744-0.923,1.097-1.404c0.084-0.114,0.173-0.223,0.255-0.339c0.333-0.467,0.648-0.95,0.955-1.441
		c0.083-0.133,0.174-0.26,0.256-0.395c0.35-0.58,0.68-1.178,0.992-1.79c0.02-0.04,0.044-0.077,0.065-0.116
		c0.005-0.01,0.009-0.019,0.014-0.029c0.252-0.501,0.486-0.994,0.712-1.484c0.053-0.115,0.104-0.23,0.156-0.345
		c0.066-0.145,0.133-0.292,0.197-0.436c0.005-0.011,0.01-0.023,0.015-0.034c0.112-0.255,0.217-0.507,0.322-0.759
		c0.04-0.096,0.081-0.193,0.121-0.289c0.424-1.038,0.792-2.051,1.107-3.038c0.017-0.054,0.033-0.107,0.05-0.16
		c0.155-0.494,0.299-0.982,0.429-1.463c0.004-0.015,0.009-0.03,0.012-0.045c0.14-0.52,0.265-1.032,0.376-1.537
		c0.005-0.025,0.01-0.049,0.015-0.074c0.102-0.47,0.192-0.934,0.271-1.391c0.011-0.062,0.022-0.124,0.033-0.186
		c0.08-0.48,0.149-0.954,0.205-1.419c0.002-0.017,0.005-0.033,0.007-0.05c5.09-6.706,8.687-14.593,10.451-22.955
		c1.052-4.99,3.553-9.493,7.229-13.025c8.588-8.248,13.514-19.587,13.514-31.113v-11.911c12.644-17.644,18.484-42.285-1.706-60.907
		c-5.235-4.827-11.917-7.275-19.861-7.275c-5.56,0-11.672,1.226-18.204,3.626c-0.537-0.288-1.067-0.589-1.611-0.861
		c-4.79-2.39-9.929-3.603-15.274-3.603c-9.881,0-19.297,4.285-25.869,11.499c-6.572-7.214-15.987-11.499-25.868-11.499
		c-5.345,0-10.484,1.213-15.275,3.604c-0.545,0.272-1.075,0.574-1.612,0.861c-6.534-2.401-12.648-3.627-18.209-3.627
		c-7.944,0-14.626,2.448-19.861,7.276c-20.194,18.626-14.35,43.269-1.699,60.915v11.902
		C284.417,189.575,289.343,200.915,297.931,209.163z M339.853,258.01c-0.237-0.099-0.467-0.209-0.697-0.319
		c-0.163-0.078-0.326-0.155-0.486-0.24c-0.222-0.117-0.438-0.244-0.653-0.372c-0.156-0.093-0.312-0.188-0.465-0.287
		c-0.038-0.025-0.073-0.052-0.111-0.077c-0.172-0.114-0.341-0.231-0.507-0.352c-0.146-0.107-0.29-0.216-0.431-0.328
		c-0.197-0.156-0.391-0.317-0.579-0.483c-0.137-0.121-0.271-0.247-0.404-0.374c-0.178-0.171-0.355-0.343-0.524-0.523
		c-0.136-0.145-0.266-0.297-0.397-0.448c-0.151-0.175-0.302-0.348-0.444-0.53c-0.15-0.193-0.29-0.396-0.431-0.599
		c-0.107-0.154-0.22-0.305-0.322-0.464c-0.236-0.371-0.46-0.754-0.663-1.154c-0.26-0.51-0.488-1-0.707-1.483
		c-0.012-0.026-0.023-0.052-0.035-0.079c-0.088-0.195-0.171-0.39-0.253-0.583c-0.099-0.233-0.192-0.461-0.281-0.687
		c-0.097-0.246-0.192-0.491-0.279-0.733c-0.057-0.158-0.11-0.314-0.163-0.471c-0.072-0.211-0.14-0.422-0.205-0.63
		c-0.056-0.184-0.11-0.366-0.161-0.548c-0.046-0.164-0.089-0.326-0.13-0.487c-0.056-0.22-0.11-0.44-0.157-0.657
		c-0.021-0.095-0.039-0.188-0.058-0.283c-0.651-3.252-0.289-6.068,1.098-8.41c0.023-0.04,0.041-0.081,0.064-0.121
		c0.383-0.625,0.803-1.171,1.217-1.651c0.943-1.091,1.956-1.985,3.047-2.689c0.107,0.177,0.227,0.346,0.34,0.52
		c0.126,0.195,0.248,0.392,0.381,0.582c0.292,0.417,0.6,0.824,0.923,1.219c0.169,0.207,0.349,0.404,0.527,0.604
		c0.211,0.238,0.427,0.471,0.65,0.699c0.185,0.189,0.368,0.379,0.561,0.561c0.383,0.362,0.778,0.713,1.19,1.047
		c0.14,0.113,0.289,0.217,0.432,0.326c0.347,0.265,0.703,0.521,1.069,0.765c0.156,0.104,0.312,0.207,0.471,0.307
		c0.509,0.32,1.028,0.627,1.569,0.904c0.231,0.118,0.445,0.25,0.653,0.385c0.115,0.076,0.226,0.159,0.338,0.242
		c0.078,0.058,0.157,0.115,0.232,0.176c0.143,0.116,0.283,0.237,0.419,0.364c0.03,0.028,0.061,0.056,0.091,0.085
		c0.152,0.147,0.301,0.3,0.443,0.461c0.012,0.014,0.024,0.028,0.036,0.041c0.146,0.167,0.286,0.341,0.422,0.521
		c0.015,0.021,0.03,0.041,0.046,0.062c0.123,0.167,0.24,0.341,0.353,0.52c0.027,0.044,0.055,0.087,0.081,0.131
		c0.097,0.158,0.188,0.321,0.276,0.487c0.031,0.058,0.063,0.116,0.092,0.174c0.1,0.197,0.196,0.399,0.284,0.606
		c0.005,0.011,0.011,0.023,0.015,0.034c0.305,0.722,0.659,1.41,1.04,2.079c2.225,3.91,5.69,6.884,9.781,8.498l-6.797,3.325
		C347.821,259.553,343.523,259.539,339.853,258.01z M348.082,218.748c0.993-1.817,2.9-2.945,4.976-2.945
		c0.964,0,1.886,0.241,2.741,0.717c0.016,0.009,0.035,0.019,0.054,0.03c3.385,1.877,7.218,2.868,11.088,2.868
		c3.866,0,7.695-0.99,11.077-2.864c0.022-0.011,0.044-0.024,0.065-0.035c0.855-0.476,1.777-0.717,2.741-0.717
		c2.076,0,3.982,1.128,4.976,2.946c0.562,1.028,0.785,2.174,0.661,3.311c-0.023,0.215-0.062,0.426-0.108,0.634
		c-0.013,0.058-0.029,0.116-0.044,0.174c-0.032,0.123-0.07,0.243-0.11,0.363c-0.101,0.307-0.223,0.603-0.371,0.884
		c-0.035,0.067-0.079,0.129-0.117,0.194c-0.131,0.225-0.278,0.439-0.439,0.643c-0.055,0.07-0.107,0.144-0.166,0.211
		c-0.202,0.232-0.425,0.446-0.665,0.645c-0.066,0.055-0.135,0.106-0.203,0.157c-0.267,0.201-0.547,0.39-0.854,0.548
		c-4.667,2.392-8.419,6.509-10.564,11.593c-0.681,1.613-2.14,2.727-3.834,2.98c-0.242,0.036-0.489,0.055-0.739,0.055h-2.614
		c-0.25,0-0.497-0.019-0.739-0.055c-1.694-0.253-3.153-1.367-3.834-2.98c-1.869-4.428-4.958-8.12-8.827-10.591
		c-0.574-0.367-1.163-0.709-1.77-1.02c-0.301-0.154-0.576-0.341-0.839-0.541c-0.066-0.05-0.133-0.1-0.196-0.153
		c-0.239-0.198-0.461-0.413-0.663-0.646c-0.055-0.064-0.103-0.133-0.156-0.2c-0.163-0.206-0.311-0.424-0.444-0.652
		c-0.037-0.064-0.079-0.125-0.114-0.19c-0.147-0.278-0.267-0.573-0.368-0.878c-0.042-0.127-0.083-0.255-0.117-0.386
		c-0.012-0.049-0.026-0.097-0.037-0.146c-0.048-0.213-0.087-0.43-0.111-0.65c-0.002-0.016-0.006-0.031-0.007-0.046
		C347.301,220.888,347.528,219.761,348.082,218.748z M366.942,271.769c-3.221,0-6.194-0.372-8.881-0.999l0.002-0.001l7.134-3.49
		c0.605-0.296,1.187-0.629,1.743-0.995c0.552,0.363,1.131,0.694,1.732,0.988l7.152,3.499
		C373.137,271.398,370.164,271.769,366.942,271.769z M403.739,243.825c-0.008,0.059-0.015,0.117-0.024,0.176
		c-0.033,0.221-0.075,0.445-0.118,0.67c-0.028,0.144-0.055,0.288-0.087,0.433c-0.038,0.176-0.081,0.353-0.124,0.531
		c-0.05,0.201-0.102,0.402-0.159,0.606c-0.04,0.145-0.082,0.29-0.126,0.436c-0.073,0.243-0.153,0.488-0.236,0.735
		c-0.041,0.122-0.081,0.243-0.125,0.366c-0.09,0.253-0.188,0.509-0.288,0.766c-0.085,0.215-0.171,0.432-0.264,0.653
		c-0.09,0.217-0.182,0.434-0.28,0.653c-0.215,0.481-0.441,0.969-0.697,1.477c-0.025,0.05-0.056,0.096-0.082,0.146
		c-0.179,0.344-0.368,0.68-0.571,1.004c-0.14,0.223-0.295,0.435-0.448,0.649c-0.093,0.131-0.183,0.266-0.28,0.394
		c-0.214,0.278-0.439,0.547-0.674,0.809c-0.037,0.042-0.074,0.086-0.112,0.128c-1.405,1.53-3.154,2.754-5.135,3.563l-0.91,0.372
		c-3.424,1.138-7.277,0.995-10.749-0.702l-6.822-3.338c4.792-1.889,8.737-5.636,10.822-10.578c0.816-1.933,2.159-3.456,3.816-4.306
		c0.536-0.275,1.05-0.579,1.554-0.896c0.161-0.101,0.319-0.206,0.477-0.311c0.361-0.242,0.712-0.494,1.055-0.757
		c0.145-0.111,0.294-0.215,0.435-0.329c0.412-0.334,0.807-0.685,1.189-1.048c0.187-0.178,0.366-0.362,0.546-0.547
		c0.229-0.235,0.452-0.475,0.669-0.721c0.171-0.193,0.343-0.383,0.506-0.582c0.327-0.4,0.639-0.812,0.934-1.235
		c0.125-0.179,0.239-0.365,0.358-0.548c0.118-0.181,0.242-0.357,0.354-0.542c1.091,0.704,2.104,1.598,3.046,2.688
		c0.413,0.477,0.831,1.021,1.213,1.643c0.024,0.043,0.043,0.087,0.068,0.13C403.714,238.51,404.134,240.99,403.739,243.825z
		 M437.878,115.945c8.629,7.959,9.616,17.08,7.713,25.139c-0.281-0.775-0.58-1.541-0.89-2.304c-0.065-0.161-0.135-0.319-0.201-0.479
		c-0.373-0.899-0.766-1.789-1.18-2.669c-0.059-0.125-0.114-0.252-0.174-0.377c-0.447-0.936-0.921-1.858-1.413-2.772
		c-0.107-0.198-0.214-0.395-0.323-0.592c-0.501-0.909-1.02-1.808-1.566-2.692c-0.073-0.119-0.151-0.235-0.225-0.353
		c-0.517-0.826-1.053-1.639-1.608-2.442c-0.099-0.143-0.195-0.288-0.295-0.431c-0.596-0.848-1.215-1.68-1.853-2.5
		c-0.136-0.175-0.274-0.349-0.412-0.523c-0.658-0.828-1.33-1.646-2.03-2.444c-0.056-0.064-0.115-0.125-0.171-0.189
		c-0.672-0.76-1.366-1.503-2.075-2.233c-0.138-0.142-0.274-0.286-0.413-0.427c-0.737-0.745-1.495-1.474-2.271-2.187
		c-0.158-0.145-0.319-0.288-0.478-0.431c-0.812-0.731-1.637-1.45-2.49-2.144l-0.276-0.225
		C430.728,112.115,434.886,113.186,437.878,115.945z M317.559,124.201l5.459-4.444c0.573-0.466,1.164-0.91,1.757-1.351
		c0.281-0.207,0.559-0.414,0.849-0.618c0.096-0.068,0.194-0.132,0.29-0.199c0.852-0.592,1.736-1.172,2.656-1.734l0.569-0.348
		c1.038-0.615,2.09-1.207,3.168-1.745c2.75-1.373,5.699-2.069,8.765-2.069c7.11,0,13.815,3.822,17.5,9.975
		c1.778,2.969,4.907,4.742,8.368,4.742s6.588-1.772,8.369-4.742c3.684-6.153,10.39-9.975,17.5-9.975
		c3.066,0,6.015,0.696,8.764,2.069c0.983,0.491,1.945,1.025,2.895,1.58l0.842,0.514c0.957,0.585,1.875,1.185,2.738,1.791
		l0.112,0.076c0.334,0.237,0.666,0.479,1.02,0.742c0.462,0.343,0.918,0.692,1.348,1.036c0.113,0.091,0.231,0.181,0.372,0.287
		l5.422,4.412c11.8,9.603,18.567,23.835,18.567,39.048v14.8c0,7.691-3.208,15.006-9.035,20.602
		c-5.795,5.565-9.735,12.664-11.395,20.528c-0.46,2.181-1.103,4.311-1.884,6.38c-0.124-0.15-0.235-0.306-0.363-0.454
		c-3.313-3.83-7.217-6.542-11.653-8.114c-0.412-1.802-1.059-3.562-1.972-5.232c-3.55-6.496-10.357-10.531-17.765-10.531
		c-3.407,0-6.789,0.875-9.783,2.531c-0.022,0.012-0.045,0.025-0.067,0.037c-2.46,1.372-5.608,1.37-8.066,0
		c-0.017-0.009-0.038-0.02-0.058-0.031c-2.996-1.66-6.381-2.536-9.792-2.536c-7.407,0-14.214,4.035-17.766,10.53
		c-0.913,1.67-1.56,3.431-1.972,5.233c-4.435,1.572-8.34,4.283-11.652,8.114c-0.128,0.148-0.239,0.304-0.363,0.454
		c-0.78-2.07-1.424-4.199-1.884-6.381c-1.66-7.863-5.6-14.962-11.395-20.527c-5.827-5.595-9.035-12.911-9.035-20.602v-14.8
		C298.992,148.036,305.759,133.804,317.559,124.201z M295.998,115.946c2.491-2.298,5.755-3.415,9.979-3.415
		c0.851,0,1.738,0.047,2.657,0.141l-0.275,0.224c-0.852,0.693-1.676,1.411-2.487,2.141c-0.162,0.145-0.324,0.29-0.484,0.437
		c-0.774,0.711-1.53,1.438-2.265,2.181c-0.142,0.144-0.281,0.291-0.422,0.436c-0.704,0.725-1.393,1.462-2.059,2.216
		c-0.061,0.069-0.124,0.135-0.185,0.204c-0.697,0.795-1.367,1.609-2.022,2.434c-0.141,0.178-0.282,0.355-0.421,0.534
		c-0.636,0.818-1.253,1.648-1.847,2.493c-0.102,0.145-0.199,0.292-0.299,0.437c-0.552,0.799-1.086,1.608-1.6,2.429
		c-0.076,0.122-0.156,0.242-0.232,0.364c-0.545,0.883-1.063,1.781-1.564,2.688c-0.109,0.198-0.217,0.396-0.324,0.594
		c-0.492,0.914-0.967,1.837-1.415,2.774c-0.057,0.12-0.11,0.242-0.167,0.362c-0.416,0.886-0.811,1.781-1.186,2.685
		c-0.066,0.158-0.134,0.314-0.199,0.473c-0.311,0.767-0.612,1.538-0.895,2.317C286.379,133.033,287.364,123.908,295.998,115.946z"/>
</g>
<g>
</g>
<g>
</g>
<g>
</g>
<g>
</g>
<g>
</g>
<g>
</g>
<g>
</g>
<g>
</g>
<g>
</g>
<g>
</g>
<g>
</g>
<g>
</g>
<g>
</g>
<g>
</g>
<g>
</g>
</svg>
