<svg height="512" viewBox="0 0 512 512" width="512" xmlns="http://www.w3.org/2000/svg"><path d="m264 344-55.541 30.856a32 32 0 0 0 -16.459 27.973v85.171h256v-34.024a64 64 0 0 0 -23.028-49.166l-24.972-20.81v-40z" fill="#8c6847"/><path d="m264 344-55.541 30.856a32 32 0 0 0 -16.459 27.973v85.171h256v-34.024a64 64 0 0 0 -23.028-49.166l-24.972-20.81v-40z" fill="#8c6847"/><path d="m24 144v211.359a32 32 0 0 0 28.466 31.8l43.534 4.841 43.534-4.837a32 32 0 0 0 28.466-31.804v-211.359a16 16 0 0 0 -16-16h-112a16 16 0 0 0 -16 16z" fill="#b38a65"/><path d="m24 192h144a32 32 0 0 0 -32-32h-80a32 32 0 0 0 -32 32z" fill="#694626"/><path d="m126.062 351.758-30.062-7.508-30.062 7.508-3.876-15.516 32-8a7.757 7.757 0 0 1 3.876 0l32 8z" fill="#865d38"/><path d="m80 192v41.373a54.626 54.626 0 0 1 -16 38.627l32 24 32-23-1.152-1.224a54.63 54.63 0 0 1 -14.848-37.44v-42.336a16 16 0 0 0 -16-16 16 16 0 0 0 -16 16z" fill="#865d38"/><path d="m424.972 404.81-24.972-20.81v-40h-136l-31.87 17.706a465.756 465.756 0 0 0 215.87 96.057v-3.787a64 64 0 0 0 -23.028-49.166z" fill="#694626"/><path d="m304 24-64 224 32 31.998-8 64.002 88 40h80l24-176v-160l-64-24z" fill="#b38a65"/><path d="m344 72h42.2a32.008 32.008 0 0 1 11.236 2.037l37.8 14.176a32 32 0 0 1 20.764 29.963v17.824l-64-24h-80v-8a32 32 0 0 1 32-32z" fill="#694626"/><g fill="#865d38"><path d="m368 104v28.118a48 48 0 0 1 -14.059 33.941l-9.941 9.941v24l40 16 40-16v-24l-9.941-9.941a48 48 0 0 1 -14.059-33.941v-28.118a16 16 0 0 0 -16-16 16 16 0 0 0 -16 16z"/><path d="m414.43 279.844-39.219-7.844h-47.211v-16h48a8.21 8.21 0 0 1 1.57.156l40 8z"/><rect height="16.001" rx="8" transform="matrix(.117 -.993 .993 .117 -33.972 513.784)" width="136.938" x="203.531" y="268"/></g></svg>