<svg id="Layer_3" enable-background="new 0 0 64 64" height="512" viewBox="0 0 64 64" width="512" xmlns="http://www.w3.org/2000/svg"><g><g><path d="m43 32 .406.406c2.941 2.941 4.594 6.931 4.594 11.092v1.526c0 2.574-.876 5.071-2.484 7.081-.981 1.227-1.516 2.751-1.516 4.322 0 .377.088.748.256 1.085l.488.975c.168.338.256.709.256 1.086 0 1.34-1.087 2.427-2.427 2.427h-5.745c-1.274 0-2.351-.842-2.705-2h-2.247c-.354 1.158-1.431 2-2.705 2h-5.745c-1.339 0-2.426-1.087-2.426-2.427 0-.377.088-.748.256-1.085l.488-.975c.168-.338.256-.709.256-1.086 0-1.571-.535-3.095-1.516-4.322-1.608-2.01-2.484-4.507-2.484-7.081v-1.526c0-4.16 1.653-8.15 4.594-11.092l.406-.406" fill="#976947"/></g><g><path d="m23 32-.406.406c-2.941 2.941-4.594 6.931-4.594 11.091v1.526c0 2.574.876 5.071 2.484 7.081.981 1.228 1.516 2.752 1.516 4.323 0 .136-.024.269-.047.402.836.101 1.682.171 2.547.171 10.77 0 19.5-8.059 19.5-18 0-2.483-.545-4.848-1.53-7z" fill="#c18e59"/></g><g><path d="m52.277 44.916c-.798-1.197-2.141-1.916-3.58-1.916h-.722c.006.166.025.331.025.497v1.526c0 2.574-.876 5.071-2.484 7.081-.981 1.228-1.516 2.752-1.516 4.323 0 .377.088.748.256 1.085l.488.975c.168.338.256.709.256 1.086 0 .146-.018.288-.043.427h4.254c.988 0 1.789-.801 1.789-1.789v-.106c0-.678-.383-1.297-.989-1.6l-.022-.011c-.606-.303-.989-.922-.989-1.6 0-.563.265-1.093.716-1.431l1.563-1.172c1.083-.813 1.721-2.088 1.721-3.442v-1.546c0-.85-.251-1.68-.723-2.387z" fill="#c18e59"/></g><g><path d="m13.723 44.916c.798-1.197 2.141-1.916 3.58-1.916h.722c-.006.166-.025.331-.025.497v1.526c0 2.574.876 5.071 2.484 7.081.981 1.228 1.516 2.752 1.516 4.323 0 .377-.088.748-.256 1.085l-.488.975c-.168.338-.256.709-.256 1.086 0 .146.018.288.043.427h-4.254c-.988 0-1.789-.801-1.789-1.789v-.106c0-.678.383-1.297.989-1.6l.022-.011c.606-.303.989-.922.989-1.6 0-.563-.265-1.093-.716-1.431l-1.563-1.172c-1.083-.813-1.721-2.088-1.721-3.442v-1.546c0-.85.251-1.68.723-2.387z" fill="#976947"/></g><g><path d="m39.929 33c.047.327.071 2.66.071 3 0 3.866-3.134 7-7 7s-7-3.134-7-7c0-.34.024-2.673.071-3" fill="#efbe9a"/></g><g><path d="m17 24.938c-.328.041-.661.062-1 .062-4.418 0-8-3.582-8-8s3.582-8 8-8c1.061 0 2.074.207 3 .582" fill="#db9b7c"/></g><g><path d="m49 24.938c.328.041.662.062 1 .062 4.418 0 8-3.582 8-8s-3.582-8-8-8c-1.061 0-2.074.207-3 .582" fill="#db9b7c"/></g><g><path d="m16 21c-2.209 0-4-1.791-4-4s1.791-4 4-4c.345 0 .68.044 1 .126" fill="#efbe9a"/></g><g><path d="m50 21c2.209 0 4-1.791 4-4s-1.791-4-4-4c-.345 0-.68.044-1 .126" fill="#efbe9a"/></g><g><circle cx="33" cy="19" fill="#c18e59" r="17"/></g><g><path d="m45 17c0-3.866-3.134-7-7-7-1.96 0-3.729.808-5 2.106-1.271-1.298-3.04-2.106-5-2.106-3.866 0-7 3.134-7 7 0 2.54 1.358 4.758 3.383 5.985-.247.638-.383 1.314-.383 2.015 0 3.866 4.029 7 9 7s9-3.134 9-7c0-.701-.136-1.377-.383-2.015 2.025-1.227 3.383-3.445 3.383-5.985z" fill="#efbe9a"/></g><g><path d="m31 8 2.205-.735c2.111-.704 3.565-2.596 3.756-4.782-1.273-.304-2.595-.483-3.961-.483 0 1.956-.579 3.869-1.664 5.496z" fill="#976947"/></g><g><path d="m29.171 63h-5.744c-1.889 0-3.427-1.537-3.427-3.427 0-.529.125-1.06.362-1.533l.487-.975c.099-.197.151-.418.151-.638 0-1.338-.46-2.651-1.297-3.698-1.743-2.178-2.703-4.915-2.703-7.705v-1.527c0-4.456 1.736-8.646 4.887-11.798l.406-.406 1.414 1.414-.406.406c-2.773 2.774-4.301 6.462-4.301 10.384v1.527c0 2.337.804 4.63 2.265 6.455 1.119 1.401 1.735 3.157 1.735 4.948 0 .529-.125 1.06-.362 1.533l-.487.975c-.099.197-.151.418-.151.638 0 .787.64 1.427 1.427 1.427h5.744c1.009 0 1.829-.82 1.829-1.828 0-.481-.195-.952-.535-1.293-1.59-1.59-2.465-3.703-2.465-5.95v-.342c0-.925-.174-1.829-.518-2.689-.886-2.214-2.189-4.191-3.875-5.876l-.314-.314 1.414-1.414.314.314c1.878 1.877 3.331 4.08 4.317 6.548.44 1.096.662 2.251.662 3.431v.342c0 1.713.667 3.324 1.878 4.536.724.723 1.122 1.683 1.122 2.707 0 2.11-1.717 3.828-3.829 3.828z"/></g><g><path d="m42.573 63h-5.744c-2.112 0-3.829-1.718-3.829-3.828 0-1.023.398-1.984 1.122-2.707 1.211-1.212 1.878-2.823 1.878-4.536v-.342c0-1.18.222-2.335.661-3.432.987-2.468 2.44-4.671 4.318-6.548l.314-.314 1.414 1.414-.314.314c-1.685 1.685-2.989 3.662-3.875 5.876-.344.861-.518 1.765-.518 2.69v.342c0 2.247-.875 4.36-2.464 5.95-.341.341-.536.811-.536 1.293 0 1.008.82 1.828 1.829 1.828h5.744c.787 0 1.427-.64 1.427-1.427 0-.221-.052-.441-.151-.639l-.487-.975c-.237-.473-.362-1.003-.362-1.532 0-1.791.616-3.547 1.735-4.946 1.461-1.827 2.265-4.12 2.265-6.457v-1.527c0-3.922-1.528-7.61-4.301-10.384l-.406-.406 1.414-1.414.406.406c3.151 3.152 4.887 7.342 4.887 11.798v1.527c0 2.79-.96 5.526-2.703 7.705-.837 1.046-1.297 2.36-1.297 3.698 0 .221.052.441.151.639l.487.975c.237.473.362 1.003.362 1.532 0 1.89-1.538 3.427-3.427 3.427z"/></g><g><path d="m21 61h-4.211c-1.538 0-2.789-1.251-2.789-2.789v-.105c0-1.063.591-2.019 1.542-2.494.291-.147.458-.417.458-.717 0-.247-.118-.483-.315-.632l-1.563-1.172c-1.329-.996-2.122-2.582-2.122-4.242v-1.546c0-1.05.308-2.067.891-2.941.985-1.479 2.634-2.362 4.412-2.362h.697v2h-.697c-1.107 0-2.134.55-2.748 1.471-.363.545-.555 1.177-.555 1.832v1.546c0 1.034.494 2.022 1.321 2.643l1.563 1.172c.699.524 1.116 1.357 1.116 2.231 0 1.063-.591 2.019-1.542 2.494-.291.146-.458.416-.458.716v.105c0 .436.354.79.789.79h4.211z"/></g><g><path d="m49.211 61h-4.211v-2h4.211c.435 0 .789-.354.789-.789v-.105c0-.301-.167-.57-.436-.705-.973-.488-1.564-1.443-1.564-2.506 0-.873.417-1.707 1.115-2.231l1.564-1.172c.827-.621 1.321-1.609 1.321-2.643v-1.546c0-.654-.192-1.287-.555-1.832-.613-.921-1.641-1.471-2.748-1.471h-.697v-2h.697c1.777 0 3.427.883 4.412 2.361.583.874.891 1.892.891 2.942v1.546c0 1.66-.793 3.246-2.121 4.242l-1.564 1.172c-.197.148-.315.384-.315.632 0 .301.167.57.436.705.973.487 1.564 1.442 1.564 2.505v.105c0 1.539-1.251 2.79-2.789 2.79z"/></g><g><path d="m24 59h2v3h-2z"/></g><g><path d="m27 59h2v3h-2z"/></g><g><path d="m37 59h2v3h-2z"/></g><g><path d="m40 59h2v3h-2z"/></g><g><path d="m33 33c-5.514 0-10-3.589-10-8 0-.539.068-1.077.204-1.606-2.02-1.507-3.204-3.844-3.204-6.394 0-4.411 3.589-8 8-8 1.842 0 3.585.618 5 1.757 1.415-1.139 3.158-1.757 5-1.757 4.411 0 8 3.589 8 8 0 2.55-1.184 4.887-3.204 6.394.136.529.204 1.067.204 1.606 0 4.411-4.486 8-10 8zm-5-22c-3.309 0-6 2.691-6 6 0 2.111 1.084 4.029 2.901 5.129.415.251.589.764.415 1.216-.21.542-.316 1.099-.316 1.655 0 3.309 3.589 6 8 6s8-2.691 8-6c0-.556-.106-1.113-.316-1.655-.174-.452 0-.964.415-1.216 1.817-1.1 2.901-3.018 2.901-5.129 0-3.309-2.691-6-6-6-1.624 0-3.146.641-4.286 1.805-.376.384-1.053.384-1.429 0-1.139-1.164-2.661-1.805-4.285-1.805z"/></g><g><path d="m33 37c-9.925 0-18-8.075-18-18s8.075-18 18-18 18 8.075 18 18-8.075 18-18 18zm0-34c-8.822 0-16 7.178-16 16s7.178 16 16 16 16-7.178 16-16-7.178-16-16-16z"/></g><g><path d="m31 17h-2c0-.551-.449-1-1-1s-1 .449-1 1h-2c0-1.654 1.346-3 3-3s3 1.346 3 3z"/></g><g><path d="m41 17h-2c0-.551-.449-1-1-1s-1 .449-1 1h-2c0-1.654 1.346-3 3-3s3 1.346 3 3z"/></g><g><path d="m33 29c-2.757 0-5-1.794-5-4h2c0 1.084 1.374 2 3 2s3-.916 3-2h2c0 2.206-2.243 4-5 4z"/></g><g><path d="m32 23h2v5h-2z"/></g><g><path d="m16 26c-4.962 0-9-4.038-9-9s4.038-9 9-9c1.167 0 2.302.22 3.375.655l-.751 1.854c-.832-.338-1.716-.509-2.624-.509-3.86 0-7 3.14-7 7s3.14 7 7 7c.297 0 .589-.019.876-.054l.248 1.984c-.37.047-.748.07-1.124.07z"/></g><g><path d="m16 22c-2.757 0-5-2.243-5-5s2.243-5 5-5c.421 0 .841.053 1.249.157l-.497 1.938c-.245-.063-.498-.095-.752-.095-1.654 0-3 1.346-3 3s1.346 3 3 3z"/></g><g><path d="m50 26c-.376 0-.754-.023-1.124-.07l.248-1.984c.287.035.58.054.876.054 3.86 0 7-3.14 7-7s-3.14-7-7-7c-.908 0-1.792.171-2.625.508l-.751-1.854c1.074-.434 2.209-.654 3.376-.654 4.962 0 9 4.038 9 9s-4.038 9-9 9z"/></g><g><path d="m50 22v-2c1.654 0 3-1.346 3-3s-1.346-3-3-3c-.254 0-.506.032-.75.095l-.498-1.938c.406-.104.826-.157 1.248-.157 2.757 0 5 2.243 5 5s-2.243 5-5 5z"/></g><g><path d="m33 44c-4.411 0-8-3.589-8-8 0-.38.027-.764.081-1.141l1.98.281c-.04.285-.061.574-.061.86 0 3.309 2.691 6 6 6s6-2.691 6-6c0-.286-.021-.575-.061-.859l1.98-.281c.054.376.081.76.081 1.14 0 4.411-3.589 8-8 8z"/></g><g><path d="m31 9c-.306 0-.602-.141-.795-.393-.259-.339-.274-.806-.037-1.162l.336-.504c.978-1.468 1.496-3.176 1.496-4.941h2c0 1.461-.29 2.891-.848 4.22 1.715-.691 2.848-2.353 2.848-4.22h2c0 2.823-1.8 5.32-4.479 6.214l-2.206.735c-.103.034-.21.051-.315.051z"/></g><g><path d="m13 49h-1.075c-1.457 0-2.9-.481-4.065-1.355l-.15-.112c-1.697-1.273-2.71-3.3-2.71-5.421v-.305c0-2.714 1.612-5.157 4.106-6.227l.284-.122c1.585-.679 2.61-2.232 2.61-3.958 0-1.378-1.122-2.5-2.5-2.5s-2.5 1.122-2.5 2.5v1.5h-2v-1.5c0-2.481 2.019-4.5 4.5-4.5s4.5 2.019 4.5 4.5c0 2.526-1.5 4.802-3.823 5.798l-.284.122c-1.757.753-2.893 2.476-2.893 4.388v.305c0 1.495.714 2.923 1.91 3.82l.149.111c.822.617 1.839.956 2.866.956h1.075z"/></g></g></svg>