<svg id="Capa_1" enable-background="new 0 0 512 512" height="512" viewBox="0 0 512 512" width="512" xmlns="http://www.w3.org/2000/svg"><g id="XMLID_1133_"><path id="XMLID_1166_" d="m111.696 405.667h44v96.333h-44z" fill="#d1a184"/><path id="XMLID_1163_" d="m257.391 385.919c-38.919 12.799-80.493 19.748-123.696 19.748-43.202 0-84.777-6.949-123.696-19.748l123.697-375.919z" fill="#89df8f"/><path id="XMLID_1164_" d="m224.982 287.426c-28.722 9.446-59.403 14.574-91.286 14.574s-62.565-5.128-91.287-14.574l91.287-277.426z" fill="#a0e5a5"/><path id="XMLID_1165_" d="m184.028 162.964c-15.836 5.208-32.753 8.036-50.333 8.036-17.579 0-34.496-2.828-50.333-8.036l50.334-152.964z" fill="#b8ecbc"/><path id="XMLID_1157_" d="m356.304 405.667h44v96.333h-44z" fill="#d1a184"/><path id="XMLID_1154_" d="m254.609 385.919c38.919 12.799 80.493 19.748 123.696 19.748s84.777-6.949 123.696-19.748l-123.697-375.919z" fill="#89df8f"/><path id="XMLID_1155_" d="m287.018 287.426c28.722 9.446 59.403 14.574 91.286 14.574s62.565-5.128 91.287-14.574l-91.287-277.426z" fill="#a0e5a5"/><path id="XMLID_1156_" d="m327.972 162.964c15.836 5.208 32.753 8.036 50.333 8.036 17.579 0 34.496-2.828 50.333-8.036l-50.334-152.964z" fill="#b8ecbc"/><path id="XMLID_1118_" d="m234 405.667h44v96.333h-44z" fill="#d1a184"/><path id="XMLID_1117_" d="m132.304 385.919c38.919 12.799 80.493 19.748 123.696 19.748s84.777-6.949 123.696-19.748l-123.696-375.919z" fill="#89df8f"/><path id="XMLID_1120_" d="m164.713 287.426c28.722 9.446 59.404 14.574 91.287 14.574s62.565-5.128 91.287-14.574l-91.287-277.426z" fill="#a0e5a5"/><path id="XMLID_1121_" d="m205.667 162.964c15.837 5.208 32.754 8.036 50.333 8.036s34.496-2.828 50.333-8.036l-50.333-152.964z" fill="#b8ecbc"/><g id="XMLID_2001_"><path id="XMLID_2008_" d="m511.499 382.793-123.695-375.918c-1.35-4.102-5.181-6.875-9.499-6.875s-8.149 2.772-9.499 6.875l-51.653 156.978-51.654-156.978c-1.35-4.102-5.181-6.875-9.499-6.875s-8.149 2.772-9.499 6.875l-51.653 156.977-51.653-156.977c-1.35-4.102-5.181-6.875-9.499-6.875s-8.149 2.772-9.499 6.875l-123.696 375.918c-.829 2.52-.623 5.265.572 7.633 1.196 2.368 3.283 4.164 5.803 4.992 30.747 10.112 62.523 16.469 94.82 18.997v87.585c0 5.523 4.477 10 10 10h44c5.523 0 10-4.477 10-10v-87.595c9.801-.767 19.558-1.878 29.207-3.342 9.643 1.46 19.345 2.589 29.097 3.352v87.585c0 5.523 4.477 10 10 10h44c5.522 0 10-4.477 10-10v-87.585c9.752-.763 19.454-1.892 29.097-3.352 9.65 1.464 19.407 2.575 29.208 3.342v87.595c0 5.523 4.478 10 10 10h44c5.522 0 10-4.477 10-10v-87.585c32.297-2.528 64.072-8.885 94.819-18.997 2.52-.829 4.607-2.625 5.803-4.992 1.195-2.368 1.401-5.113.572-7.633zm-133.194-340.799 37.601 114.273c-12.239 3.14-24.844 4.734-37.601 4.734s-25.362-1.594-37.602-4.733zm-43.867 133.313c14.267 3.78 28.979 5.693 43.867 5.693s29.6-1.913 43.866-5.693l34.736 105.566c-25.467 7.381-51.859 11.127-78.602 11.127-6.39 0-12.823-.219-19.199-.648l-31.426-95.506zm-78.438 220.36c-37.811 0-75.111-5.462-111.03-16.247l26.174-79.544c12.637 3.693 25.558 6.582 38.544 8.585.517.08 1.03.118 1.537.118 4.85 0 9.108-3.535 9.871-8.477.842-5.458-2.9-10.565-8.359-11.408-11.902-1.836-23.747-4.468-35.339-7.825l34.735-105.562c14.267 3.78 28.98 5.693 43.867 5.693s29.599-1.913 43.866-5.693l34.735 105.563c-11.548 3.344-23.346 5.969-35.2 7.803-5.458.845-9.197 5.954-8.354 11.412.765 4.94 5.022 8.472 9.87 8.472.509 0 1.024-.039 1.542-.119 12.934-2.001 25.805-4.883 38.396-8.562l26.174 79.544c-35.918 10.785-73.218 16.247-111.029 16.247zm0-353.673 37.601 114.273c-12.239 3.139-24.845 4.733-37.601 4.733s-25.362-1.594-37.601-4.734zm-103.106 249.358c-6.376.429-12.809.648-19.198.648-26.743 0-53.135-3.746-78.603-11.127l34.736-105.566c14.267 3.78 28.979 5.693 43.867 5.693 14.887 0 29.599-1.913 43.866-5.693l6.758 20.539zm-19.198-249.358 37.601 114.273c-12.239 3.14-24.845 4.733-37.601 4.733s-25.362-1.594-37.601-4.733zm-84.857 257.885c27.49 8.038 55.985 12.121 84.857 12.121 4.154 0 8.326-.095 12.491-.266l-23.382 71.059c-.829 2.52-.623 5.265.572 7.633 1.196 2.368 3.283 4.164 5.803 4.992.224.073.449.141.673.214-36.494-.358-72.486-5.793-107.187-16.212zm96.857 192.121h-24v-76.528c3.995.116 7.994.195 12 .195 3.998 0 7.999-.077 12-.195zm122.304 0h-24v-76.528c3.995.116 7.994.195 12 .195s8.005-.078 12-.195zm122.305 0h-24v-76.528c4.001.118 8.002.195 12 .195 4.006 0 8.005-.078 12-.195zm-8.158-96.368c.224-.073.449-.14.673-.214 2.52-.829 4.607-2.625 5.803-4.992 1.195-2.368 1.401-5.113.572-7.633l-23.382-71.059c4.166.17 8.338.266 12.492.266 28.872 0 57.367-4.083 84.856-12.122l26.173 79.541c-34.7 10.42-70.693 15.855-107.187 16.213z"/><path id="XMLID_2024_" d="m256.07 292.06c-2.64 0-5.21 1.07-7.08 2.93-1.86 1.87-2.93 4.44-2.93 7.08 0 2.63 1.07 5.2 2.93 7.07 1.87 1.86 4.44 2.93 7.08 2.93 2.63 0 5.2-1.07 7.07-2.93 1.86-1.87 2.92-4.44 2.92-7.07 0-2.64-1.06-5.21-2.92-7.08-1.87-1.86-4.44-2.93-7.07-2.93z"/></g></g></svg>