<svg height="512" viewBox="0 0 512 512" width="512" xmlns="http://www.w3.org/2000/svg"><path d="m336 224 32-32 120 120h-144z" fill="#f09c57"/><path d="m336 224 8 88h88l-85.268-98.732z" fill="#f08833"/><path d="m224 184 48-48 152 176h-200z" fill="#f1b355"/><path d="m272 136-16 80-32-32z" fill="#e37c55"/><path d="m228 180-4 4v128h136z" fill="#f1a531"/><path d="m257.333 209.333-29.333-29.333-4 4 32 32z" fill="#e36333"/><path d="m56 344 152-176 176 176z" fill="#f6c869"/><path d="m56 344h112l-63.36-56.32z" fill="#f6bc44"/><path d="m208 168-56 176h-96z" fill="#f1a531"/><path d="m104.64 287.68-48.64 56.32h96l3.527-11.086z" fill="#f1970d"/><g fill="#f1a531"><rect height="16" rx="8" width="32" x="224" y="208"/><rect height="16" rx="8" width="56" x="184" y="240"/><rect height="16" rx="8" width="32" x="256" y="240"/><rect height="16" rx="8" width="32" x="288" y="272"/><rect height="16" rx="8" width="32" x="168" y="272"/></g><rect fill="#e37c55" height="16" rx="8" width="32" x="264" y="192"/><rect fill="#e37c55" height="16" rx="8" width="48" x="304" y="224"/><rect fill="#e37c55" height="16" rx="8" width="48" x="336" y="256"/><rect fill="#f08833" height="16" rx="8" width="32" x="392" y="240"/><rect fill="#f08833" height="16" rx="8" width="32" x="424" y="272"/><path d="m48 384h128v16h-128z" fill="#6f5438"/><rect fill="#d34437" height="96" rx="48" width="96" x="24" y="24"/><path d="m240 384h64v16h-64z" fill="#6f5438"/><path d="m128 432h128v16h-128z" fill="#6f5438"/><path d="m344 384h104v16h-104z" fill="#6f5438"/><path d="m288 432h72v16h-72z" fill="#6f5438"/><path d="m216 480h72v16h-72z" fill="#6f5438"/><path d="m168 344 64-64 72 64z" fill="#f6bc44"/><path d="m24 344 64-64 72 64z" fill="#f08833"/><rect fill="#f1a531" height="16" rx="8" width="48" x="224" y="272"/><rect fill="#f1a531" height="16" rx="8" width="40" x="256" y="304"/><path d="m160 344 64-64 72 64z" fill="#f08833"/><path d="m296 344 64-64 72 64z" fill="#f08833"/></svg>