<svg id="Capa_1" enable-background="new 0 0 512 512" height="512" viewBox="0 0 512 512" width="512" xmlns="http://www.w3.org/2000/svg"><path d="m213.426 427.525v-45.555c-4.884 2.235-10.306 3.491-16.019 3.491-5.577 0-11.034-1.252-16.019-3.545v45.609z" fill="#32569d"/><path d="m414.722 427.525v-45.605c-4.106 1.914-8.597 3.124-13.333 3.449-.893.061-1.795.092-2.684.092-.001 0-.001 0-.002 0-5.713 0-11.135-1.257-16.019-3.492v45.556z" fill="#32569d"/><path d="m351.01 427.525v-44.123c-3.682 1.339-7.607 2.059-11.628 2.059h-8.781c-4.081 0-7.996-.72-11.628-2.036v44.1z" fill="#32569d"/><path d="m360.064 346.822c0-3.187-2.593-5.779-5.779-5.779h-58.932v10.17c0 19.386 15.862 35.248 35.248 35.248h8.781c12.092 0 22.811-6.172 29.167-15.52-5.302-6.616-8.485-15.001-8.485-24.119z" fill="#edcab2"/><path d="m322.853 351.213v-10.17h-27.5v10.17c0 19.386 15.862 35.248 35.248 35.248h8.781c3.239 0 6.375-.452 9.359-1.28-14.88-4.127-25.888-17.821-25.888-33.968z" fill="#edc9b1"/><path d="m149.715 427.525v-45.609c-4.985 2.293-10.442 3.545-16.019 3.545-5.713 0-11.135-1.256-16.019-3.491v45.555z" fill="#32569d"/><path d="m487.119 257.173c10.758-11.147 17.381-26.309 17.381-43.026 0-23.97-13.609-44.748-33.516-55.066-1.723-.893-2.738-2.716-2.58-4.65.132-1.614.202-3.245.202-4.893 0-34.244-27.76-62.003-62.003-62.003-9.807 0-19.075 2.288-27.317 6.345-2.021.995-4.43.492-5.878-1.234-11.373-13.552-28.431-22.171-47.508-22.171-14.067 0-27.031 4.696-37.434 12.592-1.732 1.315-4.103 1.315-5.835 0-10.402-7.896-23.366-12.592-37.434-12.592-15.27 0-29.245 5.525-40.048 14.68 14.68 4.44 25.61 17.569 26.723 33.447.467 6.655-.809 13.304-3.688 19.227l-.699 1.437h33.207c2.977 0 5.667 1.397 7.384 3.833 1.709 2.426 2.118 5.416 1.122 8.203-5.492 15.369-20.154 25.695-36.483 25.695-4.076 0-8.107-.639-11.98-1.898l-1.309-.426v52.996c0 44.05-35.837 79.887-79.887 79.887-16.891 0-32.564-5.284-45.483-14.265v53.532c0 21.801 17.837 39.639 39.639 39.639 13.017 0 24.618-6.362 31.856-16.127 7.238 9.765 18.838 16.127 31.856 16.127 21.801 0 39.639-17.837 39.639-39.639 0-2.639 2.14-4.779 4.779-4.779h112.46c2.64 0 4.779 2.14 4.779 4.779 0 22.713 19.36 41.123 42.393 39.544 20.903-1.433 36.885-19.31 36.885-40.262v-1.946c0-2.381 1.752-4.41 4.111-4.726 27.207-3.653 48.189-26.95 48.189-55.157 0-7.761-1.597-15.146-4.469-21.856-.764-1.79-.404-3.848.946-5.247z" fill="#f5e2d4"/><path d="m124.057 346.822v-39.78c-10.935-2.142-21.1-6.499-30-12.591v52.371c0 21.801 17.837 39.639 39.639 39.639 5.299 0 10.356-1.069 14.986-2.978-14.412-5.949-24.625-20.167-24.625-36.661z" fill="#edcab2"/><path d="m275.469 427.525v-13.5c0-4.142-3.357-7.5-7.5-7.5s-7.5 3.358-7.5 7.5v13.5z" fill="#09a76d"/><path d="m476.469 427.525v-13.5c0-4.142-3.357-7.5-7.5-7.5s-7.5 3.358-7.5 7.5v13.5z" fill="#09a76d"/><path d="m96.469 427.525v-13.5c0-4.142-3.358-7.5-7.5-7.5s-7.5 3.358-7.5 7.5v13.5z" fill="#09a76d"/><path d="m260.693 138.266h-32.718l-8.549 11.167v26.279c4.156 1.475 8.628 2.285 13.29 2.285 17.251 0 31.934-10.994 37.424-26.358 2.329-6.517-2.528-13.373-9.447-13.373z" fill="#303a78"/><path d="m51.103 138.266h-32.717c-6.919 0-11.776 6.856-9.447 13.372 5.49 15.364 20.173 26.358 37.424 26.358 4.662 0 9.133-.81 13.289-2.285v-26.279z" fill="#32569d"/><path d="m194.176 159.121c-8.644 0-16.78-2.842-23.528-8.219-1.077-.858-2.423-1.332-3.79-1.332s-2.713.473-3.79 1.332c-6.749 5.377-14.884 8.219-23.528 8.219-8.645 0-16.78-2.842-23.528-8.219-1.077-.858-2.423-1.332-3.79-1.332s-2.713.473-3.791 1.332c-6.748 5.377-14.884 8.219-23.528 8.219-9.78 0-19.236-3.844-26.251-10.607v79.153c0 44.488 36.399 80.887 80.888 80.887 44.488 0 80.887-36.399 80.887-80.887v-79.153c-7.014 6.764-16.472 10.607-26.251 10.607z" fill="#32569d"/><g fill="#303a78"><path d="m81.151 227.668v-68.738c-8.419-.848-16.387-4.521-22.499-10.415v79.153c0 44.488 36.399 80.887 80.888 80.887 3.817 0 7.57-.281 11.248-.805-39.211-5.521-69.637-39.412-69.637-80.082z"/><path d="m105.205 225.836c-4.142 0-7.5-3.358-7.5-7.5v-15.608c0-4.142 3.358-7.5 7.5-7.5s7.5 3.358 7.5 7.5v15.608c0 4.142-3.358 7.5-7.5 7.5z"/><path d="m173.874 225.836c-4.142 0-7.5-3.358-7.5-7.5v-15.608c0-4.142 3.358-7.5 7.5-7.5s7.5 3.358 7.5 7.5v15.608c0 4.142-3.358 7.5-7.5 7.5z"/><path d="m168.364 262.191c-2.929-2.929-7.678-2.929-10.606 0-3.097 3.097-6.793 5.235-10.718 6.423v-15.5l9.34-6.786c3.351-2.435 4.094-7.125 1.659-10.476-2.434-3.351-7.124-4.094-10.476-1.659l-8.023 5.829-8.024-5.83c-3.351-2.436-8.042-1.691-10.476 1.66s-1.691 8.041 1.66 10.476l9.34 6.786v15.5c-3.925-1.188-7.621-3.326-10.718-6.423-2.929-2.929-7.678-2.929-10.606 0-2.929 2.929-2.929 7.678 0 10.606 7.947 7.947 18.386 11.92 28.825 11.92 10.438 0 20.877-3.973 28.824-11.92 2.928-2.928 2.928-7.677-.001-10.606z"/></g><path d="m196.264 82.591c-9.942-.521-19.119 2.705-26.249 8.391-1.859 1.482-4.463 1.474-6.322-.007-6.627-5.281-15.02-8.438-24.153-8.438-9.132 0-17.526 3.157-24.153 8.438-1.859 1.482-4.463 1.49-6.322.007-7.131-5.686-16.308-8.912-26.251-8.391-19.389 1.017-35.248 16.575-36.605 35.943-1.589 22.688 16.346 41.588 38.695 41.588 9.132 0 17.525-3.157 24.151-8.437 1.864-1.485 4.471-1.485 6.334 0 6.627 5.28 15.02 8.437 24.151 8.437 9.132 0 17.525-3.157 24.151-8.437 1.864-1.485 4.471-1.485 6.334 0 6.627 5.28 15.02 8.437 24.151 8.437 22.35 0 40.285-18.9 38.694-41.589-1.357-19.368-17.217-34.925-36.606-35.942z" fill="#edcab2"/><path d="m76.208 118.534c1.039-14.837 10.595-27.43 23.723-32.971-5.223-2.198-11.026-3.292-17.119-2.972-19.389 1.017-35.248 16.575-36.605 35.943-1.589 22.688 16.346 41.588 38.695 41.588 5.321 0 10.388-1.078 15.004-3.018-14.777-6.202-24.909-21.281-23.698-38.57z" fill="#edc9b1"/><path d="m504.5 426.525h-55.031v-12.5c0-4.142-3.357-7.5-7.5-7.5s-7.5 3.358-7.5 7.5v12.5h-132v-12.5c0-4.142-3.357-7.5-7.5-7.5s-7.5 3.358-7.5 7.5v12.5h-39v-12.5c0-4.142-3.358-7.5-7.5-7.5s-7.5 3.358-7.5 7.5v12.5h-164v-12.5c0-4.142-3.358-7.5-7.5-7.5s-7.5 3.358-7.5 7.5v12.5h-12v-12.5c0-4.142-3.358-7.5-7.5-7.5s-7.5 3.358-7.5 7.5v12.5h-19.969c-4.142 0-7.5 3.358-7.5 7.5s3.358 7.5 7.5 7.5h497c4.143 0 7.5-3.358 7.5-7.5s-3.357-7.5-7.5-7.5z" fill="#8bc727"/></svg>