<svg height="512" viewBox="0 0 512 512" width="512" xmlns="http://www.w3.org/2000/svg"><g id="filled_outline" data-name="filled outline"><path d="m240 72 8 32v8h16v-8l8-32z" fill="#ccc"/><path d="m245.263 93.053 2.737 10.947v8h16v-8l5.574-22.294a79.6 79.6 0 0 1 -24.311 11.347z" fill="#b3b3b3"/><path d="m224 104 8 32v8h48v-8l8-32z" fill="#00a99d"/><path d="m231.358 133.432.642 2.568v8h48v-8l7.312-29.25a398.109 398.109 0 0 1 -55.954 26.682z" fill="#33918b"/><path d="m224 136 8 32v8h48v-8l8-32z" fill="#00a99d"/><path d="m231.358 165.432.642 2.568v8h48v-8l7.312-29.25a398.109 398.109 0 0 1 -55.954 26.682z" fill="#33918b"/><path d="m224 168 8 32v8h48v-8l8-32z" fill="#00a99d"/><path d="m231.358 197.432.642 2.568v8h48v-8l7.312-29.25a398.109 398.109 0 0 1 -55.954 26.682z" fill="#33918b"/><path d="m224 200 8 32v8h48v-8l8-32z" fill="#00a99d"/><path d="m231.358 229.432.642 2.568v8h48v-8l7.312-29.25a398.109 398.109 0 0 1 -55.954 26.682z" fill="#33918b"/><path d="m224 232 8 32v8h48v-8l8-32z" fill="#00a99d"/><path d="m231.358 261.432.642 2.568v8h48v-8l7.312-29.25a398.109 398.109 0 0 1 -55.954 26.682z" fill="#33918b"/><path d="m224 264 8 32v8h48v-8l8-32z" fill="#00a99d"/><path d="m231.358 293.432.642 2.568v8h48v-8l7.312-29.25a398.109 398.109 0 0 1 -55.954 26.682z" fill="#33918b"/><path d="m224 296 8 32v8h48v-8l8-32z" fill="#00a99d"/><path d="m231.358 325.432.642 2.568v8h48v-8l7.312-29.25a398.109 398.109 0 0 1 -55.954 26.682z" fill="#33918b"/><path d="m224 328 8 32v8h48v-8l8-32z" fill="#00a99d"/><path d="m231.358 357.432.642 2.568v8h48v-8l7.312-29.25a398.109 398.109 0 0 1 -55.954 26.682z" fill="#33918b"/><path d="m224 360h64l8 128h-80z" fill="#00a99d"/><path d="m240 40h32v16h-32z" fill="#ccc"/><path d="m240 54.393v1.607h32v-16h-.146a79.511 79.511 0 0 1 -31.854 14.393z" fill="#b3b3b3"/><path d="m218.542 447.331-2.542 40.669h80l-4.772-76.354a398.279 398.279 0 0 1 -72.686 35.685z" fill="#33918b"/><path d="m240 392h32v16h-32z"/><path d="m240 432h32v16h-32z"/><path d="m303.516 480-7.532-120.5a7.9 7.9 0 0 0 -5.845-7.086l5.619-22.476a7.98 7.98 0 0 0 -1.453-6.86 7.818 7.818 0 0 0 -4.185-2.589l5.638-22.551a7.98 7.98 0 0 0 -1.453-6.86 7.818 7.818 0 0 0 -4.185-2.589l5.638-22.551a7.98 7.98 0 0 0 -1.453-6.86 7.818 7.818 0 0 0 -4.185-2.589l5.638-22.551a7.98 7.98 0 0 0 -1.453-6.86 7.818 7.818 0 0 0 -4.185-2.589l5.638-22.551a7.98 7.98 0 0 0 -1.453-6.86 7.818 7.818 0 0 0 -4.185-2.589l5.638-22.551a7.98 7.98 0 0 0 -1.453-6.86 7.818 7.818 0 0 0 -4.185-2.589l5.638-22.551a7.98 7.98 0 0 0 -1.453-6.86 7.818 7.818 0 0 0 -4.185-2.589l5.638-22.551a8 8 0 0 0 -7.758-9.938h-13.758l5.516-22.062a8 8 0 0 0 -7.758-9.938h-8v-8h8v-16h-8v-16a8 8 0 0 0 -8-8 8 8 0 0 0 -8 8v16h-8v16h8v8h-8a8 8 0 0 0 -7.758 9.938l5.516 22.062h-13.758a8 8 0 0 0 -7.758 9.938l5.638 22.551a7.818 7.818 0 0 0 -4.185 2.589 7.98 7.98 0 0 0 -1.453 6.86l5.638 22.551a7.818 7.818 0 0 0 -4.185 2.589 7.98 7.98 0 0 0 -1.453 6.86l5.638 22.551a7.818 7.818 0 0 0 -4.185 2.589 7.98 7.98 0 0 0 -1.453 6.86l5.638 22.551a7.818 7.818 0 0 0 -4.185 2.589 7.98 7.98 0 0 0 -1.453 6.86l5.638 22.551a7.818 7.818 0 0 0 -4.185 2.589 7.98 7.98 0 0 0 -1.453 6.86l5.638 22.551a7.818 7.818 0 0 0 -4.185 2.589 7.98 7.98 0 0 0 -1.453 6.86l5.638 22.551a7.818 7.818 0 0 0 -4.185 2.589 7.98 7.98 0 0 0 -1.453 6.86l5.619 22.476a7.9 7.9 0 0 0 -5.845 7.086l-7.532 120.5h-80.484v16h256v-16zm-69.266-336h43.5l-4 16h-35.5zm0 32h43.5l-4 16h-35.5zm0 32h43.5l-4 16h-35.5zm0 32h43.5l-4 16h-35.5zm0 32h43.5l-4 16h-35.5zm0 32h43.5l-4 16h-35.5zm0 32h43.5l-4 16h-35.5zm16-256h11.5l-4 16h-3.5zm27.5 32-4 16h-35.5l-4-16zm-13.75 368v-16h-16v16h-23.484l7-112h48.968l7 112z"/></g></svg>