<svg height="512" viewBox="0 0 512 512" width="512" xmlns="http://www.w3.org/2000/svg"><path d="m320 416v-16h-128v16l-96 72h312z" fill="#48c0f3"/><path d="m329.778 424-9.778-8v-16h-128v16l-10.667 8z" fill="#3998c0"/><path d="m192 400v16l-96 72h96l32-72v-16z" fill="#d34437"/><path d="m320 416v-16h-32v16l32 72h88z" fill="#d34437"/><path d="m220.444 424 3.556-8v-16h-32v16l-10.667 8z" fill="#a04a42"/><path d="m329.778 424-9.778-8v-16h-32v16l3.556 8z" fill="#a04a42"/><path d="m192 176v-28.118a48 48 0 0 1 14.059-33.941l49.941-49.941 49.941 49.941a48 48 0 0 1 14.059 33.941v28.118z" fill="#e6e6e6"/><g fill="#b3b3b3"><path d="m176 184h-16v-24a8 8 0 0 1 8-8 8 8 0 0 1 8 8z"/><path d="m112 264h-16v-24a8 8 0 0 1 8-8 8 8 0 0 1 8 8z"/><path d="m416 264h-16v-24a8 8 0 0 1 8-8 8 8 0 0 1 8 8z"/><path d="m56 184h-16v-24a8 8 0 0 1 8-8 8 8 0 0 1 8 8z"/><path d="m472 184h-16v-24a8 8 0 0 1 8-8 8 8 0 0 1 8 8z"/></g><path d="m144 256h48v112h-48z" fill="#e6e6e6"/><path d="m192 224h128v144h-128z" fill="#ccc"/><path d="m320 256h48v112h-48z" fill="#e6e6e6"/><path d="m96 256h48v112h-48z" fill="#ccc"/><path d="m368 256h48v112h-48z" fill="#ccc"/><path d="m32 208h32v160h-32z" fill="#e6e6e6"/><path d="m448 208h32v160h-32z" fill="#e6e6e6"/><path d="m32 208h32v-16a16 16 0 0 0 -16-16 16 16 0 0 0 -16 16z" fill="#e6e6e6"/><path d="m448 208h32v-16a16 16 0 0 0 -16-16 16 16 0 0 0 -16 16z" fill="#e6e6e6"/><path d="m144 224h48v32h-48z" fill="#999"/><path d="m144 200v24h48v-24a24 24 0 0 0 -24-24 24 24 0 0 0 -24 24z" fill="#e6e6e6"/><path d="m320 224h48v32h-48z" fill="#999"/><path d="m352 184h-16v-24a8 8 0 0 1 8-8 8 8 0 0 1 8 8z" fill="#b3b3b3"/><path d="m320 200v24h48v-24a24 24 0 0 0 -24-24 24 24 0 0 0 -24 24z" fill="#e6e6e6"/><path d="m264 72h-16v-48a8 8 0 0 1 8-8 8 8 0 0 1 8 8z" fill="#b3b3b3"/><path d="m224 368v-48a32 32 0 0 1 32-32 32 32 0 0 1 32 32v48z" fill="#999"/><path d="m176 312h-16v-24a8 8 0 0 1 8-8 8 8 0 0 1 8 8z" fill="#b3b3b3"/><path d="m176 368h-16v-32a8 8 0 0 1 8-8 8 8 0 0 1 8 8z" fill="#b3b3b3"/><path d="m352 312h-16v-24a8 8 0 0 1 8-8 8 8 0 0 1 8 8z" fill="#b3b3b3"/><path d="m352 368h-16v-32a8 8 0 0 1 8-8 8 8 0 0 1 8 8z" fill="#b3b3b3"/><path d="m128 312h-16v-24a8 8 0 0 1 8-8 8 8 0 0 1 8 8z" fill="#999"/><path d="m128 368h-16v-32a8 8 0 0 1 8-8 8 8 0 0 1 8 8z" fill="#999"/><path d="m400 312h-16v-24a8 8 0 0 1 8-8 8 8 0 0 1 8 8z" fill="#999"/><path d="m400 368h-16v-32a8 8 0 0 1 8-8 8 8 0 0 1 8 8z" fill="#999"/><path d="m216 248h80v16h-80z" fill="#808080"/><path d="m176 256h-16v-24a8 8 0 0 1 8-8 8 8 0 0 1 8 8z" fill="#808080"/><path d="m352 256h-16v-24a8 8 0 0 1 8-8 8 8 0 0 1 8 8z" fill="#808080"/><path d="m32 368h448v48h-448z" fill="#b3b3b3"/><path d="m32 208h32v16h-32z" fill="#ccc"/><rect fill="#b3b3b3" height="16" rx="8" width="64" x="16" y="200"/><path d="m32 272h32v16h-32z" fill="#ccc"/><path d="m32 320h32v16h-32z" fill="#ccc"/><rect fill="#b3b3b3" height="16" rx="8" width="48" x="24" y="264"/><rect fill="#b3b3b3" height="16" rx="8" width="48" x="24" y="312"/><path d="m448 208h32v16h-32z" fill="#ccc"/><path d="m448 272h32v16h-32z" fill="#ccc"/><path d="m448 320h32v16h-32z" fill="#ccc"/><rect fill="#b3b3b3" height="16" rx="8" width="48" x="440" y="264"/><rect fill="#b3b3b3" height="16" rx="8" width="48" x="440" y="312"/><rect fill="#b3b3b3" height="16" rx="8" width="64" x="432" y="200"/><path d="m348.094 416h131.906v-48h-66.958a401.341 401.341 0 0 1 -64.948 48z" fill="#999"/><path d="m224 353.537v14.463h64v-48a31.721 31.721 0 0 0 -2.022-10.869 128.065 128.065 0 0 1 -61.978 44.406z" fill="#808080"/><path d="m112 307.833v4.167h16v-19.531a128.584 128.584 0 0 1 -16 15.364z" fill="#808080"/><path d="m208 112h96l-16-16h-64z" fill="#ccc"/><rect fill="#b3b3b3" height="16" rx="1" width="80" x="216" y="88"/><path d="m192 166v10h128v-28.118a47.917 47.917 0 0 0 -2.685-15.664 397.2 397.2 0 0 1 -125.315 33.782z" fill="#ccc"/><path d="m192 216h128v16h-128z" fill="#b3b3b3"/><path d="m192 176h128v48h-128z" fill="#999"/><path d="m192 192h40v16h-40z" fill="#808080"/><path d="m248 192h72v16h-72z" fill="#808080"/><path d="m144 213.674v10.326h48v-24a23.832 23.832 0 0 0 -.747-5.67 127.232 127.232 0 0 1 -47.253 19.344z" fill="#ccc"/><path d="m320 213.674v10.326h48v-24a23.832 23.832 0 0 0 -.747-5.67 127.232 127.232 0 0 1 -47.253 19.344z" fill="#ccc"/><path d="m160 307.833v4.167h16v-19.531a128.584 128.584 0 0 1 -16 15.364z" fill="#999"/><path d="m336 307.833v4.167h16v-19.531a128.584 128.584 0 0 1 -16 15.364z" fill="#999"/><path d="m384 307.833v4.167h16v-19.531a128.584 128.584 0 0 1 -16 15.364z" fill="#808080"/><path d="m112 363.833v4.167h16v-19.531a128.584 128.584 0 0 1 -16 15.364z" fill="#808080"/><path d="m160 363.833v4.167h16v-19.531a128.584 128.584 0 0 1 -16 15.364z" fill="#999"/><path d="m336 363.833v4.167h16v-19.531a128.584 128.584 0 0 1 -16 15.364z" fill="#999"/><path d="m384 363.833v4.167h16v-19.531a128.584 128.584 0 0 1 -16 15.364z" fill="#808080"/><path d="m160 251.833v4.167h16v-19.531a128.584 128.584 0 0 1 -16 15.364z" fill="#666"/><path d="m336 251.833v4.167h16v-19.531a128.584 128.584 0 0 1 -16 15.364z" fill="#666"/></svg>