<?xml version="1.0" encoding="iso-8859-1"?>
<!-- Generator: Adobe Illustrator 18.0.0, SVG Export Plug-In . SVG Version: 6.00 Build 0)  -->
<!DOCTYPE svg PUBLIC "-//W3C//DTD SVG 1.1//EN" "http://www.w3.org/Graphics/SVG/1.1/DTD/svg11.dtd">
<svg version="1.1" id="Capa_1" xmlns="http://www.w3.org/2000/svg" xmlns:xlink="http://www.w3.org/1999/xlink" x="0px" y="0px"
	 viewBox="0 0 297.5 297.5" style="enable-background:new 0 0 297.5 297.5;" xml:space="preserve">
<g>
	<g>
		<g id="XMLID_18_">
			<g>
				<path d="M279.865,105.49c0,17.21-6.14,33.52-17.37,46.39c-1.43,29.15-22.79,53.29-51.84,58.04c-0.54,0.08-1.08,0.13-1.62,0.13
					h-21.24c-2.76,18.7-4,46.16,4.9,73.33c0.47,1.17,0.73,2.45,0.73,3.79c0,5.57-4.51,10.08-10.08,10.08c0,0-0.01,0-0.02,0h-69.16
					c-3.24,0-6.28-1.56-8.18-4.19c-1.89-2.62-2.4-6-1.38-9.08c9.15-27.46,7.91-55.13,5.13-73.93h-21.27c-0.54,0-1.09-0.05-1.62-0.13
					c-29.05-4.74-50.41-28.89-51.84-58.04c-11.23-12.87-17.37-29.18-17.37-46.39c0-38.95,31.67-70.63,70.59-70.63
					c1.61,0,3.23,0.05,4.85,0.17c10.27-21.1,31.71-34.78,55.67-34.78c23.97,0,45.41,13.68,55.68,34.78
					c1.61-0.12,3.23-0.17,4.84-0.17C248.195,34.86,279.865,66.54,279.865,105.49z M245.275,140.82c9.3-9.49,14.43-22.04,14.43-35.33
					c0-27.83-22.63-50.47-50.44-50.47c-3.11,0-6.27,0.29-9.39,0.88c-4.97,0.93-9.85-1.96-11.43-6.76
					c-5.66-17.18-21.61-28.73-39.7-28.73c-18.08,0-34.03,11.55-39.69,28.73c-1.58,4.8-6.47,7.69-11.44,6.76
					c-3.12-0.59-6.28-0.88-9.39-0.88c-27.81,0-50.43,22.64-50.43,50.47c0,13.29,5.12,25.84,14.43,35.33
					c1.88,1.92,2.91,4.51,2.88,7.2c0,0.2-0.01,0.39-0.02,0.59v0.17c0,20.31,14.35,37.49,34.24,41.11h16.26
					c-0.57-2.1-0.96-3.28-0.98-3.35c-1.02-3.07-0.51-6.45,1.38-9.08c1.9-2.63,4.94-4.19,8.18-4.19h69.16c3.24,0,6.29,1.56,8.18,4.19
					c1.9,2.63,2.41,6.01,1.39,9.08c-0.03,0.07-0.41,1.25-0.98,3.35h16.26c19.89-3.62,34.24-20.8,34.24-41.14l-0.01-0.14
					c0-0.2-0.01-0.39-0.01-0.59C242.355,145.33,243.395,142.74,245.275,140.82z M170.275,193.43h-43.05
					c3.8,17.35,8.3,49.48,0.26,83.66h42.53C161.975,242.91,166.475,210.78,170.275,193.43z"/>
				<path style="fill:#7AC1A3;" d="M259.705,105.49c0,13.29-5.13,25.84-14.43,35.33c-1.88,1.92-2.92,4.51-2.88,7.2
					c0,0.2,0.01,0.39,0.01,0.59l0.01,0.14c0,20.34-14.35,37.52-34.24,41.14h-16.26c0.57-2.1,0.95-3.28,0.98-3.35
					c1.02-3.07,0.51-6.45-1.39-9.08c-1.89-2.63-4.94-4.19-8.18-4.19h-69.16c-3.24,0-6.28,1.56-8.18,4.19
					c-1.89,2.63-2.4,6.01-1.38,9.08c0.02,0.07,0.41,1.25,0.98,3.35h-16.26c-19.89-3.62-34.24-20.8-34.24-41.11v-0.17
					c0.01-0.2,0.02-0.39,0.02-0.59c0.03-2.69-1-5.28-2.88-7.2c-9.31-9.49-14.43-22.04-14.43-35.33c0-27.83,22.62-50.47,50.43-50.47
					c3.11,0,6.27,0.29,9.39,0.88c4.97,0.93,9.86-1.96,11.44-6.76c5.66-17.18,21.61-28.73,39.69-28.73
					c18.09,0,34.04,11.55,39.7,28.73c1.58,4.8,6.46,7.69,11.43,6.76c3.12-0.59,6.28-0.88,9.39-0.88
					C237.075,55.02,259.705,77.66,259.705,105.49z"/>
				<path style="fill:#C7A488;" d="M127.225,193.43h43.05c-3.8,17.35-8.3,49.48-0.26,83.66h-42.53
					C135.525,242.91,131.025,210.78,127.225,193.43z"/>
			</g>
			<g>
			</g>
		</g>
	</g>
	<g>
		<g>
			<path d="M220.666,122.726c-9.043,0-17.138-5.392-20.622-13.736c-2.299-5.507-2.316-11.579-0.049-17.099
				c2.268-5.52,6.55-9.826,12.057-12.125l1.224-0.511c5.507-2.303,11.582-2.321,17.103-0.052c5.518,2.268,9.823,6.55,12.123,12.056
				c2.3,5.508,2.317,11.58,0.051,17.1c-2.268,5.52-6.55,9.826-12.057,12.126l-1.229,0.512
				C226.522,122.144,223.627,122.726,220.666,122.726z M221.889,91.522c-1.09,0-2.179,0.216-3.215,0.649l-1.227,0.512
				c-2.058,0.859-3.656,2.467-4.503,4.527c-0.846,2.061-0.84,4.328,0.02,6.384c1.301,3.117,4.324,5.131,7.702,5.131
				c1.099,0,2.177-0.218,3.206-0.648l1.23-0.513c2.055-0.858,3.652-2.466,4.499-4.525c0.847-2.062,0.84-4.328-0.02-6.385
				c-0.858-2.057-2.466-3.655-4.526-4.502C224.034,91.732,222.961,91.522,221.889,91.522z"/>
			<path style="fill:#D5797C;" d="M223.872,108.077l1.23-0.513c2.055-0.858,3.652-2.466,4.499-4.525
				c0.847-2.062,0.84-4.328-0.02-6.385c-0.858-2.057-2.466-3.655-4.526-4.502c-1.021-0.42-2.095-0.63-3.167-0.63
				c-1.09,0-2.179,0.216-3.215,0.649l-1.227,0.512c-2.058,0.859-3.656,2.467-4.503,4.527c-0.846,2.061-0.84,4.328,0.02,6.384
				c1.301,3.117,4.324,5.131,7.702,5.131C221.765,108.726,222.843,108.508,223.872,108.077z"/>
		</g>
	</g>
	<g>
		<g>
			<path d="M132.248,93.226c-9.095,0-17.207-5.436-20.667-13.849c-4.686-11.393,0.771-24.473,12.164-29.158l1.225-0.504
				c5.518-2.27,11.591-2.255,17.099,0.042c5.506,2.298,9.789,6.603,12.059,12.121c4.686,11.394-0.771,24.475-12.164,29.159
				l-1.221,0.503C138.023,92.659,135.166,93.226,132.248,93.226z M133.468,62.03c-1.074,0-2.148,0.211-3.173,0.632l-1.227,0.505
				c-4.252,1.748-6.289,6.632-4.54,10.886c1.293,3.143,4.323,5.173,7.72,5.173c1.082,0,2.146-0.213,3.165-0.632l1.223-0.503
				c4.256-1.75,6.293-6.634,4.544-10.888c-0.848-2.061-2.447-3.668-4.503-4.525C135.644,62.246,134.556,62.03,133.468,62.03z"/>
			<path style="fill:#D5797C;" d="M141.18,67.203c-0.848-2.061-2.447-3.668-4.503-4.525c-1.033-0.432-2.121-0.647-3.209-0.647
				c-1.074,0-2.148,0.211-3.173,0.632l-1.227,0.505c-4.252,1.748-6.289,6.632-4.54,10.886c1.293,3.143,4.323,5.173,7.72,5.173
				c1.082,0,2.146-0.213,3.165-0.632l1.223-0.503C140.892,76.341,142.929,71.457,141.18,67.203z"/>
		</g>
	</g>
	<g>
		<g>
			<path d="M171.107,155.75c-9.084,0-17.192-5.426-20.656-13.822c-2.277-5.514-2.27-11.586,0.021-17.097
				c2.29-5.512,6.59-9.8,12.106-12.076l1.217-0.503c5.518-2.278,11.589-2.272,17.101,0.02c5.51,2.29,9.798,6.589,12.075,12.105
				c2.277,5.516,2.27,11.588-0.021,17.099c-2.29,5.512-6.59,9.8-12.106,12.076l-1.222,0.504
				C176.903,155.179,174.037,155.75,171.107,155.75z M172.322,124.556c-1.078,0-2.156,0.212-3.183,0.636l-1.219,0.504
				c-2.062,0.851-3.667,2.451-4.521,4.509c-0.854,2.057-0.857,4.323-0.008,6.382c1.295,3.138,4.323,5.164,7.716,5.164
				c1.085,0,2.153-0.214,3.173-0.636l1.226-0.505c2.057-0.849,3.662-2.449,4.517-4.507c0.854-2.057,0.857-4.324,0.008-6.383
				c-0.851-2.061-2.452-3.666-4.509-4.521C174.491,124.771,173.407,124.556,172.322,124.556z"/>
			<path style="fill:#D5797C;" d="M174.28,141.114l1.226-0.505c2.057-0.849,3.662-2.449,4.517-4.507
				c0.854-2.057,0.857-4.324,0.008-6.383c-0.851-2.061-2.452-3.666-4.509-4.521c-1.03-0.428-2.114-0.643-3.199-0.643
				c-1.078,0-2.156,0.212-3.183,0.636l-1.219,0.504c-2.062,0.851-3.667,2.451-4.521,4.509c-0.854,2.057-0.857,4.323-0.008,6.382
				c1.295,3.138,4.323,5.164,7.716,5.164C172.192,141.75,173.261,141.536,174.28,141.114z"/>
		</g>
	</g>
	<g>
		<g>
			<path d="M76.964,110.863c-9.126,0-17.249-5.461-20.695-13.912C51.621,85.543,57.12,72.48,68.524,67.83l1.229-0.5
				c11.404-4.649,24.467,0.852,29.118,12.257c4.647,11.408-0.852,24.471-12.256,29.121l-1.224,0.499
				C82.69,110.307,79.856,110.863,76.964,110.863z M78.171,79.679c-1.047,0-2.11,0.198-3.138,0.617l-1.227,0.499
				c-4.255,1.735-6.309,6.613-4.573,10.873c1.287,3.155,4.321,5.195,7.73,5.195c1.074,0,2.133-0.209,3.146-0.621l1.219-0.497
				c4.26-1.737,6.313-6.615,4.578-10.875C84.589,81.641,81.463,79.679,78.171,79.679z"/>
			<path style="fill:#D5797C;" d="M80.109,96.242l1.219-0.497c4.26-1.737,6.313-6.615,4.578-10.875
				c-1.317-3.229-4.443-5.191-7.735-5.191c-1.047,0-2.11,0.198-3.138,0.617l-1.227,0.499c-4.255,1.735-6.309,6.613-4.573,10.873
				c1.287,3.155,4.321,5.195,7.73,5.195C78.038,96.863,79.097,96.654,80.109,96.242z"/>
		</g>
	</g>
</g>
<g>
</g>
<g>
</g>
<g>
</g>
<g>
</g>
<g>
</g>
<g>
</g>
<g>
</g>
<g>
</g>
<g>
</g>
<g>
</g>
<g>
</g>
<g>
</g>
<g>
</g>
<g>
</g>
<g>
</g>
</svg>
