<?xml version="1.0" encoding="utf-8"?>
<!-- Generator: Adobe Illustrator 23.0.3, SVG Export Plug-In . SVG Version: 6.00 Build 0)  -->
<svg version="1.1" xmlns="http://www.w3.org/2000/svg" xmlns:xlink="http://www.w3.org/1999/xlink" x="0px" y="0px"
	 viewBox="0 0 1000 1000" style="enable-background:new 0 0 1000 1000;" xml:space="preserve">
<style type="text/css">
	.st0{fill:#FFCE9B;}
	.st1{fill:#FBCFA0;}
	.st2{fill:#FFCE9B;stroke:#000000;stroke-width:2;stroke-linecap:round;stroke-linejoin:round;stroke-miterlimit:10;}
	.st3{fill:none;stroke:#000000;stroke-width:5;stroke-linecap:round;stroke-linejoin:round;stroke-miterlimit:10;}
	.st4{fill:#FF3A39;}
	.st5{fill:#FF3634;}
	.st6{fill:#040000;}
	.st7{fill:#FFFFFF;stroke:#FFFFFF;stroke-width:5;stroke-linecap:round;stroke-linejoin:round;stroke-miterlimit:10;}
</style>
<g id="COLOR">
	<path d="M474.5,214.5c0,0-15.41,0.01-29,9c-19.91,13.17-23.79,41.29-26,59c-4.15,33.25-8.77,79.84-11,138c43.67,0,87.33,0,131,0
		c0.79-57.22-4.6-102.45-10-134c-3.7-21.58-10.76-56.36-33-67C486.03,214.49,474.5,214.5,474.5,214.5z"/>
	<path class="st0" d="M539.5,420.5c-1.54,4.47-7.68,20.53-25,31c-16.21,9.8-32.09,8.57-37,8c-5.71,0.66-24.94,2.16-44-10
		c-15.43-9.84-22.44-23.34-25-29H539.5z"/>
	<path class="st1" d="M474.5,468.5c-5.75,0.08-23.65-0.38-41-13c-4.65-3.38-18.69-14.49-25-35c42.83,0,85.67,0,128.5,0
		c-0.73,4.25-4.35,22.63-21.5,36C497.92,470.2,478.67,468.88,474.5,468.5z"/>
	<path class="st2" d="M410.59,420c-0.67,0-1.07,0.75-0.67,1.3c4.58,6.35,13.47,16.79,28.08,24.7c14.87,8.05,28.62,9.66,36,10
		c7.05,0.06,20.42-0.77,35-8c16.7-8.28,25.22-20.54,29.34-26.96c0.29-0.45-0.04-1.04-0.58-1.04L410.59,420z"/>
	<path class="st3" d="M439.04,430.45L439.04,430.45c-1.07-0.25-1.74-1.34-1.48-2.41l0,0c0.25-1.07,1.34-1.74,2.41-1.48l0,0
		c1.07,0.25,1.74,1.34,1.48,2.41l0,0C441.19,430.03,440.11,430.7,439.04,430.45z"/>
	<path class="st3" d="M512.04,430.45L512.04,430.45c-1.07-0.25-1.74-1.34-1.48-2.41l0,0c0.25-1.07,1.34-1.74,2.41-1.48l0,0
		c1.07,0.25,1.74,1.34,1.48,2.41l0,0C514.19,430.03,513.11,430.7,512.04,430.45z"/>
	<g>
		<path class="st4" d="M447.5,467.5c2.67,2.33,5.33,4.67,8,7h-10v11c-9.15,9.74-19.41,22.31-29,38c-14.75,24.12-22.62,46.89-27,64
			c-0.14,4.86,0.05,10.62,1,17c1.32,8.89,3.7,16.31,6,22c3.76,5.2,7.52,10.41,11.27,15.61c0.58,0.8,1.16,1.59,1.73,2.39
			c0.88,0.6,3.01,1.87,6,2c3.58,0.15,6.15-1.42,7-2c0.4-0.78,1.21-2.61,1-5c-0.3-3.4-2.44-5.49-3-6c-2.63-3.81-5.25-7.63-7.87-11.45
			c-1.04-1.52-2.09-3.03-3.13-4.55c-1.8-3.61-4-9.06-5-16c-0.88-6.08-0.53-11.28,0-15c3.2-8.32,6.85-17.01,11-26
			c5.54-12,11.29-23,17-33c-3,15.67-6,31.33-9,47l50-1l2-105l-27.54-5.41L447.5,467.5z"/>
		<path class="st4" d="M561.5,587.5c-4.38-17.11-12.25-39.88-27-64c-9.59-15.69-19.85-28.26-29-38v-11h-10c2.67-2.33,5.33-4.67,8-7
			l-0.46-4.41l-27.54,5.41l2,105l50,1c-3-15.67-6-31.33-9-47c5.71,10,11.46,21,17,33c4.15,8.99,7.8,17.68,11,26
			c0.53,3.72,0.88,8.92,0,15c-1,6.94-3.2,12.39-5,16c-1.04,1.52-2.09,3.03-3.13,4.55c-2.62,3.82-5.24,7.64-7.87,11.45
			c-0.56,0.51-2.7,2.6-3,6c-0.21,2.39,0.6,4.22,1,5c0.85,0.58,3.42,2.15,7,2c2.99-0.13,5.12-1.4,6-2c0.57-0.8,1.15-1.59,1.73-2.39
			c3.75-5.2,7.51-10.41,11.27-15.61c2.3-5.69,4.68-13.11,6-22C561.45,598.12,561.64,592.36,561.5,587.5z"/>
	</g>
	<path d="M495.5,474.5l8-7v-4l-28,5l-28-5v4l8,7h-9.33l13.33,7l16,4l16-4l13.33-7H495.5z M475.5,475.19l-0.27-6.28l0.27-0.06
		l0.27,0.06L475.5,475.19z"/>
	<path class="st5" d="M541.23,642.11c-0.58,0.8-1.16,1.59-1.73,2.39c-0.88,0.6-3.01,1.87-6,2c-3.58,0.15-6.15-1.42-7-2
		c-0.4-0.78-1.21-2.61-1-5c0.3-3.4,2.44-5.49,3-6c2.63-3.81,5.25-7.63,7.87-11.45l-7.87-32.55h-53h-53l-7.87,32.55
		c2.62,3.82,5.24,7.64,7.87,11.45c0.56,0.51,2.7,2.6,3,6c0.21,2.39-0.6,4.22-1,5c-0.85,0.58-3.42,2.15-7,2c-2.99-0.13-5.12-1.4-6-2
		c-0.57-0.8-1.15-1.59-1.73-2.39l-2.27,9.39h68h68L541.23,642.11z"/>
	<path class="st6" d="M450.5,677.5v114c-2.76-3.29-8.95-9.71-19-13c-5.08-1.66-9.64-2.03-13-2c-1.85,1.34-5.66,4.51-8,10
		c-3.13,7.33-1.57,13.95-1,16c19.33,0,38.67,0,58,0v-151h-18L450.5,677.5z"/>
	<path class="st6" d="M501.5,677.5v114c2.76-3.29,8.95-9.71,19-13c5.08-1.66,9.64-2.03,13-2c1.85,1.34,5.66,4.51,8,10
		c3.13,7.33,1.57,13.95,1,16c-19.33,0-38.67,0-58,0v-151h18L501.5,677.5z"/>
	<path class="st7" d="M462.5,503.5L462.5,503.5c-3.3,0-6-2.7-6-6l0,0c0-3.3,2.7-6,6-6l0,0c3.3,0,6,2.7,6,6l0,0
		C468.5,500.8,465.8,503.5,462.5,503.5z"/>
	<path class="st7" d="M462.5,530.5L462.5,530.5c-3.3,0-6-2.7-6-6l0,0c0-3.3,2.7-6,6-6l0,0c3.3,0,6,2.7,6,6l0,0
		C468.5,527.8,465.8,530.5,462.5,530.5z"/>
	<path class="st7" d="M462.5,557.5L462.5,557.5c-3.3,0-6-2.7-6-6l0,0c0-3.3,2.7-6,6-6l0,0c3.3,0,6,2.7,6,6l0,0
		C468.5,554.8,465.8,557.5,462.5,557.5z"/>
	<polygon points="399.5,624.5 399.5,624.5 409.06,616.59 421.06,634.06 410.01,644.82 396.93,627.09 	"/>
	<path class="st0" d="M415.62,639.36l5.88-4.86c0.45,0.54,2.2,2.79,2,6c-0.13,2.13-1.05,3.65-1.53,4.34
		c-0.89,0.36-2.91,1.02-5.47,0.66c-2.53-0.36-4.26-1.52-5.03-2.1C412.85,642.05,414.24,640.71,415.62,639.36z"/>
	<polygon points="542.13,616.2 555.12,624.92 542.79,642.71 531.11,632.61 	"/>
	<path class="st0" d="M530.38,645.53c-2.3-1.23-3.79-3.53-3.88-6.03c-0.1-3.05,1.92-5.93,5-7c3.67,3.33,7.33,6.67,11,10
		c-0.98,0.83-3,2.32-6,3C533.83,646.11,531.6,645.79,530.38,645.53z"/>
</g>
<g id="OUTLINE">
</g>
</svg>
