<svg xmlns="http://www.w3.org/2000/svg" xmlns:xlink="http://www.w3.org/1999/xlink" viewBox="0 0 361.31 292.07"><defs><style>.cls-1{fill:#f2c7b9;}.cls-1,.cls-10,.cls-11,.cls-12,.cls-13,.cls-14,.cls-15,.cls-16,.cls-17,.cls-18,.cls-19,.cls-2,.cls-20,.cls-21,.cls-22,.cls-23,.cls-24,.cls-25,.cls-26,.cls-27,.cls-28,.cls-29,.cls-3,.cls-30,.cls-31,.cls-32,.cls-33,.cls-34,.cls-35,.cls-36,.cls-37,.cls-38,.cls-39,.cls-4,.cls-40,.cls-41,.cls-5,.cls-6,.cls-7,.cls-8,.cls-9{fill-rule:evenodd;}.cls-2{fill:#f4cbbd;}.cls-3{fill:#f8cdbe;}.cls-4{fill:#f7cabc;}.cls-5{fill:#f8d1c3;}.cls-6{fill:#f5c5b8;}.cls-7{fill:#f7c5b7;}.cls-8{fill:#f7c7b9;}.cls-9{fill:#f6c9bb;}.cls-10{fill:#f3cabc;}.cls-11{fill:#f3c2b4;}.cls-12{fill:#f8c8ba;}.cls-13{fill:#f6c6b8;}.cls-14{fill:#f7d4c7;}.cls-15{fill:#f2c8bb;}.cls-16{fill:#f6c9bc;}.cls-17{fill:#f4c2b4;}.cls-18{fill:#f3c5b7;}.cls-19{fill:#f3bfb1;}.cls-20{fill:#f3b9ab;}.cls-21{fill:#f9cfc1;}.cls-22{fill:#f3c3b5;}.cls-23{fill:#f5c9bb;}.cls-24{fill:#f1bdaf;}.cls-25{fill:#f2c3b6;}.cls-26{fill:#f4c6b8;}.cls-27{fill:#f3c7b9;}.cls-28{fill:#f4c2b5;}.cls-29{fill:#f3c6b9;}.cls-30{fill:#f4c9bc;}.cls-31{fill:#f8d0c1;}.cls-32{fill:#f7cabb;}.cls-33{fill:#f2c1b3;}.cls-34{fill:#f3c0b2;}.cls-35{fill:#f2c3b5;}.cls-36{fill:#f2c4b6;}.cls-37{fill:#f5cec0;}.cls-38{fill:#f2c6b8;}.cls-39{fill:#f5c8b9;}.cls-40{fill:#f8cbbd;}.cls-41{opacity:0.2;fill:url(#radial-gradient);}</style><radialGradient id="radial-gradient" cx="180.65" cy="146.03" r="164.26" gradientUnits="userSpaceOnUse"><stop offset="0" stop-color="#fff"/><stop offset="1" stop-color="#f7931e"/></radialGradient></defs><title>資產 3</title><g id="圖層_2" data-name="圖層 2"><g id="Layer_1" data-name="Layer 1"><path class="cls-1" d="M306.06,213.07l-1.87-.08c-2.91-3-2.91-3-2.39-5.59-1.69,3.21-4.71,4.48-7.69,3.67a26.25,26.25,0,0,0-11.6-.45c-2.77.46-5.43-1-7.63,2.6-1.77,2.86-4.53,1.18-5.46-3.26a3.53,3.53,0,0,1,0-.89c-.58-.07-.69.49-1,.76-1,.91-2,1.77-3.46,1.55-2.1-.8-2.48-2.17-1-3.82s1.18-3.37,1.18-5.19a3.23,3.23,0,0,0-2.08-3.12c-1.74-.79-2.33.64-3.11,1.68a9.67,9.67,0,0,1-2.82,2.8c-1,.55-2.42.58-2.37-.61.14-2.95-1.67-4-3.69-5.47s-1.75-3.76.8-5.53c-3.46-1.59-7.69-1.78-6.43-7,.34-1.42-1.94-2.05-3-3.08-3.33-3.25-3.17-6.78.33-8.29.23.14.5.53.65.5.41-.09.33-.09-.14-.12-.65-.05.28,0-.36-.27a1.8,1.8,0,0,0-1.91,0c-1.6.77-3.18.62-3.7-1.1-.44-1.49,1.43-1.43,2.31-2,2.66-1.79,5.1-4.17,8.19-.3.72.9,3.23,1.93,5-1.09-3.14.52-5.38.06-5.75-3.17-.08-.69-.94-.83-1.62-.93-4.22-.62-3.85-2.7-1.83-5.49,1.45-2,1.49-4.38,1.21-6.76-.26-3.7,4.15-4.08,5-7a1.63,1.63,0,0,1,1.32-.09c.29.18.68.38.72.66.89,5.55,5.17,4.68,9.09,5.24,4.83.7,10-1.58,14.53,1.74a1.92,1.92,0,0,0,1.93.14c6.38-4.68,13.7-1.66,21.33-2.67-2.6-.26-4.82.24-5.75-2-.78-1.86.46-2.74,2-3.4a3.52,3.52,0,0,1,1.4,0c3.24,1.06,6.47,2.69,9.73.05a4.52,4.52,0,0,1,2-.65c4.38-.41,3.07,3,3.18,6.59,2.83-5,7.2-3.46,10.47-5a6.26,6.26,0,0,1,1.35-.44,4.54,4.54,0,0,1,2.82.35,1.48,1.48,0,0,1,.67,1.17c-.09,1.21-1.6,2.93,1.21,3,2.26.09,2.5,1.6,2.21,3.41-.65,1.59-2,2.62-3.51,2-3.19-1.26-5.77.31-8.49,1.12a1.2,1.2,0,0,0,.78,1.64c1.57.7,4.23,0,4.41,2.38.14,1.87-2.14,2.72-3.46,3.88s-2.75,2.3-4.68,2c2.2.24,4.07-.14,5.41-2.33.67-1.09,1.9-2.27,3.29-1.79,1.61.54.84,1.82.23,2.84,1,.48,2.15.45,3,1.29.43.11.85.22,1.28.31,3.63-1.38,7,.45,9.69,2,2.05,1.17.86,4.18-.76,6.11a4.88,4.88,0,0,1-1.4,0c-3.54-1.3-3.11,1-3.14,3.25s4.27,4.67.22,6.69a13.59,13.59,0,0,1-7.41,1.18c2.59.77,5.09,1.44,3.49,5a2.69,2.69,0,0,0,1.68,4c2.15.79,3.51,2.64,2.85,4.59-.91,2.7-3,.5-4.59.37a43.7,43.7,0,0,1-4.79-.92l-.24-.12c0,.4.11.44.4.12,4.13,1.29,1.22,4.95,2.5,7.18-.26,2.17,4.5,2.85,1.49,6.08-2.71,2.9-5.14,3.34-7.79.3a13.66,13.66,0,0,1-1.19-1.6c-1.26-2-3.6-1.5-5.27-2.43-3.24-1.8-2.87,1.54-4,2.61S307.79,214.28,306.06,213.07Z"/><path class="cls-2" d="M.23,116C-1,98.76,2.44,82.64,12.16,68.09a8.59,8.59,0,0,1,1-1.07c3.13.22,3.12,2.68,3.09,4.77,0,3.35,1.49,2.37,3.46,1.55-1.53-1.29-3.65-1.93-3.07-4.24s2.49-1.76,4.1-1.8c1.81,0,2-1.37,2.29-2.72.62-3.22,2.16-4,4.76-1.7a2.55,2.55,0,0,0,.79.6c5.9,1.93,6,2.26,3.3,8a9,9,0,0,0,8.42-1.63,9.58,9.58,0,0,1,7-2c2,.17,2.82,1.1,3.2,3.06s.24,3.24-1.86,3.86-3.88,1.36-3.82,3.88a1.16,1.16,0,0,0,1.47,1c2-.81,4.75.1,5.88-2.76a27.36,27.36,0,0,1,2-4.55c1.92-3.07,3.83-3.26,6.36-.73,6.11,6.12,14.08,7.21,22.1,8,2.82.29,4.65-2.51,7.38-2.71,4.09,3.5,8.91,2.42,13.73,2.7,9.24.54,18.42,2.07,27.58-.43,2.74-.75,5.13,1,7.86.72,6.85-.68,13.77-.48,20.64-1.09a7.63,7.63,0,0,1,3.46.3c2.16.84,4.61,1.73,1.15,4.17-1.17.82-1.46,2.16-2.13,3.3-1.62,2.78-3.75,4.47-6.75,1.79-1.47-1.32-3-1-4.64-1-2.71,0-6,1.93-7.82-2-.34-.73-1.88-.45-2.77.06-1.23.7-.86,1.73-.17,2.51,1.82,2.07,1.69,5,3.46,7.13,1.29,1.53.56,2.74-.87,3.72-4.81,1.63-6.61-3-9.5-5-4-2.71-7.66-2.54-9,2.16-.89,3.19-1.66,3.75-4.61,2.08s-5.29,1.53-8,2.21c-1.6.4-2.76,1.28-3.45-.85-.63-2-.83-5.27,1-5.11,4,.34,4.66-2.77,6.69-4.47.34-.28.79,0,1.73-.53-4.6.72-8.85-2.18-12.67,1.23-.45.4-1.3.08-1.91-.2-3.75-1.7-6.59-2.16-5.83,3.63.23,1.77-1.51,1.9-2.87,1.9-1.81,0-3.51-1-5.73-.64.66,2.46,4.53,3.22,3.39,6.37a3.31,3.31,0,0,1-1,1c-3.7.52-7.37,1.13-9.87,4.38-3.52.71-7.2.23-10.66,1.51A2.59,2.59,0,0,1,67,106.83c.83-2.34,3-2.88,5-3.51-.34-1.73-4.06-2.42-1.22-4.78.3-.25.2-.45,0-.47-5.94-.73-11.09-6.23-16.91-2.8,3.26.62,7.34,1.11,11.42,1.61s4.78,4.66,1.91,9c-5,.5-9.93,1.69-14.94,2.22-.56-.35-1.42-1-1.73-.85-3.73,1.83-7.61,0-12,.47,4.91.07,9.21,1.41,13.54.3a4.52,4.52,0,0,0,3.35-.16c3.33-1.16,5.4.54,5.8,3.37.53,3.65-2.76,3.2-5.08,3.48a8.61,8.61,0,0,1-1.47-.06c-3.79-1.74-7.16.92-10.78,1.09-1.43.07-2.61,1.4-4.09,1.63-1.32.21-3,.83-3-1.56-1.18.62-1.86,2.41-3.67,1.57-2.85-3.88-6.66-1.56-10-1.32-4.71.35-9.24.86-14-.53C6.48,114.73,3.23,115.4.23,116Z"/><path class="cls-3" d="M41.06,41c9.23-7.14,20-11.32,30.59-15.85,2.08-.89,4.06-2.31,6.52-2.11,2.28.93,4.37,1.51,4.26,5-.08,2.38,3.43,3.14,5,5,1.24,1.46,3.49,1.37,6.23.44s6.85-2.23,10.48-.3c2.28,1.21,4.83,1.63,5.93-1.95.37-1.2,1.38-1.7,2.8-.94,3.26,1.76,3.29,1.71,6.06-1-.75-1.92-5.33-2.1-3.24-4.86,2.6-3.43,5.23-.32,7.78,1.63,1.53-5,5-2.38,7.3-1.46,1.92.76,3.21,1.35,4.84-.14,2.49-2.27,5.47-.45,8.14-1,2.08-.4,5.7.54,5.76-2.26,0-2.35-3-3.64-5.72-3.75-1.3-.05-2.88.32-3-1.66-.08-1.32.92-2,2-2.56,6.82-3.24,12.71,0,13.8,7.46.09.63-.72,1.91.84,1.75,2.43-.25,3.84,1.77,5.87,2.46,2.67.91,4.78,1.31,7.31-.81,3.35-2.81,5.12-2,6.57,2.05.34,1,.78,2.31,1.89,1.17,2-2,6.86.37,6.76-4.78,0-1.34,2-1.4,2.75-.4,1.45,2.05,5.29.25,5.72,3.89.14,1.2.93-.11,1.1-.32,1-1.32,3-2.43,3.82-1.4,3.79,4.56,7.58.17,11.3.38a3.25,3.25,0,0,0,3.55-2.17c.68-1.78,1.94-2.77,3.86-2.3,1.54.38,2.81,1.08,1.9,3.16-.59,1.33.67.54,1,.6a21.35,21.35,0,0,0,7.42.48c2.33-.38,4.69-.49,6.12,2-1.34,1.36-.83,4.33-4.05,4.09,4.29,1.48,2.7-2.38,3.87-3.7,2.49-3,5.8-1.45,8.8-1.6,1.12-.06,3.1.68,3.24-.16,1-6.17,6.29-2.9,9.29-4.5,3.31-1.77,6.21-4.36,10.16-4.8,2.47-.24,4.06,1.19,5,3.14a6.79,6.79,0,0,0,5.28,3.7c.6.63.34,1.69,1.2,2.38a19,19,0,0,1-1.29-2.62c.46-1.63,1.28-3.8,2.93-3.42,3,.68,6.43-.49,9.07,1.67,1.93,1.59-.75,2.79-.63,5,4.92-1.86,10.12-.83,14.93-2.74,10.18,5.1,19.5,11.37,27.09,20-1.85,2.13-4.62-1-6.47,1.12-2.25-1.95-4-.07-6,.69-3.33,1.29-6.65,2.38-9-1.76-.88-1.56-2.42-1.59-4-1.1-3.11,1-6-.25-9-.7-.32,0-.07-.91-.85-.38-3,2-3,2-5.72-.3-1.71-1.42-3.47-.66-5.14,0-2.74,1.1-5.18,1.45-6.71-1.8-.94-2-2.65-1-3.94-.78-4.51.93-8.77-.06-13-1.27C257,36,256.24,33.56,254.7,32c-6.7,5.84-14.71,5.16-22.57,5-3.83-.09-7.68-.6-10.76,2.46a3.19,3.19,0,0,1-1.4.16c-2.66-2.14-5.58-2.88-8.77-1.36-3,1.43-6.95-.82-9.57,2.63-.8,1.06-2.1-.26-2.84-1.16-1.57-1.93-3.66-2.63-5.79-1.56-2.9,1.46-5.62,1.29-8.62.52-4.89-1.25-9.77-1.08-14.87-1-6.5.17-13.31,2.56-20-.13-1.71-.69-1.86-2.64-3.6-2.76.11,3-2.17,2-3.7,2.16-.8.09-1.6-.36-2.8,0,1.58,1.54,1.78,3.25.28,4.73-2.24,2.21-3.88-.79-6.7-.85,1.79,1.4,4.26.9,4.66,3,.45,1-1.94,1.13-.74,3,.57.87-1.79,3.25-2.81,4.92s-2.31.16-3.23-.8c-1.93-2-3.57-4.07-7-3.78-1.66.14-2.76-.37-3.08,1.72-.17,1.11-1.14,2-2.15,1.52-3.65-1.75-6.68.88-10,1.15,1,1.42,3.37,2.53,2,4.76-1,1.68-7,2-8.12.41-2-2.81-4.38-3.83-7.73-3-1.94.48-3.45-1-5.13-1.64-2.14-.88-3.95-1.73-6.3.47-2,1.9-5.14,1-7.48-.41-2.16-1.27-2.49-3-.08-4.65,1.65-1.11,3.73-1.57,5-3.23.57-.74,1.4-1.88.05-2.46-1.85-.79,0,1.09-1,1.58-2,1.08-4-.13-5.87.31a10.62,10.62,0,0,1-1.35.2c-6.17-.74-6.17-.74-6.43-6.88-.45-.29-.59-.94-1.21-1a5.4,5.4,0,0,1,1.38,1.29c.09,2.81-1.3,4.88-4.05,4.19-3.1-.77-2.49-3.65-1.89-6.12-.32.66-.85,1.18-1.11,1.78-.81,1.82,2.26,5.34-2.4,5.48-2.27.07-4.6.34-6.36-1.75-.74,1.68.44,2.9.12,4.2S48.76,48,48,46.76C46.39,43.76,42.34,44.07,41.06,41Z"/><path class="cls-4" d="M73.18,43c1.9-2.39,4,1,6-.3,0-1.09-2.65-.94-1.46-2.37s2.66,1.21,4.33.32c.51-.27,1,.46.88,1.79-.21,3.85-3.31,4-5.47,5.43-.9.6-2.65.61-2.44,2a2.46,2.46,0,0,0,3,2c1.64-.61,4.63,2.63,5.08-1.87.14-1.42,2.14-.76,3.46-.37,3.93,1.17,7.49,4.13,12,2.45.59-.22,2,.27,2.17.72,1.77,5.39,5.84,3.28,9.55,2.83-2.54-.19-.51-4.29-4.06-3.85,4.6-.55,7.9-6.6,12.73-2,1.83-1.34-1.45-4.79,2.12-4.69,4.83.14,9.5,1.11,11.82,6.73.09-2.67,1-4.47,3.54-4.92-.91-2-3.68.83-3.58-1.34.12-2.55,3.46.74,4.29-1.6,3.1-.25,5.55,1.8,8.42,2.45,1.5.33,2.76,2.39.73,3.23-2.84,1.18-4.52,3.74-7.48,4.84s-5.95,3.3-6.52,7.18a7.46,7.46,0,0,1-2.92,4.49,2.43,2.43,0,0,1-1.38.14c-1.55-1.07-3.88-.8-5.15-3.14,2.88-1.34,6.38-2.3,5.32-7.71-2.71,5-5.35,9.46-11.48,7.52-1.47-.8-2.7,0-4,.6-1.81.39-2.9-1.25-4.55-1.68,2.76,3.62,2.64,4.06-1.8,6.79-4.27,1.13-8.62,1.89-12.82,0-3-1.32-6.1.34-9.25-.94-3-1.21-6.38-1.12-4.15-6a5.76,5.76,0,0,0,1,6c1.43,1.92,4.89,5.11-.93,6.41-1.11.25-1.19,1-.62,1.87S81.22,78,81.92,77c2-2.91,4.7-2.46,7.5-2.36,1.13,0,2.56-1.68,3.27.47S91.28,77.27,90.18,78c-6,5.84-13.41,2.88-19.26,1.25-3.35-.93-9.41-1.56-11.3-7-.86-2.47-2.7-1.8-4.15,0-.57.69-.49,1.65-.86,2.2-1.63,2.41-.9,6.89-6.07,6.41-2-.18-4.7,1.48-5.55-1.11-1-3,1.84-4.66,3.93-6.23.9-.68,3.7,1.69,2.87-2-.6-2.7-2.26-2.6-4.33-2.53a7.64,7.64,0,0,0-4,1.63c-2.12,1.33-4,3.29-7.16,2.55-2.82-.67-7.8.81-2.36-4.31,1.15-1.08.88-3.12-.1-4.87-1.41.1-3.15,4.62-4.52-.1A1.86,1.86,0,0,0,25,62.58c-1,.36-.81,1.39-.76,2.17.23,3.47-.72,5.26-4.56,3.59-1-.42-2.05-.25-2.28,1.09-.15.9.37,2,1.13,1.91,2-.3,2.91.56,2.92,2.31,0,2.36-2.08.2-3,1.2-.7.79-1.92,1.13-3.26,1.86-.87-3.35,1.56-7.26-2-9.69A77,77,0,0,1,41.06,41c2,1.95,6.52.42,6.77,4.88,0,.22.82.63,1.15.54a1.18,1.18,0,0,0,.9-1.54c-.65-1.33-1.56-2.58-1.16-4.14a3.44,3.44,0,0,1,1.13-2c1-.57,1.41.52,1.72,1.23,1.55,3.56,4.93-.12,7.09,2.05-2.38-3.49-.18-6.25.37-9.39a3.19,3.19,0,0,1,2.07,3.4c-.13,2-.55,4.38,1.69,4.84s2.46-2.26,3.4-3.74c1,.12,2.28.13,2.25,1.34-.09,3.89-.18,3.88,4.76,4.65a4.28,4.28,0,0,0,1.44,1.57C74.34,44.57,73.75,43.81,73.18,43Z"/><path class="cls-5" d="M234.18,27c-5.47-2.82-11.55-.09-17.23-2.14-.32-1.69,2.77-1.07,2.37-2.83-.09-.42-1-.84-1.6-.92-2.53-.34-2.41,1.55-2.66,3.22-.29,1.83-1.86,1.79-3.13,1.62-3.65-.46-6.72-.13-7.06,4.77-5.21-6.22-5.21-6.22-12.12-1.48-1.72-1.69.76-2.82.63-4.91-3.36,2.86-4.44-.61-7.16-3.05,1.49,5-.56,6.35-4,6.1-2.1-.15-3.74,3.13-6.17.66-.52-.53-1.59-.35-.84-1.57.44-.72,2.43-1.42.36-2.46-1.23-.61-2.94-.94-3.67.34-3,5.29-7.08,2.46-10.6,1.3-1.79-.59-2.68-2.79-5.48-2-1.86.55-.31-2-.25-2.38a6.75,6.75,0,0,0-4.87-7.65,9.15,9.15,0,0,0-9.26,2.39c4.42-1.3,7.11,1.45,9.58,4,1.53,1.59,1.94,3.84-1.55,3.91-3.25.06-6.41,2.09-9.77.35-1.15-.6-2.24,0-3.16.85-2,1.84-4,4.9-6.18.13a1.25,1.25,0,0,0-2.09-.14c-.48.47-2.13-.32-2.55-1.15-1.43,1.23.64,4-1.66,4.43-1.73.31-1.89-2-3-3-1.66-1.5-3.31-2.14-5.34-.24l5.73,4.07c-3.6-2-5,11.5-9.82.46-1.33,7.85-5.07,6.47-9.3,3.55a1.83,1.83,0,0,0-2.29.44c-2.1,2-4.18,1.2-6.19-.06-1.12,1.44,1.91,2.36.32,3.5-1.36,1-1.91-1.38-2.78-1.27-4.64.56-5.7-5.26-9.9-5.41-.4,0-1.2-1.29-1.08-1.45,2.3-3.2-1.68-4-2.25-6,12.29-5.45,25.37-8.34,38.33-11.54,15.37-3.79,30.88-7,46.68-8.42,2.6,2.59,1.2,4.63-1.08,7.1,2.75-.77,5.18.48,8.11.44-1-1.32-2.39-.58-3.27-1.11a4.35,4.35,0,0,1-1.75-5.26c.66-2.27,3.05-2.16,4.61-1.3,2.34,1.29,4.39,2.46,7.21,1.43,1.36-.5,2.56.48,3.09,1.9.67,1.78-.67,2.28-1.86,2.94-.79.43-2.16.64-1.61,2a2.25,2.25,0,0,0,2.56,1.15c10.79-1.49,21.5,1.89,32.18.72a33.52,33.52,0,0,1,10.44.69,8,8,0,0,0,5.35-.67,7.52,7.52,0,0,1,6.29-.37c1.26.46,3,1.22,3.83.33,3.27-3.63,6.34-1.15,9.45,0,1.9.68,3.42,1.38,5.47-.25,3.13-2.5,3.09,2.54,5.28,2.67,2.88.25,5-2.25,7.89-2.08a2.28,2.28,0,0,1,1.24.82,2.45,2.45,0,0,1-.42,2.87c-3.14.07-5.54,1.94-8,3.54s-4.43,3.48-7.6,1.52c-1.51-.93-2.35.56-2.46,1.83-.3,3.26-.34,3.47-3.39,3-3.54-.52-7.06-1-10.58.09Z"/><path class="cls-6" d="M357.22,94c1.58,1.8.76,4,1,6-1.69,1-3.41,2-5.51,1.75,2.27.74,3.9-.47,5.51-1.78a28,28,0,0,1,1.8,10,29.81,29.81,0,0,1-3.35.53c.85.19,1.86-.39,2.56.53l1,5-.36.61c-3.22,2.45-6.59,4.6-10.7,5.25-1.64.13-3.19-.65-4.83-.48-1.15,0-2.35.37-3.4-.42.18-3,.18-3,4.11-4.33-.73-1.7-4.7-1.85-2.53-4.84,1.15-1.59,3.77-.57,7.25,2.53-.32-3.51-.32-3.51,3-7.49-2.78.57-4.11,6.25-7.61,1.76-2.17-2.79-.63-4.44,1.47-6.34-2.4,3.09-7.08,1.7-9.09,5.32-.76,1.37-2.44.73-3.6,0-1.37-.87-.87-2.24-.12-3,4.81-5.1-.61-8.81-1.62-13.47-1.34,3.38-4.62,2.78-7.43,4.85,2-.92,3.83-1.83,4.43.32.43,1.53-1,2.32-2.12,3-.58.34-1.38.4-1.8.83-3.62,3.82-7.41,3.88-11.59.91a4.67,4.67,0,0,0-3.37-.76c-6.77,1.24-12.19-2.43-17.95-4.85-1-.44-2-1.37-1-2.78,2.08-1.11,4.11-1.73,5.72-4.13s5.29-2,8.14-.46c.54.23-1,2.82,1.27,1.1,2.26,0,4.74-.75,6.18,1.88.28,1.22-1.15,2-.94,3.36,2-.57,1.63-2.3,2.17-3.53a2.7,2.7,0,0,1,3-1.35c1.59.17,2,1.51,2.58,2.65.22.4-.14,1.5,1,1a2.49,2.49,0,0,0,1.09-1,1,1,0,0,0-.44-1.61c-1.35-.58-2.87-.67-4.17-1.4-.66-3.9,3.49-2.67,4.86-4.94-4.1,1.64-6.58.14-8-3.79a3.28,3.28,0,0,0-4-2.22c-1.77.36-1.74,1.37-1.92,3.13-.39,3.71-6.76,5.5-9.72,3.13-1-.82-1.61-2.12-2.91-2.66-.18-.62-1,.42-.48.08,0,0,0,.09.1.13,2.93,1.78-.94,3.64.18,6,1.71,3.6-3,2.8-4.36,4.5C289.12,95,287,96,284.56,93.8c-1.3-1.15-2.76-1-4.16-1.32-1.12-.29-2.51-.39-3-1.53-1.09-2.55-3.18-1.86-4.27-.81-3.36,3.23-5,1.55-6.78-1.59-2.6-4.49-4.19-4.92-8.57-1.88-3,2.06-5.71-.39-8.72.42-3.38.92-6.49,1.23-9,4.25-2.87,3.44-5.16.56-7.18-1.64-2.2.93-1.57,4.67-4.71,4.56a3.89,3.89,0,0,1-1.62-3.08c.84-3.44-1.69-5.85-5.33-5a6.13,6.13,0,0,1-2.29.5,5.79,5.79,0,0,1-4-6.15c.14-3.08,1.47-4.78,4.66-4.24,3.55.61,7.12.88,10.57,2.43,3,1.33,6.54,3.18,9.57-.42a1.42,1.42,0,0,1,1.33-.55c6.71,2.6,13.22-3.38,20-.42,1.35.58,3.92,2,5.25-1.19.53-1.29,2-.15,2.83.7s1.22,3.06,3.35,1.88a7.62,7.62,0,0,1,1.24-.57c4.16-2,8.87-2,12.89-5.52,2.64-2.3,8.06-2,11.35-3.12-4,3-8.37-1.26-13-.83-2,.18-2.21-1.45-1.86-3.18.25-1.24,2.18-1.85,1.23-3.49-.68-3.68,1.37-4.48,3.81-2.71,2.78,2,5.27,1.65,8.33,1.35,5-.5,10.23,1.43,14.93,1.19,5-.26,7,5.22,11.21,3.53-.51-.38-1.79-.38-2.58-1.28-.43-.49-1-.94-.83-1.69a1.69,1.69,0,0,1,1.93-1.2c5,.67,11-.89,13.53,5.71.3.79.49,1.21,1.24.67,2.91-2.11,4.72.3,6.8,2.06.89-2.07-.58-5.65,3.48-4.63,4.82,8.51,9.19,17.2,10.85,27C355.67,92.78,356.07,93.41,357.22,94Z"/><path class="cls-7" d="M132.18,235c-3.4.39-6.69-.31-10-1.07-1.08-1.6-2.79-.24-4.08-.87l-3-.16a2,2,0,0,1-1.27-1.47,1.47,1.47,0,0,1,.85-.94c1.25-.37,3.12.09,2.9-2.22a4.34,4.34,0,0,1,.23-1.3c1.92-4,4.69-1.69,7.24-1,.81.7,1.51,1.65,2.85,1.26-.63-1.13-2.14-.13-2.76-1.18-3.72-3.81-8.86-5.42-13.09-8.44-1.07-.76-2.69-1.31-2.09-2.93s2.37-1.16,3.51-.85c4.55,1.23,8.79,3.31,13.59,5.18.28-1.62-1.41-3.56.51-4.76s3.12.1,4.31,1.27a1.57,1.57,0,0,0,2.55,0c.65-.63,2-1,2.1-.23.5,3.88,5.39,3.55,6,7.34,1.22-1.56.2-2.63.22-3.72.05-2.12.43-4,2.73-4.82,2.15-.72,4.56-1.13,5.84,1.15,1.8,3.23,5,0,7,1.92,2.59,2.46,4.76,1.35,6.73-1a2.94,2.94,0,0,1,2.31-.79c4.87,0,9.59,1.08,14.13,1.45.39,1.26,1.09.27.56.68-.18.14-.19-.06-.38-.32-.85-1.13-.88-2.12.34-3a2.59,2.59,0,0,1,3.62.2c3,3,5.64.82,8-.81,1.23-.84.16-3.45,2.3-4.1a5.28,5.28,0,0,1,2.06-.51c2.76-.12,5.43.35,8.31-.09,4.29-.65,1.07,2.9,1.63,4.45,4.16,1.79,3.07-4.11,6-4.11a4,4,0,0,1,1.36.31c1.63,1.23,3.09,2.53,2,5a11.38,11.38,0,0,1,9.08-3.92c4.26,0,9.21.58,12.8-3.1a11,11,0,0,1,6.67-1,6,6,0,0,0,5.09-.74,3.4,3.4,0,0,1,4.5.3c1.1,5.16-1.84,9.37-6.8,9.42-3.62,0-6.23,2.5-8.33,3a4.1,4.1,0,0,1,4.53,2.06c1.33,2.14-1.39,2.43-2.12,3.65,3.54,2.53,9.9-.67,11.39,5.77-7.36,2.66-15.15,2.88-22.78,4A370.94,370.94,0,0,1,187,237.58c-13.62.28-27.35.69-41-1.29-2.61-.38-5.3-.27-7.95-.38C136.15,235.57,134.23,234.87,132.18,235Z"/><path class="cls-8" d="M346.21,65c-.73.86-3.68.49-1.63,2.89.79.93,1.76,1.92.1,2.74-1.36.66-3.69,1-4.16-.22-2-5.13-4-1.61-6-.28a3.91,3.91,0,0,1-1.36.25c1.4-6.22,0-7.19-13-8.07,1,2.12,3.15,2.46,5,3.71-2.23,0-4.45,0-6.68,0-.78,0-2.15-.15-2.23-.47-1.76-7.63-3.36-.84-5.31.21-.85-1.37.84-4.67-3.91-3.32-4.34,1.23-9.76-.93-14.78.49-2,.56-3-1.79-4.45-2.77-2.36-1.57-3.52-1.18-2.53,1.89a2.57,2.57,0,0,1-2.79,1.72c-.33,0-.79.05-.95-.15-3.47-4.33-6.41-2.64-9.28.73-.29.34-.91.28-1.41.22a1.81,1.81,0,0,1-1.05-.85c-.6-1.39.27-5.13-3.16-1.91-1,.94-1.68,2.91-3.5,2a3.81,3.81,0,0,1-2.21-3.66c.25-1.84,2.28-2.51,3.48-3.72.65-.66,2-.11,2.89-.43,2.89-1,7.43,1.59,8.17-4.57.22-1.8,4.08-4.56,7.56-4.72-.4-.58-.78,0-1.16,0-4.58,0-6.78,2.67-7.87,6.79-.73,2.74-3.46,2.1-4.94,1.74-2.32-.57-.47-2.26-.15-3.58.59-2.41,1-4.91,2.44-7,.92-1.33,0-1.47-.69-2.13s-1.26-1.14-2.38-.27c-5.74,4.41-5.77,4.36-9.15-1.9a4.75,4.75,0,0,1-6.54,2.81c-5.35-2.83-10.7-.25-15.94-1a11.72,11.72,0,0,0-9.36,2.23,4.75,4.75,0,0,1-2.87.71c-1.89,0-3.89-.18-4.9-1.89-1.1-1.86.83-2.93,1.77-4.2,1-2.29,2.22-3.29,5.23-3.28,6.9,0,13.85.59,20.78-.93,2.5-.55,4.26-1.2,5.61-3.2.51-.76.29-2.33,1.61-2.15s2.09,1.32,2.56,2.71c.73,2.13,1.82,2.89,4.58,3.57,5.23,1.29,9.92,1.7,14.94-.08.78-.28,1.56.64,1.38,1.61-.82,4.45,2,3.24,4.07,2.46,3.32-1.26,6.59-3.42,8.21,2,.39,1.31,1.51,1.06,2.45.49,1.92-1.16-.18-1.4-.53-2-.62-1-.18-1.6.66-2s1.28-.35,2,.62c2,2.91,5.35,2.2,8.08,1.83s4.7-1.6,6.27,1.92c1.24,2.76,6,2.49,9.28,0,1.17-.89,2.81-4.52,3.62.3,0,.19.52.31.79.46,1.87-4.21,4.45.64,6.56-.51C336.52,49.12,342.47,56.22,346.21,65Z"/><path class="cls-9" d="M323.18,200c3.07-.77,6.2-2.18,9.35.74-1.62-1.15.74-4.93-3.35-4,.26-1.94-3.94-1.42-2.33-3.92,3.91-6.06-.32-4.61-3.67-3.87.56-3.76,2.21-4.46,10.63-4.51a12.58,12.58,0,0,1-2.46-10.09c.11-.63,3.32-.88,4.79.7a12.85,12.85,0,0,0-2.63,2.36c1.69,0,1.41-2,2.63-2.36,1.44-.12,1.83-.74.75-1.76-2.31-2.19-.1-2.34,3.06-2.63-5.46-1.12-9.12-1.88-12.45-3.37,0-1.17,0-1.16.12-.52a1.19,1.19,0,0,1-.45,1.25,4.19,4.19,0,0,1,.75-.57c.25-.2.19-.53-.42-.17-2,1.43-3.51-1.5-5.63,1.6.51-2.58,2.21-3.34,1.82-5.57-1.43,1.87-4.52,1.76-3.63,5,.1.37-.31,1.31-.72.62-1.37-2.38-6.8,1.81-5.92-3.74,2.67,1.46,2.67,1.46,9.36-4.64-3.5,0-7.22.39-6.89-4.51,4.3-1.53,8.84-1.5,13.29-2.07a29.19,29.19,0,0,1,5.06-5.47,13.79,13.79,0,0,1,1.06-.89c.78-.61,1.64-1.45,2.56-1.37,5.27.45,10.52,1.11,15.61-1,1.84,3.42,4.43.29,6.62.75-1.34,20.66-4.28,41.06-10,61-2,3.08-5,2.22-7.81,2a21.33,21.33,0,0,0-4.23-.53c-.81-.15-1.87-.22-2.25-.83-2.74-4.28-5.54-2.55-8.39-.23a1.9,1.9,0,0,1-1.26-.47c-.49-1.27-2.15-2.15-1.06-3.95C326.42,200.94,324.31,200.75,323.18,200Z"/><path class="cls-10" d="M360.19,116c1.87,7.66,1.06,15.33,0,23-3.56,6.23-9.38,4.5-14.64,3.87-4.91-.59-9.6-1.67-14.71-.62-2.79.57-6.1-.85-9.16-1.43-2.14-.41-2-1.33.4-3.2a5,5,0,0,0-3.67,2c-5.54,4.33-11.3,3.49-17.15.75-.06-2.5-.6-4.58-3.85-3.59-2,.6-4.77-1.64-6,2-.41,1.17-2.42.49-3.62-.06-4.72-2.15-9.49-2.59-14.32-.47-1.82.8-3.55.41-5.32-.05-10.18-2-20.4-.74-30.6-.4-2,.07-4.06.45-5.85-.39-4.54-2.13-9.3-2-14.09-1.74a29.93,29.93,0,0,0-5.82-.34A8.33,8.33,0,0,0,209,136c-6.36,1.53-12.42-.17-18.48-1.78-.94-.25-2-1.41-2.72-1-4.75,2.89-9.49,1-14.25.27-.47-.07-1.11.26-1.46,0-6.49-4.65-13.88-1.5-20.79-2.43a8.59,8.59,0,0,1-1.4-.35c-5.62-.18-11.27-2.09-16.72-1.46-6.31.73-12.52,1.83-18.89,1.31a2.79,2.79,0,0,1-1.28-.38c-3.53-1.19-7.24-.82-10.87-1.21-1.52-.16-3.37.54-4.22-1.53,1.13-3.49,3.58-4.92,7.18-4.86,17.23.28,34.46-.58,51.67,1.42,6.37.74,12.9.47,19.36.81,3.8.74,7.66-.8,11.45.26,8.23.81,16.46,1.54,24.73,1.77a17.37,17.37,0,0,0,5.49.8,32.77,32.77,0,0,1,3.77.19,10.34,10.34,0,0,1,1.41.26,29.52,29.52,0,0,0,11.34.84c7.62-1.82,15.22-.56,22.82.16,2,1.18,4.19.67,6.29.73,5.4.17,10.78-.32,16.09,1.62a13,13,0,0,0,8.77-.23c5.17,1.22,10.43-.25,15.61.54,1.51.23,1.5-.53,1.24-1.73s.74-1.63,1.78-1.78a3.52,3.52,0,0,1,1.34.34c3.65,4.9,8.65,3.44,13.47,2.83.69,0,1.37.09,2.06.13,3.79-.29,7.58-1.28,11.39-.56,2.58.48,3.8-2,5.72-2.75,4.08-1.68,3.82-2.7,7.4-1.29,1.47.58,1.92.06,2.74-.72s1.84-1.49,2.65-1.23c6.08,1.95,5.3-2.21,5.3-5.75a4.37,4.37,0,0,1,1.14-3.21Z"/><path class="cls-11" d="M341.18,208c3-.23,6.11.67,9-1a183.27,183.27,0,0,1-17,44c-1.57-.54-2.49-2.32-4.24-2.31,1.65.93,2.48,2.59,3.21,4.31l-.79,1.06c-.84.88-1.93,1.85-3,.83-3.17-3.08-6.85-5.84-7.91-10-1.83,6.77,5.11,9.39,7.94,14.19l-1.09,2c-3.16,2.16-5.47.64-7.14-2a30.35,30.35,0,0,0-2.23-3.75c-.58,1.48-.64,3-1.45,4.3s-2.26,2.43-3.18,1.43c-2-2.18-5.81-1.75-7-5-.1-1.14-.25-2.29.79-3.15,3.45.26,3.45.26,6-3.16-2-.64-4.38,0-5.88-1.74,1.14-11.71-.16-23.33-1.24-35a5.54,5.54,0,0,0,2.63-1.15c1.78-1.18.3-6.42,5.53-3.75,2.4,1.23,5.36,1,6.84,4.06.5,1,1,2.74,3.21,2.34s2.58-2.29,3.49-3.53c1.27-1.73-.89-.79-1.4-1.08-1.72-1-3.34-1.74-.18-2.93h1a4.16,4.16,0,0,0,3.66-.17c3.22-1.78,4.53-1,5.31,3.26a10,10,0,0,1-2,3.71c3-2,5.94-2.11,6.69-5.22C341,208.41,341.08,208.22,341.18,208Z"/><path class="cls-12" d="M196.18,210c-1.41,2-1.6,4.32-4,6.22-3.32,2.62-5-.18-7.36-.6-.39-.07-.78-1.74-2.2-.82s-.36,1.59.07,2.38,1,1.34.54,2.3c-4.2-3.5-9.7-1.08-14.3-3.1a3.06,3.06,0,0,0-4.08,2.24c-.49,2.06-3.22,1.68-5,.71-2.13-1.15-4-3-6.55-.65-1.16,1-1.5-.43-1.79-1.34-1-3.17-3.4-3.27-5.83-2.18-2.19,1-2.41,3-1.36,5,.86,1.63.81,3.28-.81,3.77-2,.6-2.85-.49-2-2.68.22-.56-.8-.81-1.54-.78-3.26.1-5-1-3.22-5.43-2.51,3.42-4.38,3.68-6.19.48A1.65,1.65,0,0,0,128,215c-1,.85-.49,1.77.21,2.58l2.26,2.69c-3.1-.1-5.68.86-7.55-1.87-.9-1.32-2.16-1.33-3.43-.23-.66.57-1.87.92-2-.15-.62-4.68-4.48-2-6.64-3.16,4.25,4.48,11.77,4.66,14.33,11.21-2.28.84-5.7-2.26-7,2a1.73,1.73,0,0,1-1.79.58c-7.43-3.33-15.72-2.74-23.21-4.9.56,1.78,4-.48,4,2.15,0,1.54-1.18,2.63-3,2.21-10.8-2.33-21.29-5.56-31-10.93,1.94-2.53,3.43-2.88,7.28-1.7,2.78.85,2.79.85,2.64-2s3.29-2.23,4.27-4.06c1.95-1.65,3.29-4.06,6-4.78,2.84.21,5.49,1.3,8.27,1.82,3.29.62,6,.91,8.14-2.71,1.3-2.25,3.33-1.93,4.35.8.51,3.27,2.64,3.94,5.47,3.29,2.29-.52,4.56-1.2,6.43.92.43.13.07.81.59.91a3.92,3.92,0,0,1-.57-1.29c4.25-4.1,4.28-4.13,8.6-.37a2.75,2.75,0,0,0,4,0c1.23-1,2.13-3,4.06-2.18,2.22.94,1.09,3.18,1.32,4.88a6,6,0,0,0,.56,2.22c-.14-4.11,1.88-4.95,4.84-4.5a5,5,0,0,0,4.12-1.13c4.36-3.42,5.37-3,7.73,2.75,3.73-3.05,7.76-2.61,11.79-.83.85.38,1.5.55,2.22-.12,5.12-4.74,10.75-3.46,16.27-1.08,2.12.92,4.32,1.64,6.19.63C191.07,206.75,193.61,207.92,196.18,210Z"/><path class="cls-13" d="M.23,116c1.56-.62,1.94-2.12,2.33-3.55,1.65.24,2,5.76,4.44,1a1.42,1.42,0,0,1,1.34-.17c7,4.58,14.07,1.28,21.15.45,2.12-.25,4,.51,3.69,3.32a2.45,2.45,0,0,1-2.72.64c.37.74,1,.5,1.66.53,1.31.06,3.22-1.23,3.61,1.16.31,1.94-1.2,2.46-2.79,2.78-.36.07-1.42-.64-1.07.58.11.38.91,1,1.1.85,4.6-4.87,8,1.8,11.61,1-1.42-.76-3-2.13-1.65-4.4,1.54-2.52,3.07-.47,4.52.41.72.44,1.6,1,2.33.61,3.86-1.9,6.21.72,8.77,2.77a3.1,3.1,0,0,1,.75,3.31,4.37,4.37,0,0,1-3.06,1.52c-5.53-.43-6.77,5.2-10.48,7.38-1.84,1.08.33,3.87,1.43,4.46,3.67,1.94,3.38,4.83,2.57,7.92,2.64.75,4.88,1.38,7.48.31,2.32-1,3.07,1.57,3.78,3.07.79,1.65-.79,1.77-1.94,2-1-.07-2-.36-3,.18-1.73.72-1.27,2.42-1.66,3.73-2.33,2-3.63-.66-5.41-1.2a17.21,17.21,0,0,0-8.69-3.14c-3.09-.35-7.46-.71-7.65-5.83,0-1-.18.31-.43.21-5.17-2.08-8,3.35-12.32,3.9a2,2,0,0,1-1-.9c1-4.52-2.09-5.84-5.43-6.57-2.16-.47-4.22-.79-5.93-3.14-.08,2,2.81,6-2.34,4A101,101,0,0,1,.23,116Z"/><path class="cls-14" d="M266.18,14h-1c-3.82-2.07-5.63,1.2-8,3-2.62-.13-2.34-2.77-3.69-4.42-3.34,6.66-7,.87-10.4.23-1.56-.29-2.58-1.72-3.77.64-.87,1.74-3.06,1.18-4.39.79-3.15-.93-5.95-1.44-8.93.67-1,.69-2.94.44-4.28,0-6.9-2-13.83-.46-20.75-.42-4.36,0-8.51-1.61-13-1.36-2.67.15-5.44-.23-8.07.52s-4.33-.12-5.06-2.54c-.68-2.26,1.79-2.51,2.91-3.55.44-.41,2.21.73,1.52-1.24a1.88,1.88,0,0,0-2.41-1.27c-3,.91-5.92,2.36-7.78-1.77-.13-.29-1.62-.25-2.29,0-2.11,1-.09,2.19-.11,3.3,0,.94-.54,2.13,1.19,1.94a15.16,15.16,0,0,1,2.89-.44c1.53.14,1.56,1.59,1.69,2.68s-.94,1.22-1.72,1.13a93.3,93.3,0,0,1-12.26-2.15c4.23-.79,6.26-2.66,4.75-6.81,4.27-1.66,8.88-1.42,13.27-1.8,33-2.87,65.65-1.13,97.49,8.94A61.43,61.43,0,0,1,280.26,13c.45,2.69-2,4.3-3.35,3.86C273.37,15.69,269.35,16.41,266.18,14Z"/><path class="cls-15" d="M83.18,205l-5,5c-2.47.43-3.72-1.92-5.71-2.49-1.57-.45-4-2.3-3.93,1.65,0,1.18-1.15,1.55-2.22,1.42A2.82,2.82,0,0,1,63.7,208c-.07-5.07-2-5.28-6.52-4-3,.88-7.43,0-9-3.61-1.34-3.12-2.81-2.2-4.52-1.19-2.76,1.64-5.27,3.91-7.41-.87-.58-1.3-2.61-1.12-4.08-.43a14.12,14.12,0,0,1-5-5c1.41-2.68,3.56-1.44,5.75-1-4.3-1.73-5.41-4.06-1.32-7.54-3.43,2.53-3.5,2.55-3.25,4,.16,1,1.87,2,.24,2.87-1.35.74-2.39-.67-3.52-1.23-2.11-1-3.06-3-4-5-1-4.08,2.95-2.14,4.24-3.45,2.22-1.79,4.45-3.58,7.52-1.77a13.37,13.37,0,0,1,1.19.72,7.61,7.61,0,0,0,2.32.8c4.29,1.5,4.66,1.44,8.62-.62,2.71-1.41,4.81-.34,6.41,2,.87,1.28.73,2.87,1.28,4.87,0,.06.79-.75.18-.48-.12.05-.14-.11-.21-.45a6.58,6.58,0,0,1-.21-2c.31-3.19,2.64-4.35,5.26-4.09,3.52.34.73,3.19,1.29,4.69,4.85-1.08,10-.1,14.34-3.29,1.09-.81,2.18.14,2.57,1.48.51,1.76,2.42,2.94,3.31,1.92,2.41-2.73,5.06-2.1,8-1.85a2.39,2.39,0,0,0,2.62-2.46,3.29,3.29,0,0,1,1.95-1.73c2.89-2.79-.84-2.94-1.74-4.1-.65-.83-2.33-.84-2.22-2.35s1.6-2,2.83-2.43A57,57,0,0,0,98,167.35c2.87-.28,3.74,1.59,4,3.91a17.41,17.41,0,0,1-3.5,12.86c2.28-1,3.67-.24,4.63,1.55a2.68,2.68,0,0,1,.31,1.92c-.61,1.64-11.27,7-12.94,6.59-2.4-.64-3.18-1.69-.94-3.63a12.71,12.71,0,0,0,2.4-3.38c-2.56,5.49-9.4,7.4-13.68,12.22-.52.32.61.67.1.24-.13-.11,0-.19.26-.42a4.82,4.82,0,0,1,3.65-1.28c1.44.05,3.46-.27,3.73,1.55.21,1.43-2.25.91-2.49,1.33-.69,1.21-.92,2.59-2.7,2.6C81.6,203.93,83.4,203,83.18,205Z"/><path class="cls-16" d="M26.18,183c-1.37,1.42-4.45-1.4-5,2a122.58,122.58,0,0,1-16-40,6.44,6.44,0,0,0,1.47-.09c1.12-.33.39-.74.11-1.31-.77-1.57-1.83-3.22.5-5.52,1,6,6.31,4.63,9.84,6.08,4.41,1.8,4.14,3.73,2.07,6.84-.58.6-1.45.58-2.12,1a5.35,5.35,0,0,0,2.12-1,4.22,4.22,0,0,0,4.75-2.82c.52-1.49,1.47-2.63,2.74-2.36,2.81.59,5.36.81,7.71-1.18.15-.12,1,.25,1.2.58.56.95,0,1.51-.91,1.8a1.59,1.59,0,0,0-1.22,2.27c.44,1.22,2.16.73,2.2.78,3.43,4.52,11-.27,13.53,5.94-.34,2.7-2.53,2-4.13,2.11-1.85.11-3.31.76-2.16,2.59.95,1.51-.52,5.45,3.57,4.23a3.17,3.17,0,0,1,3.62.85c1.19,1.4-.05,2.32-.82,3.41-1.6,2.29-3.61,4.36-4.16,7.26-.16.82-.55,1.79-1.37,2-3.55.74-7.17,1.17-10.56,2.59-2.38-3.14-5.81-.4-8.33-2.11C23.89,181.23,27,181.25,26.18,183Z"/><path class="cls-17" d="M254.23,230.06c-2.08-2.9-5.52-3.51-8.46-3.59s-4.31-1.27-5.18-3.73c1.21-1.06,3.16,1.26,3.89-1,.1-.32-.31-1.14-.56-1.17-1.4-.2-2.79-2.15-4.18-.41-.7.88-1.39,1.18-1.84.35-.35-.66-.64-2.07.74-2.42,4.07-1,7.15-5.73,12.21-3.25.41.2,2-1,2-1.06-1.22-3,2.2-4.3,2.34-6.74,3.49-2,6-1.72,7.41,1.56a4.81,4.81,0,0,0,2.59,2.44l3-2a1.35,1.35,0,0,1,2,0c1.65,1.07-.82,4.13,1.83,4.37,2.34.21,2.6-1.7,3.3-3.77.51-1.5,4-.85,6-.32a5.58,5.58,0,0,0,5.06-.64c1.31-.84,3.67-4.69,4.69.77.34,1.81,7.74.49,9-1.91,1-1.91,2-2.9,4.17-2.18a2.25,2.25,0,0,1-1,2.6,3.21,3.21,0,0,0-1.36,2.51c1.61,1.86,3.44-3.26,4.77.05.74,1.85-2.06,1.18-2.46,2.46-14.33,7.86-29.7,12.88-45.52,16.65A30.82,30.82,0,0,1,254.23,230.06Z"/><path class="cls-18" d="M32.19,197.93c.47-2.57,2.22-1.9,3.85-1.5,1.83.44,1.82.46,2.67,4.11,2.29-1.23,4.56-2.39,6.77-3.65s3.61-.11,4.27,1.76c1.09,3.1,5.72,5.52,8.6,4.22,5-2.26,5.89-1.73,6,3.42,0,1.55.53,3.49,2.13,3.46,2.61,0,.24-2.06.62-2.65,1.16-1.82,3.21-1.78,5.06-1.13a17.72,17.72,0,0,1,6,4.06c-.13.84-.33,1.78-1.33,1.84-5.58.34-2.65,2.17-.24,3.83C73.84,216,72,220,69,216.22c-.66-.83-4.14-1-5.9.92A98.32,98.32,0,0,1,32.19,197.93Z"/><path class="cls-19" d="M306.35,256.09c1.5,1,2.89,2.25,4.95,2,1.64-.22,2.6.07.72,1.56,1.34.64,2.63,1.52,3.66-.57s.66-4.38,1-7.08c4.11,2.93,3.73,10.41,10.6,9.09-3.44,7-8.16,13-13.16,18.89-2.3-1.88-4.37-3.87-2.84-7.23-.88-.1-1,.06-1.07.4-.1,1.9,2,4.66-1.15,5.44-3.4.84-4.87-2-6.12-4.61Z"/><path class="cls-11" d="M318.18,139c1.37-3.91,4.62-1.07,7.11-2.31-.86,2.54-3.55.91-4.4,2.67,6.46,2.31,13.15.73,19.7,1.23a86.78,86.78,0,0,1,9.34,1.42c4.53.85,7-1.5,10.29-3q-.05,3.51-.11,7a8,8,0,0,0-5,4.88c.88-5.21-1.32-5.21-4.65-4-3.09,1.17-6.08,2.24-9.51.19-1.91-1.14-4,.6-5.79,1.87h0c-1.86,1.83-3.29,4.19-6,5-.18-.86.36-2.49-1.06-2.26-7.89,1.27-3.49-2.28-1.94-4.74a11.07,11.07,0,0,1,5.61-3.18c.27.15.55.32.83.5-.25-.2-.55-.31-.83-.5-3.14.68-6.29-.12-9.39.14C318.36,144.34,317.36,142.57,318.18,139Z"/><path class="cls-5" d="M266.18,14c3.31.82,6.87-.52,10.15,1.9,1.59,1.17,2.82-1.61,3.94-3,7.93,2,15,5.81,21.95,10-.12,2.37-1.33,3.83-3.65,2.86-2.94-1.23-5.48-.33-8.16.56-1.87.62-4,1.53-5.29-.81-1.58-2.78,2.48-1.95,2.68-4.48-4,.46-8.22-2.88-11.62,1.9h0c-2.5.55-5,1.73-5.72-2.56-.22-1.29-1.58-3.89-4.28-3.44Z"/><path class="cls-20" d="M303,274c.59.25,1.47.33,1.72.78,1.1,2,2.73,4.35,4.72,2.64s-.19-3.87-2.46-5.76a27,27,0,0,1,5.13.09c.82.18,2.08,1.84,1.65,2.09-4.21,2.47,1.53,4.08.42,6.16l-9,10.47c-1.34,1.56-3,2.18-4.82,1.12a3.85,3.85,0,0,1-1.81-5.08Q300.76,280.21,303,274Z"/><path class="cls-21" d="M94.13,228.07a4.32,4.32,0,0,0,2.47-2.58c-1.36-.81-3,.17-4.49-.82-1.1-.74-2.14-1-1.34-2.43.64-1.11,1.83-1.64,2.92-.61,3.61,3.39,7.87,3.19,12.25,2.34,1-.19,2-.75,2.77.17,2.53,2.85,6.18,2.92,9.46,3.89h0c1.05,4.18-3.09,1.43-4,3h0c-.75,1.08-2.2,0-3,1A61.35,61.35,0,0,1,94.13,228.07Z"/><path class="cls-19" d="M328.4,259.08c-3.34-.85-9.73-8.84-9.26-11.81.38-2.41.91-4.93,4.44-4.85.64,2-4.24,2.72-1.74,3.9,4,1.88,3.55,8.76,9.51,7.75C330.81,256,330.13,257.85,328.4,259.08Z"/><path class="cls-16" d="M25.13,190.05l3.17.65c.61-2.19-3.44-1.12-2.09-2.85s2.79-3.7,4.24-5.49c.19-.23,2.68.67,1.91,2-.6,1,2.89,2.52-.45,2.71-.75,0-1.86-.25-1.94.88a2,2,0,0,0,1.77,2,6.57,6.57,0,0,1,2.3.75c.92.66,1.88,1.74,1.13,2.86-.58.87-1.86.51-2.71,0-1.67-1.05-3.24-2.52-5.23-.6Z"/><path class="cls-19" d="M307.3,248a19.24,19.24,0,0,1,3.89.45c1.33.42,3.08-2.94,3.82.24.68,2.9-2.53,4-3.88,5.83-.82,1.14-3.49,1.09-4-1.62Q307.22,250.49,307.3,248Z"/><path class="cls-19" d="M332.14,253c-2.78-1.26-3.36-4.78-6.23-6.05,2.25,1.75,6.64-.49,7.25,4A2.16,2.16,0,0,1,332.14,253Z"/><path class="cls-22" d="M359.24,111.05c-2.08-.64-3.41,1.49-6.5,1.58,2.36-3.08,4.72-3.13,7.29-2.64Z"/><path class="cls-22" d="M357.22,94c-1.88.91-3.49,0-3.26-1.69.25-1.87,2-.75,3.1-.28Q357.14,93,357.22,94Z"/><path class="cls-12" d="M132.18,235c2.49-3,3.9,1.06,5.95.9C136.07,236.07,134,236.11,132.18,235Z"/><path class="cls-12" d="M118.14,233.06c1.49-.32,3.44-2.81,4.08.87C120.79,233.93,119.28,234.36,118.14,233.06Z"/><path class="cls-12" d="M111.2,232c.72-1.15,1.89-.94,3-1l1,1.87Z"/><path class="cls-23" d="M265.18,211c-1.1-.08-2.37.18-2.86-1.22-1.31-3.72-4.27-3.1-7.14-2.77-.53-.74-1.64-1.37-2.1-.88-4.17,4.41-9.41.31-13.9,1.88-.89.31-1.23-.21-1.42-1,1.16-1.76,3.71-3,2.14-5.77.43-.45.89-.87,1.31-1.33-.44.45-.87.89-1.34,1.31-1.79-1.25-4.17-.21-5.93-1.56-.7,1.52-1.71,2.49-3.55,2a10.31,10.31,0,0,1-2-.64c-4.35-3.6-9.13-6.08-15-5.81a1.67,1.67,0,0,1-.55-1.1c0-.34.72-.53.45-.85s-.64.28-1.05.23c-1.14-.21-2.2-1.27-2-2,1.26-3.92-2-7.4-.52-11.61,1.25-3.53,1.93-7.81-.51-11.57-1.49-2.3.55-3.23,1.8-4.46,1.93-4.38,7.1-7.2,6.2-12.94.93-3.48,2.69-4.46,5.48-1.67a5.67,5.67,0,0,0,3.75,2.09c2.28.75,4.33,1.83,7,1s4.2,2.08,6.37,3.06c1,.44.44,1.52.68,2.29,1.05-1.06,2.59-1.83,2.18-3.76.59-.83,1.26-1.46,2.38-1,1.73,3,1.12,5.7-.91,8.26-.53.67-2,.9-1,2.23.74.95,1.43.34,2.41.15,4.6-.91,2.11,3.6,3.63,5.17,2,.41,1.94-2.1,3.77-2.43.28,1.41.56,2.86.85,4.32.38,1.92-1.21,2.87-2.22,2.17-2.3-1.62-7.13,1.11-7.22-4.31-2.25,1.16-2.8,5.08-6.77,3,1.49,3.34,4.34.14,5.47,2.44-2.6,1.49-2.77,5.07-.23,7.17,2,1.69,6.6,2,3.23,6.52-.16.21,1.43,2.72,3.28,2.06,2.42-.86,3.12,1.33,3.69,2.43,1.09,2.1-1.53.76-2,1.56-1.35,2.36.29,3.48,2.08,4.16.79.3,1.88-.21,2.89-.36,1.21,2.11-2.24,3.53-.47,5.62,2.12,0,2.28-2.4,3.67-3.37,1-.7-.12-3.71,2.94-2.36,2.08.91,4.38,1.59,4.09,4.16-.25,2.26,1.22,5.06-1.79,6.78C262.63,209.52,265,210.14,265.18,211Z"/><path class="cls-24" d="M318.18,139c1,5.84,5.85,3,9,4,1.62.52,3.62-.58,5,1.05h0c-2,1-3.22,3.56-6,3-1-1.27-2-.53-3,0h-1c-4.66-.44-9.27-1.63-14-1h-2c-3.33,1.24-6.67.37-10,0h-1a13.62,13.62,0,0,1-10.49,1.19,1.66,1.66,0,0,0-1-.14c-5.78,2.25-11.62,1.25-17.58.85-4.89-.33-9.8.48-14.19-2.51-.52-.36-1.25.21-1.78.61-4.83,2.46-10,1.6-15.11,1.78a.68.68,0,0,1,.23-.7c-.51-.28-.36.54-.78.47-2.56-2.07-7.18,1.08-8.77-3.47-.18-.5-.82-.18-1.21.08-5.25,3.53-10.62.9-16,.32-.31,0-.57-.32-.8-.55.65,1.9.25,3.08-2,2.64-1.75-.34-3.17-1.79-5.13-1.59a11.75,11.75,0,0,1-5.39-.3,11.19,11.19,0,0,0-9.51.2c-2.78,1.53-4.14.95-6-.72a16.29,16.29,0,0,1-1.79-4.08c-.82-2.51-1.25-4.9,2.83-3.86,1.62.41,2.86-.36,4.14-1.16s2.57-1.08,3.72-.11c4.13,3.51,9,3,13.89,2.87,2.48,0,5.13.67,6.64-2.19a2.23,2.23,0,0,1,2.52.55c1.52,1.79,3.58,2.27,5.8,2.4,8.64-.88,17.27-1.38,25.9.11,3.61.62,7.17-.55,10.8-.58,5.66,0,11.21,1.82,16.86.69a7.26,7.26,0,0,1,5.75.2c1.17.6,2.59,1.28,3.8.75,5-2.16,10.4.14,15.46-1.5,1.87-.61,4-.61,5.1,1.73C306.92,140.8,312.72,142.83,318.18,139Z"/><path class="cls-25" d="M250.18,146c.35-1.73,1.29-4,3-2.07,3.35,3.87,7.44,2.8,11.39,2.73,3-.05,6.13-1.44,8.72,1.39,1.39,1.52,2.35-.23,3.41-.75,6-3,12.42.42,18.49-1.3-.33,1-2.3,1.22-1.42,2.76a2.22,2.22,0,0,0,3,.89c2.32-.93,3.29.44,4.45,3-6.15,0-12,.86-17.52-.3-3.76-.79-4.58,4.06-8.07,2.49-1.13-.51-3,.67-2.85-1.88,0-.74-.87-1.08-1.5-.8-6.39,2.86-12.71-.25-19.06-.21-.37,0-.73-.34-1.1-.53l1.26-.75C251.39,149.3,252,147.09,250.18,146Z"/><path class="cls-25" d="M235.18,147c.1.13.27.38.3.36,4.73-2.37,9.82-.67,14.7-1.36.53,3.91-4.32,4-5,7l-2,1c-5.59-1.34-11.16-2.78-17-2-2,.94-3.2-.76-4.34-1.72-2-1.67-1.83-1.84-3.66.72-.37.79-.94,1.63-1.82,1.47-7.2-1.35-14-4-20.77-6.69-.58-.23-.7-1.07-.42-1.77,4.05.11,8.39-1.71,11.93,2.58.22-2.5-3.38-2.61-1.8-4.45s2.68,1.12,3.52,1.16c2.3.1,4.68,2.89,7,.19.24-.27,1.15-.4,1.32-.21,3.36,3.76,5.49.8,7.8-1.35.68-.63,2-.82,2,.14,0,6.34,6.64,1.44,8.21,5Z"/><path class="cls-25" d="M308.18,146c4.8-1.52,9.54-2.15,14,1-.61,1.31-1.66,2.27-3.08,1.9-2.42-.62-4.37-.8-5.6,2a2.28,2.28,0,0,1-3,.9c-1.31-.6-.73-2.22-.62-3.05C310.07,147.14,311.11,145.59,308.18,146Z"/><path class="cls-25" d="M296.18,146c3-2.4,7.09,1,10.06-1.75l-.06,1.75-.54,2.34C302.53,147.41,298.64,149.64,296.18,146Z"/><path class="cls-23" d="M249.16,182.66c1.44-.51,2.76-2.4,4.26-.55a.91.91,0,0,1,0,.87C251.88,185,250.61,182.54,249.16,182.66Z"/><path class="cls-23" d="M246.8,174.14a1.88,1.88,0,0,1-1.92,1.74,1.36,1.36,0,0,1-1.61-1.37c-.07-1.12,1.06-1,1.67-1.21S246.54,173,246.8,174.14Z"/><path class="cls-9" d="M317.45,204.68c-1.64-.58-1.46-1.92-1.5-3.09,0-.12,1.05-.47,1.14-.35A3.15,3.15,0,0,1,317.45,204.68Z"/><path class="cls-9" d="M323.21,200c-.25,1.1-.19,2.78-1.73,2.32s-.67-1.46.3-2A5.77,5.77,0,0,1,323.21,200Z"/><path class="cls-23" d="M270.18,209h-2c.64-.9.76-2.76,2.05-2.43S270.31,208.19,270.18,209Z"/><path class="cls-11" d="M323.18,147a3.78,3.78,0,0,1,3.12-1.66l-.12,1.66Z"/><path class="cls-26" d="M227.18,91l1,3c0,1.37-1.36,2.19-1.47,3.57,1.54-1.32,4.29-1.57,3.71.34-1,3.32,1.28,6.24,0,9.26a3,3,0,0,1-2,.67c-2.87-1.12-11-9.77-11.78-12.51-.83,1,.33,1.86.1,2.78a2.35,2.35,0,0,1-.64,1.19c-2.45,1.26-4.34,4.25-7.8,2.34-1.25-.69-1.52.33-1.88,1.34-.69,2-1.47,3.95-3.26,5.27a2,2,0,0,1-1.81-.86c-1.25-2-.07-5.65-4.46-5.76-1.56,0-.58-3.14-1.12-4.61-1.57,2.86,1,5.28,1,8.06a3.44,3.44,0,0,1-.47,1.3,9.26,9.26,0,0,1-5.19,3.25,4.29,4.29,0,0,1-2-.07c-1.45-.72-2.75-1-3.79.73s-2.31,2.81-4.46,2.29a2,2,0,0,1-1.21-1.58c.83-2.83-.62-4.24-3-5.36-3-1.38-5.68-2-8,1.16.32,1.16,1.58.62,2.33,1.08,1,.62,2.22,1.11,2.21,2.43,0,1.5-1.49,1.53-2.51,1.95a5.8,5.8,0,0,0-1.77.87c-1.45,1.26-2.66,4.7-4.85,2.27s-6.41-4.91-3.89-9.61C156,104.17,152,105,148,107.17s-5,1.57-5.88-3.41c-.1-1.91-.63-3.83.1-5.72.71-.38,1.86-1.27,1.11-1.69-3.54-2-1.46-7.12-5.5-9-1.56-.71.32-2.21,1.21-3.08,2-1.94,4.5-.62,5.94.11,2.7,1.38,4.17,2.54,7.29,1.46a3,3,0,0,1,3.81,1c2.42,2.56,4.49,2.06,5.66-1.31,1.07-3.06,1.07-3.06,3.53-4.32a4.39,4.39,0,0,0-4.16-1.18c-5.18,1.58-10.47,0-15.74.85-3.42.54-7.29,1.8-10.82-.54a4,4,0,0,0-2.87,0c-9.37,2.6-18.71,1.8-28.12.11-2-.35-4.18.71-6.3,1-2.34.32-5.69,2.1-4.83-3,0,0-1.44-.33-2.21-.51.43-1,2.15-1.2,1.79-3-1.73,0-3,3-5.32.64-1.61-1.69-2.4.58-3.17,1.75s-1.23,3.07-2.75,1.89C79,78,77.14,76,76.82,74.06c-.26-1.6,2.4-.75,3.76-1,.48-.1,1-.13,1.45-.19-.28-3.55-2.74-6.12-4-9.16-1.08-2.52,1.1-2.11,1.5-3.14s1.4-1.24,2.36-.33c1.24,1.17,1.07,2-.1,3.29-1.41,1.55-2.22,2.4,1.36,2.46,3,.05,5.78,2.23,9.11.3,2-1.17,1.53,3,4.13,2.43,3.18-.67,6.54-.49,9.83-.67,3.74,1,7.41-1.15,11.15-.25a8,8,0,0,1,1.94.64c3.52,1.25,6.08-1.09,8.91-2.39h1c2.08.09,4,.53,5.23,2.42a1.11,1.11,0,0,1-.55.7,1.61,1.61,0,0,0,.88-.39c4.43-.66,4.91-1.49,2.32-4.83-1.11-1.43-1.24-2.77.4-3,3.35-.38,7-1.05,9.73,2,1.43,1.58,1.4,1.61-1.53,2.86,2.33.57,5.09.7,3.74,4.39,2.31-5.28,2.57-5.39,8.14-3.43,1.91,1.46,2.19,4.51,5.18,5,1.08.19,1.16,1.57.86,2.56-1.27,4.09,1.72,3.94,3.81,3.25,3.6-1.18,7.26-.26,10.8-1,3.21-.7,4.57,2.54,7.17,3.28,1.46.42,2.58,1.55,3.79-.11,1.83-2.51,4.17-2.24,6.7-1.45,3.46,1.08,6.92.35,10.33-.31,2.15-.42,3.52-.12,3.89,2.38.41,2.86,2.8,4.89,3.48,8.33,1.7-3.22,3.73-3.44,6-1.35C220.89,91,224.58,89.92,227.18,91Z"/><path class="cls-22" d="M143.18,104l.6,3.53c6-2.11,11.74-6.92,18.29-2-1.5,1.13-2.41,2.09-1,4.64a15.78,15.78,0,0,0,3.66,4.06c2.78,2.53,1.76-1.85,3-2.39a27.68,27.68,0,0,1,5.05-1.23c-1.6-2.36-4.11-1.84-6.06-2.57,3.55-6.12,10.18-6.6,14.4-1.15,1.46,1.89.39,3-.87,4.13-.4.77-1.57,2,.32,2,4.74.06,9.89,2.18,13.65-3.05,1.52-2.12,3.86-1.8,6.25-.39,1.86,1.1,0,4,3.06,4.59a3.66,3.66,0,0,1,2.41,5.37c-.43.9.53.37.81.44,1.11.28,2.65.3,2.45,1.85-.22,1.71-1.84,2.4-3.35,2.48-4,.21-8.38,1.15-11.84,0-7.52-2.53-15.55,1.11-22.8-3.41.72,3.3,6.09.62,5,5.13q-14.77-.56-29.51-1.61c-11.19-.79-22.59-1.29-33.84.09-1.67.21-2.52-1.07-4.14-.88-4,.45-8.14.17-10.51,4.4a1.46,1.46,0,0,1-1.31,2c-.94.14-1.24-.75-1.5-1.5-.22-2.92-1.49-4.12-4.59-3.29-3.59,1-7.12,2.43-10.81-.58-1.52-1.24-4.25-.17-6.21.68-1.65.72.68,1.21.41,2,.65,2.39,0,3.69-2.65,2.85a9,9,0,0,1-3.85-2.18c-.82-1.68-1.86-2.84-4-2.7-1.9.12-3.91.21-5.47-1.32-1.39.86-2-.08-2.71-1.07-.9-1.19-2-2.45-3.68-1-2.22,1.93-4,.45-5.77-.74-.76-.5-1.17-2.63-2.45-.66a2,2,0,0,0,.94,2.94c1.16.52,2.52.59,3.77,1.31a10.35,10.35,0,0,1-8.72-.67c-1.67-.89-4.15-4-5.1,1-.29,1.5-1.94.22-2.25-.24-.8-1.23-1.38-2.5-3.37-1.9,1.47-3,5.29-.57,6.39-3.83-.56-.14-1.15-.48-1.35-.32-2,1.58-4.62.61-5.12-.66-1.15-2.91,1.18-1.52,2.45-1.29a17.29,17.29,0,0,0,2,.14c4.49-.91,9.07-1.53,13.44-2.84,3-.89,5.66-1.89,8.56-.16,2.16,2.69,4.59,3.47,8.17,2.53,4.54-1.2,9.31-2.12,14.06-.63,2.34.73,4.58-2.8,7-.14a3.72,3.72,0,0,0-.18-.37c-1.47-2.35.29-4.47.44-6.71,2.32-2.35,4.47-3,5.85.83.51,1.41,1.85,2.27,2.45,1.18,3.06-5.61,6.73-1.8,10.23-1a4.43,4.43,0,0,0,.5.05c-.71-1.36-1.11-2.7.58-3.62,1.91-1,3.9-2.12,6.09-.9a65.74,65.74,0,0,1,7.51,4.78c2.1,1.57,4.86,3,6.08-1.36,1.09-3.86,3.93-5.46,7.62-4.4,3.53,1,3.53,4.37,3.61,7.38,0,.73-.46,1.44-.28,2.21-.36-3.22,1.86-5.75,2.53-8.71C137.93,102.87,140.79,102.28,143.18,104Z"/><path class="cls-27" d="M143.18,104c-3,.2-2.09.88-4,3.38s-3.35,4.25-2.9,7.29a7.67,7.67,0,0,1-2.34.25c-1.65-.34-.25-1-.12-1.64,1.16-5.75-.79-8.08-5.35-8-2.78,0-3,2.48-3.35,3.24-2.43,5.3-5,5.78-9.34,1.87-2.41-2.16-4.84-5.21-8.9-4.25-2.8.67-4.38,1.87-1.22,4.55-2.74.64-4.58-.89-6.65-1.24-1.74-.3-4.75-2.95-4,2.11.27,1.91-1.78,1-2.67.85-1.23-.19-3.5.52-3.3-1.75.43-4.86-1.89-2.65-3.82-1.67-2,0-3.07-.93-3-3,1-5.87,5.7-3.35,9.08-3.91,0,1.51-1,1.75-2,2.51,1.46-.57,2.71-.88,2-2.51.36-4-2.88-4.65-5.41-5.91,2.87-5.73,7.07-.28,10.39-1.41.74-2.07-2.7-4.26.58-6.19,2.65-1.56,4.62-.84,6.69.8.54.43,1.24.83,1.78.24,5.27-5.75,9.7.23,14.63.66-1.79.66-4.27-.93-4.83,2.05-.52,2.79-1,3.37-4.49,2.86-3.71-.54-.6,3.16-1.07,5,1.79-3.65,8-.38,8.17-6.35,1.89,2,2.59,4.29,5,4.37-.18-3.07,3.77-8.71,6.57-8.6,1.19,0,3.08-.43,4.41,2.31C135,94.43,137.9,98,142.18,98,143.37,99.89,143.2,102,143.18,104Z"/><path class="cls-27" d="M82.18,106l3,3c1.27,2.44-2.9,6.33,2.1,7.82.46.14.22,1-.28,1.14s-1.69.43-1.77.26c-1.75-3.56-3.85-2.62-6.15-.64-.22.19-.94-.14-1.4-.3-5.42-1.9-10.59-.13-15.82,1-3.62.8-6.25-.07-6.67-4.31,1.76-.7,3.9-.16,5.73-2-1.76-1-1.25-5.66-5.4-2.44-.91.7-2.47-.48-3.33-1.59,4.85-1.78,9.57-4.55,15-2,.66,1.26,1.55,2.33,3.06,1.42C74,105.16,78.18,106.33,82.18,106Z"/><path class="cls-27" d="M67.18,106c1.88-7.1,1.1-8.68-6-8.15-3.79.29-6.23-3.32-9.95-2,3.53-3,8.36-1.29,12.06-3.52.16-.1.91.75,1.36,1.18,1.82,1.7,2.26,6.27,6.51,3,.59-.46,1.47,1.47,1.25,1.61-3.71,2.4-.43,2.78,1,3.78.63.44,1.52,1.06,1,2a1.88,1.88,0,0,1-1.57.83C70.64,104,69.19,106.19,67.18,106Z"/><path class="cls-27" d="M40,106.5a6.78,6.78,0,0,1,4.54.76c1.2.65,3.1.75,3.95-.79.52-.94.21-2.69,1.94-1.4.84.63,1.16,1.95,1.72,3-1,.53-1.4,2.16-2.73,1.89-3.86-.78-7.69-1.47-11.66-1-1.19.16-1.18-1.13-1-1.79C37.41,105.06,39,107.69,40,106.5Z"/><path class="cls-4" d="M33.8,74.05c2.12,2.4,4.85,2.65,4.66,5.4,0,.39-2.14,1.18-3,.88C32.69,79.34,34.13,77.07,33.8,74.05Z"/><path class="cls-4" d="M39.18,81.07c.93,0,1.87.13,2.15,1,.38,1.15-.81,1.27-1.47,1.52-1.37.52-1.75-.58-1.94-1.55S38.66,81.2,39.18,81.07Z"/><path class="cls-27" d="M80.92,102.21c-1.64,1.14-2.25,2.62-3.83,2a1.33,1.33,0,0,1-.45-1.22C77.48,101.46,78.87,102.14,80.92,102.21Z"/><path class="cls-8" d="M134.18,69c-1.31-1.59-3.88-1.09-5-3,1.09-4.83,3.31-9.89,7.16-12.08,3.29-1.87,5.84-5.43,10.31-5.51-3.36-1.58-6.92-1.9-9.47-4.41-1.11-1.46-2.74-.84-4.16-1.05-1.83-.28-2-1.56-1.64-3,.48-1.88,1.37-1,2.52-.46,1,.45,2.16.18,2.93,1.37a1.26,1.26,0,0,0,2.36-.09c.55-1,1.41-2.08-.45-2.73-.65-.23-2,.26-1.67-1.1a2.33,2.33,0,0,1,2.2-1.76,30.76,30.76,0,0,1,3.86.74c3.74.56,1.45-1.54,1-2.74a3.43,3.43,0,0,1,3.62,1.48c.88,1.4,1.28,3,2.86.61.38-.58,1.07-.9,1.59-.15,3.39,4.87,7,1.89,10.63.37.15-.06.35-.31.38-.29,5.82,4.41,12.12-2.18,18.26.95,3.29,1.67,7.1,3.41,11.33.39,2-1.4,5.49-.75,7.1,2.31.47.9,1,2.29,1.9.85,3-5,8.36-.81,12.13-3.5,2.34-1.67,5,0,6.25,2.77.05,3.75-4.58,2.58-5.42,5.2,6.21,2.33,12.73,2.36,19.36,2.45,2.77,0,5.58,1.21,8.54.53a2,2,0,0,1,2.45,1.2c.23.84-.59,1.54-1.3,1.91a40.08,40.08,0,0,0-9.32,6.34,2.86,2.86,0,0,1-4.08-.11c-1.24-1.27-.62-2.36.54-3.35.5-.43.92-1,0-1.43a3.12,3.12,0,0,0-1-.28c-1.28-.14-.75.71-.63,1.24a4.9,4.9,0,0,1-.92,4.21,8.21,8.21,0,0,1-.94,1,20.86,20.86,0,0,1-13.74.58c-3.43-1.19-5.76-1.23-8.53.52-1.5,2.14-3.16,3.63-6.09,2.37-1.82-.78-.55,2-2,2-5.81.8-5.92.79-11.88-1.77.77,2.34.36,4.11-2,4.86a13.48,13.48,0,0,0-4.74,1.38,8.36,8.36,0,0,1-4.81,1c-5.29-.23-6.88-2.48-6-6.52-.09,2.12-3,3.7-5.3,5.7a6.27,6.27,0,0,1-5.25-1c-2.67.56-8.05-2.37-5.89,4.56a3.32,3.32,0,0,1-2,1c-1.25-.09-.79-1.15-.58-1.9.89-3.16-1.37-3.73-3.55-4.06-1-.16-2.68.92-2.53-1,.13-1.69,1.74-.89,2.83-.74A11.57,11.57,0,0,0,147,65c-2.73-3.32-2.73-3.32-11.79-2.64,5.88,1.06,5.86,3.27,3.81,6.52C137.26,71.63,135.88,71.21,134.18,69Z"/><path class="cls-6" d="M227.18,57c2-2.24,1.7-4.44-.32-6.5,1.5-1,2.78.15,4-.08,1.54-.27,2.73-.05,3.07,1.61s-1,1.85-2.16,2c-1,.16-1.51.74-1,1.71a1.32,1.32,0,0,0,1.73.52c.63-.2,1.67-.23,1.84-.63,1.87-4.38,6.8-4.55,9.88-7.47-5.58,2-11-.55-16.51-.38-5,.16-10-1.35-15.07-2.14-.12-4.74,5.11-4.23,7.52-6.69h1c.91,1.52-2.13,3-.33,4.17a5.3,5.3,0,0,0,6.46-.29c3.93-3,8.46-3.07,13-1.77,1.37.4,2.19-.52,3.15-.54,2.39-.06,4.78-2.14,7.3.94,2,2.4,5.54.83,6.54-2.29.27-.87.67-1.66,1.53-1.76,1.08-.13,1.17.84,1.37,1.66a11.14,11.14,0,0,0,1,2.8c.59,1.06.66,2.53,2.56,2.57a2.63,2.63,0,0,0,2.95-2.06c.59-2.2,2.24-2.47,4.05-2.64-1.55,2.17,5.61,2.28,1.29,5.52-.54.41-3,3.08-1.14,5.69,1.15,1.63-1.91,1.74-2.48,3.13,4,.1,5.92-2.09,5.9-6.41,0-.32,0-.91.17-.93q5.06-1.11,10.15-2.07a3,3,0,0,1,.45,1.31c0,.68-.31,1-1.06,1.32-3.91,1.71-8.71,2.61-8.42,8.58,0,.59-.12,1.79-2.37.8-3.22-1.42-7.82-.13-10.89,2.58-1.75,1.55,1.25,2.38,1.26,4.24,2-2.5,3.27-5.29,6.9-5.12.86,1.84-.18,3.69-.31,5.56-6.26,5.17-13.46,4-19.82,1.37-3.8-1.58-5.7,3.32-8.76.89a3.29,3.29,0,0,1-.37.85c3.88,1.64,1.66,3-.33,3.93-2.67,1.27-4.56.54-6.95-1.69C230.18,65.86,229.35,61.17,227.18,57Z"/><path class="cls-4" d="M122.26,41.35c-3.74,1.92-7.26,2.73-10,5-.68.58-7.4-3.54-7.62-4.55-.46-2.13,1.86-3.91,2.42-3.3,2.67,2.88,5.35,0,7.86.59C117.17,39.66,119.34,40.45,122.26,41.35Z"/><path class="cls-8" d="M234.18,27c.3,1.26.54,2.54.91,3.77.28.92,1,1.94-.11,2.62-1.31.78-1.51-.46-2-1.31-.75-1.33-1.63-.69-2.3.12s-1.32,1.72-2.12.28c-.53-1-.26-2.41.89-2.24,2.81.43,2.68-2.9,4.72-3.24Z"/><path class="cls-5" d="M276.18,23c1.49.84,2.64,1.91,2,3.81-.09.29-1.1.63-1.25.49a3.41,3.41,0,0,1-.76-4.29Z"/><path class="cls-4" d="M66.32,37.35c-1.7-.85-3.39-.6-3.28-2.46,0-.37.66-1,1-1C66.1,33.95,65.82,35.73,66.32,37.35Z"/><path class="cls-8" d="M128.18,66c-1.57.34.25,6.22-3.94,2.42-.15-.14-1.17.38-1.52.81-1.62,2-1.58,2-3.54-.23-1.11-.87-.56-2-.46-3.21-.48,1.18-.61,2.39-1.54,3.21-2,0-5.84-3.48-4.39,2.71-2.69-1-4-3.58-6.61-3.71,2.93-2.24,5.64-4.47-.85-6,3.56-2.39,5.38.94,7.85,1,.94-.52,2.08-.43,3-1,4.59.65,8.28,0,9.45-5.5a2.84,2.84,0,0,1,3.87-2.16c2.49,1.06.7,2.47.21,4-.94,2.85-1.33,5.92-6.25,4.49C125.3,64.65,128.1,63.22,128.18,66Z"/><path class="cls-3" d="M62.7,48.3c2.49-.24,4.62-.59,6.75-.57.8,0,2.12.75,2.26,1.37a3.29,3.29,0,0,1-1.2,2.45c-1.11,1-1.48.18-2-1C67.42,48.11,64.26,51.38,62.7,48.3Z"/><path class="cls-3" d="M124.12,54.54c1.36-3-4.18-1.85-2.39-4.76.15-.24,1.48-1.55,2.38-.69C125.64,50.57,126.19,52.36,124.12,54.54Z"/><path class="cls-3" d="M73.36,43.14c1.24,1.33,3.73.15,4,2.43,0,.17-.43.55-.69.57C74.48,46.3,73.73,44.77,73.36,43.14Z"/><path class="cls-26" d="M116.18,62c-.58,1.61-1.63,1.78-3,1C113.75,61.43,114.81,61.25,116.18,62Z"/><path class="cls-5" d="M257.18,17c.83-3.8,3.64-4.82,7-5,1.71-.08,1.29,1,1,2A23.89,23.89,0,0,1,257.18,17Z"/><path class="cls-3" d="M133.49,20.21c-2.67.9-3.89,2.32-5.78.62C129.1,19.59,130.59,20.12,133.49,20.21Z"/><path class="cls-28" d="M227.18,57c1.54.81,3,1.94,3,3.71-.09,4.33,3.83,6.12,5.72,9.13,1.71,2.74,4.3-.17,6.65-.62-.79-2.17-3.07-.37-3.94-2.38,1.93-.28,3.16-1.45,2.94-3.59,2.37.82.06,2.41,1.58,3.2,2.13-2,3.55-5,7.87-2.09,2.9,2,7.59,1.11,11.4,1.89,1.88.38,3-.61,4-1.52,1.26-1.15,2.3-1.82,3.86-.75,2.07,1.07,4.58.31,6.71,2.3.94.88,4-1.31,5.29-3.3l3-1c.67.52,2.25,1.12.61,1.91s-1.73,2.14-1.87,3.56l18.65,2.1q0,.69-.05,1.39c-4.57-1.27-8.51,2.1-12.2,2-5.06-.11-5.07,2.52-5.83,5.75-4-4.47-7.49,1.94-11.35.23-.67-.66-.36-1.81-1.13-2.53-.16,1.14.68,1.77,1.13,2.53-2.65,2.87-2.65,2.87-5.37-2.28-3.52,4.59-7.94,1.13-11.95,1.32-1.26.06-2.48-1.33-3.78-.38-3,2.23-6,4.22-9.74,1.33-.39-.3-1.59-.3-1.8,0-4.21,5.93-8.28,1.22-12.5,0-3.34-.94-7-2.1-10.24-1.65-3,.4-1,3.86-1.15,5.89-.05.87,1.66,1.85,2.56,2.78.51.4,1.17.77,1.07,1.52-.07.53-.54.7-1.07.48-2.15-1.86-3.85-1.89-4.46,1.28-.3,1.58-1.93,2.19-1.94,1,0-4.53-5.21-6.92-4-11.65-5.19.88-9.88,2.67-14.87.41-3.83-1.74-3.94,3-6.66,4.09-.65-3.74-5.93-2.16-7.06-5.86-3.06,2.17-6.5-.12-9.66.81a17.69,17.69,0,0,1-2.79.87c-6.51.77-7.15,0-4.73-6.49-5.48,1.73-4.15-3.31-5.86-5.48h6c1.15,2.36,3.58,1.76,5.49,2.33,3.18.94,5.66,3.2,7.75,4.14,1.54.56.68-.79.83-.14.06.28-.09.18-.47.17-2,0-2.57-1.22-2.38-2.95.26-2.33,2.28-2.49,3.74-2.19,2.48.51,4.48.85,5-2.37.22-1,2.47-1.25,1.19-2.73-1-1.16-1.67-2.26-.31-3.36s2.21.41,3,1c3.09,2.35,6.77,1.39,10.14,2.09l.69.06c4.85,1.3,8.85-1.55,13.2-2.71,2.62,2,4.85,3.69,8.92,3.45,5.68-.33,5.73.57,6.57-5.47A2.42,2.42,0,0,1,227.18,57Z"/><path class="cls-22" d="M230.18,107c0-1.15.1-2.37-.9-3.2-1.61-1.36-3.55-2.61,0-4.06a1.23,1.23,0,0,0,.47-2c-1.52-1.31-1.81-.47-1.45,1.06a8.27,8.27,0,0,1-2.32-.13c-.68-.23-.91-1.34-.48-1.64,1.16-.8.71-3,2.71-3A3.37,3.37,0,0,0,230,91.87c1.58-4.72,1.72-4.66,4.85-1.31,1.22,1.31,3.5,2.58,4.59.27,2.08-4.44,5.57-4.31,9.64-4.78,3.46-.4,7.2,1.19,10.73-2.18,3.26-3.11,6.08,1,7.46,3.59,2,3.69,3,6.74,5.19.29.22-.64.63-1.67,1.66-.42,1.8,2.19,4,2.08,6.09.18.89,2.57-1.42,2-2.05,3,.19.16.46.51.56.47,4-1.79,7.17,5.93,11.46,1.06,1-.29,1.23.11,1,1,.17.28.27.69.52.83,4.65,2.66,10,3.8,14.87,5.79,1.51.61,5.23-.53,8,.25,1.3.36,2.62.47,3.4,1.75.57.94,2,1.75,2.34.94,1.44-3.94,6.24-3.19,8.57-6-1.92-2-3.83.27-5.81-1.1,2.33-1,4.73-1.62,6.62-3,4.13-2.92,4.33-3.12,5.42,3.34.36,2.13,2.83.31,2.89,2.84.07,2.72-2.41,3.51-2.6,5.43-.09,1-3,1.74-.37,2.92,1.44.65,2,0,2.4-1.41.59-2,1.67-3.08,4.1-2.12.88.34,1.83,0,2.72-1.82,1.5-3.08,3.58,0,5.4,1.3-1.24,1.85-4.47.39-4.66,3-.12,1.62,1.69,2.31,2.91,3.71,1-4.69,4.53-3.95,7.82-4-1.73,1.46-3.47,2.77-4.56,4.79-.77,1.44-1.65,2.67.53,3.56,1.27.52,1.44,1.31.49,2.23s-1.77.29-2.62-.34c-2-1.52-3.25-4.88-6.73-3.43-.28,1.13.37,1.43.92,1.77,1.44.91,4.19.86,3.69,3.27-.42,2-2.94.93-4.27,1.05-2.08.19-2,1.05-2,2.45-.77,1.68-2.08,1.29-3.36.85a8.38,8.38,0,0,0-6.09.16c5.14,4.65-2.73,3.48-2.52,5.91.41,4.7-4.27,3.11-6,5.08l-1-1c-1-.49-2.22-.49-3.16-1.21-1.29-1-1.19-2.2.28-2.45,4.76-.79,4.74-3.81,3.81-7.4-1.2-2.51-3.63-1.93-5.67-2.19-1.83-.23-4.26-.14-4.19-2.46.07-2.65,2.45-3.33,4.83-3,2.11.26,4.33-.33,6.33,1,1.39.91,2.87.56,4.53-.52-.76-1.66-2.25-3.07-2.13-5.21.11-1.93-.94-3.71-1.57-6.91-2.33,5.79-5.14,7.6-9.45,3.84a1.18,1.18,0,0,0-1.75.31c-1.79,2.13-3.38,1.51-5-.31-.42-.49.25-.31-.33-.34-6.66-.35-11.49-5.66-17.91-6.62,2.08.56,3.43,2.42,5.45,3.07a2.62,2.62,0,0,1,2,2.6c0,1.43-1.24,1.8-2.36,2.21-5.36,2-10.52,1.74-15.33-1.52a3.87,3.87,0,0,0-2.84-.45,3.43,3.43,0,0,1-1.36-.31,8.24,8.24,0,0,0-5.53-1.83,69.25,69.25,0,0,1-14.5-.54,2,2,0,0,0-2.47,2.33c.91,3.47-1.22,3.45-3.5,3.66C243.61,108.37,236.93,106.65,230.18,107Z"/><path class="cls-29" d="M323.18,133c1.58-2,5-2.29,4.91-6.07-.06-2.4,2.07-3.26,4.53-1.67-.2-3-2.94-1.52-3.7-3,3.77-3.78,8.12-1.5,12.27-1.24l3-1c1,.69,2.26.95,3.16,2,1.82,2.17,1-1.12,1.84-1l11-5c0,3,0,6,0,8.93s-1.5,3.75-3.65,2.06c-2.57-2-3.93-1.08-5.19,1.27-.76,1.42-1.73.41-2.4,0-2.43-1.42-5-1.51-7.8-1.18.82,1.59,4,.37,3.45,3.52-2.79-.36-7.13-3.72-7.15,2.78,0,.11-1.06.46-1.24.28C332,129.85,327.51,133.25,323.18,133Z"/><path class="cls-30" d="M291.18,93l-1-1a3.29,3.29,0,0,1,2.65-2,10.26,10.26,0,0,0,1.82-.64c-4.28-1.9,2.89-5.94-1.72-7.89,5.08-2.09,6.3,3.69,10,4.46.71-1.22-2.62-6,2.73-3.48.33.16,2.09-.21,1.38-1.19-2.3-3.12.07-3.69,2.17-4.36,2.57-.82,4.65,0,5.63,2.56,1.31,3.5,2.66,6.34,6.9,2.88.82-.67,1.88-.15,2.44.94.68,1.34-.28,1.79-1.17,2.22-2.06,1-4.3,1.67-5.87,3.48q.52.33.35.67t-.35.33l-3,1a1.32,1.32,0,0,1-2,0,12.7,12.7,0,0,0-6-1c-.37-.29-.94-.39-1-1-3.16-.7-6.54-2.77-8.34,2.26C295.9,93.9,293.2,92.82,291.18,93Z"/><path class="cls-22" d="M219.18,88c1.11-.67.09-1.33,0-2,1.76.45,1.46-2.93,3.37-1.91,2.22,1.18,5,1.43,6.8,2.67,1.62,1.13-1.85,2.51-2.17,4.24a2.45,2.45,0,0,0-1,0C222.69,92.76,220.6,91.18,219.18,88Z"/><path class="cls-22" d="M317.18,90V89c2.17.47,5.32-1.34,6.4,1.07,1.29,2.89-2.79,3.37-3.89,5.38-.17.31-.86.34-2.09.77C319,93.73,318.65,91.77,317.18,90Z"/><path class="cls-22" d="M312.18,91h2c1.2,4.38,0,5.35-5.69,4.3Z"/><path class="cls-22" d="M358.24,100c-3.15,4.59-5.51,4.71-8.46,0a18.07,18.07,0,0,0,8.46,0Z"/><path class="cls-22" d="M349.18,121l1.61,3.53c-4.18,1.08-4.5-3-6.61-4.53Z"/><path class="cls-8" d="M330,79.16c1.28-4.27,1.28-4.27,6.75-3.66Z"/><path class="cls-8" d="M320.23,68.47c1.2.08,1.64,1,2,1.87s.2,1.59-.94,1.63-1.95-.33-2-1.57C319.22,69.59,319.2,68.73,320.23,68.47Z"/><path class="cls-22" d="M342.1,95.5c1-.68,1.21-3.15,3-1.44.49.47,1.63.92.86,1.91C344.57,97.76,343.39,95.75,342.1,95.5Z"/><path class="cls-22" d="M347.85,93.21A1.19,1.19,0,0,1,349,94.46c0,1-.57,1.49-1.5,1.09-.44-.19-1.41,0-1.24-1A1.41,1.41,0,0,1,347.85,93.21Z"/><path class="cls-22" d="M348.37,98.59c1.64-1.69,2.89-2,4.7-.58C351.5,99,350.19,98.62,348.37,98.59Z"/><path class="cls-22" d="M305.18,89l1,1-2.87,1.81C302.53,89.8,303.69,89.3,305.18,89Z"/><path class="cls-22" d="M303.9,95.36a4.66,4.66,0,0,1-3.42-2.59C302.29,92.86,303.52,93.29,303.9,95.36Z"/><path class="cls-8" d="M332.2,67c-.65.27-1.23.62-1.32.53a3.51,3.51,0,0,1-.94-1.52c-.12-.56.49-.77.88-.5A9.34,9.34,0,0,1,332.2,67Z"/><path class="cls-8" d="M304.81,64.51c1.23-.66,2.1-.57,2.85.14a.85.85,0,0,1-.13.8C306.52,66.1,305.86,65.33,304.81,64.51Z"/><path class="cls-28" d="M255.09,80.51c-.17.65-.48,1-1,.68a1.53,1.53,0,0,1-.53-1.14c0-.21.61-.39.95-.59Z"/><path class="cls-31" d="M213.18,194c6.25-.46,11.29,2.32,16,6,.74,1.12-.78,1.41-.88,2.3a7.18,7.18,0,0,1,1.88-1.3c4,.62,1.79-2.38,2.2-4.32,1.2,4.65,6.44.56,7.8,4.32h0c3,4.8,3,5-2,6-2.05,1.33-4.53,1.63-6.74,2.65-2.76,1.27-4.62-2.53-7.37-2.9-.54-.07-.8-2.68-1.83,0-1.15,3-4.09,3.48-7.06,3.29h-1c-1.52-.8-1.31-1.89-.53-3.07-2.91,1.78-6.31-.41-9,.83-2.13,1-4.55.89-6.48,2.24h-2c-3.24-1.08-6.49-1.39-9.69.08-3.72,1.72-6.56-1.47-9.83-2.07-4.48-.82-7.93-1.52-10.78,2.7-.55.81-2.33,1.58-2.46,1-.94-4-4.42-1.14-6.44-2.59-3-2.12-4,2.7-6.9,2.71-.3-1.21-.61-2.45-.9-3.69-.76-3.24-3.32-2.76-4.2-1-1.67,3.37-3.69,2.88-6.49,2.21-1.34-.32-4.22-.62-2.32,2.67,1.27,2.2-1,2-1.95,2.36-2.67,1-.65-1.46-1.33-2-.2-.17-.16-.62-.24-.94-.47-1.67,1.59-4.08-.39-4.9-1.81-.75-2,2.5-3,2.95-1.49.66-4.6,2.08-5.28.14-2.36-6.75-5-2.65-7.75-.65a10,10,0,0,0-7.09.07c-3.45,1.11-5.77,0-5.91-4.06a10.65,10.65,0,0,1,3.59-8.39c.71-2.62-1.05-4.52-2-6.66a2.3,2.3,0,0,1,1.39-2.24c3.53.41,5.29,3.11,7.39,5.65,1.19-1.72-.61-4.37,1.67-5.71,2-1.15,3.88-.08,5.83.13,1.5.17,3.06.31,3.85-1.46a3.09,3.09,0,0,1,2.75-1.81c1-.13,3.37,1.58,2.27-1.78-.39-1.21,1.56-1.38,2.7-1.42,1.47,0,3.28-.66,4.24.69,1.18,1.65-1.28,2.41-1.55,4.36,3.29-1.63,6,1.08,9.16.76,1-.1,1.89,1.24,1.82,2.59-1,.94-.66,1.71.35,2.37-.31-.74-1.21-1.39-.37-2.32,4.14-1.07,8.38-1.88,12.14-4.05,2.9-1.68,3.91-.21,4.34,2.39.63,3.84,2,4.59,4.81,2,2.48-2.3,4.5-4.13,7.23-.57.08.1.29.06.27-.3-.15-2.39,1.57-2.79,3.24-2.8a4.18,4.18,0,0,1,3.94,2.33c4.84,8.07,13.31,9.83,21.13,4.52a4,4,0,0,1,5,.13c1.48,1,.53,2-1,3.52C209.89,195.66,210.74,193,213.18,194Z"/><path class="cls-32" d="M215.18,210c2.48-1.81,6.13-1.86,7.45-5.53.35-1,2.06-.7,1.45,1.19,3.35-.21,5.81,5.47,9.83,1.36,1.09-1.11,2.83-.19,4.27,0l1,1c-.1,2.87-1.12,4.5-4.17,2.78-2.24-1.26-3.51,1.33-5.87,1.05-4.15-.49-8.73-.19-12,4C217.69,213.3,216.32,211.71,215.18,210Z"/><path class="cls-32" d="M198.18,210c3.4-1.39,5.6-5.87,10.58-3.27,2.38,1.24,4.93-1.83,7.69-2.06.6,2.63-4.32,2.38-2.26,5.33-2.18,1.09-.92,5.41-4.66,5-1.25-.14-2.69,1.26-3.7-.15s.6-2.28,1.28-3.31a4.56,4.56,0,0,0,.68-2.06C204.58,212.35,201.36,210.23,198.18,210Z"/><path class="cls-17" d="M236.78,225.94c-3.28,2.23-5.2-1.09-7.93-1C232.24,221.28,234.43,223.11,236.78,225.94Z"/><path class="cls-12" d="M129.71,224.62c-.84,1.5,1.65,3.91-1.43,4.33-1.41.19-3-.57-2.82-1.94C125.76,224.89,128.67,226.5,129.71,224.62Z"/><path class="cls-17" d="M230.38,217.65c3,1.08,5.19,1.68,5.54,4.08.26,1.79-1.69,1.19-3.7-1.54Z"/><path class="cls-12" d="M114.18,231c.52-2.08,3.88-.38,4-3a1.84,1.84,0,0,1,.4,2.9C117.19,232.77,115.65,230.86,114.18,231Z"/><path class="cls-6" d="M282.18,63c-1.56.52,1.8,3.23-1.25,3-2-.18-3.83,6.38-6.11.07-.47-1.29-3.6,0-4.64-2,1.23-.06,2.37-.47,2.73-1.7,1.44-4.93,5.24-1.43,7.81-2.27C279.81,61.74,280.43,62.67,282.18,63Z"/><path class="cls-3" d="M314.74,45.94c3-1,4.86-2,7.43-.69,1.11.57,2,.67,2,2.09,0,1.23-.13,2.38-1.45,2.82-2.32.76-.89-1.45-1.51-2.15C319.62,46.22,317.29,47.26,314.74,45.94Z"/><path class="cls-3" d="M251.53,36.26c.22-1.84,1.25-2.25,2.69-2,.2,0,.52.56.46.71C254,36.4,252.81,36.24,251.53,36.26Z"/><path class="cls-1" d="M335.18,210c-.59-3.17-.4-2.78-2.9-1.56a4.12,4.12,0,0,1-5.1-1.44,11.82,11.82,0,0,1,1.55-1.86c2.06-1.65,4.28-3.9,6.07.22.69,1.59,2.56,1.37,3.38,2.63a2.33,2.33,0,0,1-1.82,2.51A1.49,1.49,0,0,1,335.18,210Z"/><path class="cls-1" d="M335.84,174.92c1.56,3.64-1.85,3-3.56,4.88C332.36,176.43,334.11,175.59,335.84,174.92Z"/><path class="cls-11" d="M336.18,210l2-2c1-.26,2-1.58,3,0h0a5.55,5.55,0,0,1-3.89,3.91C335.68,212.42,335.38,211.37,336.18,210Z"/><path class="cls-1" d="M328,164.16c.91.77.17,2.7,1.83,3.09-.56.25-1.12.74-1.67.72-1.85-.07-1.25-1.8-1.59-2.8C326.34,164.49,327.12,164.13,328,164.16Z"/><path class="cls-33" d="M272,105.79c6.1-2.1,6.85-4,7.42-3.29,2.62,3.24,6.29,3.05,9.79,3.79,3,.63,5-2,7.94-1.48.6.12,0-2-.31-1.9-4,.86-4.83-5.78-9.43-3.31,4.44-4.18,8.44-1.41,11.66.71a16.29,16.29,0,0,0,7.58,2.73c1,.11,2.54,0,2.8.53,1.78,3.48,2.94,4.23,4.69-.12.49-1.21,1.8.64,2.69,1.25,2.52,1.72,5.29,4.45,5.7-1.64.13-1.93,1.88-2.22,3.45-1.85,1.41.34,1.24,1.38,1.53,2.75.7,3.33-1.21,8.12,5.57,9.69-4.35,1.07-6.5,4.87-10.32,1.11-1.08-1.06-4.31-.12-6.57-.46a2.06,2.06,0,0,0-2.17,2.21c.15.91,1.44,1.15,2.49,1.25,2.9.28,6.87-1.89,7.7,3.27-1.56,1.46-3.26,1.2-5,.44-3.69-2.61-7.1-.85-10.53.68a9,9,0,0,1-1.32-.44c-1.48-.9-4.31-.7-2.65-4,.68-1.35-1.73-1.92-2.21-1.94-3.92-.22-7.09-3.16-11.19-2.78-3.92.36-7.55-1.31-11.24-2.38-.63-.18-.85-.35-.26-.05,0,0-.1.24-.16.37a1.41,1.41,0,0,0,.54.8c1.3,1,3.62-1.43,4.3,1,.61,2.23-1.32,3.54-2.62,5-2.7,3.09-7.19,3.11-10,6.08-1,1.08-3,.42-3.84-1.08-.75-1.27-.65-2.45,1.1-2.89-1.75-.44-1.77,2.22-3.28,2.16,2.09,2.82,5.55,2,8.59,2.56.4.07,1.24.29,1.15,0-.93-2.67,1.07-3.08,2.62-2.9,3.12.36,6.35.6,9.24,1.84,1.82.78.58,2-.53,2.43-7.46,2.61-15,5-22.88,1.82-.8-.32-1.16-.34-1.52.32-1.21,2.17-3.42,1.49-5.26,1.89a127.14,127.14,0,0,1-16.27-1.22c-1.55-.26-4.08,2.4-6.73,1.22-3.49-2.26-7.32-.82-11-1h-1c-1.33-1.37-2.67-3.71-4,0-1.69-.23-3.6.67-5-1-.39-2.35.08-4.19,2.8-4.67-.12,0-.3-.12-.34-.08-4.5,5.5-10.38,4.63-16.2,3.29-4.1-.94-8.24.81-12.26-.55-3.67-1-7.33,1.86-11,0-.13-2.94-2.56-1.19-3.83-1.76s-2.33-1.2-2.14-2.81a14.79,14.79,0,0,1,.46-1.86c1.27,1.41,3.79-.32,3.93.34.92,4.18,5.36,2.41,6.19,2.22,7.75-1.81,15.09,2.14,22.69,1.18,1.78-.22,3.52,0,5.18-1.68-1.79-1.17-3.67-.27-5.3-.75-.79-1.93,3.56-1.85,1.78-2.91-1.27-.75-.24-5.21-3.8-2.64-.65.47-2.21-.5-.21-1.77.45-.28-.56-3-2.52-3.89a3.52,3.52,0,0,0-4.81,2.21c-1,4.15-4.05,2.9-6.43,2.87-3.4,0-6.79-.59-10.31-.94.64-1.53,1.44-2.64,3.11-2.81l1,1c3.69,1.74,4.92-3.09,8-3h2c2-.48,3.93-1,5-3,2.31-1.52,4.12,0,6,1l1,1c3.07-1.43,5-.62,5.67,2.81.08.59-.72.82-.61,1.43a.62.62,0,0,1,.58-.58c2.83-.25,5,.75,5.82,3.54,1.14,4,3.55,3.38,6.32,1.94-1.29-1.16-4.29-.74-4.06-3.37.19-2.17,2.38-2.57,4.14-3,2.78-.6,3.92-4.14,7.15-3.84h2c4.76-2.4,9.7-.78,14.55-.53,1,0,1.72,1.28,3.13.48,1.25-.71,4.78-3.56,5.33-5.08.17-.46.14-1.06.43-1.4a7.53,7.53,0,0,1,1.52-1.12c2.83,4.77,7.5-2,9.45,1.06,1.49,2.32,2.24.86,3.38.81,3.41-.17,7.11-1.37,4,4.54-2.15-.57,1.23-.31,4.67.17.33,0,1.09.5,1.1-.29a2.15,2.15,0,0,0-.74-1.11C275.76,103.62,268.18,105.62,272,105.79Z"/><path class="cls-22" d="M68.18,128a5.32,5.32,0,0,1,3.24.78c3.71,2.56,1.34-1,1.76-1.78,6.63-.54,13.25-1.69,19.93-.47A4.72,4.72,0,0,1,96.18,128c.1.55,0,1.43.81,1.27.46-.09.8-.82,1.19-1.27,4.77-1.05,9.57.95,14.38-.07.77-.16.52,1.32.62,2.07-1.75,3.29-3.08,6-8.18,3.93a7.28,7.28,0,0,0-9,3.63c-1,2.17-3.06,2.79-4.68.49-2.11-3-5.68-3-7.62-4.46,1,0,2.21,1,3,2.53,1.26,2.43,3.89,2.48,6,3.16,2.38.78,4-.68,4.48-3.24a1.45,1.45,0,0,1,1.59-1c3.86,1.13,8.55-1.84,11.82,2.7,1.25,1.73,3.27,3.61,4.81-.6,1.12-3,3.82-3,5.86-.48,1.41,1.75,3.43,2.53,5.21,3.68,2.6,1.67,3.24-1.36,4.83-2.12a9,9,0,0,0,1.39-.52c3-2.21,3.6,3,5.82,2,2.68-1.15,4.79-.81,6.79,1.09a2.21,2.21,0,0,1,.5,1.86,4.19,4.19,0,0,1-1.66,2.3,4.75,4.75,0,0,1-1.28.61A13.65,13.65,0,0,0,137,148.4c-.9.73-1.79,1.58-3,.45-.14-.13-1.11-2.38-.8,0,.36,2.67-.94,3.36-2.9,3.52-1.78.15-3.86.15-4.22-2.32-.49-3.39-3.89.75-4.6-1.87-2.41,1.07-5.07,1.36-7.48,2.31-2.08.83-2.4,2.83-2.18,5,.34,3.38-1.39,4.65-4.12,2.66-1.56-1.14-2.65-.57-4-.58a8.75,8.75,0,0,1-1.35.11c-1.27-.16-2.78.5-3.64-1.06,1.71-3.95-1.62-6-3.33-8.61a1.54,1.54,0,0,0-2.58-.14c-.77.89-2,1.44-1.27,3.31,1.76,4.4.56,6.07-4,5.84-1.89-.09-3.31-.38-4.62,1.62-1.1,1.68-3.36,2.63-5.14.81s-1.37-3.86-.06-6c.69-1.11,3.46-1.36,2-3.22s-2.83.55-4.28.77c-2.32.35-2.55,1.11-2.34,3.54.36,4.2-2.37,5.71-6.94,4.53a2.06,2.06,0,0,1-.31-1.33c.15-1.05,1.15-2.25-.1-3.11-1-.7-1.66.34-2.42,1-2.82,2.3-4.62,1.36-5.18-2.62.72-.16,2.21.2,2-.52-.35-1.19-1.55-2.12-2.39-3.16-2.38,3.49-5.06,1-7.7.47-.58-.12-1.13,1.19-2.32.58a27.72,27.72,0,0,0,1.29-5.5c.14-1.19.51-1.89-1-1.88-3.78,0-2.09-5-5.31-5.74-.69-.16.4-1.66,1.27-2.15,1.27-.72,3.35-1.05,3.77-2.09,2.17-5.35,7-5.15,11.37-6C62.46,124.8,65.58,124.12,68.18,128Z"/><path class="cls-34" d="M145.18,143c-2.66-3.66-2.64-3.58-6.07-.69-1.69,1.42-2.48.29-3.17-1.44-.33-.82.43-3.08-1.41-2.36-1.18.46-3.74-.73-3.65,2.15,0,1.4-.8,2-2.24,2-2.48-.08-8.63-4.74-9.5-7.47-1,1.56-4.16,1.32-2.65,4.58.44,1-.93,2.59-2.66,1.5s-4.05-1-5.11-3.48c-.77-1.8-2.73-2.36-4.89-1.4-.81.36-1.64,1.67-2.62.87-5.33-4.32-3,.5-3,2.5-3,.82-5.9-.19-8.86-.09a4,4,0,0,1-3.64-2.15c-2-3.52-2-3.49-5.61-1.89-.21-2.41,1.44-3,3.06-2.55,3.07.86,6.9.09,8.75,3.93.72,1.5,3.19,2.5,3.12.34-.14-4.57,2.83-3.05,4.92-3.44,2.29-.43,4.1-3.74,7-.85,1.31,1.31,3.34,2.35,2.91-1.46-.1-.93,2-1.51,3.34-1.61h0A10.62,10.62,0,0,0,121,131.1c6.69-1.37,13.62,0,20.44-.61,1.5-.13,3,1.39,4.52-.56,1-1.27,2.77-.11,4.19.1h1c4,3,8.81.62,13.21,2a52.68,52.68,0,0,1,8.09,2.9,8.93,8.93,0,0,1,1.23.64c.82.54,1.2,1.47,1.81,2.15,2.75,3.1,1.51,4.66-1.89,5.58a5.78,5.78,0,0,1-1.24.56,6.82,6.82,0,0,1-6.1-1.24c-1.41-1.17-2.3-.81-3.23.43a4.14,4.14,0,0,1-1.15.66,4.67,4.67,0,0,1-3.67-.45c-2-1.15-.4,1.32-1.3,1.19-1.33.71-2.56.23-3.79-.28-2-.94-3,1-4.52,1.52C146.58,146,145.33,145.22,145.18,143Z"/><path class="cls-22" d="M307.18,121.63c4.47-3.09,8.1-3.83,12-1.59-1.46,1.83.16,5-2.93,6.25-1.19.47-2.08,1.65-3.57.91a4.89,4.89,0,0,0-1.26-.37c.14.17.45.2.77.37,1.13.62,2.85,1.35,1.7,2.84s-3,.64-4.54-.07a4.47,4.47,0,0,1-1.16-.92h-1c-8.27.34-16.54.94-24.84.18-.66.29.19,1.28-.07.67,2.62-1.06,5-1.46,5.9,2.15-2.57,2.5-6,1.5-8.41.79A50,50,0,0,0,259,131.6c-.52.07-1.19-1-1.79-1.57,1.79-1.31,4.83-1.07,5.12-4.33,0-.58,1.28-.83,2.11-.15,3.84,3.1,13.17,3.67,16.7.48,2.06-1.86,4.31.53,6.5-1.63a56.45,56.45,0,0,1-5.72-.64c-1.88-.41-3.64-1.57-5.79-.76.07,1.87,3.49.3,2.54,2.65-.65,1.61-2.17.76-3,.37-3.19-1.4-7.41,1.06-10-2.73-.42-.63-1.36-.92-1.34-1.91,1.83.1,2.53-2,4.15-2.21.75-.12,1.78-.5,2.11.61a3.6,3.6,0,0,1-.21,1.86c-.3,1-2.37-2.58-1.76.59.2,1.06,2.32,2,2.79,1,2.16-4.32,7.55-3.32,10.18-6.61.91-1.14,1.7-2.37,2.49-3.5-1.75-2.11-3.21,2.25-4.84-.21-1.15-1.73-.65-3.06.5-4.4,2.75,3.88,7.1,2.69,10.62,3.27,3,.5,5.92.43,9,1.84,1.49.7,3.44.87,5.12,2,.71.48,2.64-.78,3,1.18s-2.46.83-2.45,2.62c.66,1.18,2.61.13,2.21,2.19.07,1.54,1.33,1.95,2.7,1.91C308,125,308.44,119.86,307.18,121.63Z"/><path class="cls-22" d="M173.18,143c-.11-2.6,2.85-.15,3.14-2.42-2.69-.13-1.89-3-3.14-4.58-3.52,0-6-3.37-10-2.75-2,.31-4.21-1.68-7-.34-1,.49-4.08-.63-5.05-2.91,5.07,1,10.39-2.27,15.1.05,4.22,2.08,9.28.5,13,3.76a2.09,2.09,0,0,0,1.92.11c7.57-4.47,14.4,1.5,21.66,1.56a58.6,58.6,0,0,0,6.29-.49q.38.33.26.67c-.09.22-.17.33-.26.33-2.57,5.15-7.56,3.28-11.29,3.08-3.2-.18-7.45.58-9.87-3.41-.78-1.29-2.42.09-3.44.85a4.94,4.94,0,0,1-6.2.34c-.26,2.7,2.31,4.55,1.79,7.14C177.68,144.87,175.29,144.92,173.18,143Z"/><path class="cls-35" d="M271.17,140c-3.32-.74-7,3-10.1-.87a1.76,1.76,0,0,0-1.3-.32c-7.75.51-15.35,1.93-23.3-.21-3.2-.86-7.41,2-11-.87-2,3.53-5.72.88-8.33,2.26-2.54-2.77-2.54-3.22,0-5,4.1-.59,8.06-1.9,12.28.36,2.44,1.3,5.45,1.21,8.52,1.1,10.38-.34,20.85-1.93,31.2.54C269.84,138,270.58,139,271.17,140Z"/><path class="cls-29" d="M308.18,129l5.33.85c-.68-2.89-3.13-1.87-4.69-2.43.25-2.3,1.62-1.68,2.92-1.42,3.09.62,4.8-.87,5.25-4.32.15-1.11,1.39-1.2,2.19-1.69,1.4,1.66,3.31.76,5,1,.51,7.73.51,7.73-5.1,8.21.78,1.28,2.78,1.15,3.1,2.8-3.48,2.45-7.31,1.07-11,.92C308.87,132.87,308.51,130.86,308.18,129Z"/><path class="cls-36" d="M271.17,140a3,3,0,0,1-2-3c1.18.45,2.17,1.3,3.68.45,5.24-3,10.47-2.46,15.61.42.77.43.88.29,1.72-1.35a.93.93,0,0,1,.61-.48c4.27-.08,8.63-1.87,12.86.45.1,1.92-2.23,2-2.46,3.51a7,7,0,0,0-5.18-.52c-5.36,1.2-11-.43-16.37,1.68-1.07.42-2.85-.17-4.11-1.21S272.6,138.47,271.17,140Z"/><path class="cls-22" d="M150.18,130c-1.62,1-4.59-.75-5.09,2.56-.07.46-.58.81-1,.19-2.25-3.17-5-.88-7.64-.9-3.12,0-6.23,1.5-9.5-.54-1.39-.87-4.21-.61-6,.63-3.43,2.36-5.74,1-7.74-1.95,2.41-1.25,4.68-2.91,7.42-.27.67.65,2.61.35,3.83,0,6-1.75,11.91-3.49,17.94,0,.47.27,1.62-.21,2.21-.66C146.85,127.33,148.54,128.4,150.18,130Z"/><path class="cls-29" d="M288.18,132c-1.74-2.29-4.38-1.86-6.87-2.17,3.45-2,21.15-2.55,25.87-.83-3.38,1.3,1.18,2.26,0,3.65-4.78,1.66-10.13-1.49-15.15,1C291.2,134.12,289.47,132.64,288.18,132Z"/><path class="cls-22" d="M187.18,126c4.62-.27,9.25-.63,13.88-.77,1.55,0,2.51,1.48,4.32,1.83,5.25,1,7.41-4.09,12.53-5.48-2.13,2.62-4.35,3.93-4.72,6.43C204.46,128.08,195.75,127.91,187.18,126Z"/><path class="cls-22" d="M217.18,135c-1.9,1.67-.71,3.33,0,5-1.91-1.17-5.12.24-6-3,1-1-.94-2,0-3C213.18,134.35,215.43,133.23,217.18,135Z"/><path class="cls-22" d="M223.18,129c3.76-.73,7.73-3.66,11,1C230.47,130.19,226.69,131.06,223.18,129Z"/><path class="cls-22" d="M218.18,129c-.28-.9-2.12-1.24-1.36-2.28a4.19,4.19,0,0,1,4-1.44c2.07.39,1.15,2.38,1.39,3.73Z"/><path class="cls-35" d="M211.18,134c.27,1,1.59,2,0,3a2.06,2.06,0,0,0-2-1v-1A2.06,2.06,0,0,1,211.18,134Z"/><path class="cls-9" d="M336.18,210c.1,1.31.56,1.77,1.71.77s2.19-1.85,3.29-2.78c.5,1.05,3.11,2,.33,3.25s-5.19,3.48-8.57,3.34l2.24-4.59Z"/><path class="cls-37" d="M106.18,188l-1,2c.11,2.71-1.16,6,3,7-.54,3.63-4.28,2.24-6.24,3.91,0,1.58,1.79,1,2.39,1.88,1.09,1.59.21,2-1.15,2.21-.74-2.44-2.18-2.71-2.85-.28-1.13,4.09-3.82,3.88-6.82,3.12C90,207,86.26,207.29,83.18,205l-5-1.39c3.42.31,3.35-5.09,8.42-3.34-5.53-3.19-7.55,1-10.63,2.26.89-3.06,15.48-17.39,19.83-18.88-3.11,2.38-4,6.26-7,9.12,2.34-.09,5.67,2.75,5.18-2.8-.16-1.79,1.8-.1,2.66-.34,2.18-.61,6.23,1.39,5.53-3.63a1.74,1.74,0,0,1,1.86-.51A3.26,3.26,0,0,1,106.18,188Z"/><path class="cls-31" d="M113,211.91l3.15-2.87c.24.38.72.8.67,1.12C116.56,211.73,115.41,212,113,211.91Z"/><path class="cls-38" d="M66,157.91c4.45,1.52,6.34.29,6.45-4,.07-3,2.07-2.35,2.57-3.92,1.3-4.05,3.2-1.1,4.76-1.41s2.31-.26,2.35,1.42c0,1.3.31,3.1-1.35,3.31-3.11.39-3.54,1.95-2.78,4.54.33,1.13.68,1.57,2,1.32,2.8-.52,3.5-2.07,2.19-4.73,2.6,0,3.95,2.05,6.11,1.6,1.3-.27,2.73-.12,3.43-1.52.84-1.68-.61-2.16-1.57-3.08-2.49-2.38,1.93-2.78,1.65-4.89-.09-.71,2.49-2.33,3.67-.95,1.8,2.11,2.87,4.68,5.19,6.59,1.24,1-1.3,3-1.53,4.8,1,1.23,2,.16,3,0h1c1.46-.19-.66,2.57,2,2.06,3.15-.6,4.46,2.26,4.11,4.76-.45,3.17-3.08,2.35-5,1.37-3.38-1.73-4,2-6.08,2.81-2.43,3-6.44,2.76-10.53,5.14,3.92-.15,4.65,2.94,7.05,4,1.45.63.84,1.58-2.53,2.87-1.16-.65-1.69,0-2,1,0,.79,2.19,1.07.6,2.17-1.83,1.28-3.65,3.17-6.17,1.65-1.13-.68-2.31-2.17-2.78.19-.67,3.35-3,1.88-4.64,1.77C75,186.66,74.29,185,75,182.5c-3.08,2.53-7.44,1.81-9.52,5.4a1.31,1.31,0,0,1-1.2.43c-1.68-.83-.46-2.27-.27-4l-5.75,3.52c-1.68-2.2-.78-4.21.58-6.18-7.21-.61-4.59,4.86-5.6,8.68a15.09,15.09,0,0,1-2.2-5.87,3.91,3.91,0,0,0-3.3-3.3c-1.66-.31-2.46.81-3.61,1.9-1.66,1.56-4,7.29-6.27.07-.57-1.85-4.12.94-4.72-2.1,2.07-4.28,6-2.91,9.43-3.15a1.48,1.48,0,0,0,1.45-1.7c-.7-3.64,3.46-4.76,3.93-7.81.11-.73,2.93-.42,1.21-2.14-1.22-1.22-2.86-1.1-3.3.89-.23,1-.32,1.91-1.21.77A19.57,19.57,0,0,1,41,158.66c-.23-1.47.76-2.09,2.58-1.79s4,.9,5.63-.84c2-1.21,2.91,2.78,5,1,2.11-.61,0-3.32,2-4q1-1.53,2,0c2.25,2.86,2.2,2.8,4.78.52,1.2-1.06,3.31-1,4-.22,1.32,1.44,1.73,3.53-1,4.58-.77-.4-.68.47-.43-.14t.24.07l.35.19S66.1,157.9,66,157.91Z"/><path class="cls-10" d="M68.18,128c-2.76-2.48-6-.91-9-1l-1-3c2.1,0,4.21.15,6.29,0C67.61,123.72,68.49,125.26,68.18,128Z"/><path class="cls-22" d="M56.18,153c-1.17,1.08,1.93,4.3-2,4C52.06,154.31,53.89,153.56,56.18,153Z"/><path class="cls-39" d="M98.18,168c1.51-3.27,2.33-8.06,7.43-3.16.46.44,2.67.85,2.75-.74.1-1.89-.66-4.9-2.82-4.29-4,1.14-1.83-1.73-2.37-2.81,1.73.4,4.34-4.2,5.35.92a4,4,0,0,0,2.35-.12c.91-.49-.23-1-.33-1.5-.92-4.9.58-6.58,6-7.48,1.64-.27,3.14-1.42,4.65-2.27.3-.17.25-1,.85-.28l5.36,3.54c-.57,2,1.55,1.59,2,1.52.91-.16,3.21.67,2.51-1.44-.82-2.47,1.36-3,1.81-4.41,1.55-.21-1,5.46,3,1.64,1.52-1.47,3.76-3.19,6.48-2.12,1,.44,1.25,1.4,1.71,2.22a3.37,3.37,0,0,0-1.71-2.22,3.47,3.47,0,0,1,2-2c1.13,1.08,2.13,2.41,4,2a6.45,6.45,0,0,1,4-2,6.75,6.75,0,0,0,4,1c1.43-1.53,3.68,1.08,5-1h0c2.66-.38,1.24,2.43,2.65,3.31,4.54,2.84,6.61,2.12,8.35-3.31h0c2.31.5,4.78-.13,7,1,1.41-.49,3.94,3.37,4.3-1.12,3.42,1.74,7.5-2.73,10.7,1.13.84,3.18,3.91,1.6,5.82,2.48,4.89,2.25,10.19,3.61,15.36,5.21.49.15,1.21-.45,1.82-.7.68,3.22.44,6.13-2.52,8.26-2,1.4-2.23,3.88-3.48,5.74a7.21,7.21,0,0,1-1.85-1.94c-1.59-4.85-5.52-4.41-9.37-4.16-2.31-3.56-4.41-2-7.42-.48-3.45,1.7-7.56,2-10.75,4.63a2.78,2.78,0,0,1-3.31.12c-1.26-.88-.73-2.06-.3-3.14a8.34,8.34,0,0,0,.64-3.57c-2.47,4.08-7,3-10.55,4.1-2.8.9-3.28-2.5-4-4.64-1,3-3.38,3.1-5.34,1.62s-3.23-4.22-4.86-6.33c-.51-.29,0-1.12-.67-1.32a6.06,6.06,0,0,1,.19,1c1.87,4.07,1.63,4.52-3,5.63a1.63,1.63,0,0,1-.92-1c-.74-.73,1.54-1.56-.56-2.77-3.47-2-4.93,2.3-7.68,1.57-.36,5.48-4.51,5-8.36,4.87,2.76,6,2.59,5.93-4.08,7.53-3.59.86-6.95,1.71-10.57.07,1,.86.21,3.08,3.13,2.19,2.76-.84,6.29-1.17,9,1.14,1.21,1,2-.48,3-.36s2.13-.42,2.67.7c.68,1.4-.53,2.08-1.41,2.82-1.6,1.34-3.61,1.54-5.52,2.1s-6,1-1.23,3.91c2,1.22.91,2.23-.4,2.85a6.82,6.82,0,0,1-6.7-.63c-2.63-1.74-3.6-.07-3.68,1.69-.2,4.39-2.47,4.5-6,4.08-2.76-.33-5.64.34-8.2-1.3h-2a7.16,7.16,0,0,1-.83-1.21c-1.1-2.59-2.54,2.63-3.57-.17-.75-2,1.68-2.66,1.93-4.27.49-3.16,1.73-6.17,1.08-9.56C100.45,169,100,168.06,98.18,168Z"/><path class="cls-38" d="M26.18,183c-.6-1-1.66-.91-2.61-1.11-1.5-.31-.9-1.42-.88-2.35s.1-2.12.95-1.89c3.24.9,7.21-.13,9.54,3.35C30.08,179,27.95,180.38,26.18,183Z"/><path class="cls-38" d="M46.62,187.91c-.89,0-1.76-.42-1.8-1.27a1.89,1.89,0,0,1,1.81-1.94c.94-.07,1.33.77,1.4,1.63A1.35,1.35,0,0,1,46.62,187.91Z"/><path class="cls-39" d="M90.18,181c-.57-.4-1-1-.39-1.52.9-.79,1.74-.36,2.39.52Z"/><path class="cls-13" d="M7.83,150.43c1.63-2.24,3.2-2.57,4.89-2.25.48.09,1.21,1,.61,1.56C11.84,151.25,10.13,150,7.83,150.43Z"/><path class="cls-38" d="M33.46,176.41c-.24.27-.57.86-1.06,1.11a.58.58,0,0,1-.79-.76,2.81,2.81,0,0,1,1.13-1.34C33.26,175.12,33.59,175.51,33.46,176.41Z"/><path class="cls-13" d="M15.32,151h3.86c-.45.87-.91,1.78-2.13,1.34A10.19,10.19,0,0,1,15.32,151Z"/><path class="cls-13" d="M31.17,150.72c.22.41.6.8.62,1.21a.61.61,0,0,1-1,.58c-.31-.23-.38-.84-.43-1.3C30.36,151.1,30.82,150.93,31.17,150.72Z"/><path class="cls-9" d="M335.18,149c-.89-.13-2,.3-2.46-.87-.07-.19.45-.85.75-.9,1.32-.21,1.56.77,1.71,1.77Z"/><path class="cls-24" d="M332.18,144l3.79-.78c-1.45,1.95-2.5,2.21-3.79.79Z"/><path class="cls-40" d="M211.18,163a2.07,2.07,0,0,1,1,2c-1.2.94-3.54.45-1,3.7,2.21,2.87,1.31,8.43-.09,12.42a8.64,8.64,0,0,0-.27,3.66c0,1.55,3,3.14.06,4.92-.44.26.44,2.9,2.33,3.3q.43.33.29.67t-.29.33h0c-3,.57-3.28,5.2-7.25,4.47.18-1.54-.1-3.29,2.48-3.6-4.14-4-5.85,1.13-7.88,2.3s-3.33,1.68-5.1.36a4.22,4.22,0,0,0-4.07-.82c-2.31.6-12-5.89-11.22-7.12,2-3.15-1.58-1.3-1.68-2.31-1.26.27-2.79.21-2.53,2.22.1.79.14,1.59.22,2.57-2.52-1.59-4.23-6.79-7.5-.79-1,1.84-4.2,2-6.44,2-3,0-1-2.19-.83-3.27.18-1.3,1-2.66-.17-3.71-1.77-1.58-1.77,1.17-2.85,1.35-4.08.69-7.8,3.27-12.19,2.33-.92-1.12-1.06-2.77-3.64-1.75-2.13.85-4.78-2.1-7.57-.35-.81.51-1-.79-1.3-1.56-1.14-2.89,2.69-1.94,2.87-4-1.94-.73-3.79,1.29-6-.56,1.26,3.39,2.38,6.1-2.38,4-.63-.28-2.29-.64-2.13.2,1.15,6.31-4.38,3.11-5.51,3-5.72-.35-5.71-.7-5.34,5.43,0,.43.61.85-.33,1.3-3.15-2.2-5.14-5.9-8.68-7.8a3.45,3.45,0,0,1-2-2c3.51,1.14,7.21-1.46,10.76.67a1.34,1.34,0,0,0,2-1.7c-1.06-2.49.36-3.79,1.9-5,.85-.68,1.77-3.65,3.17.2.53,1.46,4.7,2.36,7.52.51-1.49-1.36-4.76.25-4.49-2.23.24-2.23,1.81-4.87,5.05-4.38,2.81.42,4.5-1.5,6.74-2.78-2.78-1.5-4.36,1.15-6.38,1.73-1.38-1.34,1.06-2,0-3.46-2.74,2.59-6.61-2.29-9.43,1.51-.76-.93-1.81-1.77-2.17-2.83-.21-.63-1.77-1.51-.25-2.37,1-.58,2.22-1.26,3.25-.37,4.18,3.59,8-1.8,12.33-.44,1,.32,1.12-2.23-.53-3.28-1-.62-2.92-.89-1.73-2.8.86-1.38,2-1.7,3.8-1.31,4.55,1,4.57.78,4.25-4.11-.07-1.06,1.23-1.68,1.55-1.33,2,2.22,3.24.06,4.24-.88,2.29-2.14,3.46.17,5.12.85,2.83,1.16.06,2.59,0,4-.5.41-.95,0-1.29.3,0,0,.09.14.21.11a3.36,3.36,0,0,0,.92-.3c.56-.35.53-.4.15-.12,3.69-.37,4.57-2.12,3.25-5.18q.5-.72,1,0c2.36-.05,1.75.19,2.39,1.76a8.66,8.66,0,0,0,4.14,4.35c3.17,1.37,1.55-2.32,2.69-3.2,3.25.14.35,7.82,6.49,4.91,2.91-1.38,6.8-.54,9.13-3.67,1.86,2.69,1.83,5-.85,7.34,7.87-3.2,15.08-6.67,23.2-8.08.15,1.71-1.73,2-2.41,3,0,.06.13.34.25.38a6.83,6.83,0,0,0,1,.19c1.94,2.81.48,4.61-1.82,6.16-.8.54-1.66,1.48-2.54.31-1-1.32-1.26-2.71,0-4a18.19,18.19,0,0,0-3.74.4c3.17.56-.09,5,3.33,5.07,2.15.06,3.82-1.8,5.79-2.64C205.27,162,208.2,163.13,211.18,163Z"/><path class="cls-1" d="M226.18,152c2-1.84,3.94-4.14,6.53-.6a2.22,2.22,0,0,0,2.79.32c3.41-1.91,5.54.14,7.68,2.28-.06,1.31,1,2,2.73,3.55-3.33-.56-5.08,1.08-7.35,1.55-.42-1.21,3.35-2.41-.57-3.72-2.92-1-5.62-1.81-8.57-1.48C227.63,154.13,227.25,152.64,226.18,152Z"/><path class="cls-32" d="M230.18,201c-.83,1.34-1.1,3.14-3,3.82-1.64-2.75.45-3.68,2-4.82Z"/><path class="cls-31" d="M240.18,201c.2-1.07.06-2.4,1.73-2.34a.89.89,0,0,1,.61.61c.06,1.67-1.28,1.53-2.34,1.73Z"/><path class="cls-31" d="M213.18,194v-1c.33-.71.68-1.44,1.6-1.43.24,0,.68.34.68.52C215.44,193.6,214,193.41,213.18,194Z"/><path class="cls-25" d="M235.18,147c-.15-.74-1.12-1.39-.45-2.17.16-.19,1.4.11,1.59.48.54,1-.47,1.3-1.14,1.68Z"/><path class="cls-22" d="M228.18,107c-3.16,2.77-5.75,6.41-12.11,5.62,3.39,3.22,5.85,3.31,8.39,3.54-1.1,1.73-2.88,1.9-4.26,2.72-3.16,1.88-5.84.22-6.4-2.35-.78-3.55-3.42-3.48-5.61-4.54.14-3.59-2.38-3.86-5-4,.2-2.86,3.91-4.71,2.07-8.63,4.1,3.49,7.42.5,10.92-.36.55.5.35,1.2.49,1.81a2.19,2.19,0,0,0-.49-1.82c-.08-.49-.36-1.06-.2-1.45.64-1.55-3.11-3.44-.16-4.3s.52,2.59,1.79,3.37.77,3.88,3.87,2.37c1.73-.84,2.13,1.73,2.46,2.91C224.63,104.35,225.75,106.17,228.18,107Z"/><path class="cls-22" d="M202.18,107c-2.11.35-4-.67-6-1-.36-2.86-2.81-5.22-1.62-8.56.55-1.56,1-2.66,2.86-3.25.3,1.59-.71,2.94-.2,4.61.73,2.41.35,2.79,2,2,3.22-1.49,3.73.26,2.83,2.53A3.85,3.85,0,0,0,202.18,107Z"/><path class="cls-22" d="M189.18,109c-2.26,2.1-3.91,5.8-8,3a4,4,0,0,0,3.58-2.74C185.92,106.66,187.55,106.39,189.18,109Z"/><path class="cls-4" d="M117.18,69c-.06-3,1.5-4.71,4.52-5.78.25,2.73-3.54,3.2-2.52,5.78Z"/><path class="cls-22" d="M196.18,106c-.27,3.32-2.74,3-5,3Z"/><path class="cls-8" d="M126.36,72.92l-.74-.9a3.45,3.45,0,0,1,1.09-.52c.21,0,.59.34.67.6C127.6,72.79,127.1,72.9,126.36,72.92Z"/><path class="cls-8" d="M134.19,69.95c-.16.54.13,1.44-.86,1.27a1.36,1.36,0,0,1-.79-1c-.11-.77.54-1,1.18-1.14C134.72,68.92,133.9,69.74,134.19,69.95Z"/><path class="cls-22" d="M203.71,98.33a3,3,0,0,1-1.06.54c-.52,0-1-.26-.65-.9a1.26,1.26,0,0,1,.78-.55C203.3,97.3,203.72,97.5,203.71,98.33Z"/><path class="cls-10" d="M96.18,128c-6.23-1-12.46-1.35-18.7-.06a6.25,6.25,0,0,1-4.3-.95c-.48-1.24-2.73.47-2.51-2,2.36-.67,4.86-1.9,7.71-1.9.66,0,1.67-.33,1.93,0,4,4.69,8.11,1,12.25.37C95.91,123,96.82,125,96.18,128Z"/><path class="cls-22" d="M118.39,102.1c-1.9.66-2.77,4.41-5.56,2-.72-.62-1.63-1.36-.69-2.41C114.22,99.39,116.24,101.46,118.39,102.1Z"/><path class="cls-2" d="M135.18,102c-1.61-2.18.63-1.8,1.53-2.28,2.62-1.4,3.33,1.19,5.62,2.49l-5.15.79C136.38,103,135.88,102.29,135.18,102Z"/><path class="cls-2" d="M92.77,103.62a7.35,7.35,0,0,1-4.58,2.75c-.46.07-1.51-.44-1.06-1.12a7.89,7.89,0,0,1,4.55-3.1C92.22,102,92.89,102.53,92.77,103.62Z"/><path class="cls-22" d="M135.18,102c1.44-1.22,1.48.38,2,1C135.59,104.55,135.38,103.3,135.18,102Z"/><path class="cls-6" d="M227.18,57c0,3.09,2.33,6.42-1.41,9.12-1,.7-2.26,1.89-2.73,1.11-2.14-3.54-5.48-1.64-8.24-2.22-2.22-.46-2.41-2.68-3.63-4a9.41,9.41,0,0,0-4.88-1.52A3.74,3.74,0,0,1,204.18,58c3.31-1.09,6.57-5.29,10,0,.35.55,2.46-.21,3.69,0,2.12.36,4.83-4.5,6.39.68Z"/><path class="cls-26" d="M183.18,66c-.66,1.51,2.76,2.24.91,3.68-1,.77-2.6,1.69-4.12.53-1.24-1-2.55-1.68-4.06-.71a1.74,1.74,0,0,0-.5,2.25c1,2.25,2.88.65,4.34.91.23,0,.4.42,1.15,1.28-3-.5-5.8,1.67-7.77-1.66-2.75,1.85-4-3.5-7.54-1.23-1.9,1.22-2.22-2.21-2.41-4,1.22-.49-2.92-4.84,2-2.78,1,.43.73-1.13,1-1.79.71-1.58-.11-3.7,1.81-5.07,1.85,1.16.55,3.11,1.19,4.36.8,1.56-3.16,2.79,0,4.36,2.83,1.4,5.55,2.55,8.54.79C179.52,65.87,181.1,64.59,183.18,66Z"/><path class="cls-28" d="M204.18,58a2.07,2.07,0,0,1,2,1c2.22,1.64,1,2.68-.68,3.5-2.68,1.3-5.43,2.24-8.32.5.59-1.08-.8-4.12,2.65-2.33C202.24,62,203.34,59.95,204.18,58Z"/><path class="cls-28" d="M206.08,53.44l-8,4.54C201,52.32,201.34,52.12,206.08,53.44Z"/><path class="cls-8" d="M241.52,44.17c-.47.37-.91,1-1.47,1.1s-.72-.55-.43-.89a7.49,7.49,0,0,1,1.49-1.08Z"/><path class="cls-8" d="M197.18,63c2-.05,4.07.24,5.94-.25,1.6-.42,4.46-.56,3.06-3.75,2.6-1.67,3.86,0,5,2-2.91,2.71-6.91,2.55-10.35,3.85C199.28,65.47,197.91,64.62,197.18,63Z"/><path class="cls-6" d="M273.16,79.13c-2.32-.61-3.37-1.61-2.58-3.62.39-1,1.71-1.83,2.25-1.27C274.08,75.55,273.81,77.37,273.16,79.13Z"/><path class="cls-26" d="M168.4,75.25c-.88.85-.11,2.68-2,2.6a1.3,1.3,0,0,1-.79-1C165.84,75.5,166.77,75,168.4,75.25Z"/><path class="cls-40" d="M108.18,197c-1.59-.46-2.61.88-5.56,1.95,4-3.22-1.92-6.68,2.56-8.95C108.35,191.44,108.33,194.2,108.18,197Z"/><path class="cls-40" d="M150.6,192.85c-3.31,2.25-4.57-1.13-7.94-1.81C146.89,188.86,147.89,193.49,150.6,192.85Z"/><path class="cls-40" d="M156.76,194.67l-2.35-3.37c2.45-1.34,2.26,1.41,3.39,2.24Z"/><path class="cls-40" d="M158.12,189.25c.14.23.6.65.52.91-.28,1-1.22.83-2,.85-1.08,0-.3-.67-.24-.91C156.59,189.39,157.18,189.15,158.12,189.25Z"/><path class="cls-22" d="M280.72,106.39c-4.55,2.45-10.28-2.1-13.8,3.29-.13.2-2.23-.35-2-2,.3-2.48,1.8-4.26,4.1-4.22C272.9,103.5,277.08,103.15,280.72,106.39Z"/><path class="cls-22" d="M324.81,109.39c-2.53,2.84-12.07,3.93-14.48,2a2.1,2.1,0,0,1-.92-2.14c.15-.78,1-1.35,1.37-1,3.88,3.54,8.15-.07,12.15.76Z"/><path class="cls-22" d="M262.48,105.15a3.12,3.12,0,0,1-2.18,2.38c-1.5.29-2.45-1-2.74-2.31-.24-1.11.65-1.83,1.73-2C260.84,103,261.73,103.93,262.48,105.15Z"/><path class="cls-22" d="M224.64,122.41c-1.63-.83-3.83,1.32-5-1.15-.1-.2.41-1,.73-1A3.52,3.52,0,0,1,224.64,122.41Z"/><path class="cls-22" d="M307.75,107.06a1.85,1.85,0,0,1-1.92,1.83,1.61,1.61,0,0,1-1.93-1.12c-.26-1.06.62-1.45,1.41-1.58S307.31,105.77,307.75,107.06Z"/><path class="cls-22" d="M271,111.35c1.75-.8,3.25-.48,4.81,1C273.65,113.61,272.47,111.56,271,111.35Z"/><path class="cls-22" d="M300.41,107.36c.42.37,1,.69,1,.92-.15,1.16-1.23,1.22-2.08,1.4-.49.1-1-.39-.73-.84A8.52,8.52,0,0,1,300.41,107.36Z"/><path class="cls-22" d="M208.24,111.81c-.23,1.29.35,2.49-.56,3.39a1.61,1.61,0,0,1-1.06-.63C206,113.1,207.32,112.68,208.24,111.81Z"/><path class="cls-22" d="M322.36,107.31a12.22,12.22,0,0,1,2.93-.82c.49,0,.56.77.14,1.1C324.75,108.13,323.94,108.17,322.36,107.31Z"/><path class="cls-39" d="M102.18,157a2.67,2.67,0,0,1-2.79,1.39c-.71-.16-1-.79-.21-1.39C100.18,157.36,101.18,155.88,102.18,157Z"/><path class="cls-22" d="M173.18,143c.44,2,1.68,3.92-.92,5.63s-4.8-.91-5.56-.7c-5.53,1.53-2.89-3.56-4.51-4.94l2.21-3.82C166.47,142.55,169.59,143.37,173.18,143Z"/><path class="cls-22" d="M121.93,133.26c2,.48,2.74,2.14,5.47,1.64C123,137.22,123,137.22,121.93,133.26Z"/><path class="cls-22" d="M162.18,143c-.93,4-3.36.53-5,1-.49-1.27-.65-2.27,1.3-1.79C159.7,142.54,160.94,142.77,162.18,143Z"/><path class="cls-22" d="M153.18,143a5.48,5.48,0,0,1-4,2C149.79,142.92,150.72,141.44,153.18,143Z"/><path class="cls-29" d="M308.18,121c.08,2.7,2.72,1.59,4.93,2.76-4.29.34-7.55.69-10.75-1.85C304.38,120.5,306.37,121.26,308.18,121Z"/><path class="cls-34" d="M174.54,134.35c.24.22.77.49.83.83.15,1-.73.8-1.26.8-.25,0-1,.58-.87-.41C173.35,134.93,173.6,134.37,174.54,134.35Z"/><path class="cls-22" d="M66,158.12c-.93.8-1.27,1.94-2.51,1.75a.94.94,0,0,1-.83-1.39A2,2,0,0,1,65,157.21C65.48,157.3,66.21,157.49,66,158.12Z"/><path class="cls-23" d="M211.18,163c-2.69,2.57-6.38,0-9.39,1.87-1.13.7-2.56.88-3.73,2a3.85,3.85,0,0,1-4.1.27c-1.55-.77-1.13-1.82-.4-3.24,1.34-2.59-1.39-2.16-2.74-2.59,2.67-3.64,5.63-1.24,8.47-1.14-.22,1.51-3.16.14-2.29,2.49.17.45.35.89.53,1.34a19,19,0,0,0,3-2.14c1-1,.55-2.51.63-3.82C209,156.68,209.79,158.21,211.18,163Z"/><path class="cls-22" d="M155.18,151h-1a3.91,3.91,0,0,1-.11-3.72,1.53,1.53,0,0,1,1.32.08C156.64,148.63,154.89,149.78,155.18,151Z"/><path class="cls-23" d="M207,155.74a3,3,0,0,1,0-1.14c.22-.56.51-1.29,1.3-1,.22.07.4.75.35,1.12a11.16,11.16,0,0,1-.59,1.86Z"/><path class="cls-22" d="M142.94,144c1.27,1.39,1.83,1.76,2,2.27a1.92,1.92,0,0,1-.61,2.37Z"/><path class="cls-23" d="M214.27,154a7.22,7.22,0,0,1-1.72.45c-.18,0-.38-.67-.57-1a8.13,8.13,0,0,1,1.4-.3C213.8,153.05,214.35,153,214.27,154Z"/><path class="cls-31" d="M193.14,195c-2.13-.12-4.41.51-5.94-1.6-.48-.66-.26-1.11.39-1.57,2.33-1.68,4.23-.08,6.37.56,1.32.4,2.35.86,2,2.14C195.51,196.36,194,194.68,193.14,195Z"/><path class="cls-39" d="M151,156.23c-1.64,1-3.05,1.18-4.65-.13C148.21,154.73,149.68,156.65,151,156.23Z"/><path class="cls-26" d="M216.25,99.14c1.67,1.95,2.1,3.42-1,3.87C214.32,101.32,216.94,100.53,216.25,99.14Z"/><path class="cls-41" d="M360.19,116l-1-5c.26-.35.53-1,.8-1h.14v0a26.6,26.6,0,0,0-1.9-10h-.1s0,0,0,0h0l0,0v0h0l0,0c-.25-2,.56-4.21-1-6q-.08-1-.16-2h0c-1.67-9.78-6-18.47-10.85-27-3.74-8.8-9.69-15.9-16.91-22h0c-7.59-8.61-16.91-14.88-27.09-20-6.91-4.23-14-8-21.95-10h0a61.43,61.43,0,0,0-6.33-2.79C242.1.12,209.45-1.63,176.45,1.24c-4.39.38-9,.14-13.27,1.8-15.81,1.45-31.31,4.63-46.68,8.42-13,3.19-26,6.09-38.33,11.54-2.46-.2-4.45,1.22-6.52,2.11C61.07,29.64,50.29,33.82,41.06,41h0A77,77,0,0,0,13.17,67a8.59,8.59,0,0,0-1,1.07C2.44,82.64-1,98.76.23,116a101,101,0,0,0,5,29,122.58,122.58,0,0,0,16,40h0c.89,2,1.85,4,4,5l2.11,2.9h0a14.12,14.12,0,0,0,5,5,98.32,98.32,0,0,0,30.92,19.21h0c9.73,5.37,20.22,8.6,31,10.93A61.44,61.44,0,0,0,111.21,232c1.32.3,3,.6,4,.89V233h0c1,0,2,0,3,.1,1.14,1.3,3.05.8,4.05.8h0a28.46,28.46,0,0,0,10,1.08c1.86,1.11,3.9,1.07,6,.9a1.75,1.75,0,0,1-.84-.16l.84.16c2.65.12,5.34,0,7.95.38,13.61,2,27.34,1.57,41,1.29A371,371,0,0,0,231.45,234c7.63-1.08,15.42-1.3,22.78-4a30.82,30.82,0,0,0,4.43-.42c15.82-3.77,31.19-8.79,45.52-16.65l1.87.08h0c1.08,11.63,2.38,23.25,1.24,35q-.08,2.45-.16,4.9h0c-1,.86-.88,2-.79,3.15L303,274q-2.22,6.25-4.44,12.51a3.85,3.85,0,0,0,1.81,5.08c1.85,1.06,3.5.44,4.84-1.12l9-10.47h0c5-5.87,9.69-11.91,13.13-18.91h0a10.33,10.33,0,0,1,1.09-2c1.73-1.23,2.41-3,2.95-5h0c.26,0,.53-.68.79-1a2.09,2.09,0,0,0,1-2h0c0-13.86,13-29,17-44h0c6-20,8.59-40.34,9.93-61,0-2.34.07-4.68.07-7v0h0C361.24,131,362.07,123.7,360.19,116Zm-174-94.72.34.33a1.21,1.21,0,0,0-.22.13C186.29,21.62,186.25,21.48,186.21,21.32Zm-119,84.6,0,.1h.2c0,.06-.07.14-.1.21l-.11-.19-.21-.09Zm56.24-43.07.18,0-.08,0ZM282.3,130c.05.17,0,.13-.1,0Zm-65.06-17.21a2.54,2.54,0,0,0-.26.7c-.29-.24-.6-.5-.91-.8C216.47,112.7,216.86,112.74,217.24,112.75Zm-8.95-.67a.67.67,0,0,0,0,.2.62.62,0,0,1,0-.22ZM273,103.51a4,4,0,0,0,.17-1,8.67,8.67,0,0,1,3,1.45A16.64,16.64,0,0,0,273,103.51ZM98.2,128l0,0h0Zm127.3,9.77.28.19-.42,0C225.41,137.91,225.46,137.85,225.5,137.77Zm9.77,9.39-.05-.07.08,0Zm46.83-17.64a.38.38,0,0,1,.24-.29l.58,0C282.62,129.34,282.34,129.42,282.1,129.51ZM117.16,89.58l-.37-.15c.31,0,.62,0,.93-.1A2.78,2.78,0,0,1,117.16,89.58Zm19.1-27.34a1.94,1.94,0,0,0,.06.31c-.35-.08-.71-.16-1.11-.23Zm-2.18,6.85H134l.14-.12.08.07,0,0ZM151,156.2l-.09.06h0l.1-.07a1.24,1.24,0,0,1,0-.23,1.63,1.63,0,0,0,.09.15l-.12.08h0l.09-.06,0,0Zm92.15,17.87,0,0h.16s0,.06,0,.09l-.14-.11h-.08ZM107.27,68.24h0ZM87.87,173.17h-.22l.21-.12S87.87,173.13,87.87,173.17Zm57.93,17.44a1.55,1.55,0,0,1,.34-.64l0,0a1,1,0,0,0-.17.67Zm155.44-50.81c0,.08,0,.15,0,.23h-.07A1.41,1.41,0,0,1,301.24,139.81Zm22.49,59.89.24.12h0l-.25.07A.91.91,0,0,1,323.73,199.69ZM303.08,85.42a1,1,0,0,1-.1.54,4.35,4.35,0,0,1-1.13-.42A8,8,0,0,0,303.08,85.42ZM82.18,106h-.11l.14-.14S82.19,106,82.18,106ZM67.27,97.11c.52.2,1.05.38,1.59.53A2,2,0,0,1,67.27,97.11ZM52.2,108h0v0h0l0,0,0,0Zm52.07,92a10.35,10.35,0,0,0-.86,2.28c-.69-.2-1.45-.31-1.47-1.34A5,5,0,0,1,104.27,200Zm135.92,1v0h0v0Zm34.87-52.49a1.2,1.2,0,0,1-1.32,0Zm63.77,22.27a2.11,2.11,0,0,0-.14-.37l1.27.26Zm0-41.06-.57.44A1.77,1.77,0,0,1,338.82,129.71ZM276.19,23h0v0Zm-42,4-.15,0,.06-.09.1,0ZM85.93,200c.21.11.42.2.64.33a7,7,0,0,0-.71-.2A.65.65,0,0,0,85.93,200Zm30.32,9.15-.06-.09h0Zm225.64-81.27a1.55,1.55,0,0,1-.74-.68,21.11,21.11,0,0,1,2.42-.15C343.11,127.25,342.57,127.54,341.88,127.85Zm-26.58-65a8.67,8.67,0,0,0-1.5-.67C314.3,61.8,314.8,61.86,315.3,62.85ZM293.36,41.28c.11.24,0,.55-.76,1s-1.87.76-2.33-.21C291.2,42.56,291.84,42.29,293.36,41.28ZM36.92,115.83a3.94,3.94,0,0,0,0,.48l-.88.16A4,4,0,0,1,36.92,115.83ZM64,184.31c0,.12,0,.25-.05.37l-.63.05Zm72.7,30.77-.13.34s0-.06,0-.09,0,0,0,0ZM111.76,30h-.14c0-.08,0-.14,0-.21ZM32.29,64.91a10,10,0,0,0-1.19-.55,1.46,1.46,0,0,1,.75-.38A7.59,7.59,0,0,1,32.29,64.91ZM4.86,115.25l.9-.05A.69.69,0,0,1,4.86,115.25ZM125.2,226.07l0,0h0l.44.4h0l0,0A1,1,0,0,1,125.2,226.07Zm176.68-15.59s0-.05,0-.08l.13.2A1.35,1.35,0,0,1,301.88,210.48Z"/></g></g></svg>