<svg xmlns="http://www.w3.org/2000/svg" xmlns:xlink="http://www.w3.org/1999/xlink" viewBox="0 0 378.9 270"><defs><style>.cls-1{fill:#fdee92;}.cls-1,.cls-10,.cls-11,.cls-12,.cls-13,.cls-14,.cls-15,.cls-16,.cls-17,.cls-18,.cls-19,.cls-2,.cls-20,.cls-21,.cls-22,.cls-23,.cls-24,.cls-25,.cls-26,.cls-27,.cls-28,.cls-29,.cls-3,.cls-30,.cls-31,.cls-32,.cls-33,.cls-34,.cls-35,.cls-36,.cls-37,.cls-38,.cls-39,.cls-4,.cls-40,.cls-41,.cls-42,.cls-43,.cls-44,.cls-45,.cls-46,.cls-47,.cls-48,.cls-49,.cls-5,.cls-50,.cls-51,.cls-52,.cls-53,.cls-54,.cls-55,.cls-56,.cls-57,.cls-58,.cls-59,.cls-6,.cls-60,.cls-61,.cls-62,.cls-63,.cls-64,.cls-65,.cls-66,.cls-67,.cls-68,.cls-69,.cls-7,.cls-70,.cls-71,.cls-72,.cls-73,.cls-74,.cls-75,.cls-76,.cls-77,.cls-78,.cls-79,.cls-8,.cls-80,.cls-81,.cls-9{fill-rule:evenodd;}.cls-2{fill:#fdeb86;}.cls-3{fill:#fdec8b;}.cls-4{fill:#fdea88;}.cls-5{fill:#fdeb88;}.cls-6{fill:#feee94;}.cls-7{fill:#fce77b;}.cls-8{fill:#fee881;}.cls-9{fill:#fdea84;}.cls-10{fill:#fdeb8a;}.cls-11{fill:#fde982;}.cls-12{fill:#feed8a;}.cls-13{fill:#feee90;}.cls-14{fill:#fde87e;}.cls-15{fill:#fce97f;}.cls-16{fill:#fcea7e;}.cls-17{fill:#fce87e;}.cls-18{fill:#fce880;}.cls-19{fill:#fce67a;}.cls-20{fill:#fde986;}.cls-21{fill:#fbe774;}.cls-22{fill:#fde881;}.cls-23{fill:#fdee95;}.cls-24{fill:#feed8d;}.cls-25{fill:#feee93;}.cls-26{fill:#fded8f;}.cls-27{fill:#fee88a;}.cls-28{fill:#fce77d;}.cls-29{fill:#fde87c;}.cls-30{fill:#fde57a;}.cls-31{fill:#feea8d;}.cls-32{fill:#fce66b;}.cls-33{fill:#fae365;}.cls-34{fill:#fae56d;}.cls-35{fill:#feec90;}.cls-36{fill:#fbe465;}.cls-37{fill:#fde673;}.cls-38{fill:#fee981;}.cls-39{fill:#fef0a1;}.cls-40{fill:#fdea85;}.cls-41{fill:#fdea89;}.cls-42{fill:#fde989;}.cls-43{fill:#fceb87;}.cls-44{fill:#fceb8b;}.cls-45{fill:#fcea8c;}.cls-46{fill:#feee9b;}.cls-47{fill:#fdee98;}.cls-48{fill:#feee9a;}.cls-49{fill:#feea8b;}.cls-50{fill:#feec91;}.cls-51{fill:#fde87f;}.cls-52{fill:#feec89;}.cls-53{fill:#fded90;}.cls-54{fill:#fdec86;}.cls-55{fill:#fbe97a;}.cls-56{fill:#fded8e;}.cls-57{fill:#fce678;}.cls-58{fill:#fde879;}.cls-59{fill:#f9e86d;}.cls-60{fill:#feea93;}.cls-61{fill:#feee8f;}.cls-62{fill:#fde985;}.cls-63{fill:#fdee91;}.cls-64{fill:#fdee8e;}.cls-65{fill:#fde571;}.cls-66{fill:#f9e358;}.cls-67{fill:#fbe56a;}.cls-68{fill:#fdee90;}.cls-69{fill:#f7e875;}.cls-70{fill:#fde780;}.cls-71{fill:#fae77a;}.cls-72{fill:#fce67e;}.cls-73{fill:#feeb87;}.cls-74{fill:#fce472;}.cls-75{fill:#fdec87;}.cls-76{fill:#fbe882;}.cls-77{fill:#fbe97e;}.cls-78{fill:#fbe876;}.cls-79{fill:#fde470;}.cls-80{fill:#feec8e;}.cls-81{opacity:0.2;fill:url(#radial-gradient);}</style><radialGradient id="radial-gradient" cx="189.45" cy="135.01" r="164.49" gradientUnits="userSpaceOnUse"><stop offset="0" stop-color="#fff"/><stop offset="1" stop-color="#fbb03b"/></radialGradient></defs><title>資產 6</title><g id="圖層_2" data-name="圖層 2"><g id="Layer_1" data-name="Layer 1"><path class="cls-1" d="M240.82,205.83h-1c-2-2.62-1.58-5.36,0-7.88,1.81-2.95,4.39-1.14,6.71-.69,4.7.91,7.44-.5,9.25-4.63.29-.66.59-1.34.08-1.82-2.88-2.73-2.08-7.32-5.9-10-3.54-2.45-1.52-10.36,2.53-12.49a17.56,17.56,0,0,0,2.56-1.51c4.76-3.64,4.5-8.43-.65-11.88-2.06-7-1.31-8.62,5-10.54,1.61-.49,2.71-1.17,2.74-3s-.83-3.06-2.45-3.29c-5.65-.83-6.67-4.54-6.36-9.38.11-1.73.51-3.91-1.62-4.82s-4-.16-5.92,1.32c-6.07,4.74-19.16,4.26-25.13-.71a2.78,2.78,0,0,1-.28-2.3c1.42-1.78,4.08-1.9,5.3-3.95,3-3.27,7.51-2.05,11.49-3.93-1.84-1.91-4.27-3.48-2.7-6.34,1.12-2,3.12-2.24,5.19-2.29,2.88-.07,6.86,1.46,8.12-1.85a12.73,12.73,0,0,0-1.37-12.39c-2-2.7-4.1-5.48-1.4-9,2.28-1.84,6.06.28,7.71-2.48,1.47-2.45.43-5.53.7-8.32a8.36,8.36,0,0,1,.8-3.35c5.9-3.25,17.06-1.87,21.25,2.74,1,1.16,2.05,1.57,3.47,1,3.49-1,7.75.36,10.19-3.87,1-1.68,1.87-3,1.12-5a12.16,12.16,0,0,1,.45-10.14,6.61,6.61,0,0,0,.5-2.43c.66-8,.66-7.95,8.84-8.2,6.6-.7,13.14,1.46,19.79.34a3.35,3.35,0,0,1,4.07,3.42c.07,6.65,2.12,13.58-2.8,20a19.09,19.09,0,0,1,10.73,6.09c1.82,3.56,3.51,7.15,2.34,11.35-.18.64-.3,1.59.16,1.92,3.88,2.77,3.26,8.24,6.81,11.17a5.35,5.35,0,0,1,1.93,4.41c-.07,3.63,2,4.37,5.12,4.38,2.74,0,5.69-.74,8.11,1.39a4.51,4.51,0,0,1,0,4.58c-1.14,1.47-2.82,1.58-4.45,1.63-3.11.09-4,1.87-3.58,4.58.43,3.09,2.72,2.76,4.89,2.52,1.3-.14,2.48-.9,3.85-.74,4.35,1.82,9.17,0,13.54,1.73a3,3,0,0,1,1.1,1.27c2.11,15.62-.15,15.76-14.07,14.27-3.69-.39-4.24.14-3.9,3.53.59,5.76-.47,6.44-6.09,7.08-6.26.71-11.21-1-15.3-5.82a8.35,8.35,0,0,1-1.95-5.45c-.1-2.76-1.56-3.7-4.14-3.79-2.93-.11-6,.6-8.7-1.32-1.76-2.8-.8-6-1.16-8.93-.13-3.21,0-6.42,0-9.63a13.77,13.77,0,0,1,4.46-11.15c5.26-5.09,5.11-5.24-.48-10.75-.14.08-.35.12-.42.24-1.37,2.55-.52,6.84-5.16,6.84-2.71,0-8-5.51-8.18-8.84-.16-3.92-2.27-4.63-5.55-4.58s-6.39.2-6.45,4.35c-.09,6.37-1.07,13,3.6,18.47a6,6,0,0,1,1.31,3.73c.11,7.37,4.14,12.86,8.13,18.59a9.88,9.88,0,0,1-.21,12.06c-3,1.3-6.17.53-9.25.82-3.36.32-5,2.46-2.86,4.79,3.27,3.58,4.42,8.08,6.95,11.9a2.84,2.84,0,0,1,.91,1.22,1.38,1.38,0,0,1-.72,1.3,7.07,7.07,0,0,1-4.63.33c-4.6-.59-6.3-5-9.49-7.43-2.56-2-5.15-3.33-7.29-.89-1.89,2.15-1,5,1.88,6.57,2,1.1,2.22,3.12,2.3,5.14a8.19,8.19,0,0,1-.82,4.55c-6.6,5-11.91,10.91-13.72,19.35-.55,2.58.09,3.71,2.91,3.54,2.08-.13,4.36-.41,5.92,1.65,1.34,4.29-.88,5.89-4.71,6-3.22.09-6.23.37-8.61,3-1.21,1.33-3,1.15-4.68,1.12-5.79-.12-11.55.84-17.35.53A4.68,4.68,0,0,0,240.82,205.83Z"/><path class="cls-2" d="M114.82,198.94c-5.15-2.21-7.84.74-10.2,4.71-2.09,3.52-4.4,6.92-6.61,10.38-3.37,2.17-7,1.48-10.62,1a4.17,4.17,0,0,1-3.29-2.74c-3-7.1,2.37-17.7,9.95-19.55,1.78-.44,3.59-.7,5-2,4.61-4.15,8.63-8.89,12.87-13.39,4.59-4.89,9.47-5.22,14.21.19,3.76-2.83,6.64-6.61,10.17-9.7a3.29,3.29,0,0,0-.4-5.28c-4-3-3.78-6.61-2.25-10.7a12.55,12.55,0,0,0-.36-10.14c-1.24-2.71-2.58-4.08-5.67-4.58a11.51,11.51,0,0,1-9.31-14.55c.81-1.42,2.83-1.59,4-3.69-2.54.4-2.4,2.71-3.74,3.39-4.27,3.14-7,7.87-12.57,11.82,6.05,0,9.56,2.51,12.49,6.2,3.7,4.64,1.78,11.82-3.77,13.29a3,3,0,0,1-1.92-2.25,31.47,31.47,0,0,1-.32-5.4c-.11-2-.57-3.64-3.08-3.53-5.14.39-9.71,0-12.85-5.23-1.59-2.62-1.8-4.39.13-6.6,1.73-2,3.21-4.21,5.94-6.11-3-1.67-5.88-.78-8.52-1.1-2-.24-4.17-.16-5-2.51s.29-4.16,2.49-5.28a7.2,7.2,0,0,0,2.3-2.56c2-2.77,4.47-3,6.59-.36,1.49,1.83,2.81,3.29,5.34,2.51,2.22-.68,2.3-2.68,2.49-4.46.38-3.71,2.5-5.19,6-5.12,1.16,0,2.33,0,3.49,0,4.35-.22,6.28-3.34,3.49-6.48-4.45-5-4.14-10.55-3.37-16.41.78-4.79,3.87-6.39,8.37-6.18,2.43.12,4.87-.09,7.31.08,1.75,0,3.51,0,5.09.9,2,4.72,1.06,6.35-3.78,6.86-2.75.29-5.62-.51-8.93,1.08,4.14,2.77,7.19,6.49,12.46,6.22,3.53-.18,5.62,1.49,6.23,5,.46,2.65,1.9,4.16,4.75,3.94s6-.12,8.93,0c5.07.73,6.23,2.1,6,7-.21,4.3-1.54,5.75-6.22,5.89-4.44.14-8.93.67-13.3-.62-2.33-1.19-2.16-3.49-2.43-5.59-.22-1.74-.68-3.28-2.73-3.62-1.72-.29-3.27-.13-4.38,1.5-2.1,3.08-6,4.85-5.25,9.89.53,3.77,1.17,6,5.4,5.65a6.08,6.08,0,0,1,2.9.58c5.87,3.28,7.26,9,7.88,15.51,3.65-1.79,7.24-2.68,10.08-5.29a5.46,5.46,0,0,1,6.43-1c1.36,1.94,2.09,4.5,4.91,5a1.5,1.5,0,0,1,.49,1.28,2.9,2.9,0,0,1-1,1,19.57,19.57,0,0,0-7.24,5.79,8.23,8.23,0,0,1-8,3.7,6.35,6.35,0,0,0-6.74,4,21.13,21.13,0,0,1-4.39,6.09c3.6,3.31,8.26,1.29,11.92,3.08,3.89,3.3,8.13,7.11,8,12.18-.14,5.43,3.6,5.27,6.43,6.92,3,1.76,4.2-.16,5.27-2.43,1.17-2.48.71-4.53-1.73-6a5.11,5.11,0,0,0-2.9-.55c-1.72.08-3.48,0-4.21-1.86s.91-2.92,2-4.15c2.21-2.44,4.2-4.83,7.7-5.88,3.18-.95,3.45-4.26.8-6.6s-3.43-4.4-.56-7a10.87,10.87,0,0,1,8.18.31c2.32,5.76,2.87,11.42-1.16,16.75a8.85,8.85,0,0,0-1.77,3.51c-.72,3.41.55,4.83,3.89,3.83A33,33,0,0,1,193,168.6c3.13.06,5,1.48,5.16,4.74.13,3.06,1.38,5.09,4.67,5.26,2.44.12,3.69,2,5.25,3.39,1.32.85,2.94,1.34,3.61,3,.64,3.44.5,7,4.32,9.29,2.16,1.31.79,5-1.95,5.69-3.74.9-7.29.62-9.59-3.77-1.83,2.78-.86,5.37-1.45,7.65a5,5,0,0,1-1.19,2.11h-5c-1.38-1.14-.94-3.11-2.24-4.72-2.41,1.79-4.32,5.91-8.27,2.71-2.36-3.29-8.61-5.35-10.66-2.64-3.87,5.11-8.39,3.38-13,2.82a5.51,5.51,0,0,1-1.11-2.72c-.49-2.08.72-5.31-2.62-5.63s-7.18-1.58-10.09,2.07c-2.56,3.21-12.17,3.71-15.19,1.16C127.62,193.9,120.21,193.89,114.82,198.94Z"/><path class="cls-3" d="M94.81,8.93C106.14,5,118,3.46,129.75,2.17a314.45,314.45,0,0,1,46.13-2c10.1.38,20.2.62,30.3.93a12.07,12.07,0,0,1,2.8.78C208.19,3,206.85,3,205.5,3.3c1.87,1.14,5.12-.75,5.3,2.94-2.92,1.79-6.16,1-9.26,1s-4.91.82-4.7,4.55c.28,4.85-2.63,8.49-5.87,11.66-2.45,2.39-5.51,2.28-8.21.32A13.83,13.83,0,0,0,176.49,21c-2.31-.33-3.75-2-5.11-3.7a24,24,0,0,0-4.5-4.63c-2-1.49-4.41-1.23-6.72-1.32-8.94-.35-17.93.83-26.83-.78-2.51-.45-3.27.82-3.19,3.09s.3,4.34-1.05,6.26a4.2,4.2,0,0,1-3.15,1.26c-3.8-.1-5.27,2-5.7,5.46-.23,1.81-.64,3.7-2.94,4.1-2.12.37-3.46-.86-4.51-2.44a15.91,15.91,0,0,0-3.22-3.06c-1.6-2.34-.8-5.13-1.4-7.65-.53-2.21-.81-4.77-3.25-5.74s-3.39,1.19-4.65,2.69a2.9,2.9,0,0,1-4.38.49C94,13.41,93.21,11.31,94.81,8.93Z"/><path class="cls-4" d="M331.81,73c-.5,0-1.24.2-1.46-.05-3.06-3.57-7.19-4.55-11.56-5.37-1.44-.27-1-2.13.3-2.57,4.25-1.45,3.79-4.86,3.73-8.19-.05-3-.18-6,0-9,.3-4.18-2.44-4.72-5-3.5s-4.15.7-6.65,0c-3.55-1-7.56-.32-11.38-.36-5.58-3.23-11.82-5-17.45-8.21-4.14-2.36-8.16-5.7-13.55-5-.62.08-1.36-.5-1.95-.3-6.81,2.24-9.54-3.32-13.13-7a24.81,24.81,0,0,0-3.32-2.9,4.81,4.81,0,0,1-1.76-5.74c6.64-2.46,9.54-1.69,13.32,4,2.34,3.5,5.31,5.18,9.57,4.88,3.48-.24,6.67,0,9.37,3.19,2.33,2.74,5.77,2,8.62.14a20.34,20.34,0,0,0,6.29-6.92,116.31,116.31,0,0,1,22,10.8c2,3.2,5.38,4.77,8.32,6.71,4,2.66,6.57,6,6.92,10.77.23,3.19,1.74,4.23,4.75,4.25,3.75,0,7.62-.69,11.17,1.27a18.94,18.94,0,0,1,4.94,5c-2.21,2.13-5,1.31-7.58,1.47-3.78.24-7.6-.37-11.87.56,2.71,3.94,5.52,7.66,2.29,12.27A3.93,3.93,0,0,1,331.81,73Z"/><path class="cls-5" d="M70.82,16.1c6.2-2.43,12.39-4.89,19-6.08a7.14,7.14,0,0,1,.87,8c-1.94,3.35-1,5.75,0,9a17.75,17.75,0,0,1-.35,11.77c-6,3.54-8.31,3.15-12-2.11-1.91.41-2,3.23-4.06,3.27-6,.12-7.41,4.27-8.13,9.08-4,2.57-5.75,8.82-4.17,14.75,1,3.79,1.35,7.51-2.53,10.13a5.46,5.46,0,0,1-5-.8c-1.34-3.57-1.69-7.71-6.82-8.56-2.18-.36-2.25-3-2.3-5-.13-5-.15-9.91,0-14.85.31-4.26-1-8.84,2.51-12.44-1.11-1.51-3.28-.77-4.2-2.31,1.83-2.18,4.36-3.17,6.92-4.11,2.24-.5,2.68,2.08,4.49,2.56,3.94,1.06,6.88-.6,10.32-3.81C68.11,22,69.38,19.13,70.82,16.1Z"/><path class="cls-3" d="M317.81,131h6.48c6.85,0,6.86,0,7.51,6.91.13,1.35,0,2.91,1.84,3,2.31.07,3.23,1.1,3.29,3.35,0,1.5,1.3,1.74,2.54,1.75s2.66.06,4,0c2.8-.1,6.18.69,8.27-.59,3-1.81-.48-5.12.06-7.82.26-1.27-.12-3.16.61-3.76,1.45-1.18,2.47.85,3.74,1.36,4.29,1.71,8.81.78,13.22.54,1.75-.09,1.41-2,1.43-3.25.05-3.49,0-7,0-10.47,4.45-1.61,6.17-.59,6.28,3.8,0,1.75-.71,3.58.61,5.18.51,5.3-2,10-3,15-2.1,1.6-3.72.87-4.91-1.16s-2.4-2.13-3.67-.19a5.64,5.64,0,0,1-4.52,2.66c-2.09.17-3.47,1-3.31,3.39.14,2.11,1.54,2.58,3.33,3,6.28,1.31,7.09,2.61,6.11,9.16-2.1,2.66-2.79,6.36-6,8.17-9.26,1.46-14.57-2.05-16.35-11-.41-2.08-1.24-3.37-3.45-3.5-3.85-.23-7.55-.33-10.7,2.71s-8.11,3.8-10.74,7.77c-.53.8-1.78.78-2.77.28-1.7-5.47-2.11-10.95-.16-16.45,1.51-1.24,3.38-1,5.14-1.26,2.84-.36,3.19-2.52,3.25-4.69.07-2.37-1.88-2.26-3.49-2.44-1.91-.21-4,.07-5.35-1.83C316.15,137.25,315.54,134,317.81,131Z"/><path class="cls-1" d="M317.81,167c.33-.05.84,0,1-.17,2.9-4.73,8.34-6,12.37-9.19,2.6-2.06,11-3.67,13.83-2.37,2.17,1,1.8,2.93,1.84,4.71,0,2.43-.61,5.29,3.36,5.13.16,0,.44.07.46.14,1.19,6.82,7.47,3.71,11.12,5.72-4.52,6.27-10.44,11-17,14.91-6.25.4-10.59-2.95-14.13-7.52-1.52-2-3.39-2.54-5.17-1.38-2.88,1.87-6.14,3.95-6.18,7.89-.05,5.08-4.21,6.86-7.11,9.58-1.23,1.15-3.14.84-4.63-.3-1.2-2.08-.49-3.66,1.07-5.3,3.55-3.72,2.73-6.19-2.3-7.45-6.32-1.58-9.51-6.11-8.76-12.31.36-3,1.59-4.71,4.91-3.7,1.29.77,1.45,2.15,1.75,3.43.63,2.61,1.73,4.57,4.83,4.85s5.54-.59,6.67-3.79A7.84,7.84,0,0,1,317.81,167Z"/><path class="cls-6" d="M302.81,166c-2.93-.37-4.07.75-4.07,3.86,0,6.69,2.31,9.71,9,10.06,3.43.18,3.91,2.66,4.75,4.84.77,2,.55,3.9-2.16,4.55-2.46.59-2.72,2.56-2.54,4.68,1.28,1.52,1.8,3.51,3.08,5-8.65,3.15-17.81,3.73-26.79,4.72a416.94,416.94,0,0,1-43.28,2.12c.47-2.44,2.42-1.84,4-1.85,5.48-.05,11,0,16.45,0,1.49,0,3.43.3,4-1.29,1.64-4.48,5.28-4,8.66-3.64,4.07.42,5.48-1.24,4.91-5.07-2.41-3.86-1.42-8-1-12.11.19-1.9,1.71-2.64,3.47-3.09,7.06-1.79,7.37-2.92,2.53-8.8v-5c2.06-1.57,4.09-1.46,5.58.62,1.35,1.88,2.7,3.45,5.22,2.62,2.29-.75,1.57-3,2-4.64a4.1,4.1,0,0,1,1.24-2.6h5c1.28-.84,2.24-.32,2.52,1C305.79,164,304.61,165.21,302.81,166Z"/><path class="cls-7" d="M99.81,191c.26,3-1.7,3-3.85,3a10.68,10.68,0,0,0-10.15,10.11c-.32,9.8-.32,9.8,9.71,9.86.83,0,1.66,0,2.49.06l-7,20.14c-6.35.25-7.31-.35-7.27-6.14,0-2.72-1.46-3.76-3.25-4.94-1.57-2.72-.87-5.78-1.34-8.66a38.68,38.68,0,0,1,.34-4.9c.22-2.85-.81-4.44-3.89-4.2a9.87,9.87,0,0,1-4.35-.68c-1.48-.71-1.2-2.71-2.9-3.72C65,205,62.6,209.78,60,214.39a3.26,3.26,0,0,1-1.24.65,113.52,113.52,0,0,1-4-29,.82.82,0,0,1,0-1.29c1.21-.13,1.73.78,2.29,1.57,1.15,1.64,2.05,1.52,3.49.09,3.7-3.69,6.63-3.89,11.15-.69,1.53,1.08,2.15.88,3.09-.5,2-2.95,4.34-3.29,6.85-.51.76,1.77,1.8,3,3.61,1.18,3.1-3.18,7.4-2.61,11.14-3.49C100.49,181.5,102.08,185.7,99.81,191Z"/><path class="cls-8" d="M295.83,20.07c.49,5.66-4.11,7.77-7.82,9.35-3.13,1.34-7.53,1.75-9.5-3.2-.88-2.2-3.27-1.36-4.9-1.18-6.83.73-11.88-1.22-14.09-8.28-.46-1.48-1.82-1.78-3.24-1.78h-7.47c-3.71,2.17-7.26,2.35-10.12-1.28-2-2.57-4.19-2-5.93-.22-4.47,4.54-9.89,3.08-15,2.5-3.61-.41-7.68-7-7-10-1.76-1.79-4-.71-6-1-1.09-.15-2.56.16-2.66-1.4S203.47,2,204.58,2c1.46-.07,2.92-.07,4.38-.1C239,2.92,268.18,7.77,295.83,20.07Z"/><path class="cls-9" d="M.85,93c-.26-5.26,1.31-10.15,3-15,3.94-2.62,8.37-1.22,12.58-1.42s8.07.25,11.26-3.61c1.86-2.25,5.2-1.58,8-.94a3.38,3.38,0,0,1,1.33.91C36.71,78.32,31.31,84,26.2,84.31c-1.93.13-4-.47-6.1,1.15,3.23,3.29,3.11,6.23-1.17,8.52a5.81,5.81,0,0,0-2.13,2.71c-1.27,2.47-.58,3.79,2.25,3.87,3.49.1,7-.06,10.47.09,2.82.12,5.69.17,7.86,2.46,1.27,2.67.82,5.51.83,8.31a13.19,13.19,0,0,1-.64,5,2.61,2.61,0,0,1-1.08,1.16c-3.09,1-5.14.23-5.86-3.26-1.34-6.52-3.33-7.43-10.65-4.78a11.84,11.84,0,0,1,3.78,10.3c-.52,3.67-4.42,4.69-6.61,7.06-2.65,2.88-8.13,1.54-11.3-2A47.17,47.17,0,0,1,.92,107c2.69-2.52,6.51-.27,9.87-2.44C5.67,102,6.32,95,.85,93Z"/><path class="cls-10" d="M254.81,155c1.65.33,4.29-1,4.7,1.46.5,3,1.38,6.39-.91,9.1-1.37,1.62-3.09,3.73-4.9,4-3.28.53-4.38,1.9-3.86,4.89.44,2.53-1.81,6.49,3.38,6.67a1.56,1.56,0,0,1,1.5,1.7c-.17,3.28.06,6.29,3.62,7.9.31.14.43,1.27.27,1.83-1.22,4.12-9.56,8.37-13.51,6.06-5.6-3.27-4.84.72-5.24,3.74a27.59,27.59,0,0,0,0,3.49l-9,.07c-2-2.67-1.62-5.22.45-7.65a7.7,7.7,0,0,0,1.55-1.91,3.13,3.13,0,0,0-.51-3.68,3.81,3.81,0,0,0-3.54-1.41c-1.62.41-1.35,2-1.57,3.3-1,5.69-2,6.33-6.93,4.22a13.06,13.06,0,0,1-.29-9.12c3-2,4.7-5.42,7.93-7.17,1.61-.87,1.56-2.38,1.5-3.9.12-2.73-.32-5.5.67-8.15a2.55,2.55,0,0,1,1.13-1.13c4-1,5.42,1.26,5.91,4.71.34,2.45-.26,5,.86,7.4,0-5.75,1.46-11.41.78-17.19-.31-2.64-.69-5.29.39-7.86,2.43-2.3,4.74-2,6.59.62s4.57,3.55,6.56,5.88C254.59,160.44,252.47,157,254.81,155Z"/><path class="cls-11" d="M31.74,159.17c-7.09-4.73-12-11.47-17-18.18.15-3.44,2-5.44,5.24-6.36,2.9-.83,5-2.5,5.63-5.63.81-3.77,4.41-5.21,6.86-7.48A35,35,0,0,0,36.81,117h0a4.44,4.44,0,0,1,1.7-1c3.55-.81,6.6.41,10,1.5,2.58.82,5.43-3.34,9.15-2,1.93.71,3.93,1,4.13,3.54s-1.14,3.66-3.34,4.2a15.52,15.52,0,0,0-2.38.72c-7.14,3-7.81,4-7.81,11.83,0,2,0,4-.05,6-.06,3.28-1.35,5.35-4.92,5.59-1.74.12-3.85-.19-4.6,2.09s.58,3.73,2.41,4.85a1.88,1.88,0,0,1,.93,1.64C39,158.39,34.68,156.56,31.74,159.17Z"/><path class="cls-12" d="M54.88,185l-.14,1c-1.33-1.78-1-3.9-.77-5.79a7.2,7.2,0,0,0-3.2-7.18c-1-1.52-.87-2.87.83-3.74a3.89,3.89,0,0,1,3.82.18c1.23.69,1.44,2.21,2.45,3.07a4.82,4.82,0,0,0,3.43.88c2.94-.38,2.95-2.6,3.11-4.82.22-3.07-.74-6.34,1.35-9.14,3.68-1.85,7.46-.87,11.22-.42,5.29.63,5.64.38,6.46-4.65.13-.82,0-2,.56-2.36,4.33-2.66,4-7.54,5.66-11.47,4.72-1.14,6-.63,6.42,3.7.35,4.11,2.18,5.38,6,5.14,2.43-.16,5-.32,7.26.86,1.85,3.88,1.32,5.17-2.38,5.83-.66.12.15.1-.49,0-5.81-.59-10.92.16-12.89,7,2.43,1,7.31-.13,7.19,5.28a4,4,0,0,1-.46,1.33c-1.76,1.38-4.63,1.62-4.79,4.65a2.81,2.81,0,0,1-.87,1c-2.82.31-3.72,2.53-4.66,4.72a3.68,3.68,0,0,1-1.31.61c-3.62.3-3.91-2.24-4.21-4.85-.33-2.87.66-5.93-1.15-8.91-2.19,1.24-1.34,3-1.27,4.48a30.23,30.23,0,0,1,0,6c-.31,2.06-1.34,3.39-3.57,3.42s-3.33-1.19-3.75-3.26c-.33-1.61-.09-3.34-1.42-5.77C71.42,183.09,64.72,186.49,54.88,185Z"/><path class="cls-13" d="M89.81,39c0-2.81,0-5.62,0-8.43,0-2.38.54-4.75-2.46-6.32-1.39-.73-3-3.35.58-4.28,2.66-.7,1.74-2.82,1.85-4.47.13-1.81,0-3.63,0-5.45a7.85,7.85,0,0,1,5-1.09c.32,1.43.64,2.86,1,4.28a1.89,1.89,0,0,0,2.1,1.64A1.71,1.71,0,0,0,99.75,13c-.09-2.84,1.65-3.06,3.87-3.09s3.36.63,4.62,3c2.11,4,1.23,8,1.58,12,.88,1,1.4,2.48.56,3.17-3.44,2.81-1.61,5.36-.36,8.39a20.39,20.39,0,0,1,.91,10.85,3.63,3.63,0,0,1-1.33,2.15c-3.2,1.48-6.59.82-9.92.9-3.43-.08-7,.79-10.16-1.27C87.83,45.7,87.62,42.3,89.81,39Z"/><path class="cls-9" d="M46.81,44c0,5.5,0,11,0,16.49,0,1.47-.22,3.49,1.91,3.37,7.41-.4,6,4.8,6.07,9.14-2.39,2.12-5.3,1.35-8.06,1.45-3.37-.11-6.9.85-9.94-1.45h0c-1.76-2.39-.64-4,1.46-5.31s1.57-2.47.14-3.92c-2.07-2.09-4.28-3.63-7.41-3.43-4.95.33-10.21-1.36-14.24,3.61-1.5,1.85-4.52,2-6.82.05a80.87,80.87,0,0,1,23.8-27.12c.81,0,2.08-.15,2.3.44C38,42.32,42.82,42.41,46.81,44Z"/><path class="cls-14" d="M336.81,73c-.24-3.77,1.41-8.24-3.9-10.12-1.08-.38-1.19-1.57-.87-2.58.46-1.45,1.78-1.28,2.92-1.29,6.33,0,12.66,0,19-.06A7,7,0,0,1,356.8,62c.44,3.23,1.54,6,5.11,6.91h0a31.77,31.77,0,0,1,.22,16.51c-1,4-3.51,4.6-6.35,1.5-3-3.27-5.52-3-8.23.11a4.66,4.66,0,0,1-4.83,1.76,2.86,2.86,0,0,1-1.29-.85c.33-5.37-4.32-9.09-4.72-14.22C336.72,73.46,336.77,73.21,336.81,73Z"/><path class="cls-15" d="M9.95,64c3.34-.15,7.21.9,8.31-4.05.24-1.09,1.62-.93,2.6-.94,4.31,0,8.62-.13,12.92,0,4.12.15,5.5,4.3,8.34,6.36,1.51,1.1-.83,2.53-2.13,2.93-2.45.75-3.61,2.1-3.16,4.68-4,.38-8.91-1.83-10.69,4.36-.33,1.13-2.44.62-3.74.62C16.21,78,10,78,3.88,78,4.88,72.85,7.36,68.39,9.95,64Z"/><path class="cls-16" d="M56.81,175a6.92,6.92,0,0,1-.95-2.12c-.13-1.63-.42-2.83-2.45-2.88-2.33-.06-2.66,1.35-2.65,3.15-1.7-.09-2.67-1.43-3.94-2.26-2.1-2.87-.57-4.86,1.66-6.85-3.07,2.83-6.35,2.68-9.76,1-2.51-1.73-5.16-3.28-7-5.83-.07-2.19.78-3.36,3.18-3.23s4.59,0,6.89,0c5.31-1,8.51-6.82,14.46-6.41a93.27,93.27,0,0,1,11.48.1c1.5.14,3.06.5,3.62,2.18a3.41,3.41,0,0,1-1.73,4.24c-1.6,1-2.58,2.57-3.84,3.89,0,3.42-.27,6.87.07,10.26.41,4.11-1.44,5.24-5.07,4.74-2.06-1.88-.66-4.77-2-7.08C57.48,170.19,58.88,173.08,56.81,175Z"/><path class="cls-17" d="M36.81,117c0,2.41-.27,3.8-3.07,5.54-2.54,1.58-7.46,3.09-7.08,8.33.19,2.58-2.79,4.48-4.51,4.59-4.07.24-5.5,3-7.4,5.57-3.75-4.92-7.15-10-8.92-16.06,2.74.28,4.74,2.94,7.94,2.13,1.86-.47,3.64-.46,4-2.81.13-.82.25-1.94,1.16-2,3.63-.19,4.69-1.93,3.39-5.2-.81-2,.25-5.34-3.66-5.37a1.33,1.33,0,0,1-1.15-1.83c.38-1.33,1.06-2.66,2.54-2.74a54.56,54.56,0,0,1,9.92,0c2.89.39,1.92,3.21,1.74,4.92C31.31,116.15,33,117.52,36.81,117Z"/><path class="cls-3" d="M310.89,199c-4.07.18-2.87-2.86-3.08-5a10.64,10.64,0,0,0,10-10c.18-4.74,7.27-10.09,11.88-8.95.47.12,1.22.19,1.33.48,2.46,6.28,8.29,8.06,13.73,10.34-9.2,6.06-19.33,9.92-30,12.58A38.14,38.14,0,0,1,310.89,199Z"/><path class="cls-18" d="M377.71,130.94c-2.69-.52-2-2.74-1.82-4.29.52-4.15-1.51-5.16-5.07-4.69h0c-1.52-3-4-3.93-7.24-3.68a13.34,13.34,0,0,1-6.27-.61,2.78,2.78,0,0,1-1.2-1.2c-.87-1.8-.3-3.55.19-5.3.19-4.5-1.31-8.85-.92-13.39.43-5,1.29-6.11,6.29-6.34,2.83-.13,5.66.22,8.49.11A6.29,6.29,0,0,1,374.58,93c.91,2.93,2.06,5.81,2.12,9-3.52,2.93-8.19.19-12.14,2.48,1.86,3.83,4.12,6.6,9,6.2,3.4-.29,5.23,1.31,4.82,5.07-.44,4.08.55,8.24-.5,12.31Z"/><path class="cls-19" d="M114.82,198.94c-.43-3.44,1.32-4.92,4.55-5,3.81,0,7.63,0,11.44,0,1,0,2.05-.06,2.64,1,.75,1.3-.22,3.76,2.21,3.89,3.47.18,7,0,10.43,0,.43,0,1.14-.34,1.24-.67,2.48-8.15,9-2.79,13.59-4,1.61-.43,1.86,1.47,1.87,2.85,0,2.32,0,4.64,0,7a52.91,52.91,0,0,1-15.14.09A154.24,154.24,0,0,1,114.82,198.94Z"/><path class="cls-20" d="M370.82,93c-4.39.28-10-1.83-12.88.85-3.16,2.95-.7,8.71-1.1,13.23-.14,1.63,0,3.28,0,4.93l-.5.38-.5-.38q0-2.5,0-5c-1.7-1.92-1.45-4.3-1.53-6.59-.2-5.55-.29-5.65-6-5.88a24.12,24.12,0,0,1-3.46-.22c-3.84-.72-4.46-2-3-6.31,2,0,3.74,0,5.14-2.12,2.84-4.31,7-4.07,9.78.37.57.92,1,1.68,2.17,1.63,1.55-.06,1.65-1.17,1.95-2.37,1.36-5.48.17-11.1,1-16.59a12.38,12.38,0,0,1,4,6c.52,1,.48,2.14.92,3.14a7.48,7.48,0,0,1,.34,3C366.72,85.47,367.46,89.61,370.82,93Z"/><path class="cls-21" d="M80.82,223c3.67-.4,5.7.29,4.11,4.76-2,5.63,3.62,4.65,6,6.44-.33,2,.28,4.11-1.12,5.87-1.21-.21-2.32-.08-3,1.1-1.49,2.67-4,3.15-6.71,3.17-1.59.1-3.17.06-4.75.06-2.61,0-5.3.47-7.55-1.41a32.45,32.45,0,0,1-4-10c.63-4.57,4-5.67,7.82-6,1.85-.17,3.81-.23,4.73,1.8a3.78,3.78,0,0,1-1.52,5.17c-.54.35-1.12.69-1.29,1.39,4.34,1.87,5.44,1.21,5.84-3.29C79.68,229,78.52,225.7,80.82,223Z"/><path class="cls-22" d="M80.82,223c0,4,0,8,0,11.94,0,1.64-.33,3.18-2.37,3-2.48-.24-5.58,1.45-7.28-1.29-1.06-1.71-.32-3.61,2.33-3.65,2.06,0,2.44-1.35,2.26-3-.24-2.19-1.89-1.94-3.37-1.86A10.73,10.73,0,0,0,63.83,233a36,36,0,0,1-3.09-10c1.22-1.44,3-1.21,4.56-1.33,1.82-.15,3.69-.17,4.33-2.41a5.9,5.9,0,0,1,.65-1.19c1.61-1.35,4.22-1.43,5-3.91a3,3,0,0,1,1.12-.88,3.17,3.17,0,0,1,3.45.7C81.82,216.77,80.37,220,80.82,223Z"/><path class="cls-23" d="M367.78,162.76a9.88,9.88,0,0,1-.79-2.86c.13-3.95-1.74-5.44-5.52-4.95-3.24.43-4.89-.55-4.75-4.3.12-3.17.55-5.29,4.35-4.7,2.41.38,3.68-.74,4.33-3a2.76,2.76,0,0,1,3.08-2c1.73,0,2.33,1,2.35,2.54,0,2.89,2.18,2.35,3.94,2.44C373.15,151.86,371.55,157.76,367.78,162.76Z"/><path class="cls-24" d="M349,53.88c-4.49,0-9-.05-13.48.12-2.82.11-3.85-1-3.76-3.77.18-5.41-2.06-8.92-7.05-11.88-2.4-1.42-7.67-2.3-6.87-7.48C329.42,36.94,340.15,44.14,349,53.88Z"/><path class="cls-25" d="M220.82,199c3.83.57,5.5-.85,5.09-4.92-.16-1.68-1.25-4.52,1.74-4.89a6.61,6.61,0,0,1,6.82,3.56c.74,1.7,1.81,4.94-1.71,6.27s-1.28,4.61-1.94,6.92h-29q0-1,0-2c3.4-2.47,7.31-1.36,11-1.4C216.14,202.54,219,202,220.82,199Z"/><path class="cls-26" d="M70.82,16.1c-.74,3,2.26,7.8-3.94,8.19a1,1,0,0,0-.7.62c-.62,9.16-7.6,3.76-11.61,5-3.21,1-2.18-3.11-3.95-4.06C56.75,21.32,63.85,18.83,70.82,16.1Z"/><path class="cls-27" d="M377.83,128c0-3.66-.23-7.33,0-11s-1-6.24-4.9-5c-6.24,2-7.55-3.9-10.69-6.45-1.63-1.32.47-3.57,2.94-3.62,3.82-.07,7.65,0,11.47,0C378.57,110.57,379.94,119.22,377.83,128Z"/><path class="cls-28" d="M46.81,44c-1.8,0-3.61-.08-5.41,0-2.72.15-5.06,0-4.61-3.74.28-2.29-2.29-2-3-3.38a42.34,42.34,0,0,1,9.95-6.95c1,0,2,0,3,.07,1.38.15,3.2-.64,3.87,1.28s-.84,2.38-2.33,2.93C46.08,35,47,37,46.84,38.51,46.72,40.32,46.81,42.14,46.81,44Z"/><path class="cls-29" d="M.85,93c4.59-1.21,5.49,2.63,6.66,5.36.79,1.85.64,3.81,3.45,3.76,1.82,0,1.87,1.53,1.76,2.92s-1.07,1.92-2.38,1.93L.92,107A28.12,28.12,0,0,1,.85,93Z"/><path class="cls-30" d="M88.77,252q0,2.51,0,5a12.09,12.09,0,0,0-2.36,3.09c-1.91,3.31-4.49,4-7.76,2-2.92-2.88-4.6-6.55-6.51-10.09,3.9-2.57,8.25-1.13,12.41-1.37A5.9,5.9,0,0,1,88.77,252Z"/><path class="cls-31" d="M147.66,204l15.14-.09c2.31,0,4.62,0,6.93,0,1.12,0,2.41.14,2.86-1.33S172.54,199,175,199c3.61,0,7.29-.2,10.8.47,1.72.33.76,2.9,1,4.47-2.65,2.29-6.28-.21-9,1.86C167.76,205.6,157.68,205.42,147.66,204Z"/><path class="cls-32" d="M78.63,262c2.77-.2,6.17,1,6.73-3.65.17-1.43,2-1.4,3.4-1.39.31,2.76.62,5.51.91,8.27a3.89,3.89,0,0,1-2.37,4.4,3.5,3.5,0,0,1-4.67-1.56C81.37,266,79.11,264.6,78.63,262Z"/><path class="cls-33" d="M88.77,252h-4c-1.21-1.56-3-2.5-4.21-4.07a3.68,3.68,0,0,1,.21-4.93c2.3,0,4.26.08,5.15-3,.83-2.88,2.63-2.86,3.89.07Z"/><path class="cls-34" d="M80.81,243c.17,2.1-.83,4.63,2.68,5.26,1.91.34,1.13,2.38,1.32,3.74l-12.7,0L70.77,249c.73-2.81,4.07-3.44,5-6Z"/><path class="cls-35" d="M370.82,93c-5-.62-5.41-4-5-8,.21-2.3,0-4.64,0-7,3.08.27,1.79,4.72,4.81,5l3.95,10Z"/><path class="cls-11" d="M177.84,205.82c2.31-3.91,6.05-.91,9-1.86,2.36-.07,5.19.72,5.13-3.29,0-1.46,1.3-1.67,2.53-1.67,1.68,0,2.32.93,2.32,2.49s0,3,0,4.43Z"/><path class="cls-36" d="M70.82,218c0,.33,0,.65,0,1-5.52,2.51-8.5,2-11.79-2l-.24-2,.13-1a13,13,0,0,1,6.87-1.45c1.84,0,3.67,0,5.24,1.16A3.29,3.29,0,0,1,70.82,218Z"/><path class="cls-12" d="M38.73,165c2.94-.82,7.19,2.1,8.63-3.22.3-1.11,2.15-1.16,2.91,0s1.12,3.46-.55,3.8c-3.49.7-2.84,3.06-2.89,5.31C44,169.06,41,167.55,38.73,165Z"/><path class="cls-37" d="M59,217c3.48,3.33,7.83,1.5,11.79,2,.34,2.81-.59,4.32-3.73,4-2.09-.19-4.22,0-6.33,0C59.53,221.17,59.4,219,59,217Z"/><path class="cls-38" d="M75.81,243c1,4.24-2.45,4.79-5,6A13,13,0,0,1,67.85,243Z"/><path class="cls-20" d="M361.91,68.89c-6.42,0-6.79-.48-5.11-6.91A18.63,18.63,0,0,1,361.91,68.89Z"/><path class="cls-39" d="M370.63,83c-4.46,1-3.23-3.34-4.81-5l.08-3.11A27.27,27.27,0,0,1,370.63,83Z"/><path class="cls-26" d="M210.81,6c0,2.06-.17,4.12,2.87,4.08a2.34,2.34,0,0,1,1.69.79c1,1.3-.23,4,2.62,4.06,3.81,0,7.7.4,11.38-.31,1.92-.37,2.07-4.07,5.27-4.19,2.53-.09,5-1.44,5.27,2.68.1,1.83,1.57,1.86,2.94,1.87,2,0,4,0,6,0,1.2,2,.61,5.66,4.63,5.17.27,4.11,5.67,4,6.35,7.64.39,2.07,1.69,2.65,3.16,1.91,4.77-2.37,10.45-.72,13.64.93,3.66,1.89,8.3,3.1,11.26,6.26a9.34,9.34,0,0,0,6.55,2.87c3.07.2,4.44,1.73,5.41,4.2-1.5,0-3,.05-4.5,0s-3.24,1-2.86,2.09c2.27,6.3-5.2,12.51.06,18.85,1.12,1.35-4.46,7.9-6.7,8s-4.66,0-7,0c2.82-5,3-10.7,4.34-16.11,1.13-4.71,1.5-7.83-2-11.14-5.24-4.9-11-6.88-18.89-3.75,3.46,1,6.12.42,8.69.75,2.2.28,3.86,1.1,3.89,3.64s-1.5,3.73-3.73,3.76c-5.43.08-10.92,1.11-16.27-.73-1.36-1.31-1.41-3.93-4-4-1.83,0-3.92-.36-4.37,2.14-.41,2.29-.08,4.38,2.82,4.92,2.07.38,4.4-.18,6.11,1.62a11.48,11.48,0,0,1,.41,7.93c-2.24,3.28-7.27,2.12-9.25,5.82a1.82,1.82,0,0,1-1.43.43,2.29,2.29,0,0,1-1-1.08,10.88,10.88,0,0,1-.55-3.88c-.3-8.43-3.53-12.09-11.87-13.47a3.66,3.66,0,0,1-1.17-.81c-3.12-5.46-5.94-5.31-9.92.56a4.88,4.88,0,0,1-4.48-.05c-1.53-1.66-2.3-3.83-4.58-5-3.3-1.75-.38-4.77-.69-7.09-.4-.29-.77-.46-1-.28-7,4.45-7.43,4.31-9.4-3.7-.82-3.34-3.62-5.42-6.17-3.8-7.2,4.58-14.49,1.82-21.8,1A24,24,0,0,0,165.88,20c-3.25-3.23.13-5.6,1.93-8A15.51,15.51,0,0,1,173,17.26c1,1.67,2.33,2.89,4.42,2.68,2.34-.23,3.85.69,5.55,2.41,2.52,2.56,5.54,2.76,8-.63,2.7-3.73,6.18-7,4.2-12.49C194.3,6.92,196.21,6,198.32,6,202.49,6,206.65,6,210.81,6Z"/><path class="cls-40" d="M254.81,155c0,2.33,0,4.66,0,7,0,1.16.07,2.47-1.41,2.83s-2.26-.64-3.39-1.43c-3.43-2.42-4.78-7.75-10.19-7.39-2.3-2.74-1.29-6-1.4-9.08s-1.34-4.34-4.49-4.52c-11.64-.67-11.63-.75-11.67,10.86,0,.67,0-.17,0,.5,0,7.44,0,7.44-9,9.54,5.28.56,9.81-.28,14.05,1.2,2.51.88,5.37,1.74,3.53,5.5h0c-2.45,2-5.4,1.3-8.17,1.37-3.83.1-7.66.06-11.49,0-2.72-.05-4.93-.81-5.75-3.75-.58-2.07-2.39-3.1-3.81-4.49-3.28-3.24-3.51-5.92,0-8.89s2.47-5.16-.45-7.48c-2-8.09.54-11.6,8.72-12.17.67,0-.17,0,.5,0,7.77-.42,7.77-.42,9.16-7.94a4.13,4.13,0,0,1,1.28-2.6c6.88,4.46,14.26,3.32,21.67,2,1-.19,1.87-.42,2.25-1.57,1.55-4.61,5.39-2.24,8.05-2.18,3.28.08,1.68,3.3,2,5.2a16.28,16.28,0,0,1,0,4c-.26,2.89.32,4.76,3.87,4.77,4.52,0,5.66,2.81,5.2,6.93-.24,2.14-1.13,3.18-3.12,2.82-5.62-1-6.53,2-6,6.56A19.85,19.85,0,0,1,254.81,155Z"/><path class="cls-3" d="M317.81,167c0,1.1.17,2.28-1,3-6.57,2.71-8.65,1.49-8.66-5.35,0-3.81-3.3-3.41-5.34-4.65-3.29-7.31-1.79-13.6,4-19,1.36-4.63,1.93-8.45-2-13-2.73-3.1-6.62-6.76-6.18-12.43.24-3,1-7.56-3.84-9a1.46,1.46,0,0,1-.75-1.16c.44-6.42-2.49-12.72-.49-19.27.73-2.39,1.63-3.38,4-3.17a20,20,0,0,0,4.49,0c4.53-.65,6.5,1,5.82,5.73-.32,2.22-.24,4.48,3.07,4.41a2,2,0,0,1,1.54,1c.56,1.63.9,3.39,3.26,2.7s2-2.73,2.11-4.53-.73-3.9,2.16-4.2c2.31-.23,2.86,1.12,2.88,3,0,.32.06.83.26.93,8.25,4.2,1.6,7.25-1.05,10s-5.11,5.65-4.27,10c-2.24,0-2-1.85-2.22-3.18-1-5.66-3.89-9.44-9.78-10.37-2.11-.33-3.46-1.77-4.92-3.2-1.08,1.82-1,3.68.13,4.88,3.58,3.88,3.27,8.57,3.09,13.21-.3,7.75,5.77,10.92,9.8,15.64,2.75-2.2.1-6.19,3.9-7q0,4.5,0,9v10a8.65,8.65,0,0,1,0,10Z"/><path class="cls-41" d="M254.82,49H270.3c1.73,0,3.43,0,3.47-2.43s-1.53-2.58-3.34-2.57c-2.66,0-5.33,0-8,0-1.25,0-2.36-.25-2.48-1.8s.83-1.83,2.1-2.19c4.94-1.39,10.41-2.15,14.51.41,2.46,1.54,6.79,2.56,7.28,6.78.14,1.2,1,1.49,1.94,2,2.82,1.52,2.51,3.33,0,4.81-1.95,1.16-2.24,2.87-2,4.72.84,5.69-.08,10.7-5,14.32-2.22,4.34-4.25.83-4.53-.7-.79-4.32-4.49-4.49-6.75-4-4.4.9-8.5-.33-12.72-.27l-.55-.57a3.77,3.77,0,0,1,.55-4.43V54C253.56,52.3,253.3,50.63,254.82,49Z"/><path class="cls-14" d="M220.82,124c0,11.65,0,11.65-11.28,12-6.59.21-7.73,1.82-7.73,11,1.84,3.41.25,4.93-3.05,5.19a10.76,10.76,0,0,1-7-1.77c-1.65-2.13-1.49-4.46-.74-6.85,1.5-2.39,4.34-3.64,4.58-7.22.3-4.45-1.36-7.48-4.57-10.08-.06-5.53,1.94-6.62,9.22-5.06,1.79,1,2,2.92,2.46,4.66.57,2.43,1.88,3.56,4.46,3.75,7.15.54,8.59-1.55,6.39-10.26-3.78,2.78-7.74,4.4-12.15,1.68-1.19-2-.95-4.15-1-6.27-.08-3.95,1.18-7.17,5.2-8.64,4.23-1.55,9-.54,11.64,2.56a12.84,12.84,0,0,0,3.07,2.43,3.6,3.6,0,0,1,1.21,1.31c.93,3.28,1.41,6.52-.71,9.58Q220.82,123,220.82,124Z"/><path class="cls-42" d="M244.82,83c-.11,2.34-.24,4.77,1.73,6.46,5,4.27,3.54,10.06,3,15.17-.43,4.21-5,2-7.69,2.79-1.15.35-2.58-.33-3.88-.36a2.68,2.68,0,0,0-3.07,2.55c-.18,1.71.8,2.36,2.38,2.4,1.24,0,2.31.32,2.4,1.87.11,1.84-1.32,2.09-2.56,2.46-3.73,1.09-7.91.23-11.32,2.66-2-2.06-3.22-4.75-5-7h0c-1.68-2.33-1.39-4.41,1.05-5.91,2.71-1.66,3.86-4.84,6.84-6.37,1.84-.95,1.63-3.46,1.5-5.48s-1-4.27.41-6.28c3.34-1.72,7.68-1.48,9.92-5.47.55-1,2.43-.69,3.7-.06Z"/><path class="cls-43" d="M317.81,122c-1.88,2-.65,4.46-1,6.68-.47,2.8-1.89,2.79-3.81,1.35-1-.79-2.42-1.45-3-2.52-2.47-4.69-8.74-7.1-7.4-14.23.79-4.17,1.66-9.16-3.39-12.57-1.33-.89-.67-4.44-.05-6.69.16-.59,1.19-1.17,1.91-1.32,1-.21,1.46.66,1.63,1.5.26,1.34.37,2.63,2.21,2.77,8.52.66,12.07,5.69,12.09,13.83,0,.4.54.79.83,1.19Q317.81,117,317.81,122Z"/><path class="cls-44" d="M341.81,88c-.34,3.21.17,5.15,4.33,5.11,9.67-.1,9.67.12,9.67,9.95V107c-2.16,0-4.33-.12-6.48,0-4.67.32-8.9.31-7.56-6.43A2.06,2.06,0,0,0,340.64,98c-3.47-1-3.59-3.79-3.79-6.59-.07-1-.21-1.94-1.37-2.4-3.7-1.46-3.74-3.85-2.24-7.18,1.37-3-2.67-5.62-1.42-8.9h5a54,54,0,0,1,1.33,8.57A7.42,7.42,0,0,0,341.81,88Z"/><path class="cls-45" d="M283.81,170c5.66-.36,4.55,4.21,4.87,7.21.41,3.9-3,2.88-5,2.7-4.1-.39-5.28,1.32-4.94,5.14.26,3,.05,6,.05,9a4.81,4.81,0,0,1-1,0c-2.94-.63-8,1.6-8.46-.73-.77-3.81-1.17-8.93,3.38-11.94,1.24-.82,1.08-2.34,1.08-3.66,0-1.52.5-2.57,2.23-2.64,1.18,0,2.64-.16,2.61-1.66C278.6,169.3,281.4,170,283.81,170Z"/><path class="cls-46" d="M297.81,161a29.91,29.91,0,0,1,0,3.95c-.25,1.87,1.16,4.93-2.3,4.89-2.44,0-6.19,2.13-6.8-3-.36-3-3.13-1.46-4.86-1.85-.2-1.37.59-3.5-1.38-3.75-6.31-.8-2.86-5.46-3.45-8.43-.27-1.35,1.23-2,2.42-1.75,2.48.52,5.05-1.24,7.58,1.7S293.93,159.25,297.81,161Z"/><path class="cls-3" d="M306.81,141c-.11,2.17.71,4.68-2.74,5.31-1.67.3-1.22,2.11-1.24,3.35-.05,3.45,0,6.89,0,10.34-2.91.36-4.35-.72-4-3.84.27-2.65-.39-4.26-3.42-5.54-2.69-1.14-2.5-5-2.34-7.84s2.76-1.67,4.39-1.74C300.55,140.87,303.68,141,306.81,141Z"/><path class="cls-47" d="M254.81,68v4.9c0,10.1,0,10.1-10,10.09h0c-2-5.16-3.2-10.26,1-15h0A7.4,7.4,0,0,1,254.81,68Z"/><path class="cls-3" d="M302.81,160a15.51,15.51,0,0,1,5.85.77c1.76.68,2.3,1.35,1.55,3.27-2.27,5.85-2.15,5.93,4.12,6h2.48c-1.83,5-3.92,6.29-9.67,4.9-4.63-1.12-4.19-5.28-4.33-8.9-1-1.67,5-3.33,0-5Z"/><path class="cls-48" d="M356.81,120c-2.4,3-5.84,2.54-8.62,1.59s-1-4.07-1.34-6.21c-.39-2.63,1-3.54,3.5-3.39,1.81.11,3.64,0,5.46,0h0c1.19,1.5-.24,3.51,1,5A2.11,2.11,0,0,1,356.81,120Z"/><path class="cls-49" d="M356.81,120q0-1.5,0-3a87.15,87.15,0,0,0,9.27-.06c4.11-.44,5.22,1.45,4.73,5.07-3.42,0-6.83,0-10.25,0C359,121.94,357.14,122.35,356.81,120Z"/><path class="cls-40" d="M220.81,112c2.7,1.6,5,3.49,5,7,.2,4.1-2.9,2.73-5,3Q220.82,117,220.81,112Z"/><path class="cls-50" d="M109.81,151h-6.9c-7.21,0-7.37,0-8-7.17-.36-3.86-3-2.54-5.06-2.83a6.39,6.39,0,0,1-4.64,1.48c-3.73-.1-7.28,0-9.57,3.76-.58,1-2,1.13-3.21,1.13-5.12,0-10.29,1-15.32-.76-1.92-1.71-2-4.11-2.22-6.4-.28-2.91,1.17-5.49,4-5.22,9,.86,13.65-5,18.48-10.9-1.47-1-3.21-.62-4.81-.83-4.33-.56-8.4-1.31-8.35-7.06A2.49,2.49,0,0,0,63.13,114c-5.56-3.36-3.52-8.71-3.5-13.48,0-1.78,1.31-2.9,2.67-4,4.3-3.42,8.28-7.16,11.12-12,2.26-3.81,5.88-3.24,9.31-2.66s3.39,3.58,3.45,6.26c.07,3.15,0,6.31.07,9.46,0,.33,0,.67,0,1,.34,2.29-1.22,5.18,1.85,6.62s8.66,0,10.82-2.4a51.61,51.61,0,0,1,7.19-6c2.66-2,2.69-4.35.65-6.31s-4.26-1.36-5.84,1.12c-2.4,3.76-6.08,2.91-9.42,2.23s-3-3.47-2.67-6c.78-2.38.6-5.39,4-6.07,5.08-.57,10.17-.23,15.25-.24,2.24.23,4.35.22,4.72-2.77.08-.42.2-.83.33-1.24,1.26-3.2-1.39-3.29-3.21-4a3.78,3.78,0,0,1-1-1c-1.07-2.16-3.06-2.76-5.21-3.13-1.57-.27-3.31-.16-4.48-1.6-1.2-2.76-.44-4.88,2.2-6.23,1.4-.71,2.14-2,3.23-3,2.9-1.27,5.14-.8,6.34,2.4.76,2.08,2.29,1.7,3.86,1.2,2.17-.25,2.74-2.25,3.9-3.6,3.29-1.53,6-.58,8.42,1.87s4.19,5,6.76,7.09a4.12,4.12,0,0,1,.72,1.38c.37,2.13.21,4.18-2.19,4.89-2.91.86-5.89,1-8.67-.64-1-.57-1.23-2-2.94-2.1-1.15,3.86-.9,8-2.11,11.92.19,3.79-.57,7.64.88,11.35.35.9.2,2.07,1.38,2.43,5,1.5,2.72,5.6,2.44,8.33-.33,3.27-3.75,1.43-5.81,1.86a6.58,6.58,0,0,1-2.48,0c-4-.74-5.89,1-5.8,5,0,2.37.31,5.1-3.11,5-2.53-.1-6.4,1.9-6.67-3.3a2,2,0,0,0-3.05-1.41c-2.45,2.4-5,5-6.5,7.95-.83,1.62,1.73,1.83,3.2,1.85,2.33,0,4.66-.08,7,0,1.53.08,3.67-.81,4.3,1.39s-1.19,2.72-2.84,3.78c-2.28,1.46-3.9,4-5.68,6.15a1.88,1.88,0,0,0,.23,1.83c3.73,2.5,6,8.1,12,5.84a4.53,4.53,0,0,1,1.49,0c2.05,3,1.7,6.15.62,9.36Z"/><path class="cls-3" d="M171.81,30c3.47.12,6.9,0,10.4.75s7.39.94,10.34-2c1.45-1.47,2.95-2.17,4.84-.89s4.71,2.09,4.43,5.35c-.08,1,0,2,0,3,0,1.2.08,2.45,1.59,2.7,1.32.21,2.79.38,3.33-1.32A3.24,3.24,0,0,1,210.5,35c2.43.23,4.23,1,2,3.69-2.37,2.91-2.88,4.76,1.84,5.55,2.44.41,1.09,3.07,1.44,4.72-1.33,1.41-3.08,1.38-4.81,1.39-3.9.24-6.49-1.08-6.62-5.45-.08-2.49-1.56-3.61-3.91-3.45s-6.29-1.1-6.54,1.74c-.45,5.22-4.78,7.3-6.91,11a5.59,5.59,0,0,1-3.11,1.06c-6.56-.11-7.07-.56-7.56-6.93a34,34,0,0,0-.7-5.41c-.54-2.23.63-5.56-2.75-6.19s-7.32-1.25-9.92,2.41c-3.91,2.13-8.16,1-12.26,1.21s-8-.36-11.94.69c-3.34.9-4.66,4.12-2.16,5.8,3.61,2.42,3.59,5.64,3.69,9.16.05,1.76-.42,3.89,1.63,4.89s3.8-.08,5.29-1.64,3.52-1.74,5.56-1.72c7.37.49,10.17,3,11.52,10.4.28,1.54.6,2.94,2.16,3.68,3.55,1.68,4,4.65,3.22,8-.65,2.88.25,6.07-1.76,8.67-4.16,1.88-8.47,1.13-12.75.76-3.83-2.75-8.27-5.14-7-11.13.27-1.25,0-2.4-1.34-2.8s-1.65.72-2,1.63a3.42,3.42,0,0,1-1.51,1.89,4.13,4.13,0,0,1-4.48-.71h-5c-1.75-3.16.25-4.54,2.72-5.61,1.47-.64,3.36-.07,4.89-1.91-2.12-2.23-5.68-.27-7.61-2.48-2.15-2.6-1.26-5.73-1.48-8.65-.17-2.21-.81-3.16-3.41-2.85-4.92.59-6.16-.66-6.5-5.65-.16-2.32-.11-4.66,0-7-.14-2.81-.11-5.63,0-8.43.16-5.65,1.09-6.8,6.68-6.82,3.91,0,7.11-1,9.68-4,3.46-1.39,5.13.3,5.4,3.51.29,3.44,2.1,4.54,5.26,4.35,4.83-.29,9.75.95,14.12-2.92C165.65,27.64,169.12,27.87,171.81,30Z"/><path class="cls-51" d="M99.81,191c0-1.8,0-3.61-.1-5.41-.11-1.47-1.65-3.09-2.43-2.31-3.28,3.26-9.25-.65-11.6,4.64-.64,1.43-2.26,1.26-3.51.86-1.95-.63-1.14-2.43-1.35-3.79,2.75-2.12,7.07-1.41,9-5a11.54,11.54,0,0,0,5-5h0a11.55,11.55,0,0,0,5-5c1.6-1.52,3.68-1.32,5.63-1.52,1.76-.18,2.75-1.06,2.75-2.87s-.38-3.32-2.4-3.85c-1.29-.34-2.63-.34-3.92-.66-1.82-.45-3-1.46-2.77-3.49s1.75-2.22,3.31-2.07a20.63,20.63,0,0,0,12.4-2.53c5.19-3.18,4.62-7.93,1.55-12.44-2.89-4.25-5.93-4.43-10-4.81-2.24-.22-2.09-3.37-1-3.8,4.67-1.91,7.1-5.91,10.15-9.39.57-.65,2.17-.39,3.3-.55,0,1.66,0,3.33,0,5,0,.83,0,2.34.16,2.38,4.27.81,4.63,7.38,9.92,6.66,2.92-.4,3.82.76,5.3,3.81,2.77,5.69,1.59,10.25-.22,15.48-.75,2.16-.78,5,2.87,5.77,3.25.65,1.65,3.48,1.91,5.38.23,1.69.11,3.4-2.33,3.56-.76,0-2.12.5-2.14.83-.18,3-3.69,3.52-4.25,4.68-3,6.2-4.67,6.27-7.36,0-.35-.82-3.73-.31-5.69-.49-2.42-.22-3.22,1-3.27,3.25-.06,2.46-3.13,3.06-4.05,3.46C105.08,183.64,105.58,190.68,99.81,191Z"/><path class="cls-51" d="M138.82,78h5a2.33,2.33,0,0,1,1,2.12c-1.16,5.37,1.54,7,6.34,6.75A4.73,4.73,0,0,1,153.81,88h14a16.36,16.36,0,0,0,3-3.83c2.3-3.2,5.75-3.25,8,.07a41,41,0,0,0,3.61,3.95,10.89,10.89,0,0,1,.1,8.42c-2.91,1.87-3.71,4.34-3.51,7.92.29,5.14,1,10.66-4.42,14.41-2.28,1.58.25,4.87-1.33,7-3.26,2.12-8,1.11-10.43,5-3-.41-5.57.35-7.4,2.91-2.18,3-7.12,1.36-8.92,5.39-.42.93-1.54-.39-1.64-1.46a34.42,34.42,0,0,1-.35-4.42c.18-4.86-3.51-7.75-5.67-11.41l.46-.52c2.29-.72,3.56-2.08,3.32-4.68a7,7,0,0,1,.7-4.33l.52-.47c4.61,0,9.23-.16,13.83.05,3.53.16,5.43-.43,5.32-4.74-.1-3.87-.82-6-5.14-5.31-2.53-3.43,1-4.45,2.82-6.5-3.14-2-6.34-1.12-9.42-.84-1.44.13-1.63,1.43-1.56,2.66.09,1.63.52,3.31-.84,4.68-3.41.56-5.22-.57-5.32-4.35-.1-3.53-2-5.33-5.8-4.68a7.79,7.79,0,0,1-7.87-3.15A4.48,4.48,0,0,0,126,87.92c-1.76,0-2.19-1.14-2.14-2.67.05-1.71,1-2.28,2.59-2.27a65.53,65.53,0,0,1,7.46,0C138,83.5,139.38,81.79,138.82,78Z"/><path class="cls-11" d="M191.81,150l5.26.88c3.07.53,5.27,0,4.74-3.88,2.75-.33,3.69,1.3,4.4,3.64.79,2.59-1.33,2.61-2.55,3.43-4.91,3.32-4.88,6.16.32,8.89,1.13.59,2.31,1.21,2.32,2.29.07,5.66,4,4.82,7.58,4.77,5.64-.07,11.28,0,16.92,0q0,4.5,0,9c-1.16,2.15-3.08,2.28-5.07,1.67-2.66-.82-3.6.2-3.6,2.79,0,1.93.21,4-1.32,5.55v10c.51,3.67-.69,5.38-4.78,5.08-4.72-.35-9.48-.08-14.22-.08,0-2.31,0-4.62,0-6.92,0-1.33,0-2.76,1.82-2.94a2.5,2.5,0,0,1,3,2c1.08,5,5,2.78,7.57,2.56,2.3-.2,2.11-3.79.78-4-6.8-1.17-3.26-6.29-4.16-9.66,1.42-1.47,3.5-2.28,3.67-4.89.2-3.18-1.87-4.06-4.15-4.43-2.55-.42-1.8,2-2.09,3.26-.39,1.72,0,3.64-1.43,5.06-1.09-2.36-2-4.51-5.52-4.12s-4.92-2-4.48-5.42-1-4.82-4.47-4.5-7-.21-10.57,1.67c-2.74,1.46-5.38-.08-4.9-3.8.36-2.77,0-6,3.6-7.41,1.62-.63,1.31-2.5,1.32-4,0-3.48,0-7,0-10.44-2.17-3.27-1.9-6.63-.38-10a4.55,4.55,0,0,1,5.14-.54c2.12,1.94,1.53,4.54,1.66,7,.27,5.06-.49,10.17.67,16C191.38,155.55,189.46,152,191.81,150Z"/><path class="cls-11" d="M172.81,146c.16,2.16-.86,4.86,2.86,5.2a2,2,0,0,1,1.82,2.91c-1.12,1.88.64,5.67-2.61,5.71-5.15.05-6.21,5.25-10,6.85a1.4,1.4,0,0,0-.48,2.15,1.73,1.73,0,0,0,2.15.76c3.64-1.27,6.15.09,7.7,3.43,1.82,3.92-2,6-3.13,8.9a1.43,1.43,0,0,1-2.5.25c-1.64-2.3-4.78-1.55-6.47-3.36-1.07-1.15-8.17-.22-1.89-4.53.38-.26-4.45-9.21-5.08-9.24-2.88-.15-2.28-2.28-2.39-4,4.87-6.68,6.74-7.24,12.7-3.5.05-4.92,1-9.59.93-14.36,0-2.12-.28-4.36,1.36-6.14h0a7.7,7.7,0,0,1,4.27-2.11c1.84-.23,3.68-.37,5.39.61.54.51.77,1.33.09,1.61C173.47,138.73,173.36,142.45,172.81,146Z"/><path class="cls-52" d="M167.8,137c1,6.85-1.63,13.68-.11,20.54a1.71,1.71,0,0,1-1.33,2.27c-1.28.22-2.7.52-3.37-1.14-1.63-4-3.53-4.27-5.24-.17-1,2.47-3.88.56-4.95,2.49A41.07,41.07,0,0,1,141,160c-1-.28-2-.53-2.06-1.74s-.37-2.71,1.07-2.94c2.34-.37,2.47-2.07,3.24-3.73,1.83-3.88,4.51-6.58,9.5-5.67,2.31.42,3.83-.14,5.61-3C159.95,140.4,162.93,136.12,167.8,137Z"/><path class="cls-53" d="M138.82,122c-10.09,0-10.09,0-10-9.94,0-2.44-.64-5.28,3.36-5.2a1.54,1.54,0,0,0,1.54-1.65c-.11-3.68,2.49-3.08,4.8-3.25,3.76-.29,5.74,1,5.33,5a49.86,49.86,0,0,0,0,5h0c-.95,1.31-.67,2.86-.45,4.19.61,3.73-.65,5.73-4.55,5.81Z"/><path class="cls-54" d="M114.81,153c-1.43,4.29-5.13,2.44-8,3-2.31.49-6.39-1.84-6.61,1.88s3.83,1.82,5.92,2c4.5.36,3.42,3.53,3.68,6.19.31,3.12-1.11,4.16-4.06,3.92-2-.16-4,0-6,0,.49-4-1.43-5.29-5.2-5.07-1.6.09-4,1-4.58-1.54s1.69-2.22,3.23-2.55c.44-.09,1.14-.49,1.15-.77.34-8.37,6.72-4.35,10.58-4.94,2.82-.43,5.43-.11,4.82-4.13a2.91,2.91,0,0,1,4,0A2.07,2.07,0,0,0,114.81,153Z"/><path class="cls-55" d="M177.81,136h-6c-1.85-1.62-.85-4.09-1.89-6.29-1.47,2-.14,4.77-2.12,6.3q-6,1-5-5c-.71-3.44,1.59-4.19,4.17-4.54,1.93-.26,3.89-.32,5.83-.46,3.77-1.71,7.8-.78,11.69-1,3-.15,3.63,2.43,3.72,4.9.08,2.13.31,4.34-1.41,6.07h-5C180.48,137,179.15,137.17,177.81,136Z"/><path class="cls-56" d="M133.81,68c2.15,0,4.3.07,6.45,0a2.83,2.83,0,0,1,3.14,2.53c.31,2-1.35,2.28-2.9,2.5-3.12.44-7-.14-6.69,5a53.85,53.85,0,0,1-6.82-.05c-4.21-.54-7.17.59-8.18,5.05,0-3.95,0-7.9,0-11.85,0-1.42.51-2.66,2.08-2.93s2.41.69,2.79,2.13c1.26,4.78,5.12,2.33,7.75,2.47C134.94,73,133.43,69.81,133.81,68Z"/><path class="cls-57" d="M148.81,102c.83-2.87-3-6.65,0-8.32,3.51-1.94,8.11-.65,12.24-.54,1.53,0,1.69,1.33,1.69,2.56,0,1.39-.63,2.27-2.06,2.24-3-.08-2.95,2-2.89,4.06Z"/><path class="cls-52" d="M177.81,136h4q0,5,0,10h-9C170.95,140.7,172.23,138.13,177.81,136Z"/><path class="cls-58" d="M206.81,184c0-1.33,0-2.65,0-4,0-2.47-.19-6.12,2.66-5.76,1.85.23,7-1.06,6.46,4.5-.33,3.57,0,6.89-5.11,6.23C209.76,183.5,208.2,184.1,206.81,184Z"/><path class="cls-12" d="M113.81,151h-4V141c2.77-.31,4.32.57,4,3.71C113.66,146.75,113.81,148.87,113.81,151Z"/><path class="cls-59" d="M167.8,136c0-2.29,0-4.58.07-6.86a1.82,1.82,0,0,1,2.19-2,1.78,1.78,0,0,1,1.7,2c.05,2.29,0,4.58.06,6.86a6.68,6.68,0,0,1-4,1Q167.81,136.47,167.8,136Z"/><path class="cls-60" d="M121.14,117c1.51-.07,2.52.39,2.64,2.14.16,2.24-1,2.92-3,2.81-1-.06-2.32.55-2-1.48C119,118.86,118.63,117,121.14,117Z"/><path class="cls-61" d="M171.81,30c-3.52.57-8.11-2-10,3.53-.15.42-1.82.44-2.79.45-3.48.05-7-.25-10.43.09-4.45.43-6.57-1-5.82-5.68.49-3.13-1.52-3.58-4-3.38l-.52-.45c-1.39-4.95-6.17-2.34-9-4l-.46-.51c0-2.65-.11-5.3-.12-8,0-3,2.46-4.63,4.3-3.44,2.91,1.88,5.73,1.28,8.58,1.34,7.29.15,14.59,0,21.89.08,1.66,0,3.87-.8,4.35,2-3.43,5.44-.54,8.93,3.61,12.18C173.53,25.8,172.92,27.94,171.81,30Z"/><path class="cls-62" d="M138.81,25c-.8,3.92-3.2,5.14-7.13,5.08-8.86-.14-7.77-1.25-7.87,7.95,0,2,0,4,0,6a6.15,6.15,0,0,1-4.5,1.33c-3.4-.83-6.11,2.34-9.49,1.67.06-3.48.9-7.58-1.18-10.18-3.2-4-3.95-6.68,1-9.42.38-.21.12-1.57.16-2.4,2.08-.11,3.95-.07,4.19,2.79.13,1.5,1.36,2.16,2.86,2.1s1.69-1.09,2-2.32c1.57-7.57,1.6-7.56,10-7.57h0c1.46,2.37,3.34,4,6.38,3.71A4.52,4.52,0,0,1,138.81,25Z"/><path class="cls-52" d="M92.82,83c-3.34.26-1,4-3,5-.72-.45-1-1.32-2-2.22-1.05,2.62-.33,5.2-.68,7.63-.25,1.74.57,4.12-2.28,4.6,0-3.66,0-7.32,0-11,0-1.76.38-4.25-2.4-3.88-2.58.34-5.86-2.08-7.69,2.15-2.32,5.36-7,9-11.41,12.42-1.65,1.3-2.55,2.08-2.5,4,.06,2.66-1.05,6.66.26,7.72,3.71,3,4.5,6.7,5.82,10.79.53,1.65,5.59,1.79,8.79,1.79,1.66,0,4.08-1,4.82,1.29.94,3-3.12,2.28-3.17,2.87-.38,4.29-6.08,3.81-6.55,7.71-.21,1.78-1.39,2.05-2.82,2.06a13.85,13.85,0,0,0-1.5,0c-3.24.37-7.07-1.33-9.63,1-2.73,2.49,1,5.94,0,9,1.46,2,1.14,3.69-1,5-2.19.11-4-.3-5.49,2.67C49,156.32,44.93,156,41.82,156c-1.11-2-4.79.23-5.09-3.57-.42-5.35.09-6.49,5.6-6.36,3.48.08,4.9-1,4.52-4.55a51,51,0,0,1,0-5.49c0-9.72,1.86-12.05,11.49-14,1.53-.31,2.47-.73,2.48-2.43s-.57-2.47-2.28-2.59c-3.18-.23-6.66-1.69-8.3,2.81-.34.94-2.17,1.53-2.46.74-2.2-5.94-7.18-2.78-10.93-3.57v-5A3.4,3.4,0,0,1,39,110.85c4.75.27,7-1.78,6.73-6.65a3.1,3.1,0,0,1,2.11-3.11c3.53-1.17,3.17-3.69,2.45-6.43a25.11,25.11,0,0,1-.83-5.38c-.24-5.88.37-6.81,6.2-7.72,2.67-.41,3.76-1.64,3.68-4.23,0-1.47-.28-3,.5-4.37a14.27,14.27,0,0,0,.63-10.21c-1.13-3.88,0-8.58.87-12.79.34-1.73,2.93-.78,4.5-1,1.4,1.22,1.2,2.92,1.35,4.52s.06,3.4,2.15,3.89a3.71,3.71,0,0,0,4.47-2.06c.45-.83,1-1.76,2.23-1.39,1.08,1.28,1.1,2.83,1.15,4.37-.6,5.08.87,8.66,6.49,9.74,2.49.48,3.63,3.29,6,4.27a3.3,3.3,0,0,1,1,1.13C91.17,76.64,95.85,78.9,92.82,83Z"/><path class="cls-63" d="M59.81,73c1.12,1.8.86,3.82,1,5.79.3,3.3-1.05,4.72-4.28,4.19-5.12-.85-6.49,1.67-5.76,6.19.29,1.79.58,3.58.94,5.35.7,3.46,2.83,7.38-3.58,7.77-2,.12-1.5,2.44-1.31,3.77.68,4.87-1.31,6.7-6.07,6a26.58,26.58,0,0,0-4,0q0-4.5,0-9c1.33-2.27,1.93-3.79.08-6.86-3.09-5.16-1.89-11.52-.71-17.35.37-1.84,2.49-2.12,4.13-2.07,3,.1,5-1.36,6.49-3.71h13Z"/><path class="cls-64" d="M75.81,54c-2,1.11.23,4.78-3.57,5.09-5.44.43-6.41-.11-6.43-5.59,0-1.5,0-3,0-4.49a21.4,21.4,0,0,0,0-3.48c-.65-3.88.76-5.7,4.83-6.07,2.24-.21,5.25.18,5.58-4,.18-2.32,3.77-1.67,3.95,0,.71,6.48,4.62,4.34,8.18,3.63a8.05,8.05,0,0,1,1.49,0V49c-1.27,1.31-2.78,1.24-4.35.77a3.39,3.39,0,0,1-1.57-1.78c-1.62-3.22-1.75-.25-2.38.6a3,3,0,0,1-.92,1C78,49.95,77.08,52.14,75.81,54Z"/><path class="cls-1" d="M317.81,151V141h3c7.79,0,7.62,0,6.14,7.18-.5,2.46-1.62,2.9-3.66,2.83C321.45,150.91,319.63,151,317.81,151Z"/><path class="cls-54" d="M89.81,180c-.18,6.75-5.61,4-9,5-2.56-1.47-4.73-2-5.06,2.05a1.82,1.82,0,0,1-1.9,1.87,2.87,2.87,0,0,1-2.93-1.27c-2.79-4-6.82-3.76-9.32.51a3,3,0,0,1-2.76,1.76,2.66,2.66,0,0,1-2.9-2.18c-.22-.95-.07-2-1.06-2.67,2-1.69,4.57-.54,6.43-.44,4,.22,3.87-4.21,6.78-4.62,4.77-.67,2.19-4.38,2.65-6.74.35-1.77.33-3.32,2.72-3.24s2.05,1.93,2.41,3.54c.5,2.21-1.91,6.36,2.46,6.19s2-4.35,2.38-6.75c.22-1.37-.58-2.89-.77-4.36-.28-2.21.69-3.48,3-3.62s2.91,1,2.87,3c-.06,2.66.15,5.34-.05,8C85.53,179.15,86.82,180.34,89.81,180Z"/><path class="cls-65" d="M65.81,214l-6.92,0c2.21-3.66,3.59-7.76,6.58-11.06,1.15-1.27.12-4.6,3.51-3.88,2.95.63,1.42,3.18,1.83,4.9,1.64,2.26,1.43,4.34-1,5.82C68.11,210.87,67.08,212.5,65.81,214Z"/><path class="cls-66" d="M65.81,214c.12-2.3-.78-4.9,3.21-5.2,2.88-.21,1.4-3.08,1.8-4.79h5a8.51,8.51,0,0,1,0,10h0a3.61,3.61,0,0,1-5,0Z"/><path class="cls-67" d="M75.8,213.94q0-5,0-10c5.62.17,6.54,2.47,4,10Z"/><path class="cls-52" d="M46.82,73c.58,3.87-.9,5.65-4.94,5-3.79-.6-5.55.76-5.13,4.9a94.79,94.79,0,0,1,.07,10c0,1.75.15,3.42,2.19,4,1.85.51,3,1.53,2.66,3.55S39.3,101.66,38,102.1a5,5,0,0,0-1.19.86c-6.39-1.57-12.89-.92-19.35-1-3.69,0-4.47-1.35-2.65-4.58,1.37-2.43,2.18-5,5.45-5.95,1.81-.52,2.41-2.63-.2-3.38-1.9-.55-2.39-1.52-2.16-3.23.3-2.18,2-1.79,3.46-1.88a4.42,4.42,0,0,1,1,0c8.09,1.38,11.23-4.36,14.45-10Z"/><path class="cls-68" d="M230.81,170c.13-2.32-.78-3.46-3.22-4.14-4.44-1.24-8.9-.63-13.34-.89-1.49-.09-3.77.63-3.65-2,.09-1.91,1.87-1.9,3.43-2,6.77-.45,6.9-.48,6.72-7.13-.09-3.42.79-6.9-.8-10.29-1.12-2.4,1.42-2.38,2.49-2.43,5-.2,10-.1,14.94-.09,2.45,0,2.4,1.79,2.41,3.49q0,5.73,0,11.46c.77,8.33,0,16.66,0,25,0,1.5.65,3.71-1.89,3.8s-2-2.11-2.06-3.63a45,45,0,0,1,0-5.94C236.17,171.42,234.81,169.47,230.81,170Z"/><path class="cls-40" d="M220.82,189q0-2.21,0-4.41c0-6.07,0-6.1,5.78-4.77a6,6,0,0,0,4.22-.82c0,2.42.66,5.27-3.36,5.13a1.58,1.58,0,0,0-1.56,1.63C225.61,189,223.25,189,220.82,189Z"/><path class="cls-9" d="M55.81,151a8.23,8.23,0,0,0,1-5c4.45,0,8.91,0,13.36,0,2.69,0,5.79.83,6-3.67.06-1.68,2-1.28,3.29-1.3,3.46-.06,6.93,0,10.39,0,0,2.32,0,4.64,0,7,0,1,.07,2.54-.93,2.59-5.36.27-4.06,4.17-4,7.22,0,2.8-1.42,3.31-3.75,3.24-5.11-.15-10.13-1.62-15.29-1,.06-2.38-.71-5.23,3.32-5.13,1.15,0,1.64-1,1.53-2.09-.15-1.53-1.26-1.75-2.49-1.76Z"/><path class="cls-69" d="M56.81,175c0-2.62,0-5.23.06-7.84a1.82,1.82,0,0,1,2.19-2,1.78,1.78,0,0,1,1.7,2c.05,2.61,0,5.23.06,7.84Z"/><path class="cls-54" d="M99.81,170q1,6-5,5Q93.84,169,99.81,170Z"/><path class="cls-54" d="M94.81,175q1,6-5,5Q88.85,174,94.81,175Z"/><path class="cls-5" d="M109.81,63c.64-4.22-2.12-4.18-5-4-1.59,1.61-3.68,1.18-5.61,1.32-2.69.2-3.15,2-3.06,4.14s.39,4.5,3.67,3.54a40,40,0,0,1,6.78.65c2.79.55,3.51,1.88,3.22,4.35a27.53,27.53,0,0,1-20,0h0c-2.78-5.91-1.61-11.82.07-17.7.51-1.8,2.18-2.46,3.87-2.58A8,8,0,0,0,99.81,49h10c1.66,4.49,6.67,2.78,9.5,5.13a4.16,4.16,0,0,1-.49,4.88q.65,4.65-4,4A5.84,5.84,0,0,1,109.81,63Z"/><path class="cls-70" d="M99.81,49c.56,3.78-.8,5.67-4.87,5-2.87-.47-3.76.81-4.41,3.7-1.15,5.13-.39,10.21-.72,15.29-1.77,0-3.66.33-4.25-2.19-.28-1.21-1.43-1.69-2.67-1.8-6.28-.56-7.66-4.59-7.08-10,4.64-1.85,2.69-7,5-10h0a2.91,2.91,0,0,1,4,0h15Z"/><path class="cls-71" d="M118.82,54a28.22,28.22,0,0,0-3.87,0c-4,.55-5.8-.93-5.14-5q0-1,0-2c2.87-1.39,5.39-3.8,9-3A8.59,8.59,0,0,1,118.82,54Z"/><path class="cls-20" d="M341.81,88c-3.63.5-5.48-.63-5.07-4.74.34-3.39.07-6.84.07-10.26,1.23,2.18,1.92,4.35,4.33,6.15C343.19,80.64,341.59,84.91,341.81,88Z"/><path class="cls-44" d="M356.81,117c-1.67-1.4-.76-3.32-1-5h1Q356.81,114.47,356.81,117Z"/><path class="cls-37" d="M70.82,214l5,0c.67,4.22-2.09,4.2-5,4Q70.82,216,70.82,214Z"/><path class="cls-40" d="M181.81,88c-2.06,0-4.09.18-4.07-2.86,0-2.14-1.63-2.12-3.18-2.13s-2.72.37-2.69,2.13c.05,3-2,2.91-4.06,2.85.15-3.43-.28-6.86.8-10.28.68-2.17.24-4.57-2.77-4.64-3.34-.07-3-2.24-3-4.41-.13-6.52-3.28-9.54-10-9.67-1.73-2.28-1-4,.84-6,2.78-2.9,6.43-5,8.44-8.61.32-1.64,6.87-1.77,1.16-4.86l-.44-.54c-.37-3,.78-4.3,3.89-4,3,.25,6.36-.65,8.81.53,2.82,1.35.71,5.14,1.49,7.76a12.31,12.31,0,0,1,.73,4.84c-.64,4.87,1.36,6.7,6.07,5.9,1.46,1.64.89,3.41.29,5.15-1.07,3.06-1,6.2-.74,9.35a2.8,2.8,0,0,0,2.8,2.91c1.5.1,3,.18,3.84-1.52,1.85-3.64,0-13.28-3.18-15.89,0-2.43-.6-4.94,3.36-5.23,2.54-.19,1.67-2.93,1.57-4.54-.2-3.26,1-4.61,4.28-4.25a19,19,0,0,0,4.47,0c4-.52,6,.85,5.33,5.14s2.21,4,5,3.89a3.78,3.78,0,0,1-.49,5.68c-1.4,1.25-2.13,2.9-3.19,4.34-3.41,1.67-5.37-1.33-8.09-2.84-1.47,4.45-1,8.74-.62,12.91.3,3.41,3.43,2.4,5.56,2.47s4.88.58,5.36-2.84c.23-1.62.08-3.34,1.25-4.71A1.59,1.59,0,0,1,212,64c5.85,2.78,5.92,2.8,7.7-3.05a4,4,0,0,1,4.4-3.2c4.13.22,5.66-1.73,5.45-5.64A3.57,3.57,0,0,1,230.81,49c2,0,4,0,5.94,0,1.13,0,2.7-.14,2.79,1.35.17,2.64,1.36,3.64,3.93,3.93,1.72.2,1.3,2,1.32,3.3.05,3.47,0,6.93,0,10.4-3.83,4.77-8.5,7.48-14.92,6.51-2.19-.33-4.12,1.06-6,2.21s-3.7,2.66-5.89,2.43c-5.28-.55-7.14,3.62-9.42,6.8s-.84,5.31,2.91,5.66c1.16.11,2.32,0,3.48,0,2.91.53,4.58-.82,5.32-3.56a2.89,2.89,0,0,1,1.2-.91,14.39,14.39,0,0,1,8.72.25l.58.58a33.11,33.11,0,0,1,.84,5.32c0,3.54.7,6.68-4,9.3-2.4,1.35-8,3.91-6.89,9.39-2.41,0-4.23.3-5.39-3.25-1.25-3.82-5.81-1.55-8.81-1.54-2.82,0-4.66,2.3-4.77,5.35-.1,2.81,0,5.62,0,8.43a1,1,0,0,1-1.39-.06c-4.64-3.54-5.77-8.56-5.87-14,3-1.26,6.21-2.08,7.66-5.52.35-.81,1.77-1.29,1-2.43-.6-.91-1.75-.78-2.75-.71-2,.14-3.91.83-5.9.89-2.94.09-6,.74-8.3-2-1.77-3.68.16-7.93-1.54-11.62C182.77,85.38,183,87.43,181.81,88Z"/><path class="cls-1" d="M215.81,93a28.18,28.18,0,0,1-3.49,0c-2.27-.29-5.93,1.21-6.12-2.29-.14-2.57-1-6.51,3.15-7.81a1.78,1.78,0,0,0,1.4-1.82c-.1-3.35,2.23-3.16,4.43-3,2.54.14,4.91,0,6.92-1.88,3.59-3.33,8-3.4,12.54-3.16,2.42.13,4.94.62,5.55-3.14.37-2.29,2.85-1.75,4.63-1.83h1c-2,4.89-.55,10-1,15-2.35.07-5.13-.73-5.14,3.26,0,1.79-1.66,1.71-3,1.73-2,0-3.92,0-5.88,0-2.31-5.08-7.73-5-10,0A11.57,11.57,0,0,0,215.81,93Z"/><path class="cls-72" d="M230.81,49a21.41,21.41,0,0,0,0,3c.71,5-.42,8.12-6.42,7.05-2.38-.42-3.62.59-3.68,3.29,0,1.9,1.42,4.94-1.68,5.45-3.26.53-6.52-.29-8.24-3.77-1.25-1.74-2.17-3.73-4-5,.16-2.12-.77-4.51,2.68-5.3,2.27-.53,1-3.06,1.32-4.69h10a8.66,8.66,0,0,1,10,0Z"/><path class="cls-1" d="M254.82,49q0,2.5,0,5h-4c-5.53,0-7.86-3.09-5.88-8.18,1.35-3.48,4.61-1.52,7-1.73C255.84,43.72,254.53,46.91,254.82,49Z"/><path class="cls-3" d="M230.82,49h-10c-.71-4.25,1.35-5.07,5.24-5.14C230.15,43.75,231.32,45.31,230.82,49Z"/><path class="cls-1" d="M254.81,68h-9c1.2-4.9,5.06-5,9-5Z"/><path class="cls-73" d="M194.81,107c1,2.18,2.53,4.14,2.05,6.82-.22,1.26-.14,2.83,1.63,3.08,2.69.37,2.25,2.35,2.31,4.11q.38.33.25.66t-.26.33a28.54,28.54,0,0,1-3.87,0c-3.95-.54-5.8.92-5.12,5a18.73,18.73,0,0,1,0,16q0,3.5,0,7c0,2.49,0,5,0,7.47,0,1.6-.37,3.17-2.26,3.29-2.23.15-2.69-1.54-2.7-3.34,0-7.14,0-14.28,0-21.42q0-1.24,0-2.48c0-7.11,0-7-7.19-6.61-2.25.12-4.54-.58-6.81-.9-.3-1.78-.64-3.55-.87-5.34-.15-1.13-.5-2.72.7-3.17,8.14-3.07,5.11-10.11,4.73-15.34-.33-4.44.67-5.37,4.44-5.15,1.54,1.39,1.13,3.29,1.33,5s.26,3.43,2.72,3.07C189.7,101.7,192.08,105.17,194.81,107Z"/><path class="cls-74" d="M200.81,122q0-.5,0-1h1c3.53-.57,8,1.93,10.09-3.54.4-1,3.67-1,3.83,1.8.18,3.15.05,6.32,0,9.49a2,2,0,0,1-2.16,2.19c-3.16,0-6.33,0-9.49,0-2.12,0-2.17-1.54-2.35-3.1C201.54,125.86,201.13,123.91,200.81,122Z"/><path class="cls-11" d="M191.82,143V127c3.84-.12,5.46,1.75,5,5.54C196.33,136.56,198.85,142,191.82,143Z"/><path class="cls-75" d="M84.81,98c2-3.22.49-6.79,1-10.15.27-1.72-1.13-4.7,2.06-4.6s1.44,3.06,1.92,4.75c.38,1.87-1.12,5.08,2.42,4.83,2.61-.18,6.69,2.43,7.59-2.7A2.24,2.24,0,0,1,102.6,88c2,.23,4.39-1,6,1.17,2.32,3.11.39,6.39-1.94,9.13s-6.9,2.78-7.09,7.26c0,1.2-1.29,1.35-2.32,1.37s-2.33,0-3.5,0C84.81,107,84.81,107,84.81,98Z"/><path class="cls-28" d="M89.81,73h20c2.57.68,6.16.54,4,5h0c-1.92,1.2-2.73,3.29-4,5h-17c-.18-2,.64-4.16-2.12-5.43C89.06,76.77,90,74.54,89.81,73Z"/><path class="cls-56" d="M118.82,54q0-5,0-10h5c0,2.65-.06,5.3,0,8,.1,3.44,1.41,5.16,4.95,3.08s5.16-1.08,5,3c-.09,3.31,0,6.63,0,9.94-2.63-.27-3.76-2.34-5.13-4.18-2.44-3.27-5.33-5.76-9.86-4.82Z"/><path class="cls-56" d="M99.81,68c-.18,1,.38,2.72-1.36,2.55a3.89,3.89,0,0,1-3.56-2.91C93.14,61.51,95,59,101.38,59h3.44c0,1.52,0,3.44-1.76,3.64C99.36,63,99.73,65.49,99.81,68Z"/><path class="cls-56" d="M109.8,83c-.16-2.87-.21-5.65,4-5C114,80.85,114,83.61,109.8,83Z"/><path class="cls-56" d="M113.81,78c1-3.5-2.06-3.82-4-5C113.31,72.9,116.74,72.89,113.81,78Z"/><path class="cls-56" d="M109.81,63h5A3.37,3.37,0,0,1,109.81,63Z"/><path class="cls-76" d="M162.82,44c-.05,2.39-.29,3.75-3.05,5.52S152,53.59,152.81,59c-2.21.09-4.22-.44-5.46,2.73-1,2.63-4.45,1.23-6.75,1.08s-1.7-2.43-1.76-4c-.09-2.31,0-4.63,0-7,0-1.18-.05-2.64-1.53-2.7-5.11-.22-3.22-4-3.39-6.59-.24-3.53,2.93-2.59,4.69-2.92,8-1.51,16.16-.32,24.24-.68h0A3.64,3.64,0,0,1,162.82,44Z"/><path class="cls-77" d="M186.81,54c3.78-.55,5.51.8,5.06,4.87a87.08,87.08,0,0,0-.07,8.92c0,4.67-4.29,7.1-8.64,5-1.36-.65-1.39-1.78-1.32-2.9.28-4.35-1.12-8.91,1.73-13,.48-.69.18-1.93.24-2.92Z"/><path class="cls-2" d="M153.81,88c-3.26-.29-7,1.23-9.68-.74-3.31-2.45.81-6.14-.32-9.25.36-1.64-1-3.86,1.41-4.8,1.38-.55,2.49.36,3.55,1.25,1.71,1.43,1.88,2.61.42,4.53a2.88,2.88,0,0,0,1.12,4.28C152.13,84.31,153,86.15,153.81,88Z"/><path class="cls-78" d="M186.81,107c-4.14.69-5.54-1.21-5-5.15a38.2,38.2,0,0,0,0-4.85q0-4.5,0-9c0-.82,0-1.64,0-2.46,0-1.91,1-2.6,2.79-2.49s2.18,1.15,2.18,2.63q0,5.66,0,11.32C189.25,100.3,187.66,103.63,186.81,107Z"/><path class="cls-79" d="M156,122.28c-3-1.23-8,1.72-7.79-3.23.19-4.08,4.91-1.91,7.42-1.88,2.35,0,7.06-2.54,6.89,2.53C162.39,124.33,157.79,120.48,156,122.28Z"/><path class="cls-2" d="M138.82,122c3.16-1,4.62-3,4-6.4-.21-1.24-.29-2.65,1-3.6a38.08,38.08,0,0,0,0,4.85C144.36,120.75,143,122.65,138.82,122Z"/><path class="cls-3" d="M138.81,25A37.91,37.91,0,0,0,134,25c-3.95.51-5.83-.9-5.15-5a37.9,37.9,0,0,0,4.85,0C137.61,19.42,139.49,20.83,138.81,25Z"/><path class="cls-5" d="M80.82,49c0,1.63-.13,3.27,0,4.89.36,3.77-1.14,5.58-5,5.11V54Q74.85,48,80.82,49Z"/><path class="cls-5" d="M84.81,49h-4c0-.81,0-1.62,0-2.43,0-1.48.46-2.58,2.23-2.45,1.53.12,1.7,1.25,1.74,2.44C84.82,47.34,84.81,48.15,84.81,49Z"/><path class="cls-80" d="M206.82,59c4.22-.64,4.17,2.13,4,5,0,9-2.72,11.08-11.79,9-1.32-.31-2.14-.83-2.15-2.2,0-4.79,0-9.58,0-14.37,0-1.05.3-2,1.48-2.24s2.88-.48,3,.79C201.77,58.46,204.93,57.74,206.82,59Z"/><path class="cls-14" d="M186.81,107q0-5,0-10c4.38,2.21,8.76.54,13.13,0,2.1-.28,4.55-1.11,5.64,1.42s-2.38,3.12-2.64,4.06c-1.29,4.69-4.38,4.94-8.13,4.55-1.28-.12-2.88.46-3.71-.84C188.83,102.54,188,105.42,186.81,107Z"/><path class="cls-3" d="M180.14,60.66c-.6,1.34-2.49,1.7-2.36,3.59s.25,4.47-2.51,4.52c-2.37,0-5.19-.1-6.81-2.11-1.38-1.71-.92-4.2-.42-6.24.62-2.55,3.7-.68,5-2.29,1.82-2.24,3.07-1.73,4.36.64C177.88,59.63,179.2,60,180.14,60.66Z"/><path class="cls-42" d="M220.81,88c-.71-4.25,1.35-5.08,5.24-5.14,4.09-.07,5.26,1.49,4.76,5.14Z"/><path class="cls-42" d="M215.81,93q-1-6,5-5Q221.79,93.94,215.81,93Z"/><path class="cls-3" d="M162.82,44q0-2.5,0-5c2.1.07,4.8-.39,4.84,2.69C167.69,45.24,164.6,43.51,162.82,44Z"/><path class="cls-81" d="M376.69,102h.12c-.06,0-1-6-2-9v0h-.23c-1.31-3-2.67-6.65-4-10a28.66,28.66,0,0,0-4.78-8.13h0c-1-2.35-2-4.88-3.92-5.88h0c-1-3-3.05-5-5.17-6.94a9.14,9.14,0,0,0-2.92-3.09h0a14.9,14.9,0,0,0-4.89-5c-8.86-9.74-19.11-16.94-31.11-23h0a116.89,116.89,0,0,0-22-10.76C268.16,7.81,239,3,209,2h0c-.93,0-1.86-.78-2.79-.81C196.07.84,186,.58,175.87.2a314.42,314.42,0,0,0-46.13,2C118,3.47,106.14,5,94.81,8.94a7.85,7.85,0,0,0-5,1.09c-6.6,1.19-12.79,3.72-19,6.16C63.85,18.91,56.76,21,50.62,26h0c-2.56,1-4.8,1.85-6.8,4v0a36.67,36.67,0,0,0-10,6.93h0A80,80,0,0,0,10,64C7.4,68.4,4.9,73,3.9,78h0c-1.72,5-3.3,9.75-3,15a28.12,28.12,0,0,0,.07,14h0a47.16,47.16,0,0,0,4.92,18h0c1.77,6,5.17,11.14,8.92,16.06,5,6.71,9.89,13.46,17,18.18h0c1.82,2.55,4.47,4.1,7,5.83,2.27,2.54,5.29,4.05,8.1,5.86h0c1.27.83,2.24,2.17,3.94,2.26h0A7.2,7.2,0,0,1,54,180.3c-.19,1.76-.49,3.71.53,5.4a1.13,1.13,0,0,0,.24.39,113.52,113.52,0,0,0,4,29h0l.24,2c.38,2.05.52,4.18,1.73,6h0a36,36,0,0,0,3.09,10h0a32.45,32.45,0,0,0,4,10h0A13,13,0,0,0,70.77,249h0l1.34,2.92h0c1.91,3.53,3.6,7.2,6.51,10.09.48,2.58,2.75,4,4,6.06a3.5,3.5,0,0,0,4.67,1.56,3.89,3.89,0,0,0,2.37-4.4c-.29-2.76-.61-5.51-.91-8.27q0-2.51,0-5h0c.36-4,.64-7.95,1-11.92h0c1.41-1.76,1-3.91,1-5.87v0c3-6.71,4.85-13.17,7.2-20.17h0c2.21-3,4.52-6.82,6.61-10.35,2.36-4,5.05-6.9,10.2-4.69A154.25,154.25,0,0,0,147.66,204c10,1.38,20.1,1.56,30.18,1.78l19,.13,5,0h29v0l9-.08h1a416.86,416.86,0,0,0,43.28-2.12c9-1,18.14-1.57,26.79-4.72a38.14,38.14,0,0,0,3.9-.58c10.63-2.66,20.75-6.52,30-12.58,6.56-4,12.47-8.64,17-14.91h0c3.24-1.82,3.93-5.52,6-8.17,3.77-5,5.37-10.91,7-16.8.92-5,3.46-9.72,3-15l.12-2.93C379.94,119.22,378.57,111,376.69,102ZM191.82,127v0l0,0Zm-81.93,24.66c-.08-.21-.17-.43-.27-.66h.2C109.85,151.2,109.87,151.42,109.89,151.62ZM118.81,122l.19-.18,0,0a2.06,2.06,0,0,1-.22.21Zm34.27,38.61-.09.12h0ZM171.81,30l.19-.37.12.38Zm49,159h.11l-.11.08Zm34-120.84V68h.32Zm-44-60.33a8.51,8.51,0,0,0,.27,1A3.31,3.31,0,0,1,210.84,7.79ZM210.77,6v0l0,0Z"/></g></g></svg>