<?xml version="1.0" encoding="iso-8859-1"?>
<!-- Generator: Adobe Illustrator 19.0.0, SVG Export Plug-In . SVG Version: 6.00 Build 0)  -->
<svg version="1.1" id="Layer_1" xmlns="http://www.w3.org/2000/svg" xmlns:xlink="http://www.w3.org/1999/xlink" x="0px" y="0px"
	 viewBox="0 0 512 512" style="enable-background:new 0 0 512 512;" xml:space="preserve">
<rect x="123.586" y="353.103" style="fill:#00BE94;" width="52.966" height="141.241"/>
<g>
	<rect x="123.586" y="353.103" style="fill:#00A68B;" width="17.655" height="141.241"/>
	<polygon style="fill:#00A68B;" points="150.069,229.517 114.759,361.931 185.379,361.931 	"/>
</g>
<polygon style="fill:#008C72;" points="150.069,229.517 114.759,361.931 141.241,361.931 "/>
<path style="fill:#00A68B;" d="M189.793,211.862c-17.587,0-22.759,8.828-39.724,8.828v17.655c16.966,0,22.138-8.828,39.724-8.828
	c5.601,0,9.982,1.643,13.241,3.502l-6.207-10.951l6.207-6.705C199.775,213.505,195.394,211.862,189.793,211.862z"/>
<path style="fill:#292934;" d="M158.897,406.069h-17.655v-17.655c0-4.875,3.953-8.828,8.828-8.828l0,0
	c4.875,0,8.828,3.953,8.828,8.828V406.069z"/>
<rect x="335.448" y="353.103" style="fill:#82BE00;" width="52.966" height="141.241"/>
<g>
	<rect x="335.448" y="353.103" style="fill:#68A600;" width="17.655" height="141.241"/>
	<polygon style="fill:#68A600;" points="361.931,229.517 326.621,361.931 397.241,361.931 	"/>
</g>
<polygon style="fill:#447E00;" points="361.931,229.517 326.621,361.931 353.103,361.931 "/>
<path style="fill:#68A600;" d="M401.655,211.862c-17.587,0-22.759,8.828-39.724,8.828v17.655c16.966,0,22.138-8.828,39.724-8.828
	c5.601,0,9.982,1.643,13.241,3.502l-6.207-10.951l6.207-6.705C411.637,213.505,407.256,211.862,401.655,211.862z"/>
<g>
	<path style="fill:#292934;" d="M370.759,406.069h-17.655v-17.655c0-4.875,3.953-8.828,8.828-8.828l0,0
		c4.875,0,8.828,3.953,8.828,8.828V406.069z"/>
	<path style="fill:#292934;" d="M158.897,450.207h-17.655v-17.655c0-4.875,3.953-8.828,8.828-8.828l0,0
		c4.875,0,8.828,3.953,8.828,8.828V450.207z"/>
</g>
<rect x="229.517" y="141.241" style="fill:#FF5A4E;" width="52.966" height="370.759"/>
<g>
	<rect x="229.517" y="141.241" style="fill:#EB443F;" width="17.655" height="370.759"/>
	<polygon style="fill:#EB443F;" points="256,17.655 220.69,150.069 291.31,150.069 	"/>
</g>
<polygon style="fill:#C4342E;" points="256,17.655 220.69,150.069 247.172,150.069 "/>
<path style="fill:#FF5A4E;" d="M295.724,0C278.137,0,272.966,8.828,256,8.828v17.655c16.966,0,22.138-8.828,39.724-8.828
	c5.601,0,9.982,1.643,13.241,3.502l-6.207-10.951l6.207-6.705C305.706,1.643,301.325,0,295.724,0z"/>
<rect x="176.552" y="203.034" style="fill:#6C91E8;" width="52.966" height="308.966"/>
<g>
	<path style="fill:#292934;" d="M211.862,256h-17.655v-17.655c0-4.875,3.953-8.828,8.828-8.828l0,0c4.875,0,8.828,3.953,8.828,8.828
		V256z"/>
	<path style="fill:#292934;" d="M211.862,300.138h-17.655v-17.655c0-4.875,3.953-8.828,8.828-8.828l0,0
		c4.875,0,8.828,3.953,8.828,8.828V300.138z"/>
</g>
<g>
	<rect x="176.552" y="203.034" style="fill:#606ED5;" width="17.655" height="308.966"/>
	<polygon style="fill:#606ED5;" points="203.034,79.448 167.724,211.862 238.345,211.862 	"/>
</g>
<polygon style="fill:#4A5AB7;" points="203.034,79.448 167.724,211.862 194.207,211.862 "/>
<path style="fill:#6C91E8;" d="M242.759,61.793c-17.587,0-22.759,8.828-39.724,8.828v17.655c16.966,0,22.138-8.828,39.724-8.828
	c5.601,0,9.982,1.643,13.241,3.502L249.793,72L256,65.295C252.74,63.436,248.36,61.793,242.759,61.793z"/>
<rect x="282.483" y="264.828" style="fill:#FFC83C;" width="52.966" height="247.172"/>
<g>
	<rect x="282.483" y="264.828" style="fill:#FFB432;" width="17.655" height="247.172"/>
	<polygon style="fill:#FFB432;" points="308.966,141.241 273.655,273.655 344.276,273.655 	"/>
</g>
<polygon style="fill:#FF9637;" points="308.966,141.241 273.655,273.655 300.138,273.655 "/>
<path style="fill:#FFB432;" d="M348.69,123.586c-17.587,0-22.759,8.828-39.724,8.828v17.655c16.966,0,22.138-8.828,39.724-8.828
	c5.601,0,9.982,1.643,13.241,3.502l-6.207-10.951l6.207-6.705C358.671,125.229,354.291,123.586,348.69,123.586z"/>
<rect x="105.931" y="450.207" style="fill:#EBD798;" width="300.138" height="61.793"/>
<rect x="203.034" y="388.414" style="fill:#CBB076;" width="105.931" height="114.759"/>
<polygon style="fill:#00BE94;" points="123.586,459.034 105.931,476.69 88.276,459.034 88.276,432.552 123.586,432.552 "/>
<polygon style="fill:#00A68B;" points="88.276,432.552 88.276,459.034 97.103,467.862 97.103,432.552 "/>
<polygon style="fill:#82BE00;" points="423.724,459.034 406.069,476.69 388.414,459.034 388.414,432.552 423.724,432.552 "/>
<polygon style="fill:#68A600;" points="388.414,432.552 388.414,459.034 397.241,467.862 397.241,432.552 "/>
<polygon style="fill:#FF5A4E;" points="326.621,397.241 308.966,414.897 291.31,397.241 291.31,370.759 326.621,370.759 "/>
<polygon style="fill:#EB443F;" points="291.31,370.759 291.31,397.241 300.138,406.069 300.138,370.759 "/>
<polygon style="fill:#FFC83C;" points="220.69,397.241 203.034,414.897 185.379,397.241 185.379,370.759 220.69,370.759 "/>
<polygon style="fill:#FFB432;" points="185.379,370.759 185.379,397.241 194.207,406.069 194.207,370.759 "/>
<rect x="105.931" y="494.345" style="fill:#CBB076;" width="300.138" height="17.655"/>
<path style="fill:#EB443F;" d="M256,432.552L256,432.552c-19.501,0-35.31,15.809-35.31,35.31V512h70.621v-44.138
	C291.31,448.361,275.501,432.552,256,432.552z"/>
<g>
	<path style="fill:#292934;" d="M264.828,194.207h-17.655v-17.655c0-4.875,3.953-8.828,8.828-8.828l0,0
		c4.875,0,8.828,3.953,8.828,8.828V194.207z"/>
	<path style="fill:#292934;" d="M264.828,238.345h-17.655V220.69c0-4.875,3.953-8.828,8.828-8.828l0,0
		c4.875,0,8.828,3.953,8.828,8.828V238.345z"/>
	<path style="fill:#292934;" d="M264.828,344.276h-17.655v-17.655c0-4.875,3.953-8.828,8.828-8.828l0,0
		c4.875,0,8.828,3.953,8.828,8.828V344.276z"/>
	<path style="fill:#292934;" d="M317.793,317.793h-17.655v-17.655c0-4.875,3.953-8.828,8.828-8.828l0,0
		c4.875,0,8.828,3.953,8.828,8.828V317.793z"/>
	<path style="fill:#292934;" d="M317.793,361.931h-17.655v-17.655c0-4.875,3.953-8.828,8.828-8.828l0,0
		c4.875,0,8.828,3.953,8.828,8.828V361.931z"/>
	<path style="fill:#292934;" d="M203.034,512h-17.655l0,0c0-4.875,3.953-8.828,8.828-8.828l0,0
		C199.082,503.172,203.034,507.125,203.034,512L203.034,512z"/>
	<path style="fill:#292934;" d="M326.621,512h-17.655l0,0c0-4.875,3.953-8.828,8.828-8.828l0,0
		C322.668,503.172,326.621,507.125,326.621,512L326.621,512z"/>
	<path style="fill:#292934;" d="M353.103,512h-17.655l0,0c0-4.875,3.953-8.828,8.828-8.828l0,0
		C349.151,503.172,353.103,507.125,353.103,512L353.103,512z"/>
	<path style="fill:#292934;" d="M379.586,512h-17.655l0,0c0-4.875,3.953-8.828,8.828-8.828l0,0
		C375.634,503.172,379.586,507.125,379.586,512L379.586,512z"/>
	<path style="fill:#292934;" d="M176.552,512h-17.655l0,0c0-4.875,3.953-8.828,8.828-8.828l0,0
		C172.599,503.172,176.552,507.125,176.552,512L176.552,512z"/>
	<path style="fill:#292934;" d="M150.069,512h-17.655l0,0c0-4.875,3.953-8.828,8.828-8.828l0,0
		C146.116,503.172,150.069,507.125,150.069,512L150.069,512z"/>
</g>
<g>
</g>
<g>
</g>
<g>
</g>
<g>
</g>
<g>
</g>
<g>
</g>
<g>
</g>
<g>
</g>
<g>
</g>
<g>
</g>
<g>
</g>
<g>
</g>
<g>
</g>
<g>
</g>
<g>
</g>
</svg>
