<?xml version="1.0" encoding="utf-8"?>
<!-- Generator: Adobe Illustrator 21.1.0, SVG Export Plug-In . SVG Version: 6.00 Build 0)  -->
<svg version="1.1" id="Layer_1" xmlns="http://www.w3.org/2000/svg" xmlns:xlink="http://www.w3.org/1999/xlink" x="0px" y="0px"
	 viewBox="0 0 512 512" style="enable-background:new 0 0 512 512;" xml:space="preserve">
<style type="text/css">
	.st0{fill:#00BE94;}
	.st1{fill:#00A68B;}
	.st2{fill:#008C72;}
	.st3{fill:#292934;}
	.st4{fill:#82BE00;}
	.st5{fill:#68A600;}
	.st6{fill:#447E00;}
	.st7{fill:#FF5A4E;}
	.st8{fill:#EB443F;}
	.st9{fill:#C4342E;}
	.st10{fill:#6C91E8;}
	.st11{fill:#606ED5;}
	.st12{fill:#4A5AB7;}
	.st13{fill:#FFC83C;}
	.st14{fill:#FFB432;}
	.st15{fill:#FF9637;}
	.st16{fill:#EBD798;}
	.st17{fill:#CBB076;}
</style>
<rect x="123.6" y="353.1" class="st0" width="53" height="141.2"/>
<g>
	<rect x="123.6" y="353.1" class="st1" width="17.7" height="141.2"/>
	<polygon class="st1" points="150.1,229.5 114.8,361.9 185.4,361.9 	"/>
</g>
<polygon class="st2" points="150.1,229.5 114.8,361.9 141.2,361.9 "/>
<path class="st3" d="M158.9,406.1h-17.7v-17.7c0-4.9,4-8.8,8.8-8.8l0,0c4.9,0,8.8,4,8.8,8.8L158.9,406.1L158.9,406.1z"/>
<rect x="335.4" y="353.1" class="st4" width="53" height="141.2"/>
<g>
	<rect x="335.4" y="353.1" class="st5" width="17.7" height="141.2"/>
	<polygon class="st5" points="361.9,229.5 326.6,361.9 397.2,361.9 	"/>
</g>
<polygon class="st6" points="361.9,229.5 326.6,361.9 353.1,361.9 "/>
<g>
	<path class="st3" d="M370.8,406.1h-17.7v-17.7c0-4.9,4-8.8,8.8-8.8l0,0c4.9,0,8.8,4,8.8,8.8L370.8,406.1L370.8,406.1z"/>
	<path class="st3" d="M158.9,450.2h-17.7v-17.7c0-4.9,4-8.8,8.8-8.8l0,0c4.9,0,8.8,4,8.8,8.8L158.9,450.2L158.9,450.2z"/>
</g>
<rect x="229.5" y="141.2" class="st7" width="53" height="370.8"/>
<g>
	<rect x="229.5" y="141.2" class="st8" width="17.7" height="370.8"/>
	<polygon class="st8" points="256,17.7 220.7,150.1 291.3,150.1 	"/>
</g>
<polygon class="st9" points="256,17.7 220.7,150.1 247.2,150.1 "/>
<rect x="176.6" y="203" class="st10" width="53" height="309"/>
<g>
	<path class="st3" d="M211.9,256h-17.7v-17.7c0-4.9,4-8.8,8.8-8.8l0,0c4.9,0,8.8,4,8.8,8.8L211.9,256L211.9,256z"/>
	<path class="st3" d="M211.9,300.1h-17.7v-17.7c0-4.9,4-8.8,8.8-8.8l0,0c4.9,0,8.8,4,8.8,8.8L211.9,300.1L211.9,300.1z"/>
</g>
<g>
	<rect x="176.6" y="203" class="st11" width="17.7" height="309"/>
	<polygon class="st11" points="203,79.4 167.7,211.9 238.3,211.9 	"/>
</g>
<polygon class="st12" points="203,79.4 167.7,211.9 194.2,211.9 "/>
<rect x="282.5" y="264.8" class="st13" width="53" height="247.2"/>
<g>
	<rect x="282.5" y="264.8" class="st14" width="17.7" height="247.2"/>
	<polygon class="st14" points="309,141.2 273.7,273.7 344.3,273.7 	"/>
</g>
<polygon class="st15" points="309,141.2 273.7,273.7 300.1,273.7 "/>
<rect x="105.9" y="450.2" class="st16" width="300.1" height="61.8"/>
<rect x="203" y="388.4" class="st17" width="105.9" height="114.8"/>
<polygon class="st0" points="123.6,459 105.9,476.7 88.3,459 88.3,432.6 123.6,432.6 "/>
<polygon class="st1" points="88.3,432.6 88.3,459 97.1,467.9 97.1,432.6 "/>
<polygon class="st4" points="423.7,459 406.1,476.7 388.4,459 388.4,432.6 423.7,432.6 "/>
<polygon class="st5" points="388.4,432.6 388.4,459 397.2,467.9 397.2,432.6 "/>
<polygon class="st7" points="326.6,397.2 309,414.9 291.3,397.2 291.3,370.8 326.6,370.8 "/>
<polygon class="st8" points="291.3,370.8 291.3,397.2 300.1,406.1 300.1,370.8 "/>
<polygon class="st13" points="220.7,397.2 203,414.9 185.4,397.2 185.4,370.8 220.7,370.8 "/>
<polygon class="st14" points="185.4,370.8 185.4,397.2 194.2,406.1 194.2,370.8 "/>
<rect x="105.9" y="494.3" class="st17" width="300.1" height="17.7"/>
<path class="st8" d="M256,432.6L256,432.6c-19.5,0-35.3,15.8-35.3,35.3V512h70.6v-44.1C291.3,448.4,275.5,432.6,256,432.6z"/>
<g>
	<path class="st3" d="M264.8,194.2h-17.7v-17.7c0-4.9,4-8.8,8.8-8.8l0,0c4.9,0,8.8,4,8.8,8.8L264.8,194.2L264.8,194.2z"/>
	<path class="st3" d="M264.8,238.3h-17.7v-17.7c0-4.9,4-8.8,8.8-8.8l0,0c4.9,0,8.8,4,8.8,8.8L264.8,238.3L264.8,238.3z"/>
	<path class="st3" d="M264.8,344.3h-17.7v-17.7c0-4.9,4-8.8,8.8-8.8l0,0c4.9,0,8.8,4,8.8,8.8L264.8,344.3L264.8,344.3z"/>
	<path class="st3" d="M317.8,317.8h-17.7v-17.7c0-4.9,4-8.8,8.8-8.8l0,0c4.9,0,8.8,4,8.8,8.8L317.8,317.8L317.8,317.8z"/>
	<path class="st3" d="M317.8,361.9h-17.7v-17.7c0-4.9,4-8.8,8.8-8.8l0,0c4.9,0,8.8,4,8.8,8.8L317.8,361.9L317.8,361.9z"/>
	<path class="st3" d="M203,512h-17.7l0,0c0-4.9,4-8.8,8.8-8.8l0,0C199.1,503.2,203,507.1,203,512L203,512z"/>
	<path class="st3" d="M326.6,512H309l0,0c0-4.9,4-8.8,8.8-8.8l0,0C322.7,503.2,326.6,507.1,326.6,512L326.6,512z"/>
	<path class="st3" d="M353.1,512h-17.7l0,0c0-4.9,4-8.8,8.8-8.8l0,0C349.2,503.2,353.1,507.1,353.1,512L353.1,512z"/>
	<path class="st3" d="M379.6,512h-17.7l0,0c0-4.9,4-8.8,8.8-8.8l0,0C375.6,503.2,379.6,507.1,379.6,512L379.6,512z"/>
	<path class="st3" d="M176.6,512h-17.7l0,0c0-4.9,4-8.8,8.8-8.8l0,0C172.6,503.2,176.6,507.1,176.6,512L176.6,512z"/>
	<path class="st3" d="M150.1,512h-17.7l0,0c0-4.9,4-8.8,8.8-8.8l0,0C146.1,503.2,150.1,507.1,150.1,512L150.1,512z"/>
</g>
</svg>
